<?xml version="1.0" encoding="iso-8859-1"?>
<!-- Generator: Adobe Illustrator 17.1.0, SVG Export Plug-In . SVG Version: 6.00 Build 0)  -->
<!DOCTYPE svg PUBLIC "-//W3C//DTD SVG 1.0//EN" "http://www.w3.org/TR/2001/REC-SVG-20010904/DTD/svg10.dtd">
<svg version="1.0" xmlns="http://www.w3.org/2000/svg" xmlns:xlink="http://www.w3.org/1999/xlink" x="0px" y="0px" width="110px"
	 height="110px" viewBox="0 0 110 110" style="enable-background:new 0 0 110 110;" xml:space="preserve">
<g id="Artboard" style="display:none;">
	<rect x="-579" y="-50" style="display:inline;fill:#808080;" width="1376" height="359"/>
</g>
<g id="R-Multicolor" style="display:none;">
	<circle style="display:inline;fill:#E04F5F;" cx="55" cy="55" r="55"/>
	<g style="display:inline;">
		<path style="fill:#FFFFFF;" d="M73,81c0,3.314-2.686,6-6,6H43c-3.314,0-6-2.686-6-6V29c0-3.314,2.686-6,6-6h24
			c3.314,0,6,2.686,6,6V81z"/>
		<polygon style="fill:#4AC3AF;" points="39,35 39,65.872 55.171,35 		"/>
		<polygon style="fill:#21B2D1;" points="39,74.491 39,75 68.24,75 47.208,58.822 		"/>
		<polygon style="fill:#FBE158;" points="59.686,35 48.621,56.124 71,73.338 71,35 		"/>
		<circle style="fill:#B6BCBD;" cx="48" cy="30" r="1"/>
		<path style="fill:#B6BCBD;" d="M63,30c0,0.552-0.448,1-1,1H52c-0.552,0-1-0.448-1-1s0.448-1,1-1h10C62.552,29,63,29.448,63,30z"/>
		<circle style="fill:#CFD3D4;" cx="55" cy="81" r="4"/>
		<rect x="53" y="79" style="fill:#FFFFFF;" width="4" height="4"/>
		<polygon style="fill:#F0F1F1;" points="48.621,56.124 59.686,35 55.171,35 39,65.872 39,74.491 47.208,58.822 68.24,75 71,75 
			71,73.338 		"/>
		<path style="fill:#DF2C2C;" d="M68,46.5c0,3.59-6.5,15.6-6.5,15.6S55,50.09,55,46.5s2.91-6.5,6.5-6.5S68,42.91,68,46.5z"/>
		<circle style="fill:#FFFFFF;" cx="61.5" cy="46.5" r="2.9"/>
	</g>
</g>
<g id="Multicolor">
	<g>
		<path style="fill:#FFFFFF;" d="M73,81c0,3.314-2.686,6-6,6H43c-3.314,0-6-2.686-6-6V29c0-3.314,2.686-6,6-6h24
			c3.314,0,6,2.686,6,6V81z"/>
		<polygon style="fill:#4AC3AF;" points="39,35 39,65.872 55.171,35 		"/>
		<polygon style="fill:#21B2D1;" points="39,74.491 39,75 68.24,75 47.208,58.822 		"/>
		<polygon style="fill:#FBE158;" points="59.686,35 48.621,56.124 71,73.338 71,35 		"/>
		<circle style="fill:#B6BCBD;" cx="48" cy="30" r="1"/>
		<path style="fill:#B6BCBD;" d="M63,30c0,0.552-0.448,1-1,1H52c-0.552,0-1-0.448-1-1s0.448-1,1-1h10C62.552,29,63,29.448,63,30z"/>
		<circle style="fill:#CFD3D4;" cx="55" cy="81" r="4"/>
		<rect x="53" y="79" style="fill:#FFFFFF;" width="4" height="4"/>
		<polygon style="fill:#F0F1F1;" points="48.621,56.124 59.686,35 55.171,35 39,65.872 39,74.491 47.208,58.822 68.24,75 71,75 
			71,73.338 		"/>
		<path style="fill:#DF2C2C;" d="M68,46.5c0,3.59-6.5,15.6-6.5,15.6S55,50.09,55,46.5s2.91-6.5,6.5-6.5S68,42.91,68,46.5z"/>
		<circle style="fill:#FFFFFF;" cx="61.5" cy="46.5" r="2.9"/>
	</g>
</g>
<g id="Blue" style="display:none;">
	<g style="display:inline;">
		<g>
			<path style="fill:#FFFFFF;" d="M73,81c0,3.314-2.687,6-6,6H43c-3.314,0-6-2.686-6-6V29c0-3.313,2.686-6,6-6h24
				c3.313,0,6,2.687,6,6V81z"/>
		</g>
		<g>
			<polygon style="fill:#33899E;" points="39,35 39,65.872 55.171,35 			"/>
		</g>
		<g>
			<polygon style="fill:#00B7E5;" points="39,74.491 39,75 68.24,75 47.208,58.821 			"/>
		</g>
		<g>
			<polygon style="fill:#0081A1;" points="59.685,35 48.621,56.124 71,73.338 71,35 			"/>
		</g>
		<g>
			<circle style="fill:#BBE7F2;" cx="48" cy="30" r="1"/>
		</g>
		<g>
			<path style="fill:#BBE7F2;" d="M63,30c0,0.553-0.448,1-1,1H52c-0.552,0-1-0.447-1-1c0-0.552,0.448-1,1-1h10
				C62.552,29,63,29.448,63,30z"/>
		</g>
		<g>
			<circle style="fill:#BBE7F2;" cx="55" cy="81" r="4"/>
		</g>
		<g>
			<rect x="53" y="79" style="fill:#FFFFFF;" width="4" height="4"/>
		</g>
		<g>
			<polygon style="fill:#BBE7F2;" points="48.621,56.124 59.685,35 55.171,35 39,65.872 39,74.491 47.208,58.821 68.24,75 71,75 
				71,73.338 			"/>
		</g>
		<g>
			<path style="fill:#FFFFFF;" d="M68,46.5c0,3.59-6.5,15.6-6.5,15.6S55,50.09,55,46.5c0-3.59,2.91-6.5,6.5-6.5
				C65.09,40,68,42.91,68,46.5z"/>
		</g>
		<g>
			<circle style="fill:#00B7E5;" cx="61.5" cy="46.5" r="2.9"/>
		</g>
	</g>
</g>
<g id="R-Blue" style="display:none;">
	<g style="display:inline;">
		<circle style="fill:#81D2EB;" cx="55" cy="55" r="55"/>
	</g>
	<g style="display:inline;">
		<g>
			<path style="fill:#FFFFFF;" d="M73,81c0,3.314-2.687,6-6,6H43c-3.313,0-6-2.686-6-6V29c0-3.313,2.687-6,6-6h24
				c3.313,0,6,2.687,6,6V81z"/>
		</g>
		<g>
			<polygon style="fill:#33899E;" points="39,35 39,65.872 55.171,35 			"/>
		</g>
		<g>
			<polygon style="fill:#00B7E5;" points="39,74.491 39,75 68.24,75 47.208,58.821 			"/>
		</g>
		<g>
			<polygon style="fill:#0081A1;" points="59.685,35 48.621,56.124 71,73.338 71,35 			"/>
		</g>
		<g>
			<circle style="fill:#BBE7F2;" cx="48" cy="30" r="1"/>
		</g>
		<g>
			<path style="fill:#BBE7F2;" d="M63,30c0,0.553-0.448,1-1,1H52c-0.552,0-1-0.447-1-1c0-0.552,0.448-1,1-1h10
				C62.552,29,63,29.448,63,30z"/>
		</g>
		<g>
			<circle style="fill:#BBE7F2;" cx="55" cy="81" r="4"/>
		</g>
		<g>
			<rect x="53" y="79" style="fill:#FFFFFF;" width="4" height="4"/>
		</g>
		<g>
			<polygon style="fill:#BBE7F2;" points="48.621,56.124 59.685,35 55.171,35 39,65.872 39,74.491 47.208,58.821 68.24,75 71,75 
				71,73.338 			"/>
		</g>
		<g>
			<path style="fill:#FFFFFF;" d="M68,46.5c0,3.59-6.5,15.6-6.5,15.6S55,50.09,55,46.5c0-3.59,2.91-6.5,6.5-6.5
				C65.09,40,68,42.91,68,46.5z"/>
		</g>
		<g>
			<circle style="fill:#00B7E5;" cx="61.5" cy="46.5" r="2.9"/>
		</g>
	</g>
</g>
<g id="Green" style="display:none;">
	<g style="display:inline;">
		<g>
			<path style="fill:#FFFFFF;" d="M73,81c0,3.314-2.687,6-6,6H43c-3.313,0-6-2.686-6-6V29c0-3.313,2.687-6,6-6h24
				c3.313,0,6,2.687,6,6V81z"/>
		</g>
		<g>
			<polygon style="fill:#3E948B;" points="39,35 39,65.872 55.171,35 			"/>
		</g>
		<g>
			<polygon style="fill:#00D6C1;" points="39,74.491 39,75 68.24,75 47.208,58.821 			"/>
		</g>
		<g>
			<polygon style="fill:#009687;" points="59.686,35 48.621,56.124 71,73.338 71,35 			"/>
		</g>
		<g>
			<circle style="fill:#AAF0E9;" cx="48" cy="30" r="1"/>
		</g>
		<g>
			<path style="fill:#AAF0E9;" d="M63,30c0,0.553-0.448,1-1,1H52c-0.552,0-1-0.447-1-1c0-0.552,0.448-1,1-1h10
				C62.552,29,63,29.448,63,30z"/>
		</g>
		<g>
			<circle style="fill:#AAF0E9;" cx="55" cy="81" r="4"/>
		</g>
		<g>
			<rect x="53" y="79" style="fill:#FFFFFF;" width="4" height="4"/>
		</g>
		<g>
			<polygon style="fill:#AAF0E9;" points="48.621,56.124 59.686,35 55.171,35 39,65.872 39,74.491 47.208,58.821 68.24,75 71,75 
				71,73.338 			"/>
		</g>
		<g>
			<path style="fill:#FFFFFF;" d="M68,46.5c0,3.59-6.5,15.6-6.5,15.6S55,50.09,55,46.5c0-3.59,2.91-6.5,6.5-6.5
				C65.09,40,68,42.91,68,46.5z"/>
		</g>
		<g>
			<circle style="fill:#00D6C1;" cx="61.5" cy="46.5" r="2.9"/>
		</g>
	</g>
</g>
<g id="R-Green" style="display:none;">
	<g style="display:inline;">
		<circle style="fill:#87E0C8;" cx="55" cy="55" r="55"/>
	</g>
	<g style="display:inline;">
		<g>
			<path style="fill:#FFFFFF;" d="M73,81c0,3.314-2.687,6-6,6H43c-3.313,0-6-2.686-6-6V29c0-3.313,2.687-6,6-6h24
				c3.313,0,6,2.687,6,6V81z"/>
		</g>
		<g>
			<polygon style="fill:#3E948B;" points="39,35 39,65.872 55.171,35 			"/>
		</g>
		<g>
			<polygon style="fill:#00D6C1;" points="39,74.491 39,75 68.24,75 47.208,58.821 			"/>
		</g>
		<g>
			<polygon style="fill:#009687;" points="59.686,35 48.621,56.124 71,73.338 71,35 			"/>
		</g>
		<g>
			<circle style="fill:#AAF0E9;" cx="48" cy="30" r="1"/>
		</g>
		<g>
			<path style="fill:#AAF0E9;" d="M63,30c0,0.553-0.448,1-1,1H52c-0.552,0-1-0.447-1-1c0-0.552,0.448-1,1-1h10
				C62.552,29,63,29.448,63,30z"/>
		</g>
		<g>
			<circle style="fill:#AAF0E9;" cx="55" cy="81" r="4"/>
		</g>
		<g>
			<rect x="53" y="79" style="fill:#FFFFFF;" width="4" height="4"/>
		</g>
		<g>
			<polygon style="fill:#AAF0E9;" points="48.621,56.124 59.686,35 55.171,35 39,65.872 39,74.491 47.208,58.821 68.24,75 71,75 
				71,73.338 			"/>
		</g>
		<g>
			<path style="fill:#FFFFFF;" d="M68,46.5c0,3.59-6.5,15.6-6.5,15.6S55,50.09,55,46.5c0-3.59,2.91-6.5,6.5-6.5
				C65.09,40,68,42.91,68,46.5z"/>
		</g>
		<g>
			<circle style="fill:#00D6C1;" cx="61.5" cy="46.5" r="2.9"/>
		</g>
	</g>
</g>
<g id="Red" style="display:none;">
	<g style="display:inline;">
		<g>
			<path style="fill:#FFFFFF;" d="M73,81c0,3.314-2.687,6-6,6H43c-3.313,0-6-2.686-6-6V29c0-3.313,2.687-6,6-6h24
				c3.313,0,6,2.687,6,6V81z"/>
		</g>
		<g>
			<polygon style="fill:#B84E44;" points="39,35 39,65.872 55.171,35 			"/>
		</g>
		<g>
			<polygon style="fill:#FF6C5E;" points="39,74.491 39,75 68.24,75 47.208,58.821 			"/>
		</g>
		<g>
			<polygon style="fill:#C23023;" points="59.686,35 48.621,56.124 71,73.338 71,35 			"/>
		</g>
		<g>
			<circle style="fill:#FFD7D4;" cx="48" cy="30" r="1"/>
		</g>
		<g>
			<path style="fill:#FFD7D4;" d="M63,30c0,0.553-0.448,1-1,1H52c-0.552,0-1-0.447-1-1c0-0.552,0.448-1,1-1h10
				C62.552,29,63,29.448,63,30z"/>
		</g>
		<g>
			<circle style="fill:#FFD7D4;" cx="55" cy="81" r="4"/>
		</g>
		<g>
			<rect x="53" y="79" style="fill:#FFFFFF;" width="4" height="4"/>
		</g>
		<g>
			<polygon style="fill:#FFD7D4;" points="48.621,56.124 59.686,35 55.171,35 39,65.872 39,74.491 47.208,58.821 68.24,75 71,75 
				71,73.338 			"/>
		</g>
		<g>
			<path style="fill:#FFFFFF;" d="M68,46.5c0,3.59-6.5,15.6-6.5,15.6S55,50.09,55,46.5c0-3.59,2.91-6.5,6.5-6.5
				C65.09,40,68,42.91,68,46.5z"/>
		</g>
		<g>
			<circle style="fill:#FF6C5E;" cx="61.5" cy="46.5" r="2.9"/>
		</g>
	</g>
</g>
<g id="R-Red" style="display:none;">
	<g style="display:inline;">
		<circle style="fill:#FABBAF;" cx="55" cy="55" r="55"/>
	</g>
	<g style="display:inline;">
		<g>
			<path style="fill:#FFFFFF;" d="M73,81c0,3.314-2.687,6-6,6H43c-3.313,0-6-2.686-6-6V29c0-3.313,2.687-6,6-6h24
				c3.313,0,6,2.687,6,6V81z"/>
		</g>
		<g>
			<polygon style="fill:#B84E44;" points="39,35 39,65.872 55.171,35 			"/>
		</g>
		<g>
			<polygon style="fill:#FF6C5E;" points="39,74.491 39,75 68.24,75 47.208,58.821 			"/>
		</g>
		<g>
			<polygon style="fill:#C23023;" points="59.686,35 48.621,56.124 71,73.338 71,35 			"/>
		</g>
		<g>
			<circle style="fill:#FFD7D4;" cx="48" cy="30" r="1"/>
		</g>
		<g>
			<path style="fill:#FFD7D4;" d="M63,30c0,0.553-0.448,1-1,1H52c-0.552,0-1-0.447-1-1c0-0.552,0.448-1,1-1h10
				C62.552,29,63,29.448,63,30z"/>
		</g>
		<g>
			<circle style="fill:#FFD7D4;" cx="55" cy="81" r="4"/>
		</g>
		<g>
			<rect x="53" y="79" style="fill:#FFFFFF;" width="4" height="4"/>
		</g>
		<g>
			<polygon style="fill:#FFD7D4;" points="48.621,56.124 59.686,35 55.171,35 39,65.872 39,74.491 47.208,58.821 68.24,75 71,75 
				71,73.338 			"/>
		</g>
		<g>
			<path style="fill:#FFFFFF;" d="M68,46.5c0,3.59-6.5,15.6-6.5,15.6S55,50.09,55,46.5c0-3.59,2.91-6.5,6.5-6.5S68,42.91,68,46.5z"
				/>
		</g>
		<g>
			<circle style="fill:#FF6C5E;" cx="61.5" cy="46.5" r="2.9"/>
		</g>
	</g>
</g>
<g id="Yellow" style="display:none;">
	<g style="display:inline;">
		<g>
			<path style="fill:#FFFFFF;" d="M73,81c0,3.314-2.687,6-6,6H43c-3.313,0-6-2.686-6-6V29c0-3.313,2.687-6,6-6h24
				c3.313,0,6,2.687,6,6V81z"/>
		</g>
		<g>
			<polygon style="fill:#947615;" points="39,35 39,65.872 55.171,35 			"/>
		</g>
		<g>
			<polygon style="fill:#FFAA00;" points="39,74.491 39,75 68.24,75 47.208,58.821 			"/>
		</g>
		<g>
			<polygon style="fill:#E07000;" points="59.686,35 48.621,56.124 71,73.338 71,35 			"/>
		</g>
		<g>
			<circle style="fill:#FFE9A1;" cx="48" cy="30" r="1"/>
		</g>
		<g>
			<path style="fill:#FFE9A1;" d="M63,30c0,0.553-0.448,1-1,1H52c-0.552,0-1-0.447-1-1c0-0.552,0.448-1,1-1h10
				C62.552,29,63,29.448,63,30z"/>
		</g>
		<g>
			<circle style="fill:#FFE9A1;" cx="55" cy="81" r="4"/>
		</g>
		<g>
			<rect x="53" y="79" style="fill:#FFFFFF;" width="4" height="4"/>
		</g>
		<g>
			<polygon style="fill:#FFE9A1;" points="48.621,56.124 59.686,35 55.171,35 39,65.872 39,74.491 47.208,58.821 68.24,75 71,75 
				71,73.338 			"/>
		</g>
		<g>
			<path style="fill:#FFFFFF;" d="M68,46.5c0,3.59-6.5,15.6-6.5,15.6S55,50.09,55,46.5c0-3.59,2.91-6.5,6.5-6.5S68,42.91,68,46.5z"
				/>
		</g>
		<g>
			<circle style="fill:#FFAA00;" cx="61.5" cy="46.5" r="2.9"/>
		</g>
	</g>
</g>
<g id="R-Yellow" style="display:none;">
	<g style="display:inline;">
		<circle style="fill:#FFD75E;" cx="55" cy="55" r="55"/>
	</g>
	<g style="display:inline;">
		<g>
			<path style="fill:#FFFFFF;" d="M73,81c0,3.314-2.687,6-6,6H43c-3.313,0-6-2.686-6-6V29c0-3.313,2.687-6,6-6h24
				c3.313,0,6,2.687,6,6V81z"/>
		</g>
		<g>
			<polygon style="fill:#947615;" points="39,35 39,65.872 55.171,35 			"/>
		</g>
		<g>
			<polygon style="fill:#FFAA00;" points="39,74.491 39,75 68.24,75 47.208,58.821 			"/>
		</g>
		<g>
			<polygon style="fill:#E07000;" points="59.685,35 48.621,56.124 71,73.338 71,35 			"/>
		</g>
		<g>
			<circle style="fill:#FFE9A1;" cx="48" cy="30" r="1"/>
		</g>
		<g>
			<path style="fill:#FFE9A1;" d="M63,30c0,0.553-0.448,1-1,1H52c-0.552,0-1-0.447-1-1c0-0.552,0.448-1,1-1h10
				C62.552,29,63,29.448,63,30z"/>
		</g>
		<g>
			<circle style="fill:#FFE9A1;" cx="55" cy="81" r="4"/>
		</g>
		<g>
			<rect x="53" y="79" style="fill:#FFFFFF;" width="4" height="4"/>
		</g>
		<g>
			<polygon style="fill:#FFE9A1;" points="48.621,56.124 59.685,35 55.171,35 39,65.872 39,74.491 47.208,58.821 68.24,75 71,75 
				71,73.338 			"/>
		</g>
		<g>
			<path style="fill:#FFFFFF;" d="M68,46.5c0,3.59-6.5,15.6-6.5,15.6S55,50.09,55,46.5c0-3.59,2.91-6.5,6.5-6.5
				C65.09,40,68,42.91,68,46.5z"/>
		</g>
		<g>
			<circle style="fill:#FFAA00;" cx="61.5" cy="46.5" r="2.9"/>
		</g>
	</g>
</g>
</svg>
