<?xml version="1.0" encoding="iso-8859-1"?>
<!-- Generator: Adobe Illustrator 17.1.0, SVG Export Plug-In . SVG Version: 6.00 Build 0)  -->
<!DOCTYPE svg PUBLIC "-//W3C//DTD SVG 1.0//EN" "http://www.w3.org/TR/2001/REC-SVG-20010904/DTD/svg10.dtd">
<svg version="1.0" xmlns="http://www.w3.org/2000/svg" xmlns:xlink="http://www.w3.org/1999/xlink" x="0px" y="0px" width="110px"
	 height="110px" viewBox="0 0 110 110" style="enable-background:new 0 0 110 110;" xml:space="preserve">
<g id="Artboard" style="display:none;">
	
		<rect x="-1216.5" y="-426.5" style="display:inline;fill:#808080;stroke:#000000;stroke-miterlimit:10;" width="1413" height="737"/>
</g>
<g id="R-Multicolor" style="display:none;">
	<circle style="display:inline;fill:#32BEA6;" cx="55" cy="55" r="55"/>
	<g style="display:inline;">
		<path style="fill:#FFFFFF;" d="M71,31h-8v-4c0-2.209-1.791-4-4-4h-8c-2.209,0-4,1.791-4,4v4h-8c-3.314,0-6,2.687-6,6v44
			c0,3.313,2.686,6,6,6h32c3.314,0,6-2.687,6-6V37C77,33.687,74.314,31,71,31z"/>
		<path style="fill:#059BBF;" d="M73,81c0,1.105-0.895,2-2,2H39c-1.105,0-2-0.895-2-2V37c0-1.105,0.895-2,2-2h32
			c1.105,0,2,0.895,2,2V81z"/>
		<path style="fill:#21B2D1;" d="M55,35H39c-1.104,0-2,0.896-2,2v44c0,1.104,0.896,2,2,2h16V35z"/>
		<polygon style="fill:#FFFFFF;" points="63,42.875 43.5,62.375 53.25,62.375 50,75.375 69.5,55.875 59.75,55.875 		"/>
	</g>
</g>
<g id="Multicolor">
	<g>
		<path style="fill:#FFFFFF;" d="M71,31h-8v-4c0-2.209-1.791-4-4-4h-8c-2.209,0-4,1.791-4,4v4h-8c-3.314,0-6,2.687-6,6v44
			c0,3.313,2.686,6,6,6h32c3.314,0,6-2.687,6-6V37C77,33.687,74.314,31,71,31z"/>
		<path style="fill:#059BBF;" d="M73,81c0,1.105-0.895,2-2,2H39c-1.105,0-2-0.895-2-2V37c0-1.105,0.895-2,2-2h32
			c1.105,0,2,0.895,2,2V81z"/>
		<path style="fill:#21B2D1;" d="M55,35H39c-1.104,0-2,0.896-2,2v44c0,1.104,0.896,2,2,2h16V35z"/>
		<polygon style="fill:#FFFFFF;" points="63,42.875 43.5,62.375 53.25,62.375 50,75.375 69.5,55.875 59.75,55.875 		"/>
	</g>
</g>
<g id="Blue" style="display:none;">
	<g style="display:inline;">
		<g>
			<path style="fill:#FFFFFF;" d="M71,31h-8v-4c0-2.209-1.791-4-4-4h-8c-2.209,0-4,1.791-4,4v4h-8c-3.313,0-6,2.687-6,6v44
				c0,3.313,2.687,6,6,6h32c3.313,0,6-2.687,6-6V37C77,33.687,74.313,31,71,31z"/>
		</g>
		<g>
			<path style="fill:#009FC7;" d="M73,81c0,1.104-0.896,2-2,2H39c-1.104,0-2-0.896-2-2V37c0-1.104,0.896-2,2-2h32
				c1.104,0,2,0.896,2,2V81z"/>
		</g>
		<g>
			<path style="fill:#00B7E5;" d="M55,35H39c-1.104,0-2,0.896-2,2v44c0,1.104,0.896,2,2,2h16V35z"/>
		</g>
		<g>
			<polygon style="fill:#FFFFFF;" points="63,42.875 43.5,62.375 53.25,62.375 50,75.375 69.5,55.875 59.75,55.875 			"/>
		</g>
	</g>
</g>
<g id="R-Blue" style="display:none;">
	<g style="display:inline;">
		<circle style="fill:#81D2EB;" cx="55" cy="55" r="55"/>
	</g>
	<g style="display:inline;">
		<g>
			<path style="fill:#FFFFFF;" d="M71,31h-8v-4c0-2.209-1.791-4-4-4h-8c-2.209,0-4,1.791-4,4v4h-8c-3.313,0-6,2.687-6,6v44
				c0,3.313,2.687,6,6,6h32c3.313,0,6-2.687,6-6V37C77,33.687,74.313,31,71,31z"/>
		</g>
		<g>
			<path style="fill:#009FC7;" d="M73,81c0,1.104-0.896,2-2,2H39c-1.104,0-2-0.896-2-2V37c0-1.104,0.896-2,2-2h32
				c1.104,0,2,0.896,2,2V81z"/>
		</g>
		<g>
			<path style="fill:#00B7E5;" d="M55,35H39c-1.104,0-2,0.896-2,2v44c0,1.104,0.896,2,2,2h16V35z"/>
		</g>
		<g>
			<polygon style="fill:#FFFFFF;" points="63,42.875 43.5,62.375 53.25,62.375 50,75.375 69.5,55.875 59.75,55.875 			"/>
		</g>
	</g>
</g>
<g id="Green" style="display:none;">
	<g style="display:inline;">
		<g>
			<path style="fill:#FFFFFF;" d="M71,31h-8v-4c0-2.209-1.791-4-4-4h-8c-2.209,0-4,1.791-4,4v4h-8c-3.313,0-6,2.687-6,6v44
				c0,3.313,2.687,6,6,6h32c3.313,0,6-2.687,6-6V37C77,33.687,74.313,31,71,31z"/>
		</g>
		<g>
			<path style="fill:#00B8A5;" d="M73,81c0,1.104-0.896,2-2,2H39c-1.104,0-2-0.896-2-2V37c0-1.104,0.896-2,2-2h32
				c1.104,0,2,0.896,2,2V81z"/>
		</g>
		<g>
			<path style="fill:#00D6C1;" d="M55,35H39c-1.104,0-2,0.896-2,2v44c0,1.104,0.896,2,2,2h16V35z"/>
		</g>
		<g>
			<polygon style="fill:#FFFFFF;" points="63,42.875 43.5,62.375 53.25,62.375 50,75.375 69.5,55.875 59.75,55.875 			"/>
		</g>
	</g>
</g>
<g id="R-Green" style="display:none;">
	<g style="display:inline;">
		<circle style="fill:#87E0C8;" cx="55" cy="55" r="55"/>
	</g>
	<g style="display:inline;">
		<g>
			<path style="fill:#FFFFFF;" d="M71,31h-8v-4c0-2.209-1.791-4-4-4h-8c-2.209,0-4,1.791-4,4v4h-8c-3.313,0-6,2.687-6,6v44
				c0,3.313,2.687,6,6,6h32c3.313,0,6-2.687,6-6V37C77,33.687,74.313,31,71,31z"/>
		</g>
		<g>
			<path style="fill:#00B8A5;" d="M73,81c0,1.104-0.896,2-2,2H39c-1.104,0-2-0.896-2-2V37c0-1.104,0.896-2,2-2h32
				c1.104,0,2,0.896,2,2V81z"/>
		</g>
		<g>
			<path style="fill:#00D6C1;" d="M55,35H39c-1.104,0-2,0.896-2,2v44c0,1.104,0.896,2,2,2h16V35z"/>
		</g>
		<g>
			<polygon style="fill:#FFFFFF;" points="63,42.875 43.5,62.375 53.25,62.375 50,75.375 69.5,55.875 59.75,55.875 			"/>
		</g>
	</g>
</g>
<g id="Red" style="display:none;">
	<g style="display:inline;">
		<g>
			<path style="fill:#FFFFFF;" d="M71,31h-8v-4c0-2.209-1.791-4-4-4h-8c-2.209,0-4,1.791-4,4v4h-8c-3.313,0-6,2.687-6,6v44
				c0,3.313,2.687,6,6,6h32c3.313,0,6-2.687,6-6V37C77,33.687,74.313,31,71,31z"/>
		</g>
		<g>
			<path style="fill:#E54B44;" d="M73,81c0,1.104-0.896,2-2,2H39c-1.104,0-2-0.896-2-2V37c0-1.104,0.896-2,2-2h32
				c1.104,0,2,0.896,2,2V81z"/>
		</g>
		<g>
			<path style="fill:#FF6C5E;" d="M55,35H39c-1.104,0-2,0.896-2,2v44c0,1.104,0.896,2,2,2h16V35z"/>
		</g>
		<g>
			<polygon style="fill:#FFFFFF;" points="63,42.875 43.5,62.375 53.25,62.375 50,75.375 69.5,55.875 59.75,55.875 			"/>
		</g>
	</g>
</g>
<g id="R-Red" style="display:none;">
	<g style="display:inline;">
		<circle style="fill:#FABBAF;" cx="55" cy="55" r="55"/>
	</g>
	<g style="display:inline;">
		<g>
			<path style="fill:#FFFFFF;" d="M71,31h-8v-4c0-2.209-1.791-4-4-4h-8c-2.209,0-4,1.791-4,4v4h-8c-3.313,0-6,2.687-6,6v44
				c0,3.313,2.687,6,6,6h32c3.313,0,6-2.687,6-6V37C77,33.687,74.313,31,71,31z"/>
		</g>
		<g>
			<path style="fill:#E54B44;" d="M73,81c0,1.104-0.896,2-2,2H39c-1.104,0-2-0.896-2-2V37c0-1.104,0.896-2,2-2h32
				c1.104,0,2,0.896,2,2V81z"/>
		</g>
		<g>
			<path style="fill:#FF6C5E;" d="M55,35H39c-1.104,0-2,0.896-2,2v44c0,1.104,0.896,2,2,2h16V35z"/>
		</g>
		<g>
			<polygon style="fill:#FFFFFF;" points="63,42.875 43.5,62.375 53.25,62.375 50,75.375 69.5,55.875 59.75,55.875 			"/>
		</g>
	</g>
</g>
<g id="Yellow" style="display:none;">
	<g style="display:inline;">
		<g>
			<path style="fill:#FFFFFF;" d="M71,31h-8v-4c0-2.209-1.791-4-4-4h-8c-2.209,0-4,1.791-4,4v4h-8c-3.313,0-6,2.687-6,6v44
				c0,3.313,2.687,6,6,6h32c3.313,0,6-2.687,6-6V37C77,33.687,74.313,31,71,31z"/>
		</g>
		<g>
			<path style="fill:#FA9200;" d="M73,81c0,1.104-0.896,2-2,2H39c-1.104,0-2-0.896-2-2V37c0-1.104,0.896-2,2-2h32
				c1.104,0,2,0.896,2,2V81z"/>
		</g>
		<g>
			<path style="fill:#FFAA00;" d="M55,35H39c-1.104,0-2,0.896-2,2v44c0,1.104,0.896,2,2,2h16V35z"/>
		</g>
		<g>
			<polygon style="fill:#FFFFFF;" points="63,42.875 43.5,62.375 53.25,62.375 50,75.375 69.5,55.875 59.75,55.875 			"/>
		</g>
	</g>
</g>
<g id="R-Yellow" style="display:none;">
	<g style="display:inline;">
		<circle style="fill:#FFD75E;" cx="55" cy="55" r="55"/>
	</g>
	<g style="display:inline;">
		<g>
			<path style="fill:#FFFFFF;" d="M71,31h-8v-4c0-2.209-1.791-4-4-4h-8c-2.209,0-4,1.791-4,4v4h-8c-3.313,0-6,2.687-6,6v44
				c0,3.313,2.687,6,6,6h32c3.313,0,6-2.687,6-6V37C77,33.687,74.313,31,71,31z"/>
		</g>
		<g>
			<path style="fill:#FA9200;" d="M73,81c0,1.104-0.896,2-2,2H39c-1.104,0-2-0.896-2-2V37c0-1.104,0.896-2,2-2h32
				c1.104,0,2,0.896,2,2V81z"/>
		</g>
		<g>
			<path style="fill:#FFAA00;" d="M55,35H39c-1.104,0-2,0.896-2,2v44c0,1.104,0.896,2,2,2h16V35z"/>
		</g>
		<g>
			<polygon style="fill:#FFFFFF;" points="63,42.875 43.5,62.375 53.25,62.375 50,75.375 69.5,55.875 59.75,55.875 			"/>
		</g>
	</g>
</g>
</svg>
