<?xml version="1.0" encoding="iso-8859-1"?>
<!-- Generator: Adobe Illustrator 17.1.0, SVG Export Plug-In . SVG Version: 6.00 Build 0)  -->
<!DOCTYPE svg PUBLIC "-//W3C//DTD SVG 1.0//EN" "http://www.w3.org/TR/2001/REC-SVG-20010904/DTD/svg10.dtd">
<svg version="1.0" xmlns="http://www.w3.org/2000/svg" xmlns:xlink="http://www.w3.org/1999/xlink" x="0px" y="0px" width="110px"
	 height="110px" viewBox="0 0 110 110" style="enable-background:new 0 0 110 110;" xml:space="preserve">
<g id="Artboard" style="display:none;">
	
		<rect x="-318.5" y="-180.5" style="display:inline;fill:#808080;stroke:#000000;stroke-miterlimit:10;" width="1377" height="599"/>
</g>
<g id="R-Multicolor" style="display:none;">
	<circle style="display:inline;fill:#FABC3D;" cx="55" cy="55" r="55"/>
	<g style="display:inline;">
		<g>
			<path style="fill:#059BBF;" d="M67,55c0,17.669-8.008,32-12,32c-3.99,0-12-14.328-12-32c0-17.671,8.009-32,12-32S67,37.329,67,55
				z"/>
		</g>
		<g>
			<path style="fill:#FFFFFF;" d="M57,23.91v62.18c-0.73,0.6-1.41,0.91-2,0.91c-0.59,0-1.27-0.31-2-0.91V23.91
				c0.73-0.6,1.41-0.91,2-0.91C55.59,23,56.27,23.31,57,23.91z"/>
		</g>
		<g>
			<path style="fill:#3E3E3F;" d="M55,51c-4.808,0-8.143,14.963-5.214,18.536C50.546,70.463,51.681,71,52.879,71h4.242
				c1.198,0,2.334-0.537,3.093-1.464C63.078,66.042,59.852,51,55,51z"/>
		</g>
		<g>
			<path style="fill:#E2E4E5;" d="M72.497,39.971l4.95,0.707l9.192-9.192c-0.471-4.243-4.243-8.014-8.485-8.485l-9.192,9.192
				l0.707,4.95L37.142,69.669l-4.95-0.707L23,78.154c0.472,4.243,4.243,8.014,8.485,8.485l9.192-9.192l-0.707-4.95L72.497,39.971z"
				/>
		</g>
		<g>
			<path style="fill:#FFFFFF;" d="M78.154,23l-9.192,9.192l0.707,4.95L37.142,69.669l-4.95-0.707L23,78.154
				c0.237,2.135,1.312,4.15,2.86,5.686l57.98-57.98C82.304,24.312,80.29,23.237,78.154,23z"/>
		</g>
	</g>
</g>
<g id="Multicolor">
	<g>
		<g>
			<path style="fill:#059BBF;" d="M67,55c0,17.669-8.008,32-12,32c-3.99,0-12-14.328-12-32c0-17.671,8.009-32,12-32S67,37.329,67,55
				z"/>
		</g>
		<g>
			<path style="fill:#FFFFFF;" d="M57,23.91v62.18c-0.73,0.6-1.41,0.91-2,0.91c-0.59,0-1.27-0.31-2-0.91V23.91
				c0.73-0.6,1.41-0.91,2-0.91C55.59,23,56.27,23.31,57,23.91z"/>
		</g>
		<g>
			<path style="fill:#3E3E3F;" d="M55,51c-4.808,0-8.143,14.963-5.214,18.536C50.546,70.463,51.681,71,52.879,71h4.242
				c1.198,0,2.334-0.537,3.093-1.464C63.078,66.042,59.852,51,55,51z"/>
		</g>
		<g>
			<path style="fill:#E2E4E5;" d="M72.497,39.971l4.95,0.707l9.192-9.192c-0.471-4.243-4.243-8.014-8.485-8.485l-9.192,9.192
				l0.707,4.95L37.142,69.669l-4.95-0.707L23,78.154c0.472,4.243,4.243,8.014,8.485,8.485l9.192-9.192l-0.707-4.95L72.497,39.971z"
				/>
		</g>
		<g>
			<path style="fill:#FFFFFF;" d="M78.154,23l-9.192,9.192l0.707,4.95L37.142,69.669l-4.95-0.707L23,78.154
				c0.237,2.135,1.312,4.15,2.86,5.686l57.98-57.98C82.304,24.312,80.29,23.237,78.154,23z"/>
		</g>
	</g>
</g>
<g id="Blue" style="display:none;">
	<g style="display:inline;">
		<g>
			<path style="fill:#009FC7;" d="M67,55.008c0,17.669-8.008,32-12,32c-3.99,0-12-14.327-12-32c0-17.671,8.009-32,12-32
				S67,37.337,67,55.008z"/>
		</g>
		<g>
			<path style="fill:#FFFFFF;" d="M57,23.918v62.18c-0.73,0.601-1.41,0.91-2,0.91s-1.27-0.31-2-0.91v-62.18
				c0.73-0.601,1.41-0.91,2-0.91S56.27,23.317,57,23.918z"/>
		</g>
		<g>
			<path style="fill:#0F6175;" d="M55,51.008c-4.809,0-8.143,14.964-5.214,18.536c0.76,0.927,1.895,1.464,3.093,1.464h4.242
				c1.198,0,2.333-0.537,3.093-1.464C63.078,66.05,59.853,51.008,55,51.008z"/>
		</g>
		<g>
			<path style="fill:#E1F5FA;" d="M72.497,39.979l4.95,0.707l9.192-9.192c-0.472-4.242-4.243-8.014-8.485-8.485L68.962,32.2
				l0.707,4.949L37.143,69.677l-4.95-0.707L23,78.162c0.472,4.243,4.242,8.014,8.485,8.485l9.192-9.192l-0.707-4.95L72.497,39.979z"
				/>
		</g>
		<g>
			<path style="fill:#FFFFFF;" d="M78.154,23.008L68.962,32.2l0.707,4.949L37.143,69.677l-4.95-0.707L23,78.162
				c0.237,2.136,1.312,4.149,2.859,5.686l57.98-57.979C82.305,24.319,80.289,23.245,78.154,23.008z"/>
		</g>
	</g>
</g>
<g id="R-Blue" style="display:none;">
	<circle style="display:inline;fill:#81D2EB;" cx="55" cy="55" r="55"/>
	<g style="display:inline;">
		<g>
			<path style="fill:#009FC7;" d="M67,55c0,17.669-8.008,32-12,32c-3.99,0-12-14.327-12-32c0-17.671,8.009-32,12-32S67,37.329,67,55
				z"/>
		</g>
		<g>
			<path style="fill:#FFFFFF;" d="M57,23.91v62.18C56.269,86.69,55.59,87,55,87c-0.59,0-1.27-0.31-2-0.91V23.91
				C53.73,23.31,54.41,23,55,23C55.59,23,56.269,23.31,57,23.91z"/>
		</g>
		<g>
			<path style="fill:#0F6175;" d="M55,51c-4.809,0-8.143,14.964-5.214,18.536C50.546,70.463,51.681,71,52.879,71h4.242
				c1.198,0,2.333-0.537,3.093-1.464C63.078,66.042,59.852,51,55,51z"/>
		</g>
		<g>
			<path style="fill:#E1F5FA;" d="M72.497,39.971l4.95,0.707l9.192-9.192c-0.472-4.242-4.243-8.014-8.485-8.485l-9.192,9.192
				l0.707,4.949L37.143,69.669l-4.95-0.707L23,78.154c0.472,4.243,4.242,8.014,8.485,8.485l9.192-9.192l-0.707-4.95L72.497,39.971z"
				/>
		</g>
		<g>
			<path style="fill:#FFFFFF;" d="M78.154,23l-9.192,9.192l0.707,4.949L37.143,69.669l-4.95-0.707L23,78.154
				c0.237,2.136,1.312,4.149,2.859,5.686L83.84,25.86C82.305,24.312,80.289,23.237,78.154,23z"/>
		</g>
	</g>
</g>
<g id="Green" style="display:none;">
	<g style="display:inline;">
		<g>
			<path style="fill:#00B8A5;" d="M67,55.008c0,17.669-8.008,32-12,32c-3.99,0-12-14.327-12-32c0-17.671,8.009-32,12-32
				S67,37.337,67,55.008z"/>
		</g>
		<g>
			<path style="fill:#FFFFFF;" d="M57,23.918v62.18c-0.73,0.601-1.41,0.91-2,0.91c-0.59,0-1.27-0.31-2-0.91v-62.18
				c0.73-0.601,1.41-0.91,2-0.91C55.59,23.008,56.27,23.317,57,23.918z"/>
		</g>
		<g>
			<path style="fill:#14635B;" d="M55,51.008c-4.809,0-8.143,14.964-5.214,18.536c0.76,0.927,1.895,1.464,3.093,1.464h4.242
				c1.198,0,2.333-0.537,3.093-1.464C63.078,66.05,59.853,51.008,55,51.008z"/>
		</g>
		<g>
			<path style="fill:#D7FCF9;" d="M72.497,39.979l4.95,0.707l9.192-9.192c-0.472-4.242-4.243-8.014-8.485-8.485L68.962,32.2
				l0.707,4.949L37.143,69.677l-4.95-0.707L23,78.162c0.472,4.243,4.242,8.014,8.485,8.485l9.192-9.192l-0.707-4.95L72.497,39.979z"
				/>
		</g>
		<g>
			<path style="fill:#FFFFFF;" d="M78.154,23.008L68.962,32.2l0.707,4.949L37.143,69.677l-4.95-0.707L23,78.162
				c0.237,2.136,1.312,4.149,2.859,5.686l57.98-57.979C82.305,24.319,80.289,23.245,78.154,23.008z"/>
		</g>
	</g>
</g>
<g id="R-Green" style="display:none;">
	<circle style="display:inline;fill:#77E0C4;" cx="55" cy="55" r="55"/>
	<g style="display:inline;">
		<g>
			<path style="fill:#00B8A5;" d="M67,55c0,17.669-8.008,32-12,32c-3.99,0-12-14.327-12-32c0-17.671,8.009-32,12-32S67,37.329,67,55
				z"/>
		</g>
		<g>
			<path style="fill:#FFFFFF;" d="M57,23.91v62.18C56.27,86.69,55.59,87,55,87c-0.59,0-1.27-0.31-2-0.91V23.91
				C53.73,23.31,54.41,23,55,23C55.59,23,56.27,23.31,57,23.91z"/>
		</g>
		<g>
			<path style="fill:#14635B;" d="M55,51c-4.809,0-8.143,14.964-5.214,18.536C50.546,70.463,51.681,71,52.879,71h4.242
				c1.198,0,2.333-0.537,3.093-1.464C63.078,66.042,59.853,51,55,51z"/>
		</g>
		<g>
			<path style="fill:#D7FCF9;" d="M72.497,39.971l4.95,0.707l9.192-9.192c-0.472-4.242-4.243-8.014-8.485-8.485l-9.192,9.192
				l0.707,4.949L37.143,69.669l-4.95-0.707L23,78.154c0.472,4.243,4.242,8.014,8.485,8.485l9.192-9.192l-0.707-4.95L72.497,39.971z"
				/>
		</g>
		<g>
			<path style="fill:#FFFFFF;" d="M78.154,23l-9.192,9.192l0.707,4.949L37.143,69.669l-4.95-0.707L23,78.154
				c0.237,2.136,1.312,4.149,2.859,5.686L83.84,25.86C82.305,24.312,80.289,23.237,78.154,23z"/>
		</g>
	</g>
</g>
<g id="Red" style="display:none;">
	<g style="display:inline;">
		<g>
			<path style="fill:#E54B44;" d="M67,55.008c0,17.669-8.008,32-12,32c-3.99,0-12-14.327-12-32c0-17.671,8.009-32,12-32
				C58.991,23.008,67,37.337,67,55.008z"/>
		</g>
		<g>
			<path style="fill:#FFFFFF;" d="M57,23.918v62.18c-0.731,0.601-1.41,0.91-2,0.91c-0.59,0-1.27-0.31-2-0.91v-62.18
				c0.73-0.601,1.41-0.91,2-0.91C55.59,23.008,56.269,23.317,57,23.918z"/>
		</g>
		<g>
			<path style="fill:#7D261E;" d="M55,51.008c-4.809,0-8.143,14.964-5.214,18.536c0.76,0.927,1.895,1.464,3.093,1.464h4.242
				c1.198,0,2.333-0.537,3.093-1.464C63.078,66.05,59.853,51.008,55,51.008z"/>
		</g>
		<g>
			<path style="fill:#FFEFED;" d="M72.497,39.979l4.95,0.707l9.192-9.192c-0.472-4.242-4.243-8.014-8.485-8.485L68.962,32.2
				l0.707,4.949L37.143,69.677l-4.95-0.707L23,78.162c0.472,4.243,4.242,8.014,8.485,8.485l9.192-9.192l-0.707-4.95L72.497,39.979z"
				/>
		</g>
		<g>
			<path style="fill:#FFFFFF;" d="M78.154,23.008L68.962,32.2l0.707,4.949L37.143,69.677l-4.95-0.707L23,78.162
				c0.237,2.136,1.312,4.149,2.859,5.686l57.98-57.979C82.305,24.319,80.289,23.245,78.154,23.008z"/>
		</g>
	</g>
</g>
<g id="R-Red" style="display:none;">
	<circle style="display:inline;fill:#FABBAF;" cx="55" cy="55" r="55"/>
	<g style="display:inline;">
		<g>
			<path style="fill:#E54B44;" d="M67,55c0,17.669-8.008,32-12,32c-3.99,0-12-14.327-12-32c0-17.671,8.009-32,12-32
				C58.991,23,67,37.329,67,55z"/>
		</g>
		<g>
			<path style="fill:#FFFFFF;" d="M57,23.91v62.18C56.269,86.69,55.59,87,55,87c-0.59,0-1.27-0.31-2-0.91V23.91
				C53.73,23.31,54.41,23,55,23C55.59,23,56.269,23.31,57,23.91z"/>
		</g>
		<g>
			<path style="fill:#7D261E;" d="M55,51c-4.809,0-8.143,14.964-5.214,18.536C50.546,70.463,51.681,71,52.879,71h4.242
				c1.198,0,2.333-0.537,3.093-1.464C63.078,66.042,59.853,51,55,51z"/>
		</g>
		<g>
			<path style="fill:#FFEFED;" d="M72.497,39.971l4.95,0.707l9.192-9.192c-0.472-4.242-4.243-8.014-8.485-8.485l-9.192,9.192
				l0.707,4.949L37.143,69.669l-4.95-0.707L23,78.154c0.472,4.243,4.242,8.014,8.485,8.485l9.192-9.192l-0.707-4.95L72.497,39.971z"
				/>
		</g>
		<g>
			<path style="fill:#FFFFFF;" d="M78.154,23l-9.192,9.192l0.707,4.949L37.143,69.669l-4.95-0.707L23,78.154
				c0.237,2.136,1.312,4.149,2.859,5.686L83.84,25.86C82.305,24.312,80.289,23.237,78.154,23z"/>
		</g>
	</g>
</g>
<g id="Yellow" style="display:none;">
	<g style="display:inline;">
		<g>
			<path style="fill:#FA9200;" d="M67,55c0,17.669-8.008,32-12,32c-3.99,0-12-14.327-12-32c0-17.671,8.009-32,12-32S67,37.329,67,55
				z"/>
		</g>
		<g>
			<path style="fill:#FFFFFF;" d="M57,23.91v62.18C56.27,86.69,55.59,87,55,87s-1.27-0.31-2-0.91V23.91C53.73,23.31,54.41,23,55,23
				S56.27,23.31,57,23.91z"/>
		</g>
		<g>
			<path style="fill:#66510D;" d="M55,51c-4.809,0-8.143,14.964-5.214,18.536C50.546,70.463,51.681,71,52.879,71h4.242
				c1.198,0,2.333-0.537,3.093-1.464C63.078,66.042,59.853,51,55,51z"/>
		</g>
		<g>
			<path style="fill:#FFF5D9;" d="M72.497,39.971l4.95,0.707l9.192-9.192c-0.472-4.242-4.243-8.014-8.485-8.485l-9.192,9.192
				l0.707,4.949L37.143,69.669l-4.95-0.707L23,78.154c0.472,4.243,4.242,8.014,8.485,8.485l9.192-9.192l-0.707-4.95L72.497,39.971z"
				/>
		</g>
		<g>
			<path style="fill:#FFFFFF;" d="M78.154,23l-9.192,9.192l0.707,4.949L37.143,69.669l-4.95-0.707L23,78.154
				c0.237,2.136,1.312,4.149,2.859,5.686L83.84,25.86C82.305,24.312,80.289,23.237,78.154,23z"/>
		</g>
	</g>
</g>
<g id="R-Yellow" style="display:none;">
	<circle style="display:inline;fill:#FFD75E;" cx="55" cy="55" r="55"/>
	<g style="display:inline;">
		<g>
			<path style="fill:#FA9200;" d="M67,55c0,17.669-8.008,32-12,32c-3.99,0-12-14.327-12-32c0-17.671,8.009-32,12-32S67,37.329,67,55
				z"/>
		</g>
		<g>
			<path style="fill:#FFFFFF;" d="M57,23.91v62.18C56.27,86.69,55.59,87,55,87c-0.59,0-1.27-0.31-2-0.91V23.91
				C53.73,23.31,54.41,23,55,23C55.59,23,56.27,23.31,57,23.91z"/>
		</g>
		<g>
			<path style="fill:#66510D;" d="M55,51c-4.809,0-8.143,14.964-5.214,18.536C50.546,70.463,51.681,71,52.879,71h4.242
				c1.198,0,2.333-0.537,3.093-1.464C63.078,66.042,59.853,51,55,51z"/>
		</g>
		<g>
			<path style="fill:#FFF5D9;" d="M72.497,39.971l4.95,0.707l9.192-9.192c-0.472-4.242-4.243-8.014-8.485-8.485l-9.192,9.192
				l0.707,4.949L37.143,69.669l-4.95-0.707L23,78.154c0.472,4.243,4.242,8.014,8.485,8.485l9.192-9.192l-0.707-4.95L72.497,39.971z"
				/>
		</g>
		<g>
			<path style="fill:#FFFFFF;" d="M78.154,23l-9.192,9.192l0.707,4.949L37.143,69.669l-4.95-0.707L23,78.154
				c0.237,2.136,1.312,4.149,2.859,5.686L83.84,25.86C82.305,24.312,80.289,23.237,78.154,23z"/>
		</g>
	</g>
</g>
</svg>
