<?xml version="1.0" encoding="iso-8859-1"?>
<!-- Generator: Adobe Illustrator 17.1.0, SVG Export Plug-In . SVG Version: 6.00 Build 0)  -->
<!DOCTYPE svg PUBLIC "-//W3C//DTD SVG 1.0//EN" "http://www.w3.org/TR/2001/REC-SVG-20010904/DTD/svg10.dtd">
<svg version="1.0" xmlns="http://www.w3.org/2000/svg" xmlns:xlink="http://www.w3.org/1999/xlink" x="0px" y="0px" width="110px"
	 height="110px" viewBox="0 0 110 110" style="enable-background:new 0 0 110 110;" xml:space="preserve">
<g id="Artboard" style="display:none;">
	<rect x="-823" y="-171" style="display:inline;fill:#808080;" width="1344" height="461"/>
</g>
<g id="R-Multicolor" style="display:none;">
	<circle style="display:inline;fill:#FABC3D;" cx="55" cy="55" r="55"/>
	<g style="display:inline;">
		<g>
			<path style="fill:#F0F1F1;" d="M69.633,23.765c0.682-0.869,1.94-1.02,2.808-0.338l2.82,2.215c0.318,0.25,0.454,0.667,0.345,1.056
				s-0.442,0.675-0.844,0.723l-2.227,0.268c-0.548,0.066-0.939,0.564-0.874,1.112l0.436,3.631c0.066,0.548-0.325,1.046-0.874,1.112
				l-3.631,0.436c-0.548,0.066-0.939,0.564-0.874,1.112l0.436,3.631c0.066,0.548-0.325,1.046-0.874,1.112l-3.631,0.436
				c-0.548,0.066-0.939,0.564-0.874,1.112l0.436,3.631c0.066,0.548-0.325,1.046-0.874,1.112l-3.631,0.436
				c-0.548,0.066-0.939,0.564-0.874,1.112l0.436,3.631c0.066,0.548-0.325,1.046-0.874,1.112l-4.212,0.506
				c-0.263,0.032-0.528-0.043-0.737-0.206l-2.82-2.215L69.633,23.765z"/>
		</g>
		<g>
			<path style="fill:#F0F1F1;" d="M85.949,40.081c0.869-0.682,1.02-1.94,0.338-2.808l-2.215-2.82
				c-0.25-0.318-0.667-0.454-1.056-0.345s-0.675,0.442-0.723,0.844l-0.268,2.227c-0.066,0.548-0.564,0.939-1.112,0.874l-3.631-0.436
				c-0.548-0.066-1.046,0.325-1.112,0.874l-0.436,3.631c-0.066,0.548-0.564,0.939-1.112,0.874l-3.631-0.436
				c-0.548-0.066-1.046,0.325-1.112,0.874l-0.436,3.631c-0.066,0.548-0.564,0.939-1.112,0.874l-3.631-0.436
				c-0.548-0.066-1.046,0.325-1.112,0.874l-0.436,3.631c-0.066,0.548-0.564,0.939-1.112,0.874l-3.631-0.436
				c-0.548-0.066-1.046,0.325-1.112,0.874l-0.506,4.212c-0.032,0.263,0.043,0.528,0.206,0.737l2.215,2.82L85.949,40.081z"/>
		</g>
		<g>
			<path style="fill:#DF2C2C;" d="M54.717,54.589l-3.949-6.957l-21.742,12.34c-1.921,1.09-2.595,3.532-1.504,5.453
				s3.532,2.595,5.453,1.504L54.717,54.589z"/>
		</g>
		<path style="fill:#3E3E3F;" d="M73,75c-6.175,0-10.967,2.789-14.816,5.029C55.444,81.624,53.079,83,51,83
			c-1.573,0-2.665-0.235-3.361-0.55c-1.066,0.392-2.285,0.347-3.35-0.258c-0.686-0.389-1.205-0.956-1.55-1.604
			c-0.187,1.146,0.021,2.315,0.636,3.312C44.25,85.313,46.282,87,51,87c3.158,0,6.091-1.707,9.195-3.514
			C63.809,81.384,67.904,79,73,79c7.429,0,12.491,4.332,14,5.808v-5.2C84.017,77.464,79.24,75,73,75z"/>
		<g>
			<path style="fill:#DF2C2C;" d="M55.125,54.996l6.957,3.949l-12.34,21.742c-1.09,1.921-3.532,2.595-5.453,1.504
				c-1.921-1.09-2.595-3.532-1.504-5.453L55.125,54.996z"/>
		</g>
		<g>
			<circle style="fill:#FFFFFF;" cx="54.551" cy="54.551" r="3.5"/>
		</g>
		<g>
			<path style="fill:#3E3E3F;" d="M54.551,60.551c-1.603,0-3.109-0.624-4.242-1.757c-1.133-1.133-1.758-2.64-1.758-4.243
				s0.624-3.109,1.758-4.243c1.133-1.133,2.64-1.757,4.242-1.757s3.109,0.624,4.243,1.758c1.133,1.133,1.757,2.64,1.757,4.242
				s-0.624,3.109-1.758,4.243C57.66,59.927,56.153,60.551,54.551,60.551z M54.551,51.526c-1.674,0-3.025,1.356-3.025,3.025
				c0,3.946,6.05,3.978,6.05,0C57.576,52.88,56.223,51.526,54.551,51.526z"/>
		</g>
		<g>
			<path style="fill:#FA5655;" d="M29.026,59.972c-1.921,1.09-2.595,3.532-1.504,5.453c0.467,0.823,1.189,1.401,2.006,1.725
				l17.258-17.258L29.026,59.972z"/>
		</g>
	</g>
</g>
<g id="Multicolor">
	<g>
		<g>
			<path style="fill:#F0F1F1;" d="M69.633,23.765c0.682-0.869,1.94-1.02,2.808-0.338l2.82,2.215c0.318,0.25,0.454,0.667,0.345,1.056
				s-0.442,0.675-0.844,0.723l-2.227,0.268c-0.548,0.066-0.939,0.564-0.874,1.112l0.436,3.631c0.066,0.548-0.325,1.046-0.874,1.112
				l-3.631,0.436c-0.548,0.066-0.939,0.564-0.874,1.112l0.436,3.631c0.066,0.548-0.325,1.046-0.874,1.112l-3.631,0.436
				c-0.548,0.066-0.939,0.564-0.874,1.112l0.436,3.631c0.066,0.548-0.325,1.046-0.874,1.112l-3.631,0.436
				c-0.548,0.066-0.939,0.564-0.874,1.112l0.436,3.631c0.066,0.548-0.325,1.046-0.874,1.112l-4.212,0.506
				c-0.263,0.032-0.528-0.043-0.737-0.206l-2.82-2.215L69.633,23.765z"/>
		</g>
		<g>
			<path style="fill:#F0F1F1;" d="M85.949,40.081c0.869-0.682,1.02-1.94,0.338-2.808l-2.215-2.82
				c-0.25-0.318-0.667-0.454-1.056-0.345s-0.675,0.442-0.723,0.844l-0.268,2.227c-0.066,0.548-0.564,0.939-1.112,0.874l-3.631-0.436
				c-0.548-0.066-1.046,0.325-1.112,0.874l-0.436,3.631c-0.066,0.548-0.564,0.939-1.112,0.874l-3.631-0.436
				c-0.548-0.066-1.046,0.325-1.112,0.874l-0.436,3.631c-0.066,0.548-0.564,0.939-1.112,0.874l-3.631-0.436
				c-0.548-0.066-1.046,0.325-1.112,0.874l-0.436,3.631c-0.066,0.548-0.564,0.939-1.112,0.874l-3.631-0.436
				c-0.548-0.066-1.046,0.325-1.112,0.874l-0.506,4.212c-0.032,0.263,0.043,0.528,0.206,0.737l2.215,2.82L85.949,40.081z"/>
		</g>
		<g>
			<path style="fill:#DF2C2C;" d="M54.717,54.589l-3.949-6.957l-21.742,12.34c-1.921,1.09-2.595,3.532-1.504,5.453
				s3.532,2.595,5.453,1.504L54.717,54.589z"/>
		</g>
		<path style="fill:#3E3E3F;" d="M73,75c-6.175,0-10.967,2.789-14.816,5.029C55.444,81.624,53.079,83,51,83
			c-1.573,0-2.665-0.235-3.361-0.55c-1.066,0.392-2.285,0.347-3.35-0.258c-0.686-0.389-1.205-0.956-1.55-1.604
			c-0.187,1.146,0.021,2.315,0.636,3.312C44.25,85.313,46.282,87,51,87c3.158,0,6.091-1.707,9.195-3.514
			C63.809,81.384,67.904,79,73,79c7.429,0,12.491,4.332,14,5.808v-5.2C84.017,77.464,79.24,75,73,75z"/>
		<g>
			<path style="fill:#DF2C2C;" d="M55.125,54.996l6.957,3.949l-12.34,21.742c-1.09,1.921-3.532,2.595-5.453,1.504
				c-1.921-1.09-2.595-3.532-1.504-5.453L55.125,54.996z"/>
		</g>
		<g>
			<circle style="fill:#FFFFFF;" cx="54.551" cy="54.551" r="3.5"/>
		</g>
		<g>
			<path style="fill:#3E3E3F;" d="M54.551,60.551c-1.603,0-3.109-0.624-4.242-1.757c-1.133-1.133-1.758-2.64-1.758-4.243
				s0.624-3.109,1.758-4.243c1.133-1.133,2.64-1.757,4.242-1.757s3.109,0.624,4.243,1.758c1.133,1.133,1.757,2.64,1.757,4.242
				s-0.624,3.109-1.758,4.243C57.66,59.927,56.153,60.551,54.551,60.551z M54.551,51.526c-1.674,0-3.025,1.356-3.025,3.025
				c0,3.946,6.05,3.978,6.05,0C57.576,52.88,56.223,51.526,54.551,51.526z"/>
		</g>
		<g>
			<path style="fill:#FA5655;" d="M29.026,59.972c-1.921,1.09-2.595,3.532-1.504,5.453c0.467,0.823,1.189,1.401,2.006,1.725
				l17.258-17.258L29.026,59.972z"/>
		</g>
	</g>
</g>
<g id="Blue" style="display:none;">
	<g style="display:inline;">
		<g>
			<path style="fill:#FFFFFF;" d="M69.633,23.765c0.683-0.869,1.94-1.02,2.809-0.337l2.819,2.215
				c0.318,0.25,0.454,0.667,0.346,1.056c-0.109,0.39-0.442,0.675-0.844,0.723l-2.227,0.268c-0.548,0.066-0.939,0.564-0.874,1.112
				l0.437,3.631c0.066,0.548-0.325,1.046-0.873,1.112l-3.631,0.436c-0.548,0.066-0.939,0.564-0.874,1.112l0.437,3.631
				c0.066,0.548-0.325,1.046-0.873,1.112l-3.631,0.437c-0.548,0.066-0.939,0.564-0.874,1.112l0.437,3.631
				c0.065,0.548-0.325,1.046-0.873,1.112l-3.631,0.437c-0.548,0.066-0.939,0.564-0.874,1.112l0.436,3.63
				c0.066,0.548-0.325,1.046-0.873,1.112l-4.213,0.506c-0.263,0.032-0.528-0.042-0.736-0.207l-2.82-2.215L69.633,23.765z"/>
		</g>
		<g>
			<path style="fill:#FFFFFF;" d="M85.949,40.081c0.868-0.683,1.019-1.94,0.337-2.809l-2.215-2.82
				c-0.249-0.318-0.667-0.454-1.056-0.345c-0.39,0.109-0.675,0.442-0.724,0.844l-0.268,2.227c-0.065,0.548-0.563,0.939-1.112,0.874
				l-3.631-0.437c-0.548-0.066-1.046,0.325-1.111,0.874l-0.437,3.631c-0.066,0.548-0.564,0.94-1.112,0.874l-3.631-0.437
				c-0.549-0.066-1.047,0.325-1.112,0.874l-0.437,3.631c-0.065,0.548-0.563,0.939-1.111,0.874l-3.631-0.437
				c-0.549-0.066-1.047,0.325-1.112,0.873l-0.436,3.631c-0.066,0.548-0.565,0.939-1.112,0.874l-3.631-0.437
				c-0.548-0.066-1.046,0.325-1.112,0.874l-0.506,4.212c-0.032,0.263,0.043,0.528,0.206,0.737l2.215,2.82L85.949,40.081z"/>
		</g>
		<g>
			<path style="fill:#0081A1;" d="M54.717,54.589l-3.948-6.958l-21.742,12.34c-1.922,1.09-2.595,3.532-1.505,5.453
				c1.091,1.921,3.532,2.595,5.453,1.504L54.717,54.589z"/>
		</g>
		<path style="fill:#0C333D;" d="M73,75c-6.175,0-10.967,2.789-14.816,5.029C55.444,81.623,53.079,83,51,83
			c-1.572,0-2.665-0.235-3.361-0.55c-1.066,0.392-2.285,0.347-3.35-0.258c-0.687-0.389-1.205-0.956-1.551-1.604
			c-0.187,1.146,0.021,2.315,0.637,3.312C44.25,85.313,46.282,87,51,87c3.158,0,6.091-1.706,9.195-3.514
			C63.809,81.384,67.904,79,73,79c7.43,0,12.49,4.332,14,5.808v-5.2C84.018,77.464,79.24,75,73,75z"/>
		<g>
			<path style="fill:#0081A1;" d="M55.125,54.997l6.957,3.949l-12.34,21.742c-1.091,1.921-3.532,2.595-5.453,1.504
				c-1.922-1.091-2.595-3.532-1.505-5.453L55.125,54.997z"/>
		</g>
		<g>
			<circle style="fill:#FFFFFF;" cx="54.551" cy="54.551" r="3.5"/>
		</g>
		<g>
			<path style="fill:#0C333D;" d="M54.551,60.551c-1.603,0-3.109-0.624-4.242-1.757c-1.134-1.133-1.758-2.64-1.758-4.243
				c0-1.603,0.624-3.109,1.758-4.243c1.133-1.133,2.64-1.757,4.242-1.757c1.603,0,3.109,0.624,4.243,1.758
				c1.133,1.133,1.757,2.64,1.757,4.242c0,1.603-0.624,3.109-1.758,4.243C57.66,59.927,56.153,60.551,54.551,60.551z M54.551,51.526
				c-1.674,0-3.025,1.356-3.025,3.025c0,3.946,6.051,3.978,6.051,0C57.576,52.879,56.223,51.526,54.551,51.526z"/>
		</g>
		<g>
			<path style="fill:#009FC7;" d="M29.026,59.972c-1.922,1.09-2.595,3.532-1.505,5.453c0.468,0.823,1.189,1.401,2.006,1.725
				l17.258-17.258L29.026,59.972z"/>
		</g>
	</g>
</g>
<g id="R-Blue" style="display:none;">
	<circle style="display:inline;fill:#81D2EB;" cx="55" cy="55" r="55"/>
	<g style="display:inline;">
		<g>
			<path style="fill:#FFFFFF;" d="M69.633,23.765c0.683-0.869,1.94-1.02,2.809-0.337l2.819,2.215
				c0.318,0.25,0.454,0.667,0.346,1.056c-0.109,0.39-0.442,0.675-0.844,0.723l-2.227,0.268c-0.548,0.066-0.939,0.564-0.874,1.112
				l0.437,3.631c0.066,0.548-0.325,1.046-0.873,1.112l-3.631,0.436c-0.548,0.066-0.939,0.564-0.874,1.112l0.437,3.631
				c0.066,0.548-0.325,1.046-0.873,1.112l-3.631,0.437c-0.548,0.066-0.939,0.564-0.874,1.112l0.437,3.631
				c0.065,0.548-0.325,1.046-0.873,1.112l-3.631,0.437c-0.548,0.066-0.939,0.564-0.874,1.112l0.436,3.63
				c0.066,0.548-0.325,1.046-0.873,1.112l-4.213,0.506c-0.263,0.032-0.528-0.042-0.736-0.207l-2.82-2.215L69.633,23.765z"/>
		</g>
		<g>
			<path style="fill:#FFFFFF;" d="M85.949,40.081c0.868-0.683,1.019-1.94,0.337-2.809l-2.215-2.82
				c-0.249-0.318-0.667-0.454-1.056-0.345c-0.39,0.109-0.675,0.442-0.724,0.844l-0.268,2.227c-0.065,0.548-0.563,0.939-1.112,0.874
				l-3.631-0.437c-0.548-0.066-1.046,0.325-1.111,0.874l-0.437,3.631c-0.066,0.548-0.564,0.94-1.112,0.874l-3.631-0.437
				c-0.549-0.066-1.047,0.325-1.112,0.874l-0.437,3.631c-0.065,0.548-0.563,0.939-1.111,0.874l-3.631-0.437
				c-0.549-0.066-1.047,0.325-1.112,0.873l-0.436,3.631c-0.066,0.548-0.565,0.939-1.112,0.874l-3.631-0.437
				c-0.548-0.066-1.046,0.325-1.112,0.874l-0.506,4.212c-0.032,0.263,0.043,0.528,0.206,0.737l2.215,2.82L85.949,40.081z"/>
		</g>
		<g>
			<path style="fill:#0081A1;" d="M54.717,54.589l-3.948-6.958l-21.742,12.34c-1.922,1.09-2.595,3.532-1.505,5.453
				c1.091,1.921,3.532,2.595,5.453,1.504L54.717,54.589z"/>
		</g>
		<path style="fill:#0C333D;" d="M73,75c-6.175,0-10.967,2.789-14.816,5.029C55.444,81.623,53.079,83,51,83
			c-1.572,0-2.665-0.235-3.361-0.55c-1.066,0.392-2.285,0.347-3.35-0.258c-0.687-0.389-1.205-0.956-1.551-1.604
			c-0.187,1.146,0.021,2.315,0.637,3.312C44.25,85.313,46.282,87,51,87c3.158,0,6.091-1.706,9.195-3.514
			C63.809,81.384,67.904,79,73,79c7.43,0,12.49,4.332,14,5.808v-5.2C84.018,77.464,79.24,75,73,75z"/>
		<g>
			<path style="fill:#0081A1;" d="M55.125,54.997l6.957,3.949l-12.34,21.742c-1.091,1.921-3.532,2.595-5.453,1.504
				c-1.922-1.091-2.595-3.532-1.505-5.453L55.125,54.997z"/>
		</g>
		<g>
			<circle style="fill:#FFFFFF;" cx="54.551" cy="54.551" r="3.5"/>
		</g>
		<g>
			<path style="fill:#0C333D;" d="M54.551,60.551c-1.603,0-3.109-0.624-4.242-1.757c-1.134-1.133-1.758-2.64-1.758-4.243
				c0-1.603,0.624-3.109,1.758-4.243c1.133-1.133,2.64-1.757,4.242-1.757c1.603,0,3.109,0.624,4.243,1.758
				c1.133,1.133,1.757,2.64,1.757,4.242c0,1.603-0.624,3.109-1.758,4.243C57.66,59.927,56.153,60.551,54.551,60.551z M54.551,51.526
				c-1.674,0-3.025,1.356-3.025,3.025c0,3.946,6.051,3.978,6.051,0C57.576,52.879,56.223,51.526,54.551,51.526z"/>
		</g>
		<g>
			<path style="fill:#009FC7;" d="M29.026,59.972c-1.922,1.09-2.595,3.532-1.505,5.453c0.468,0.823,1.189,1.401,2.006,1.725
				l17.258-17.258L29.026,59.972z"/>
		</g>
	</g>
</g>
<g id="Green" style="display:none;">
	<g style="display:inline;">
		<g>
			<path style="fill:#FFFFFF;" d="M69.479,23.765c0.683-0.869,1.939-1.02,2.809-0.337l2.819,2.215
				c0.318,0.25,0.454,0.667,0.346,1.056c-0.109,0.39-0.442,0.675-0.844,0.723l-2.227,0.268c-0.548,0.066-0.939,0.564-0.874,1.112
				l0.437,3.631c0.066,0.548-0.325,1.046-0.873,1.112l-3.631,0.436c-0.548,0.066-0.939,0.564-0.874,1.112l0.437,3.631
				c0.066,0.548-0.325,1.046-0.873,1.112l-3.631,0.437c-0.548,0.066-0.939,0.564-0.874,1.112l0.437,3.631
				c0.065,0.548-0.325,1.046-0.873,1.112l-3.631,0.437c-0.548,0.066-0.939,0.564-0.874,1.112l0.437,3.63
				c0.066,0.548-0.325,1.046-0.873,1.112l-4.213,0.506c-0.263,0.032-0.528-0.042-0.736-0.207l-2.82-2.215L69.479,23.765z"/>
		</g>
		<g>
			<path style="fill:#FFFFFF;" d="M85.795,40.081c0.868-0.683,1.02-1.94,0.337-2.809l-2.215-2.82
				c-0.249-0.318-0.667-0.454-1.056-0.345c-0.39,0.109-0.675,0.442-0.724,0.844l-0.268,2.227c-0.065,0.548-0.563,0.939-1.112,0.874
				l-3.631-0.437c-0.548-0.066-1.046,0.325-1.111,0.874l-0.436,3.631c-0.066,0.548-0.565,0.94-1.112,0.874l-3.631-0.437
				c-0.549-0.066-1.047,0.325-1.112,0.874l-0.436,3.631c-0.065,0.548-0.564,0.939-1.111,0.874l-3.631-0.437
				c-0.549-0.066-1.047,0.325-1.112,0.873l-0.437,3.631c-0.066,0.548-0.564,0.939-1.112,0.874l-3.631-0.437
				c-0.548-0.066-1.046,0.325-1.112,0.874l-0.506,4.212c-0.032,0.263,0.043,0.528,0.206,0.737l2.215,2.82L85.795,40.081z"/>
		</g>
		<g>
			<path style="fill:#009687;" d="M54.563,54.589l-3.948-6.958l-21.742,12.34c-1.922,1.09-2.595,3.532-1.505,5.453
				c1.091,1.921,3.532,2.595,5.453,1.504L54.563,54.589z"/>
		</g>
		<path style="fill:#0A3631;" d="M72.846,75c-6.175,0-10.967,2.789-14.816,5.029C55.29,81.623,52.925,83,50.846,83
			c-1.572,0-2.665-0.235-3.361-0.55c-1.066,0.392-2.285,0.347-3.35-0.258c-0.687-0.389-1.205-0.956-1.551-1.604
			c-0.187,1.146,0.021,2.315,0.637,3.312C44.096,85.313,46.128,87,50.846,87c3.158,0,6.091-1.706,9.195-3.514
			C63.654,81.384,67.75,79,72.846,79c7.43,0,12.49,4.332,14,5.808v-5.2C83.863,77.464,79.086,75,72.846,75z"/>
		<g>
			<path style="fill:#009687;" d="M54.971,54.997l6.957,3.949l-12.34,21.742c-1.091,1.921-3.532,2.595-5.453,1.504
				c-1.922-1.091-2.595-3.532-1.505-5.453L54.971,54.997z"/>
		</g>
		<g>
			<circle style="fill:#FFFFFF;" cx="54.397" cy="54.551" r="3.5"/>
		</g>
		<g>
			<path style="fill:#0A3631;" d="M54.397,60.551c-1.603,0-3.109-0.624-4.242-1.757c-1.134-1.133-1.758-2.64-1.758-4.243
				c0-1.603,0.624-3.109,1.758-4.243c1.133-1.133,2.64-1.757,4.242-1.757c1.602,0,3.109,0.624,4.243,1.758
				c1.133,1.133,1.757,2.64,1.757,4.242c0,1.603-0.624,3.109-1.758,4.243C57.506,59.927,55.999,60.551,54.397,60.551z
				 M54.397,51.526c-1.674,0-3.025,1.356-3.025,3.025c0,3.946,6.051,3.978,6.051,0C57.422,52.879,56.069,51.526,54.397,51.526z"/>
		</g>
		<g>
			<path style="fill:#00B8A5;" d="M28.872,59.972c-1.922,1.09-2.595,3.532-1.505,5.453c0.468,0.823,1.189,1.401,2.006,1.725
				l17.258-17.258L28.872,59.972z"/>
		</g>
	</g>
</g>
<g id="R-Green" style="display:none;">
	<circle style="display:inline;fill:#77E0C4;" cx="55" cy="55" r="55"/>
	<g style="display:inline;">
		<g>
			<path style="fill:#FFFFFF;" d="M69.633,23.765c0.683-0.869,1.94-1.02,2.809-0.337l2.819,2.215
				c0.318,0.25,0.454,0.667,0.346,1.056c-0.109,0.39-0.442,0.675-0.844,0.723l-2.227,0.268c-0.548,0.066-0.939,0.564-0.874,1.112
				l0.437,3.631c0.066,0.548-0.325,1.046-0.873,1.112l-3.631,0.436c-0.548,0.066-0.939,0.564-0.874,1.112l0.437,3.631
				c0.066,0.548-0.325,1.046-0.873,1.112l-3.631,0.437c-0.548,0.066-0.939,0.564-0.874,1.112l0.437,3.631
				c0.065,0.548-0.325,1.046-0.873,1.112l-3.631,0.437c-0.548,0.066-0.939,0.564-0.874,1.112l0.437,3.63
				c0.066,0.548-0.325,1.046-0.873,1.112l-4.213,0.506c-0.263,0.032-0.528-0.042-0.736-0.207l-2.82-2.215L69.633,23.765z"/>
		</g>
		<g>
			<path style="fill:#FFFFFF;" d="M85.949,40.081c0.868-0.683,1.019-1.94,0.337-2.809l-2.215-2.82
				c-0.249-0.318-0.667-0.454-1.056-0.345c-0.39,0.109-0.675,0.442-0.724,0.844l-0.268,2.227c-0.065,0.548-0.563,0.939-1.112,0.874
				l-3.631-0.437c-0.548-0.066-1.046,0.325-1.111,0.874l-0.437,3.631c-0.066,0.548-0.564,0.94-1.112,0.874l-3.631-0.437
				c-0.549-0.066-1.047,0.325-1.112,0.874l-0.437,3.631c-0.065,0.548-0.563,0.939-1.111,0.874l-3.631-0.437
				c-0.549-0.066-1.047,0.325-1.112,0.873l-0.437,3.631c-0.066,0.548-0.564,0.939-1.112,0.874l-3.631-0.437
				c-0.548-0.066-1.046,0.325-1.112,0.874l-0.506,4.212c-0.032,0.263,0.043,0.528,0.206,0.737l2.215,2.82L85.949,40.081z"/>
		</g>
		<g>
			<path style="fill:#009687;" d="M54.717,54.589l-3.948-6.958l-21.742,12.34c-1.922,1.09-2.595,3.532-1.505,5.453
				c1.091,1.921,3.532,2.595,5.453,1.504L54.717,54.589z"/>
		</g>
		<path style="fill:#0A3631;" d="M73,75c-6.175,0-10.967,2.789-14.816,5.029C55.444,81.623,53.079,83,51,83
			c-1.572,0-2.665-0.235-3.361-0.55c-1.066,0.392-2.285,0.347-3.35-0.258c-0.687-0.389-1.205-0.956-1.551-1.604
			c-0.187,1.146,0.021,2.315,0.637,3.312C44.25,85.313,46.282,87,51,87c3.158,0,6.091-1.706,9.195-3.514
			C63.809,81.384,67.904,79,73,79c7.43,0,12.49,4.332,14,5.808v-5.2C84.018,77.464,79.24,75,73,75z"/>
		<g>
			<path style="fill:#009687;" d="M55.125,54.997l6.957,3.949l-12.34,21.742c-1.091,1.921-3.532,2.595-5.453,1.504
				c-1.922-1.091-2.595-3.532-1.505-5.453L55.125,54.997z"/>
		</g>
		<g>
			<circle style="fill:#FFFFFF;" cx="54.551" cy="54.551" r="3.5"/>
		</g>
		<g>
			<path style="fill:#0A3631;" d="M54.551,60.551c-1.603,0-3.109-0.624-4.242-1.757c-1.134-1.133-1.758-2.64-1.758-4.243
				c0-1.603,0.624-3.109,1.758-4.243c1.133-1.133,2.64-1.757,4.242-1.757c1.603,0,3.109,0.624,4.243,1.758
				c1.133,1.133,1.757,2.64,1.757,4.242c0,1.603-0.624,3.109-1.758,4.243C57.66,59.927,56.153,60.551,54.551,60.551z M54.551,51.526
				c-1.674,0-3.025,1.356-3.025,3.025c0,3.946,6.051,3.978,6.051,0C57.576,52.879,56.223,51.526,54.551,51.526z"/>
		</g>
		<g>
			<path style="fill:#00B8A5;" d="M29.026,59.972c-1.922,1.09-2.595,3.532-1.505,5.453c0.468,0.823,1.189,1.401,2.006,1.725
				l17.258-17.258L29.026,59.972z"/>
		</g>
	</g>
</g>
<g id="Red" style="display:none;">
	<g style="display:inline;">
		<g>
			<path style="fill:#FFFFFF;" d="M69.633,23.765c0.683-0.869,1.939-1.02,2.809-0.337l2.819,2.215
				c0.318,0.25,0.454,0.667,0.346,1.056c-0.109,0.39-0.442,0.675-0.844,0.723l-2.227,0.268c-0.548,0.066-0.939,0.564-0.874,1.112
				l0.437,3.631c0.066,0.548-0.325,1.046-0.873,1.112l-3.631,0.436c-0.548,0.066-0.939,0.564-0.874,1.112l0.437,3.631
				c0.066,0.548-0.325,1.046-0.873,1.112l-3.631,0.437c-0.548,0.066-0.939,0.564-0.874,1.112l0.436,3.631
				c0.065,0.548-0.325,1.046-0.873,1.112l-3.631,0.437c-0.548,0.066-0.939,0.564-0.874,1.112l0.436,3.63
				c0.066,0.548-0.325,1.046-0.873,1.112l-4.213,0.506c-0.263,0.032-0.528-0.042-0.736-0.207l-2.82-2.215L69.633,23.765z"/>
		</g>
		<g>
			<path style="fill:#FFFFFF;" d="M85.949,40.081c0.868-0.683,1.019-1.94,0.337-2.809l-2.215-2.82
				c-0.249-0.318-0.667-0.454-1.056-0.345c-0.39,0.109-0.675,0.442-0.724,0.844l-0.268,2.227c-0.065,0.548-0.563,0.939-1.112,0.874
				l-3.631-0.437c-0.548-0.066-1.046,0.325-1.111,0.874l-0.437,3.631c-0.066,0.548-0.564,0.94-1.112,0.874l-3.631-0.437
				c-0.549-0.066-1.047,0.325-1.112,0.874l-0.437,3.631c-0.065,0.548-0.563,0.939-1.111,0.874l-3.631-0.437
				c-0.549-0.066-1.047,0.325-1.112,0.873l-0.436,3.631c-0.066,0.548-0.565,0.939-1.112,0.874l-3.631-0.437
				c-0.548-0.066-1.046,0.325-1.112,0.874l-0.506,4.212c-0.032,0.263,0.043,0.528,0.206,0.737l2.215,2.82L85.949,40.081z"/>
		</g>
		<g>
			<path style="fill:#C23023;" d="M54.717,54.589l-3.948-6.958l-21.742,12.34c-1.922,1.09-2.595,3.532-1.505,5.453
				c1.091,1.921,3.532,2.595,5.453,1.504L54.717,54.589z"/>
		</g>
		<path style="fill:#4A1410;" d="M73,75c-6.175,0-10.967,2.789-14.816,5.029C55.444,81.624,53.079,83,51,83
			c-1.572,0-2.665-0.235-3.361-0.55c-1.066,0.392-2.285,0.347-3.35-0.258c-0.687-0.389-1.205-0.956-1.551-1.604
			c-0.187,1.146,0.021,2.315,0.637,3.312C44.25,85.314,46.282,87,51,87c3.158,0,6.091-1.706,9.195-3.514
			C63.809,81.384,67.904,79,73,79c7.43,0,12.49,4.332,14,5.808v-5.2C84.018,77.465,79.24,75,73,75z"/>
		<g>
			<path style="fill:#C23023;" d="M55.125,54.997l6.957,3.949l-12.34,21.742c-1.091,1.921-3.532,2.595-5.453,1.504
				c-1.922-1.091-2.595-3.532-1.505-5.453L55.125,54.997z"/>
		</g>
		<g>
			<circle style="fill:#FFFFFF;" cx="54.551" cy="54.551" r="3.5"/>
		</g>
		<g>
			<path style="fill:#4A1410;" d="M54.551,60.551c-1.603,0-3.109-0.624-4.242-1.757c-1.134-1.133-1.758-2.64-1.758-4.243
				c0-1.603,0.624-3.109,1.758-4.243c1.133-1.133,2.64-1.757,4.242-1.757c1.602,0,3.109,0.624,4.243,1.758
				c1.133,1.133,1.757,2.64,1.757,4.242c0,1.603-0.624,3.109-1.758,4.243C57.66,59.927,56.153,60.551,54.551,60.551z M54.551,51.526
				c-1.674,0-3.025,1.356-3.025,3.025c0,3.946,6.051,3.978,6.051,0C57.576,52.88,56.223,51.526,54.551,51.526z"/>
		</g>
		<g>
			<path style="fill:#E54B44;" d="M29.026,59.972c-1.922,1.09-2.595,3.532-1.505,5.453c0.468,0.823,1.189,1.401,2.006,1.725
				l17.258-17.258L29.026,59.972z"/>
		</g>
	</g>
</g>
<g id="R-Red" style="display:none;">
	<circle style="display:inline;fill:#FABBAF;" cx="55" cy="55" r="55"/>
	<g style="display:inline;">
		<g>
			<path style="fill:#FFFFFF;" d="M69.633,23.765c0.683-0.869,1.939-1.02,2.809-0.337l2.819,2.215
				c0.318,0.25,0.454,0.666,0.346,1.056c-0.109,0.39-0.442,0.675-0.844,0.723l-2.227,0.268c-0.548,0.066-0.939,0.564-0.874,1.112
				l0.437,3.631c0.066,0.548-0.325,1.046-0.873,1.112l-3.631,0.436c-0.548,0.066-0.939,0.564-0.874,1.112l0.437,3.631
				c0.066,0.548-0.325,1.046-0.873,1.112l-3.631,0.437c-0.548,0.066-0.939,0.564-0.874,1.112l0.436,3.631
				c0.065,0.548-0.325,1.046-0.873,1.112l-3.631,0.437c-0.548,0.066-0.939,0.564-0.874,1.112l0.436,3.63
				c0.066,0.548-0.325,1.046-0.873,1.112l-4.213,0.506c-0.263,0.032-0.528-0.042-0.736-0.207l-2.82-2.215L69.633,23.765z"/>
		</g>
		<g>
			<path style="fill:#FFFFFF;" d="M85.949,40.081c0.868-0.683,1.019-1.94,0.337-2.809l-2.215-2.82
				c-0.249-0.318-0.667-0.454-1.056-0.345c-0.39,0.109-0.675,0.442-0.724,0.844l-0.268,2.226c-0.065,0.548-0.563,0.939-1.112,0.874
				l-3.631-0.437c-0.548-0.066-1.046,0.325-1.111,0.874l-0.437,3.631c-0.066,0.548-0.564,0.939-1.112,0.874l-3.631-0.436
				c-0.549-0.066-1.047,0.325-1.112,0.873l-0.437,3.631c-0.065,0.548-0.563,0.939-1.111,0.874l-3.631-0.436
				c-0.549-0.066-1.047,0.325-1.112,0.873l-0.436,3.631c-0.066,0.548-0.565,0.939-1.112,0.874l-3.631-0.437
				c-0.548-0.066-1.046,0.325-1.112,0.874l-0.506,4.212c-0.032,0.263,0.043,0.528,0.206,0.737l2.215,2.82L85.949,40.081z"/>
		</g>
		<g>
			<path style="fill:#C23023;" d="M54.717,54.589l-3.948-6.958l-21.742,12.34c-1.922,1.09-2.595,3.532-1.505,5.453
				c1.091,1.921,3.532,2.595,5.453,1.504L54.717,54.589z"/>
		</g>
		<path style="fill:#4A1410;" d="M73,75c-6.175,0-10.967,2.789-14.816,5.029C55.444,81.624,53.079,83,51,83
			c-1.572,0-2.665-0.235-3.361-0.55c-1.066,0.392-2.285,0.347-3.35-0.258c-0.687-0.389-1.205-0.956-1.551-1.604
			c-0.187,1.146,0.021,2.315,0.637,3.312C44.25,85.313,46.282,87,51,87c3.158,0,6.091-1.706,9.195-3.514
			C63.809,81.384,67.904,79,73,79c7.43,0,12.49,4.332,14,5.808v-5.2C84.018,77.464,79.24,75,73,75z"/>
		<g>
			<path style="fill:#C23023;" d="M55.125,54.997l6.957,3.949l-12.34,21.742c-1.091,1.921-3.532,2.595-5.453,1.504
				c-1.922-1.091-2.595-3.532-1.505-5.453L55.125,54.997z"/>
		</g>
		<g>
			<circle style="fill:#FFFFFF;" cx="54.551" cy="54.551" r="3.5"/>
		</g>
		<g>
			<path style="fill:#4A1410;" d="M54.551,60.551c-1.603,0-3.109-0.624-4.242-1.757c-1.134-1.133-1.758-2.64-1.758-4.243
				c0-1.603,0.624-3.109,1.758-4.243c1.133-1.133,2.64-1.757,4.242-1.757c1.602,0,3.109,0.624,4.243,1.758
				c1.133,1.133,1.757,2.64,1.757,4.242c0,1.603-0.624,3.109-1.758,4.243C57.66,59.927,56.153,60.551,54.551,60.551z M54.551,51.526
				c-1.674,0-3.025,1.356-3.025,3.025c0,3.946,6.051,3.978,6.051,0C57.576,52.879,56.223,51.526,54.551,51.526z"/>
		</g>
		<g>
			<path style="fill:#E54B44;" d="M29.026,59.972c-1.922,1.09-2.595,3.532-1.505,5.453c0.468,0.823,1.189,1.401,2.006,1.725
				l17.258-17.258L29.026,59.972z"/>
		</g>
	</g>
</g>
<g id="Yellow" style="display:none;">
	<g style="display:inline;">
		<g>
			<path style="fill:#FFFFFF;" d="M69.633,23.765c0.683-0.869,1.94-1.02,2.809-0.337l2.819,2.215
				c0.318,0.25,0.454,0.666,0.346,1.056c-0.109,0.39-0.442,0.675-0.844,0.723l-2.227,0.268c-0.548,0.066-0.939,0.564-0.874,1.112
				l0.437,3.631c0.066,0.548-0.325,1.046-0.873,1.112l-3.631,0.436c-0.548,0.066-0.939,0.564-0.874,1.112l0.437,3.631
				c0.066,0.548-0.325,1.046-0.873,1.112l-3.631,0.437c-0.548,0.066-0.939,0.564-0.874,1.112l0.437,3.631
				c0.065,0.548-0.325,1.046-0.873,1.112l-3.631,0.437c-0.548,0.066-0.939,0.564-0.874,1.112l0.437,3.63
				c0.066,0.548-0.325,1.046-0.873,1.112l-4.213,0.506c-0.263,0.032-0.528-0.042-0.736-0.207l-2.82-2.215L69.633,23.765z"/>
		</g>
		<g>
			<path style="fill:#FFFFFF;" d="M85.949,40.081c0.868-0.683,1.019-1.94,0.337-2.809l-2.215-2.82
				c-0.249-0.318-0.667-0.454-1.056-0.345c-0.39,0.109-0.675,0.442-0.724,0.844l-0.268,2.226c-0.065,0.548-0.563,0.939-1.112,0.874
				l-3.631-0.437c-0.548-0.066-1.046,0.325-1.111,0.874l-0.437,3.631c-0.066,0.548-0.564,0.939-1.112,0.874l-3.631-0.436
				c-0.549-0.066-1.047,0.325-1.112,0.873l-0.437,3.631c-0.065,0.548-0.563,0.939-1.111,0.874l-3.631-0.436
				c-0.549-0.066-1.047,0.325-1.112,0.873l-0.437,3.631c-0.066,0.548-0.564,0.939-1.112,0.874l-3.631-0.437
				c-0.548-0.066-1.046,0.325-1.112,0.874l-0.506,4.212c-0.032,0.263,0.043,0.528,0.206,0.737l2.215,2.82L85.949,40.081z"/>
		</g>
		<g>
			<path style="fill:#E07000;" d="M54.717,54.589l-3.948-6.958l-21.742,12.34c-1.922,1.09-2.595,3.532-1.505,5.453
				c1.091,1.921,3.532,2.595,5.453,1.504L54.717,54.589z"/>
		</g>
		<path style="fill:#3D320C;" d="M73,75c-6.175,0-10.967,2.789-14.816,5.029C55.444,81.624,53.079,83,51,83
			c-1.572,0-2.665-0.235-3.361-0.55c-1.066,0.392-2.285,0.347-3.35-0.258c-0.687-0.389-1.205-0.956-1.551-1.604
			c-0.187,1.146,0.021,2.315,0.637,3.312C44.25,85.313,46.282,87,51,87c3.158,0,6.091-1.706,9.195-3.514
			C63.809,81.384,67.904,79,73,79c7.43,0,12.49,4.332,14,5.808v-5.2C84.018,77.464,79.24,75,73,75z"/>
		<g>
			<path style="fill:#E07000;" d="M55.125,54.997l6.957,3.949l-12.34,21.742c-1.091,1.921-3.532,2.595-5.453,1.504
				c-1.922-1.091-2.595-3.532-1.505-5.453L55.125,54.997z"/>
		</g>
		<g>
			<circle style="fill:#FFFFFF;" cx="54.551" cy="54.551" r="3.5"/>
		</g>
		<g>
			<path style="fill:#3D320C;" d="M54.551,60.551c-1.603,0-3.109-0.624-4.242-1.757c-1.134-1.133-1.758-2.64-1.758-4.243
				c0-1.603,0.624-3.109,1.758-4.243c1.133-1.133,2.64-1.757,4.242-1.757c1.603,0,3.109,0.624,4.243,1.758
				c1.133,1.133,1.757,2.64,1.757,4.242c0,1.603-0.624,3.109-1.758,4.243C57.66,59.927,56.153,60.551,54.551,60.551z M54.551,51.526
				c-1.674,0-3.025,1.356-3.025,3.025c0,3.946,6.051,3.978,6.051,0C57.576,52.879,56.223,51.526,54.551,51.526z"/>
		</g>
		<g>
			<path style="fill:#FA9200;" d="M29.026,59.972c-1.922,1.09-2.595,3.532-1.505,5.453c0.468,0.823,1.189,1.401,2.006,1.725
				l17.258-17.258L29.026,59.972z"/>
		</g>
	</g>
</g>
<g id="R-Yellow" style="display:none;">
	<circle style="display:inline;fill:#FFD75E;" cx="55" cy="55" r="55"/>
	<g style="display:inline;">
		<g>
			<path style="fill:#FFFFFF;" d="M69.633,23.765c0.683-0.869,1.94-1.02,2.809-0.337l2.819,2.215
				c0.318,0.25,0.454,0.667,0.346,1.056c-0.109,0.39-0.442,0.675-0.844,0.723l-2.227,0.268c-0.548,0.066-0.939,0.564-0.874,1.112
				l0.437,3.631c0.066,0.548-0.325,1.046-0.873,1.112l-3.631,0.436c-0.548,0.066-0.939,0.564-0.874,1.112l0.437,3.631
				c0.066,0.548-0.325,1.046-0.873,1.112l-3.631,0.437c-0.548,0.066-0.939,0.564-0.874,1.112l0.437,3.631
				c0.065,0.548-0.325,1.046-0.873,1.112l-3.631,0.437c-0.548,0.066-0.939,0.564-0.874,1.112l0.436,3.63
				c0.066,0.548-0.325,1.046-0.873,1.112l-4.213,0.506c-0.263,0.032-0.528-0.042-0.736-0.207l-2.82-2.215L69.633,23.765z"/>
		</g>
		<g>
			<path style="fill:#FFFFFF;" d="M85.949,40.081c0.868-0.683,1.019-1.94,0.337-2.809l-2.215-2.82
				c-0.249-0.318-0.667-0.454-1.056-0.345c-0.39,0.109-0.675,0.442-0.724,0.844l-0.268,2.227c-0.065,0.548-0.563,0.939-1.112,0.874
				l-3.631-0.437c-0.548-0.066-1.046,0.325-1.111,0.874l-0.437,3.631c-0.066,0.548-0.564,0.94-1.112,0.874l-3.631-0.437
				c-0.549-0.066-1.047,0.325-1.112,0.874l-0.437,3.631c-0.065,0.548-0.563,0.939-1.111,0.874l-3.631-0.437
				c-0.549-0.066-1.047,0.325-1.112,0.873l-0.436,3.631c-0.066,0.548-0.565,0.939-1.112,0.874l-3.631-0.437
				c-0.548-0.066-1.046,0.325-1.112,0.874l-0.506,4.212c-0.032,0.263,0.043,0.528,0.206,0.737l2.215,2.82L85.949,40.081z"/>
		</g>
		<g>
			<path style="fill:#E07000;" d="M54.717,54.589l-3.948-6.958l-21.742,12.34c-1.922,1.09-2.595,3.532-1.505,5.453
				c1.091,1.921,3.532,2.595,5.453,1.504L54.717,54.589z"/>
		</g>
		<path style="fill:#3D320C;" d="M73,75c-6.175,0-10.967,2.789-14.816,5.029C55.444,81.623,53.079,83,51,83
			c-1.572,0-2.665-0.235-3.361-0.55c-1.066,0.392-2.285,0.347-3.35-0.258c-0.687-0.389-1.205-0.956-1.551-1.604
			c-0.187,1.146,0.021,2.315,0.637,3.312C44.25,85.313,46.282,87,51,87c3.158,0,6.091-1.706,9.195-3.514
			C63.809,81.384,67.904,79,73,79c7.43,0,12.49,4.332,14,5.808v-5.2C84.018,77.464,79.24,75,73,75z"/>
		<g>
			<path style="fill:#E07000;" d="M55.125,54.997l6.957,3.949l-12.34,21.742c-1.091,1.921-3.532,2.595-5.453,1.504
				c-1.922-1.091-2.595-3.532-1.505-5.453L55.125,54.997z"/>
		</g>
		<g>
			<circle style="fill:#FFFFFF;" cx="54.551" cy="54.551" r="3.5"/>
		</g>
		<g>
			<path style="fill:#3D320C;" d="M54.551,60.551c-1.603,0-3.109-0.624-4.242-1.757c-1.134-1.133-1.758-2.64-1.758-4.243
				c0-1.603,0.624-3.109,1.758-4.243c1.133-1.133,2.64-1.757,4.242-1.757c1.603,0,3.109,0.624,4.243,1.758
				c1.133,1.133,1.757,2.64,1.757,4.242c0,1.603-0.624,3.109-1.758,4.243C57.66,59.927,56.153,60.551,54.551,60.551z M54.551,51.526
				c-1.674,0-3.025,1.356-3.025,3.025c0,3.946,6.051,3.978,6.051,0C57.576,52.879,56.223,51.526,54.551,51.526z"/>
		</g>
		<g>
			<path style="fill:#FA9200;" d="M29.026,59.972c-1.922,1.09-2.595,3.532-1.505,5.453c0.468,0.823,1.189,1.401,2.006,1.725
				l17.258-17.258L29.026,59.972z"/>
		</g>
	</g>
</g>
</svg>
