<?xml version="1.0" encoding="iso-8859-1"?>
<!-- Generator: Adobe Illustrator 17.1.0, SVG Export Plug-In . SVG Version: 6.00 Build 0)  -->
<!DOCTYPE svg PUBLIC "-//W3C//DTD SVG 1.0//EN" "http://www.w3.org/TR/2001/REC-SVG-20010904/DTD/svg10.dtd">
<svg version="1.0" xmlns="http://www.w3.org/2000/svg" xmlns:xlink="http://www.w3.org/1999/xlink" x="0px" y="0px" width="110px"
	 height="110px" viewBox="0 0 110 110" style="enable-background:new 0 0 110 110;" xml:space="preserve">
<g id="Artboard" style="display:none;">
	<rect x="-703" y="-39" style="display:inline;fill:#808080;" width="1385" height="322"/>
</g>
<g id="R-Multicolor" style="display:none;">
	<circle style="display:inline;fill:#25B7D3;" cx="55" cy="55" r="55"/>
	<g style="display:inline;">
		<path style="fill:#6FDAF1;" d="M39,67c0,2.209,1.791,4,4,4h24l12,12V71h4c2.209,0,4-1.791,4-4V35c0-2.209-1.791-4-4-4H43
			c-2.209,0-4,1.791-4,4V67z"/>
		<path style="fill:#F0F1F1;" d="M71,59c0,2.209-1.791,4-4,4H43L31,75V63h-4c-2.209,0-4-1.791-4-4V27c0-2.209,1.791-4,4-4h40
			c2.209,0,4,1.791,4,4V59z"/>
		<path style="fill:#FFFFFF;" d="M70.335,24.798C69.62,23.716,68.395,23,67,23H27c-2.209,0-4,1.791-4,4v32c0,2.209,1.791,4,4,4h4
			v1.134L70.335,24.798z"/>
		<circle style="fill:#21B2D1;" cx="35" cy="43" r="4"/>
		<circle style="fill:#21B2D1;" cx="47" cy="43" r="4"/>
		<circle style="fill:#21B2D1;" cx="59" cy="43" r="4"/>
	</g>
</g>
<g id="Multicolor_1_">
	<g>
		<path style="fill:#6FDAF1;" d="M39,67c0,2.209,1.791,4,4,4h24l12,12V71h4c2.209,0,4-1.791,4-4V35c0-2.209-1.791-4-4-4H43
			c-2.209,0-4,1.791-4,4V67z"/>
		<path style="fill:#F0F1F1;" d="M71,59c0,2.209-1.791,4-4,4H43L31,75V63h-4c-2.209,0-4-1.791-4-4V27c0-2.209,1.791-4,4-4h40
			c2.209,0,4,1.791,4,4V59z"/>
		<path style="fill:#FFFFFF;" d="M70.335,24.798C69.62,23.716,68.395,23,67,23H27c-2.209,0-4,1.791-4,4v32c0,2.209,1.791,4,4,4h4
			v1.134L70.335,24.798z"/>
		<circle style="fill:#21B2D1;" cx="35" cy="43" r="4"/>
		<circle style="fill:#21B2D1;" cx="47" cy="43" r="4"/>
		<circle style="fill:#21B2D1;" cx="59" cy="43" r="4"/>
	</g>
</g>
<g id="Blue" style="display:none;">
	<g style="display:inline;">
		<g>
			<path style="fill:#BBE7F2;" d="M40.5,67c0,2.209,1.791,4,4,4h24l12,12V71h4c2.209,0,4-1.791,4-4V35c0-2.209-1.791-4-4-4h-40
				c-2.209,0-4,1.791-4,4V67z"/>
		</g>
		<g>
			<path style="fill:#FFFFFF;" d="M71,59c0,2.209-1.791,4-4,4H43L31,75V63h-4c-2.209,0-4-1.791-4-4V27c0-2.209,1.791-4,4-4h40
				c2.209,0,4,1.791,4,4V59z"/>
		</g>
		<g>
			<circle style="fill:#00B7E5;" cx="36.5" cy="43" r="4"/>
		</g>
		<g>
			<circle style="fill:#00B7E5;" cx="48.5" cy="43" r="4"/>
		</g>
		<g>
			<circle style="fill:#00B7E5;" cx="60.5" cy="43" r="4"/>
		</g>
	</g>
</g>
<g id="R-Blue" style="display:none;">
	<g style="display:inline;">
		<circle style="fill:#81D2EB;" cx="55" cy="55" r="55"/>
	</g>
	<g style="display:inline;">
		<g>
			<path style="fill:#BBE7F2;" d="M40.5,67c0,2.209,1.791,4,4,4h24l12,12V71h4c2.209,0,4-1.791,4-4V35c0-2.209-1.791-4-4-4h-40
				c-2.209,0-4,1.791-4,4V67z"/>
		</g>
		<g>
			<path style="fill:#FFFFFF;" d="M71,59c0,2.209-1.791,4-4,4H43L31,75V63h-4c-2.209,0-4-1.791-4-4V27c0-2.209,1.791-4,4-4h40
				c2.209,0,4,1.791,4,4V59z"/>
		</g>
		<g>
			<circle style="fill:#00B7E5;" cx="36.5" cy="43" r="4"/>
		</g>
		<g>
			<circle style="fill:#00B7E5;" cx="48.5" cy="43" r="4"/>
		</g>
		<g>
			<circle style="fill:#00B7E5;" cx="60.5" cy="43" r="4"/>
		</g>
	</g>
</g>
<g id="Green" style="display:none;">
	<g style="display:inline;">
		<g>
			<path style="fill:#AAF0E9;" d="M39,67c0,2.209,1.791,4,4,4h24l12,12V71h4c2.209,0,4-1.791,4-4V35c0-2.209-1.791-4-4-4H43
				c-2.209,0-4,1.791-4,4V67z"/>
		</g>
		<g>
			<path style="fill:#FFFFFF;" d="M71,59c0,2.209-1.791,4-4,4H43L31,75V63h-4c-2.209,0-4-1.791-4-4V27c0-2.209,1.791-4,4-4h40
				c2.209,0,4,1.791,4,4V59z"/>
		</g>
		<g>
			<circle style="fill:#00D6C1;" cx="36.5" cy="43" r="4"/>
		</g>
		<g>
			<circle style="fill:#00D6C1;" cx="48.5" cy="43" r="4"/>
		</g>
		<g>
			<circle style="fill:#00D6C1;" cx="60.5" cy="43" r="4"/>
		</g>
	</g>
</g>
<g id="R-Green" style="display:none;">
	<g style="display:inline;">
		<circle style="fill:#87E0C8;" cx="55" cy="55" r="55"/>
	</g>
	<g style="display:inline;">
		<g>
			<path style="fill:#AAF0E9;" d="M39,67c0,2.209,1.791,4,4,4h24l12,12V71h4c2.209,0,4-1.791,4-4V35c0-2.209-1.791-4-4-4H43
				c-2.209,0-4,1.791-4,4V67z"/>
		</g>
		<g>
			<path style="fill:#FFFFFF;" d="M71,59c0,2.209-1.791,4-4,4H43L31,75V63h-4c-2.209,0-4-1.791-4-4V27c0-2.209,1.791-4,4-4h40
				c2.209,0,4,1.791,4,4V59z"/>
		</g>
		<g>
			<circle style="fill:#00D6C1;" cx="35" cy="43" r="4"/>
		</g>
		<g>
			<circle style="fill:#00D6C1;" cx="47" cy="43" r="4"/>
		</g>
		<g>
			<circle style="fill:#00D6C1;" cx="59" cy="43" r="4"/>
		</g>
	</g>
</g>
<g id="Red" style="display:none;">
	<g style="display:inline;">
		<g>
			<path style="fill:#FFD7D4;" d="M39,67c0,2.209,1.791,4,4,4h24l12,12V71h4c2.209,0,4-1.791,4-4V35c0-2.209-1.791-4-4-4H43
				c-2.209,0-4,1.791-4,4V67z"/>
		</g>
		<g>
			<path style="fill:#FFFFFF;" d="M71,59c0,2.209-1.791,4-4,4H43L31,75V63h-4c-2.209,0-4-1.791-4-4V27c0-2.209,1.791-4,4-4h40
				c2.209,0,4,1.791,4,4V59z"/>
		</g>
		<g>
			<circle style="fill:#FF6C5E;" cx="35.062" cy="43" r="4"/>
		</g>
		<g>
			<circle style="fill:#FF6C5E;" cx="47.062" cy="43" r="4"/>
		</g>
		<g>
			<circle style="fill:#FF6C5E;" cx="59.062" cy="43" r="4"/>
		</g>
	</g>
</g>
<g id="R-Red" style="display:none;">
	<g style="display:inline;">
		<circle style="fill:#FABBAF;" cx="55" cy="55" r="55"/>
	</g>
	<g style="display:inline;">
		<g>
			<path style="fill:#FFD7D4;" d="M39,67c0,2.209,1.791,4,4,4h24l12,12V71h4c2.209,0,4-1.791,4-4V35c0-2.209-1.791-4-4-4H43
				c-2.209,0-4,1.791-4,4V67z"/>
		</g>
		<g>
			<path style="fill:#FFFFFF;" d="M71,59c0,2.209-1.791,4-4,4H43L31,75V63h-4c-2.209,0-4-1.791-4-4V27c0-2.209,1.791-4,4-4h40
				c2.209,0,4,1.791,4,4V59z"/>
		</g>
		<g>
			<circle style="fill:#FF6C5E;" cx="35.062" cy="43" r="4"/>
		</g>
		<g>
			<circle style="fill:#FF6C5E;" cx="47.062" cy="43" r="4"/>
		</g>
		<g>
			<circle style="fill:#FF6C5E;" cx="59.062" cy="43" r="4"/>
		</g>
	</g>
</g>
<g id="Yellow" style="display:none;">
	<g style="display:inline;">
		<g>
			<path style="fill:#FFE9A1;" d="M39,67c0,2.209,1.791,4,4,4h24l12,12V71h4c2.209,0,4-1.791,4-4V35c0-2.209-1.791-4-4-4H43
				c-2.209,0-4,1.791-4,4V67z"/>
		</g>
		<g>
			<path style="fill:#FFFFFF;" d="M71,59c0,2.209-1.791,4-4,4H43L31,75V63h-4c-2.209,0-4-1.791-4-4V27c0-2.209,1.791-4,4-4h40
				c2.209,0,4,1.791,4,4V59z"/>
		</g>
		<g>
			<circle style="fill:#FFAA00;" cx="36.5" cy="43" r="4"/>
		</g>
		<g>
			<circle style="fill:#FFAA00;" cx="48.5" cy="43" r="4"/>
		</g>
		<g>
			<circle style="fill:#FFAA00;" cx="60.5" cy="43" r="4"/>
		</g>
	</g>
</g>
<g id="R-Yellow" style="display:none;">
	<g style="display:inline;">
		<circle style="fill:#FFD75E;" cx="55" cy="55" r="55"/>
	</g>
	<g style="display:inline;">
		<g>
			<path style="fill:#FFE9A1;" d="M39,67c0,2.209,1.791,4,4,4h24l12,12V71h4c2.209,0,4-1.791,4-4V35c0-2.209-1.791-4-4-4H43
				c-2.209,0-4,1.791-4,4V67z"/>
		</g>
		<g>
			<path style="fill:#FFFFFF;" d="M71,59c0,2.209-1.791,4-4,4H43L31,75V63h-4c-2.209,0-4-1.791-4-4V27c0-2.209,1.791-4,4-4h40
				c2.209,0,4,1.791,4,4V59z"/>
		</g>
		<g>
			<circle style="fill:#FFAA00;" cx="36.5" cy="43" r="4"/>
		</g>
		<g>
			<circle style="fill:#FFAA00;" cx="48.5" cy="43" r="4"/>
		</g>
		<g>
			<circle style="fill:#FFAA00;" cx="60.5" cy="43" r="4"/>
		</g>
	</g>
</g>
</svg>
