<?xml version="1.0" encoding="iso-8859-1"?>
<!-- Generator: Adobe Illustrator 17.1.0, SVG Export Plug-In . SVG Version: 6.00 Build 0)  -->
<!DOCTYPE svg PUBLIC "-//W3C//DTD SVG 1.0//EN" "http://www.w3.org/TR/2001/REC-SVG-20010904/DTD/svg10.dtd">
<svg version="1.0" xmlns="http://www.w3.org/2000/svg" xmlns:xlink="http://www.w3.org/1999/xlink" x="0px" y="0px" width="110px"
	 height="110px" viewBox="0 0 110 110" style="enable-background:new 0 0 110 110;" xml:space="preserve">
<g id="Artboard" style="display:none;">
	<rect x="-190.5" y="-59.5" style="display:inline;fill:#808080;stroke:#000000;stroke-miterlimit:10;" width="1363" height="720"/>
</g>
<g id="R-Multicolor" style="display:none;">
	<circle style="display:inline;fill:#25B7D3;" cx="55" cy="55" r="55"/>
	<g style="display:inline;">
		<path style="fill:#F0F1F1;" d="M79,47.006C80.199,36.219,69.636,27,59,27c-9.324,0-18.992,7.09-19.908,16.173
			C30.425,41.871,23,48.603,23,57c0,7.732,6.268,14,14,14h38c6.627,0,12-5.373,12-12C87,52.265,82,47.006,79,47.006z"/>
		<path style="fill:#FFFFFF;" d="M59,27c-9.324,0-18.992,7.09-19.908,16.173C30.425,41.871,23,48.603,23,57c0,7.732,6.268,14,14,14
			h0.747l36.842-36.842C70.729,29.818,64.877,27,59,27z"/>
		<path style="fill:#3E3E3F;" d="M47,57.692v19.541c-3.922-0.925-8,1.018-8,3.768c0,2.209,2.687,4,6,4s6-1.791,6-4V60.308l12-5.25
			v14.174c-3.922-0.925-8,1.018-8,3.768c0,2.209,2.687,4,6,4s6-1.791,6-4V48.942L47,57.692z"/>
	</g>
</g>
<g id="Multicolor">
	<g>
		<path style="fill:#F0F1F1;" d="M79,47.006C80.199,36.219,69.636,27,59,27c-9.324,0-18.992,7.09-19.908,16.173
			C30.425,41.871,23,48.603,23,57c0,7.732,6.268,14,14,14h38c6.627,0,12-5.373,12-12C87,52.265,82,47.006,79,47.006z"/>
		<path style="fill:#FFFFFF;" d="M59,27c-9.324,0-18.992,7.09-19.908,16.173C30.425,41.871,23,48.603,23,57c0,7.732,6.268,14,14,14
			h0.747l36.842-36.842C70.729,29.818,64.877,27,59,27z"/>
		<path style="fill:#3E3E3F;" d="M47,57.692v19.541c-3.922-0.925-8,1.018-8,3.768c0,2.209,2.687,4,6,4s6-1.791,6-4V60.308l12-5.25
			v14.174c-3.922-0.925-8,1.018-8,3.768c0,2.209,2.687,4,6,4s6-1.791,6-4V48.942L47,57.692z"/>
	</g>
</g>
<g id="Blue" style="display:none;">
	<g style="display:inline;">
		<g>
			<path style="fill:#E1F5FA;" d="M79,47.006C80.199,36.218,69.636,27,59,27c-9.324,0-18.992,7.09-19.908,16.173
				C30.425,41.871,23,48.602,23,57c0,7.732,6.268,14,14,14h38c6.627,0,12-5.373,12-12C87,52.264,82,47.006,79,47.006z"/>
		</g>
		<g>
			<path style="fill:#FFFFFF;" d="M59,27c-9.324,0-18.992,7.09-19.908,16.173C30.425,41.871,23,48.602,23,57c0,7.732,6.268,14,14,14
				h0.747l36.842-36.842C70.729,29.818,64.877,27,59,27z"/>
		</g>
		<g>
			<path style="fill:#0C333D;" d="M47,57.692v19.541c-3.922-0.925-8,1.018-8,3.768c0,2.21,2.687,4,6,4s6-1.79,6-4V60.308l12-5.25
				v14.174c-3.922-0.925-8,1.018-8,3.768c0,2.21,2.687,4,6,4c3.314,0,6-1.79,6-4V48.942L47,57.692z"/>
		</g>
	</g>
</g>
<g id="R-Blue" style="display:none;">
	<g style="display:inline;">
		<circle style="fill:#81D2EB;" cx="55" cy="55" r="55"/>
	</g>
	<g style="display:inline;">
		<g>
			<path style="fill:#E1F5FA;" d="M79,47.006C80.199,36.219,69.636,27,59,27c-9.324,0-18.992,7.09-19.908,16.173
				C30.425,41.871,23,48.603,23,57c0,7.732,6.268,14,14,14h38c6.627,0,12-5.373,12-12C87,52.265,82,47.006,79,47.006z"/>
		</g>
		<g>
			<path style="fill:#FFFFFF;" d="M59,27c-9.324,0-18.992,7.09-19.908,16.173C30.425,41.871,23,48.603,23,57c0,7.732,6.268,14,14,14
				h0.747l36.842-36.842C70.729,29.818,64.877,27,59,27z"/>
		</g>
		<g>
			<path style="fill:#0C333D;" d="M47,57.692v19.541c-3.922-0.925-8,1.018-8,3.768c0,2.21,2.687,4,6,4s6-1.79,6-4V60.308l12-5.25
				v14.174c-3.922-0.925-8,1.018-8,3.768c0,2.21,2.687,4,6,4c3.314,0,6-1.79,6-4V48.942L47,57.692z"/>
		</g>
	</g>
</g>
<g id="Green" style="display:none;">
	<g style="display:inline;">
		<g>
			<path style="fill:#D7FCF9;" d="M79,47.006C80.199,36.219,69.636,27,59,27c-9.324,0-18.992,7.09-19.908,16.173
				C30.425,41.871,23,48.603,23,57c0,7.732,6.268,14,14,14h38c6.627,0,12-5.373,12-12C87,52.265,82,47.006,79,47.006z"/>
		</g>
		<g>
			<path style="fill:#FFFFFF;" d="M59,27c-9.324,0-18.992,7.09-19.908,16.173C30.425,41.871,23,48.603,23,57c0,7.732,6.268,14,14,14
				h0.747l36.842-36.842C70.729,29.818,64.877,27,59,27z"/>
		</g>
		<g>
			<path style="fill:#0A3631;" d="M47,57.692v19.541c-3.922-0.925-8,1.018-8,3.768c0,2.21,2.687,4,6,4s6-1.79,6-4V60.308l12-5.25
				v14.174c-3.922-0.925-8,1.018-8,3.768c0,2.21,2.687,4,6,4c3.314,0,6-1.79,6-4V48.942L47,57.692z"/>
		</g>
	</g>
</g>
<g id="R-Green" style="display:none;">
	<g style="display:inline;">
		<circle style="fill:#87E0C8;" cx="55" cy="55" r="55"/>
	</g>
	<g style="display:inline;">
		<g>
			<path style="fill:#D7FCF9;" d="M79,47.006C80.199,36.219,69.636,27,59,27c-9.324,0-18.992,7.09-19.908,16.173
				C30.425,41.871,23,48.603,23,57c0,7.732,6.268,14,14,14h38c6.627,0,12-5.373,12-12C87,52.265,82,47.006,79,47.006z"/>
		</g>
		<g>
			<path style="fill:#FFFFFF;" d="M59,27c-9.324,0-18.992,7.09-19.908,16.173C30.425,41.871,23,48.603,23,57c0,7.732,6.268,14,14,14
				h0.747l36.842-36.842C70.729,29.818,64.877,27,59,27z"/>
		</g>
		<g>
			<path style="fill:#0A3631;" d="M47,57.692v19.541c-3.922-0.925-8,1.018-8,3.768c0,2.21,2.687,4,6,4s6-1.79,6-4V60.308l12-5.25
				v14.174c-3.922-0.925-8,1.018-8,3.768c0,2.21,2.687,4,6,4s6-1.79,6-4V48.942L47,57.692z"/>
		</g>
	</g>
</g>
<g id="Red" style="display:none;">
	<g style="display:inline;">
		<g>
			<path style="fill:#FFEFED;" d="M79,47.006C80.199,36.219,69.636,27,59,27c-9.324,0-18.992,7.09-19.908,16.173
				C30.425,41.871,23,48.603,23,57c0,7.732,6.268,14,14,14h38c6.627,0,12-5.373,12-12C87,52.265,82,47.006,79,47.006z"/>
		</g>
		<g>
			<path style="fill:#FFFFFF;" d="M59,27c-9.324,0-18.992,7.09-19.908,16.173C30.425,41.871,23,48.603,23,57c0,7.732,6.268,14,14,14
				h0.747l36.842-36.842C70.729,29.818,64.877,27,59,27z"/>
		</g>
		<g>
			<path style="fill:#4A1410;" d="M47,57.692v19.541c-3.922-0.925-8,1.018-8,3.768c0,2.21,2.687,4,6,4s6-1.79,6-4V60.308l12-5.25
				v14.174c-3.922-0.925-8,1.018-8,3.768c0,2.21,2.687,4,6,4s6-1.79,6-4V48.942L47,57.692z"/>
		</g>
	</g>
</g>
<g id="R-Red" style="display:none;">
	<g style="display:inline;">
		<circle style="fill:#FABBAF;" cx="55" cy="55" r="55"/>
	</g>
	<g style="display:inline;">
		<g>
			<path style="fill:#FFEFED;" d="M79,47.006C80.199,36.219,69.636,27,59,27c-9.324,0-18.992,7.09-19.908,16.173
				C30.425,41.871,23,48.603,23,57c0,7.732,6.268,14,14,14h38c6.627,0,12-5.373,12-12C87,52.265,82,47.006,79,47.006z"/>
		</g>
		<g>
			<path style="fill:#FFFFFF;" d="M59,27c-9.324,0-18.992,7.09-19.908,16.173C30.425,41.871,23,48.603,23,57c0,7.732,6.268,14,14,14
				h0.747l36.842-36.842C70.729,29.818,64.877,27,59,27z"/>
		</g>
		<g>
			<path style="fill:#4A1410;" d="M47,57.692v19.541c-3.922-0.925-8,1.018-8,3.768c0,2.21,2.687,4,6,4s6-1.79,6-4V60.308l12-5.25
				v14.174c-3.922-0.925-8,1.018-8,3.768c0,2.21,2.687,4,6,4c3.314,0,6-1.79,6-4V48.942L47,57.692z"/>
		</g>
	</g>
</g>
<g id="Yellow" style="display:none;">
	<g style="display:inline;">
		<g>
			<path style="fill:#FFF5D9;" d="M79,47.006C80.199,36.218,69.636,27,59,27c-9.324,0-18.992,7.09-19.908,16.173
				C30.425,41.871,23,48.602,23,57c0,7.732,6.268,14,14,14h38c6.627,0,12-5.373,12-12C87,52.264,82,47.006,79,47.006z"/>
		</g>
		<g>
			<path style="fill:#FFFFFF;" d="M59,27c-9.324,0-18.992,7.09-19.908,16.173C30.425,41.871,23,48.602,23,57c0,7.732,6.268,14,14,14
				h0.747l36.842-36.842C70.729,29.818,64.877,27,59,27z"/>
		</g>
		<g>
			<path style="fill:#3D320C;" d="M47,57.692v19.541c-3.922-0.925-8,1.018-8,3.768c0,2.209,2.687,4,6,4s6-1.791,6-4V60.308l12-5.25
				v14.174c-3.922-0.925-8,1.018-8,3.768c0,2.209,2.687,4,6,4s6-1.791,6-4V48.942L47,57.692z"/>
		</g>
	</g>
</g>
<g id="R-Yellow" style="display:none;">
	<g style="display:inline;">
		<circle style="fill:#FFD75E;" cx="55" cy="55" r="55"/>
	</g>
	<g style="display:inline;">
		<g>
			<path style="fill:#FFF5D9;" d="M79,47.006C80.199,36.219,69.636,27,59,27c-9.324,0-18.992,7.09-19.908,16.173
				C30.425,41.871,23,48.603,23,57c0,7.732,6.268,14,14,14h38c6.627,0,12-5.373,12-12C87,52.265,82,47.006,79,47.006z"/>
		</g>
		<g>
			<path style="fill:#FFFFFF;" d="M59,27c-9.324,0-18.992,7.09-19.908,16.173C30.425,41.871,23,48.603,23,57c0,7.732,6.268,14,14,14
				h0.747l36.842-36.842C70.729,29.818,64.877,27,59,27z"/>
		</g>
		<g>
			<path style="fill:#3D320C;" d="M47,57.692v19.541c-3.922-0.925-8,1.018-8,3.768c0,2.21,2.687,4,6,4s6-1.79,6-4V60.308l12-5.25
				v14.174c-3.922-0.925-8,1.018-8,3.768c0,2.21,2.687,4,6,4c3.314,0,6-1.79,6-4V48.942L47,57.692z"/>
		</g>
	</g>
</g>
</svg>
