<?xml version="1.0" encoding="iso-8859-1"?>
<!-- Generator: Adobe Illustrator 17.1.0, SVG Export Plug-In . SVG Version: 6.00 Build 0)  -->
<!DOCTYPE svg PUBLIC "-//W3C//DTD SVG 1.0//EN" "http://www.w3.org/TR/2001/REC-SVG-20010904/DTD/svg10.dtd">
<svg version="1.0" xmlns="http://www.w3.org/2000/svg" xmlns:xlink="http://www.w3.org/1999/xlink" x="0px" y="0px" width="110px"
	 height="110px" viewBox="0 0 110 110" style="enable-background:new 0 0 110 110;" xml:space="preserve">
<g id="Artboard" style="display:none;">
	
		<rect x="-435.5" y="-185.5" style="display:inline;fill:#808080;stroke:#000000;stroke-miterlimit:10;" width="1342" height="483"/>
</g>
<g id="R-Multicolor" style="display:none;">
	<circle style="display:inline;fill:#25B7D3;" cx="55" cy="55" r="55"/>
	<g style="display:inline;">
		<g>
			<polygon style="fill:#3E3E3F;" points="67,23 43,23 31,39 43,87 67,87 79,39 			"/>
		</g>
		<g>
			<polygon style="fill:#5B5C5F;" points="55,23 43,23 31,39 43,87 55,87 			"/>
		</g>
		<g>
			<polygon style="fill:#E2E4E5;" points="69,41 59,41 59,31 51,31 51,41 41,41 41,49 51,49 51,67 59,67 59,49 69,49 			"/>
		</g>
		<g>
			<polygon style="fill:#FFFFFF;" points="55,67 55,31 51,31 51,41 41,41 41,49 51,49 51,67 			"/>
		</g>
	</g>
</g>
<g id="Multicolor">
	<g>
		<g>
			<polygon style="fill:#3E3E3F;" points="67,23 43,23 31,39 43,87 67,87 79,39 			"/>
		</g>
		<g>
			<polygon style="fill:#5B5C5F;" points="55,23 43,23 31,39 43,87 55,87 			"/>
		</g>
		<g>
			<polygon style="fill:#E2E4E5;" points="69,41 59,41 59,31 51,31 51,41 41,41 41,49 51,49 51,67 59,67 59,49 69,49 			"/>
		</g>
		<g>
			<polygon style="fill:#FFFFFF;" points="55,67 55,31 51,31 51,41 41,41 41,49 51,49 51,67 			"/>
		</g>
	</g>
</g>
<g id="Blue" style="display:none;">
	<g style="display:inline;">
		<g>
			<polygon style="fill:#0C333D;" points="67,23 43,23 31,39 43,87 67,87 79,39 			"/>
		</g>
		<g>
			<polygon style="fill:#0F6175;" points="55,23 43,23 31,39 43,87 55,87 			"/>
		</g>
		<g>
			<polygon style="fill:#E1F5FA;" points="69,41 59,41 59,31 51,31 51,41 41,41 41,49 51,49 51,67 59,67 59,49 69,49 			"/>
		</g>
		<g>
			<polygon style="fill:#FFFFFF;" points="55,67 55,31 51,31 51,41 41,41 41,49 51,49 51,67 			"/>
		</g>
	</g>
</g>
<g id="R-Blue" style="display:none;">
	<circle style="display:inline;fill:#81D2EB;" cx="55" cy="55" r="55"/>
	<g style="display:inline;">
		<g>
			<polygon style="fill:#0C333D;" points="67,23 43,23 31,39 43,87 67,87 79,39 			"/>
		</g>
		<g>
			<polygon style="fill:#0F6175;" points="55,23 43,23 31,39 43,87 55,87 			"/>
		</g>
		<g>
			<polygon style="fill:#E1F5FA;" points="69,41 59,41 59,31 51,31 51,41 41,41 41,49 51,49 51,67 59,67 59,49 69,49 			"/>
		</g>
		<g>
			<polygon style="fill:#FFFFFF;" points="55,67 55,31 51,31 51,41 41,41 41,49 51,49 51,67 			"/>
		</g>
	</g>
</g>
<g id="Green" style="display:none;">
	<g style="display:inline;">
		<g>
			<polygon style="fill:#0A3631;" points="67,23 43,23 31,39 43,87 67,87 79,39 			"/>
		</g>
		<g>
			<polygon style="fill:#14635B;" points="55,23 43,23 31,39 43,87 55,87 			"/>
		</g>
		<g>
			<polygon style="fill:#D7FCF9;" points="69,41 59,41 59,31 51,31 51,41 41,41 41,49 51,49 51,67 59,67 59,49 69,49 			"/>
		</g>
		<g>
			<polygon style="fill:#FFFFFF;" points="55,67 55,31 51,31 51,41 41,41 41,49 51,49 51,67 			"/>
		</g>
	</g>
</g>
<g id="R-Green" style="display:none;">
	<circle style="display:inline;fill:#77E0C4;" cx="55" cy="55" r="55"/>
	<g style="display:inline;">
		<g>
			<polygon style="fill:#0A3631;" points="67,23 43,23 31,39 43,87 67,87 79,39 			"/>
		</g>
		<g>
			<polygon style="fill:#14635B;" points="55,23 43,23 31,39 43,87 55,87 			"/>
		</g>
		<g>
			<polygon style="fill:#D7FCF9;" points="69,41 59,41 59,31 51,31 51,41 41,41 41,49 51,49 51,67 59,67 59,49 69,49 			"/>
		</g>
		<g>
			<polygon style="fill:#FFFFFF;" points="55,67 55,31 51,31 51,41 41,41 41,49 51,49 51,67 			"/>
		</g>
	</g>
</g>
<g id="Red" style="display:none;">
	<g style="display:inline;">
		<g>
			<polygon style="fill:#4A1410;" points="67,23 43,23 31,39 43,87 67,87 79,39 			"/>
		</g>
		<g>
			<polygon style="fill:#7D261E;" points="55,23 43,23 31,39 43,87 55,87 			"/>
		</g>
		<g>
			<polygon style="fill:#FFEFED;" points="69,41 59,41 59,31 51,31 51,41 41,41 41,49 51,49 51,67 59,67 59,49 69,49 			"/>
		</g>
		<g>
			<polygon style="fill:#FFFFFF;" points="55,67 55,31 51,31 51,41 41,41 41,49 51,49 51,67 			"/>
		</g>
	</g>
</g>
<g id="R-Red" style="display:none;">
	<circle style="display:inline;fill:#FABBAF;" cx="55" cy="55" r="55"/>
	<g style="display:inline;">
		<g>
			<polygon style="fill:#4A1410;" points="67,23 43,23 31,39 43,87 67,87 79,39 			"/>
		</g>
		<g>
			<polygon style="fill:#7D261E;" points="55,23 43,23 31,39 43,87 55,87 			"/>
		</g>
		<g>
			<polygon style="fill:#FFEFED;" points="69,41 59,41 59,31 51,31 51,41 41,41 41,49 51,49 51,67 59,67 59,49 69,49 			"/>
		</g>
		<g>
			<polygon style="fill:#FFFFFF;" points="55,67 55,31 51,31 51,41 41,41 41,49 51,49 51,67 			"/>
		</g>
	</g>
</g>
<g id="Yellow" style="display:none;">
	<g style="display:inline;">
		<g>
			<polygon style="fill:#3D320C;" points="67,23 43,23 31,39 43,87 67,87 79,39 			"/>
		</g>
		<g>
			<polygon style="fill:#66510D;" points="55,23 43,23 31,39 43,87 55,87 			"/>
		</g>
		<g>
			<polygon style="fill:#FFF5D9;" points="69,41 59,41 59,31 51,31 51,41 41,41 41,49 51,49 51,67 59,67 59,49 69,49 			"/>
		</g>
		<g>
			<polygon style="fill:#FFFFFF;" points="55,67 55,31 51,31 51,41 41,41 41,49 51,49 51,67 			"/>
		</g>
	</g>
</g>
<g id="R-Yellow" style="display:none;">
	<circle style="display:inline;fill:#FFD75E;" cx="55" cy="55" r="55"/>
	<g style="display:inline;">
		<g>
			<polygon style="fill:#3D320C;" points="67,23 43,23 31,39 43,87 67,87 79,39 			"/>
		</g>
		<g>
			<polygon style="fill:#66510D;" points="55,23 43,23 31,39 43,87 55,87 			"/>
		</g>
		<g>
			<polygon style="fill:#FFF5D9;" points="69,41 59,41 59,31 51,31 51,41 41,41 41,49 51,49 51,67 59,67 59,49 69,49 			"/>
		</g>
		<g>
			<polygon style="fill:#FFFFFF;" points="55,67 55,31 51,31 51,41 41,41 41,49 51,49 51,67 			"/>
		</g>
	</g>
</g>
</svg>
