<?xml version="1.0" encoding="iso-8859-1"?>
<!-- Generator: Adobe Illustrator 17.1.0, SVG Export Plug-In . SVG Version: 6.00 Build 0)  -->
<!DOCTYPE svg PUBLIC "-//W3C//DTD SVG 1.0//EN" "http://www.w3.org/TR/2001/REC-SVG-20010904/DTD/svg10.dtd">
<svg version="1.0" xmlns="http://www.w3.org/2000/svg" xmlns:xlink="http://www.w3.org/1999/xlink" x="0px" y="0px" width="110px"
	 height="110px" viewBox="0 0 110 110" style="enable-background:new 0 0 110 110;" xml:space="preserve">
<g id="Artboard" style="display:none;">
	<rect x="-551.5" y="-51.5" style="display:inline;fill:#808080;stroke:#000000;stroke-miterlimit:10;" width="1321" height="454"/>
</g>
<g id="R-Multicolor" style="display:none;">
	<circle style="display:inline;fill:#32BEA6;" cx="55" cy="55" r="55"/>
	<g style="display:inline;">
		<path style="fill:#3E3E3F;" d="M87,76.008C87,82.079,82.079,87,76.008,87H23V65.016h53.008C82.079,65.016,87,69.937,87,76.008z"/>
		<path style="fill:#818284;" d="M83,76.016c0,3.866-3.134,7-7,7H23v-14h53C79.866,69.016,83,72.15,83,76.016z"/>
		<circle style="fill:#F0F1F1;" cx="34" cy="76" r="7"/>
		<path style="fill:#EDBC7C;" d="M60,62.364c0,1.465-1.187,2.652-2.652,2.652H25.652c-1.465,0-2.652-1.187-2.652-2.652V33.652
			C23,32.187,24.187,31,25.652,31h31.696C58.813,31,60,32.187,60,33.652V62.364z"/>
		<path style="fill:#F4D0A1;" d="M57.348,31H25.652C24.187,31,23,32.187,23,33.652v28.712c0,0.946,0.499,1.77,1.244,2.24
			l34.708-33.05C58.506,31.212,57.954,31,57.348,31z"/>
		<rect x="49.52" y="54.407" style="fill:#F4D0A1;" width="7.956" height="5.304"/>
		<polygon style="fill:#FCF1E2;" points="46.868,41.147 44.216,38.495 41.564,41.147 38.912,38.495 36.26,41.147 36.26,31 
			46.868,31 		"/>
		<path style="fill:#EDBC7C;" d="M79,63.643C79,64.392,78.392,65,77.643,65H61.357C60.608,65,60,64.392,60,63.643V48.714
			c0-0.75,0.608-1.357,1.357-1.357h16.286c0.75,0,1.357,0.608,1.357,1.357V63.643z"/>
		<path style="fill:#F4D0A1;" d="M77.643,47.357H61.357c-0.75,0-1.357,0.608-1.357,1.357v14.929c0,0.484,0.255,0.906,0.637,1.146
			L78.464,47.64C78.235,47.465,77.953,47.357,77.643,47.357z"/>
		<rect x="73.571" y="59.571" style="fill:#F4D0A1;" width="4.071" height="2.714"/>
		<polygon style="fill:#FCF1E2;" points="72.214,52.786 70.857,51.429 69.5,52.786 68.143,51.429 66.786,52.786 66.786,47.357 
			72.214,47.357 		"/>
		<circle style="fill:#B6BCBD;" cx="34" cy="76" r="5"/>
		<circle style="fill:#5B5C5F;" cx="34" cy="76.016" r="2"/>
		<circle style="fill:#F0F1F1;" cx="55" cy="76.016" r="7"/>
		<circle style="fill:#B6BCBD;" cx="55" cy="76" r="5"/>
		<circle style="fill:#5B5C5F;" cx="55" cy="76.016" r="2"/>
		<circle style="fill:#F0F1F1;" cx="76" cy="76.016" r="7"/>
		<circle style="fill:#B6BCBD;" cx="76" cy="76" r="5"/>
		<circle style="fill:#5B5C5F;" cx="76" cy="76.016" r="2"/>
	</g>
</g>
<g id="Multicolor_1_">
	<g>
		<path style="fill:#3E3E3F;" d="M87,76.008C87,82.079,82.079,87,76.008,87H23V65.016h53.008C82.079,65.016,87,69.937,87,76.008z"/>
		<path style="fill:#818284;" d="M83,76.016c0,3.866-3.134,7-7,7H23v-14h53C79.866,69.016,83,72.15,83,76.016z"/>
		<circle style="fill:#F0F1F1;" cx="34" cy="76" r="7"/>
		<path style="fill:#EDBC7C;" d="M60,62.364c0,1.465-1.187,2.652-2.652,2.652H25.652c-1.465,0-2.652-1.187-2.652-2.652V33.652
			C23,32.187,24.187,31,25.652,31h31.696C58.813,31,60,32.187,60,33.652V62.364z"/>
		<path style="fill:#F4D0A1;" d="M57.348,31H25.652C24.187,31,23,32.187,23,33.652v28.712c0,0.946,0.499,1.77,1.244,2.24
			l34.708-33.05C58.506,31.212,57.954,31,57.348,31z"/>
		<rect x="49.52" y="54.407" style="fill:#F4D0A1;" width="7.956" height="5.304"/>
		<polygon style="fill:#FCF1E2;" points="46.868,41.147 44.216,38.495 41.564,41.147 38.912,38.495 36.26,41.147 36.26,31 
			46.868,31 		"/>
		<path style="fill:#EDBC7C;" d="M79,63.643C79,64.392,78.392,65,77.643,65H61.357C60.608,65,60,64.392,60,63.643V48.714
			c0-0.75,0.608-1.357,1.357-1.357h16.286c0.75,0,1.357,0.608,1.357,1.357V63.643z"/>
		<path style="fill:#F4D0A1;" d="M77.643,47.357H61.357c-0.75,0-1.357,0.608-1.357,1.357v14.929c0,0.484,0.255,0.906,0.637,1.146
			L78.464,47.64C78.235,47.465,77.953,47.357,77.643,47.357z"/>
		<rect x="73.571" y="59.571" style="fill:#F4D0A1;" width="4.071" height="2.714"/>
		<polygon style="fill:#FCF1E2;" points="72.214,52.786 70.857,51.429 69.5,52.786 68.143,51.429 66.786,52.786 66.786,47.357 
			72.214,47.357 		"/>
		<circle style="fill:#B6BCBD;" cx="34" cy="76" r="5"/>
		<circle style="fill:#5B5C5F;" cx="34" cy="76.016" r="2"/>
		<circle style="fill:#F0F1F1;" cx="55" cy="76.016" r="7"/>
		<circle style="fill:#B6BCBD;" cx="55" cy="76" r="5"/>
		<circle style="fill:#5B5C5F;" cx="55" cy="76.016" r="2"/>
		<circle style="fill:#F0F1F1;" cx="76" cy="76.016" r="7"/>
		<circle style="fill:#B6BCBD;" cx="76" cy="76" r="5"/>
		<circle style="fill:#5B5C5F;" cx="76" cy="76.016" r="2"/>
	</g>
</g>
<g id="Blue" style="display:none;">
	<g style="display:inline;">
		<g>
			<path style="fill:#0C333D;" d="M87,76.008C87,82.079,82.079,87,76.008,87H23V65.016h53.008C82.079,65.016,87,69.937,87,76.008z"
				/>
		</g>
		<g>
			<path style="fill:#0F6175;" d="M83,76.016c0,3.866-3.134,7-7,7H23v-14h53C79.866,69.016,83,72.15,83,76.016z"/>
		</g>
		<g>
			<circle style="fill:#E1F5FA;" cx="34" cy="76" r="7"/>
		</g>
		<g>
			<path style="fill:#0081A1;" d="M60,62.364c0,1.465-1.188,2.652-2.652,2.652H25.652c-1.464,0-2.652-1.187-2.652-2.652V33.652
				C23,32.188,24.187,31,25.652,31h31.696C58.812,31,60,32.188,60,33.652V62.364z"/>
		</g>
		<g>
			<path style="fill:#009FC7;" d="M57.348,31H25.652C24.187,31,23,32.188,23,33.652v28.712c0,0.946,0.499,1.77,1.244,2.24
				l34.708-33.05C58.506,31.212,57.954,31,57.348,31z"/>
		</g>
		<g>
			<rect x="49.52" y="54.408" style="fill:#00B7E5;" width="7.956" height="5.304"/>
		</g>
		<g>
			<polygon style="fill:#BBE7F2;" points="46.868,41.148 44.216,38.495 41.564,41.148 38.912,38.495 36.26,41.148 36.26,31 
				46.868,31 			"/>
		</g>
		<g>
			<path style="fill:#0081A1;" d="M79,63.643C79,64.393,78.393,65,77.643,65H61.357C60.607,65,60,64.393,60,63.643V48.714
				c0-0.75,0.607-1.357,1.357-1.357h16.285c0.75,0,1.357,0.607,1.357,1.357V63.643z"/>
		</g>
		<g>
			<path style="fill:#009FC7;" d="M77.643,47.357H61.357c-0.75,0-1.357,0.607-1.357,1.357v14.929c0,0.484,0.255,0.906,0.637,1.147
				l17.827-17.149C78.235,47.466,77.953,47.357,77.643,47.357z"/>
		</g>
		<g>
			<rect x="73.571" y="59.571" style="fill:#00B7E5;" width="4.071" height="2.714"/>
		</g>
		<g>
			<polygon style="fill:#BBE7F2;" points="72.214,52.786 70.857,51.429 69.5,52.786 68.143,51.429 66.786,52.786 66.786,47.357 
				72.214,47.357 			"/>
		</g>
		<g>
			<circle style="fill:#53BAD4;" cx="34" cy="76" r="5"/>
		</g>
		<g>
			<circle style="fill:#0C333D;" cx="34" cy="76.016" r="2"/>
		</g>
		<g>
			<circle style="fill:#E1F5FA;" cx="55" cy="76.016" r="7"/>
		</g>
		<g>
			<circle style="fill:#53BAD4;" cx="55" cy="76" r="5"/>
		</g>
		<g>
			<circle style="fill:#0C333D;" cx="55" cy="76.016" r="2"/>
		</g>
		<g>
			<circle style="fill:#E1F5FA;" cx="76" cy="76.016" r="7"/>
		</g>
		<g>
			<circle style="fill:#53BAD4;" cx="76" cy="76" r="5"/>
		</g>
		<g>
			<circle style="fill:#0C333D;" cx="76" cy="76.016" r="2"/>
		</g>
	</g>
</g>
<g id="R-Blue" style="display:none;">
	<g style="display:inline;">
		<circle style="fill:#81D2EB;" cx="55" cy="55" r="55"/>
	</g>
	<g style="display:inline;">
		<g>
			<path style="fill:#0C333D;" d="M87,76.008C87,82.079,82.079,87,76.008,87H23V65.016h53.008C82.079,65.016,87,69.937,87,76.008z"
				/>
		</g>
		<g>
			<path style="fill:#0F6175;" d="M83,76.016c0,3.866-3.134,7-7,7H23v-14h53C79.866,69.016,83,72.15,83,76.016z"/>
		</g>
		<g>
			<circle style="fill:#E1F5FA;" cx="34" cy="76" r="7"/>
		</g>
		<g>
			<path style="fill:#0081A1;" d="M60,62.364c0,1.465-1.188,2.652-2.652,2.652H25.652c-1.464,0-2.652-1.187-2.652-2.652V33.652
				C23,32.188,24.188,31,25.652,31h31.696C58.812,31,60,32.188,60,33.652V62.364z"/>
		</g>
		<g>
			<path style="fill:#009FC7;" d="M57.348,31H25.652C24.187,31,23,32.188,23,33.652v28.712c0,0.946,0.499,1.77,1.244,2.24
				l34.708-33.05C58.506,31.212,57.954,31,57.348,31z"/>
		</g>
		<g>
			<rect x="49.52" y="54.408" style="fill:#00B7E5;" width="7.956" height="5.304"/>
		</g>
		<g>
			<polygon style="fill:#BBE7F2;" points="46.868,41.148 44.216,38.495 41.564,41.148 38.912,38.495 36.26,41.148 36.26,31 
				46.868,31 			"/>
		</g>
		<g>
			<path style="fill:#0081A1;" d="M79,63.643C79,64.393,78.393,65,77.643,65H61.357C60.607,65,60,64.393,60,63.643V48.714
				c0-0.75,0.607-1.357,1.357-1.357h16.285c0.75,0,1.357,0.607,1.357,1.357V63.643z"/>
		</g>
		<g>
			<path style="fill:#009FC7;" d="M77.643,47.357H61.357c-0.75,0-1.357,0.607-1.357,1.357v14.929c0,0.484,0.255,0.906,0.637,1.147
				l17.827-17.149C78.235,47.466,77.953,47.357,77.643,47.357z"/>
		</g>
		<g>
			<rect x="73.571" y="59.571" style="fill:#00B7E5;" width="4.071" height="2.714"/>
		</g>
		<g>
			<polygon style="fill:#BBE7F2;" points="72.214,52.786 70.857,51.429 69.5,52.786 68.143,51.429 66.786,52.786 66.786,47.357 
				72.214,47.357 			"/>
		</g>
		<g>
			<circle style="fill:#53BAD4;" cx="34" cy="76" r="5"/>
		</g>
		<g>
			<circle style="fill:#0C333D;" cx="34" cy="76.016" r="2"/>
		</g>
		<g>
			<circle style="fill:#E1F5FA;" cx="55" cy="76.016" r="7"/>
		</g>
		<g>
			<circle style="fill:#53BAD4;" cx="55" cy="76" r="5"/>
		</g>
		<g>
			<circle style="fill:#0C333D;" cx="55" cy="76.016" r="2"/>
		</g>
		<g>
			<circle style="fill:#E1F5FA;" cx="76" cy="76.016" r="7"/>
		</g>
		<g>
			<circle style="fill:#53BAD4;" cx="76" cy="76" r="5"/>
		</g>
		<g>
			<circle style="fill:#0C333D;" cx="76" cy="76.016" r="2"/>
		</g>
	</g>
</g>
<g id="Green" style="display:none;">
	<g style="display:inline;">
		<g>
			<path style="fill:#0A3631;" d="M87,76.008C87,82.079,82.079,87,76.008,87H23V65.016h53.008C82.079,65.016,87,69.937,87,76.008z"
				/>
		</g>
		<g>
			<path style="fill:#14635B;" d="M83,76.016c0,3.866-3.134,7-7,7H23v-14h53C79.866,69.016,83,72.15,83,76.016z"/>
		</g>
		<g>
			<circle style="fill:#D7FCF9;" cx="34" cy="76" r="7"/>
		</g>
		<g>
			<path style="fill:#009687;" d="M60,62.364c0,1.465-1.188,2.652-2.652,2.652H25.652c-1.464,0-2.652-1.187-2.652-2.652V33.652
				C23,32.188,24.187,31,25.652,31h31.696C58.812,31,60,32.188,60,33.652V62.364z"/>
		</g>
		<g>
			<path style="fill:#00B8A5;" d="M57.348,31H25.652C24.187,31,23,32.188,23,33.652v28.712c0,0.946,0.499,1.77,1.244,2.24
				l34.708-33.05C58.506,31.212,57.954,31,57.348,31z"/>
		</g>
		<g>
			<rect x="49.52" y="54.408" style="fill:#00D6C1;" width="7.956" height="5.304"/>
		</g>
		<g>
			<polygon style="fill:#AAF0E9;" points="46.868,41.148 44.216,38.495 41.564,41.148 38.912,38.495 36.26,41.148 36.26,31 
				46.868,31 			"/>
		</g>
		<g>
			<path style="fill:#009687;" d="M79,63.643C79,64.393,78.393,65,77.643,65H61.357C60.607,65,60,64.393,60,63.643V48.714
				c0-0.75,0.607-1.357,1.357-1.357h16.285c0.75,0,1.357,0.607,1.357,1.357V63.643z"/>
		</g>
		<g>
			<path style="fill:#00B8A5;" d="M77.643,47.357H61.357c-0.75,0-1.357,0.607-1.357,1.357v14.929c0,0.484,0.255,0.906,0.637,1.147
				l17.827-17.149C78.235,47.466,77.953,47.357,77.643,47.357z"/>
		</g>
		<g>
			<rect x="73.571" y="59.571" style="fill:#00D6C1;" width="4.071" height="2.714"/>
		</g>
		<g>
			<polygon style="fill:#AAF0E9;" points="72.214,52.786 70.857,51.429 69.5,52.786 68.143,51.429 66.786,52.786 66.786,47.357 
				72.214,47.357 			"/>
		</g>
		<g>
			<circle style="fill:#5DCFC3;" cx="34" cy="76" r="5"/>
		</g>
		<g>
			<circle style="fill:#0A3631;" cx="34" cy="76.016" r="2"/>
		</g>
		<g>
			<circle style="fill:#D7FCF9;" cx="55" cy="76.016" r="7"/>
		</g>
		<g>
			<circle style="fill:#5DCFC3;" cx="55" cy="76" r="5"/>
		</g>
		<g>
			<circle style="fill:#0A3631;" cx="55" cy="76.016" r="2"/>
		</g>
		<g>
			<circle style="fill:#D7FCF9;" cx="76" cy="76.016" r="7"/>
		</g>
		<g>
			<circle style="fill:#5DCFC3;" cx="76" cy="76" r="5"/>
		</g>
		<g>
			<circle style="fill:#0A3631;" cx="76" cy="76.016" r="2"/>
		</g>
	</g>
</g>
<g id="R-Green" style="display:none;">
	<g style="display:inline;">
		<circle style="fill:#87E0C8;" cx="55" cy="55" r="55"/>
	</g>
	<g style="display:inline;">
		<g>
			<path style="fill:#0A3631;" d="M87,76.008C87,82.079,82.079,87,76.008,87H23V65.016h53.008C82.079,65.016,87,69.937,87,76.008z"
				/>
		</g>
		<g>
			<path style="fill:#14635B;" d="M83,76.016c0,3.866-3.134,7-7,7H23v-14h53C79.866,69.016,83,72.15,83,76.016z"/>
		</g>
		<g>
			<circle style="fill:#D7FCF9;" cx="34" cy="76" r="7"/>
		</g>
		<g>
			<path style="fill:#009687;" d="M60,62.364c0,1.465-1.188,2.652-2.652,2.652H25.652c-1.464,0-2.652-1.187-2.652-2.652V33.652
				C23,32.188,24.188,31,25.652,31h31.696C58.812,31,60,32.188,60,33.652V62.364z"/>
		</g>
		<g>
			<path style="fill:#00B8A5;" d="M57.348,31H25.652C24.187,31,23,32.188,23,33.652v28.712c0,0.946,0.499,1.77,1.244,2.24
				l34.708-33.05C58.506,31.212,57.954,31,57.348,31z"/>
		</g>
		<g>
			<rect x="49.52" y="54.408" style="fill:#00D6C1;" width="7.956" height="5.304"/>
		</g>
		<g>
			<polygon style="fill:#AAF0E9;" points="46.868,41.148 44.216,38.495 41.564,41.148 38.912,38.495 36.26,41.148 36.26,31 
				46.868,31 			"/>
		</g>
		<g>
			<path style="fill:#009687;" d="M79,63.643C79,64.393,78.393,65,77.643,65H61.357C60.607,65,60,64.393,60,63.643V48.714
				c0-0.75,0.607-1.357,1.357-1.357h16.285c0.75,0,1.357,0.607,1.357,1.357V63.643z"/>
		</g>
		<g>
			<path style="fill:#00B8A5;" d="M77.643,47.357H61.357c-0.75,0-1.357,0.607-1.357,1.357v14.929c0,0.484,0.255,0.906,0.637,1.147
				l17.827-17.149C78.235,47.466,77.953,47.357,77.643,47.357z"/>
		</g>
		<g>
			<rect x="73.571" y="59.571" style="fill:#00D6C1;" width="4.071" height="2.714"/>
		</g>
		<g>
			<polygon style="fill:#AAF0E9;" points="72.214,52.786 70.857,51.429 69.5,52.786 68.143,51.429 66.786,52.786 66.786,47.357 
				72.214,47.357 			"/>
		</g>
		<g>
			<circle style="fill:#5DCFC3;" cx="34" cy="76" r="5"/>
		</g>
		<g>
			<circle style="fill:#0A3631;" cx="34" cy="76.016" r="2"/>
		</g>
		<g>
			<circle style="fill:#D7FCF9;" cx="55" cy="76.016" r="7"/>
		</g>
		<g>
			<circle style="fill:#5DCFC3;" cx="55" cy="76" r="5"/>
		</g>
		<g>
			<circle style="fill:#0A3631;" cx="55" cy="76.016" r="2"/>
		</g>
		<g>
			<circle style="fill:#D7FCF9;" cx="76" cy="76.016" r="7"/>
		</g>
		<g>
			<circle style="fill:#5DCFC3;" cx="76" cy="76" r="5"/>
		</g>
		<g>
			<circle style="fill:#0A3631;" cx="76" cy="76.016" r="2"/>
		</g>
	</g>
</g>
<g id="Red" style="display:none;">
	<g style="display:inline;">
		<g>
			<path style="fill:#4A1410;" d="M87,76.008C87,82.079,82.079,87,76.008,87H23V65.016h53.008C82.079,65.016,87,69.937,87,76.008z"
				/>
		</g>
		<g>
			<path style="fill:#7D261E;" d="M83,76.016c0,3.866-3.134,7-7,7H23v-14h53C79.866,69.016,83,72.15,83,76.016z"/>
		</g>
		<g>
			<circle style="fill:#FFEFED;" cx="34" cy="76" r="7"/>
		</g>
		<g>
			<path style="fill:#C23023;" d="M60,62.364c0,1.465-1.188,2.652-2.652,2.652H25.652c-1.464,0-2.652-1.187-2.652-2.652V33.652
				C23,32.188,24.187,31,25.652,31h31.696C58.812,31,60,32.188,60,33.652V62.364z"/>
		</g>
		<g>
			<path style="fill:#E54B44;" d="M57.348,31H25.652C24.187,31,23,32.188,23,33.652v28.712c0,0.946,0.499,1.77,1.244,2.24
				l34.708-33.05C58.506,31.212,57.954,31,57.348,31z"/>
		</g>
		<g>
			<rect x="49.52" y="54.408" style="fill:#FF6C5E;" width="7.956" height="5.304"/>
		</g>
		<g>
			<polygon style="fill:#FFD7D4;" points="46.868,41.148 44.216,38.495 41.564,41.148 38.912,38.495 36.26,41.148 36.26,31 
				46.868,31 			"/>
		</g>
		<g>
			<path style="fill:#C23023;" d="M79,63.643C79,64.393,78.393,65,77.643,65H61.357C60.607,65,60,64.393,60,63.643V48.714
				c0-0.75,0.607-1.357,1.357-1.357h16.285c0.75,0,1.357,0.607,1.357,1.357V63.643z"/>
		</g>
		<g>
			<path style="fill:#E54B44;" d="M77.643,47.357H61.357c-0.75,0-1.357,0.607-1.357,1.357v14.929c0,0.484,0.255,0.906,0.637,1.147
				l17.827-17.149C78.235,47.466,77.953,47.357,77.643,47.357z"/>
		</g>
		<g>
			<rect x="73.571" y="59.571" style="fill:#FF6C5E;" width="4.071" height="2.714"/>
		</g>
		<g>
			<polygon style="fill:#FFD7D4;" points="72.214,52.786 70.857,51.429 69.5,52.786 68.143,51.429 66.786,52.786 66.786,47.357 
				72.214,47.357 			"/>
		</g>
		<g>
			<circle style="fill:#E8A099;" cx="34" cy="76" r="5"/>
		</g>
		<g>
			<circle style="fill:#4A1410;" cx="34" cy="76.016" r="2"/>
		</g>
		<g>
			<circle style="fill:#FFEFED;" cx="55" cy="76.016" r="7"/>
		</g>
		<g>
			<circle style="fill:#E8A099;" cx="55" cy="76" r="5"/>
		</g>
		<g>
			<circle style="fill:#4A1410;" cx="55" cy="76.016" r="2"/>
		</g>
		<g>
			<circle style="fill:#FFEFED;" cx="76" cy="76.016" r="7"/>
		</g>
		<g>
			<circle style="fill:#E8A099;" cx="76" cy="76" r="5"/>
		</g>
		<g>
			<circle style="fill:#4A1410;" cx="76" cy="76.016" r="2"/>
		</g>
	</g>
</g>
<g id="R-Red" style="display:none;">
	<g style="display:inline;">
		<circle style="fill:#FABBAF;" cx="55" cy="55" r="55"/>
	</g>
	<g style="display:inline;">
		<g>
			<path style="fill:#4A1410;" d="M87,76.008C87,82.079,82.079,87,76.008,87H23V65.016h53.008C82.079,65.016,87,69.937,87,76.008z"
				/>
		</g>
		<g>
			<path style="fill:#7D261E;" d="M83,76.016c0,3.866-3.134,7-7,7H23v-14h53C79.866,69.016,83,72.15,83,76.016z"/>
		</g>
		<g>
			<circle style="fill:#FFEFED;" cx="34" cy="76" r="7"/>
		</g>
		<g>
			<path style="fill:#C23023;" d="M60,62.364c0,1.465-1.188,2.652-2.652,2.652H25.652c-1.464,0-2.652-1.187-2.652-2.652V33.652
				C23,32.188,24.188,31,25.652,31h31.696C58.812,31,60,32.188,60,33.652V62.364z"/>
		</g>
		<g>
			<path style="fill:#E54B44;" d="M57.348,31H25.652C24.187,31,23,32.188,23,33.652v28.712c0,0.946,0.499,1.77,1.244,2.24
				l34.708-33.05C58.506,31.212,57.954,31,57.348,31z"/>
		</g>
		<g>
			<rect x="49.521" y="54.408" style="fill:#FF6C5E;" width="7.956" height="5.304"/>
		</g>
		<g>
			<polygon style="fill:#FFD7D4;" points="46.868,41.148 44.216,38.495 41.565,41.148 38.912,38.495 36.26,41.148 36.26,31 
				46.868,31 			"/>
		</g>
		<g>
			<path style="fill:#C23023;" d="M79,63.643C79,64.393,78.393,65,77.643,65H61.357C60.607,65,60,64.393,60,63.643V48.714
				c0-0.75,0.607-1.357,1.357-1.357h16.285c0.75,0,1.357,0.607,1.357,1.357V63.643z"/>
		</g>
		<g>
			<path style="fill:#E54B44;" d="M77.643,47.357H61.357c-0.75,0-1.357,0.607-1.357,1.357v14.929c0,0.484,0.255,0.906,0.637,1.147
				l17.827-17.149C78.235,47.466,77.953,47.357,77.643,47.357z"/>
		</g>
		<g>
			<rect x="73.571" y="59.571" style="fill:#FF6C5E;" width="4.071" height="2.714"/>
		</g>
		<g>
			<polygon style="fill:#FFD7D4;" points="72.214,52.786 70.857,51.429 69.5,52.786 68.143,51.429 66.786,52.786 66.786,47.357 
				72.214,47.357 			"/>
		</g>
		<g>
			<circle style="fill:#E8A099;" cx="34" cy="76" r="5"/>
		</g>
		<g>
			<circle style="fill:#4A1410;" cx="34" cy="76.016" r="2"/>
		</g>
		<g>
			<circle style="fill:#FFEFED;" cx="55" cy="76.016" r="7"/>
		</g>
		<g>
			<circle style="fill:#E8A099;" cx="55" cy="76" r="5"/>
		</g>
		<g>
			<circle style="fill:#4A1410;" cx="55" cy="76.016" r="2"/>
		</g>
		<g>
			<circle style="fill:#FFEFED;" cx="76" cy="76.016" r="7"/>
		</g>
		<g>
			<circle style="fill:#E8A099;" cx="76" cy="76" r="5"/>
		</g>
		<g>
			<circle style="fill:#4A1410;" cx="76" cy="76.016" r="2"/>
		</g>
	</g>
</g>
<g id="Yellow" style="display:none;">
	<g style="display:inline;">
		<g>
			<path style="fill:#3D320C;" d="M87,76.008C87,82.079,82.079,87,76.008,87H23V65.016h53.008C82.079,65.016,87,69.937,87,76.008z"
				/>
		</g>
		<g>
			<path style="fill:#66510D;" d="M83,76.016c0,3.866-3.134,7-7,7H23v-14h53C79.866,69.016,83,72.15,83,76.016z"/>
		</g>
		<g>
			<circle style="fill:#FFF5D9;" cx="34" cy="76" r="7"/>
		</g>
		<g>
			<path style="fill:#E07000;" d="M60,62.364c0,1.465-1.188,2.652-2.652,2.652H25.652c-1.464,0-2.652-1.187-2.652-2.652V33.652
				C23,32.188,24.187,31,25.652,31h31.696C58.812,31,60,32.188,60,33.652V62.364z"/>
		</g>
		<g>
			<path style="fill:#FA9200;" d="M57.348,31H25.652C24.187,31,23,32.188,23,33.652v28.712c0,0.946,0.499,1.77,1.244,2.24
				l34.708-33.05C58.506,31.212,57.954,31,57.348,31z"/>
		</g>
		<g>
			<rect x="49.52" y="54.408" style="fill:#FFAA00;" width="7.956" height="5.304"/>
		</g>
		<g>
			<polygon style="fill:#FFE9A1;" points="46.868,41.148 44.216,38.495 41.564,41.148 38.912,38.495 36.26,41.148 36.26,31 
				46.868,31 			"/>
		</g>
		<g>
			<path style="fill:#E07000;" d="M79,63.643C79,64.393,78.393,65,77.643,65H61.357C60.607,65,60,64.393,60,63.643V48.714
				c0-0.75,0.607-1.357,1.357-1.357h16.285c0.75,0,1.357,0.607,1.357,1.357V63.643z"/>
		</g>
		<g>
			<path style="fill:#FA9200;" d="M77.643,47.357H61.357c-0.75,0-1.357,0.607-1.357,1.357v14.929c0,0.484,0.255,0.906,0.637,1.147
				l17.827-17.149C78.235,47.466,77.953,47.357,77.643,47.357z"/>
		</g>
		<g>
			<rect x="73.571" y="59.571" style="fill:#FFAA00;" width="4.071" height="2.714"/>
		</g>
		<g>
			<polygon style="fill:#FFE9A1;" points="72.214,52.786 70.857,51.429 69.5,52.786 68.143,51.429 66.786,52.786 66.786,47.357 
				72.214,47.357 			"/>
		</g>
		<g>
			<circle style="fill:#F5C43D;" cx="34" cy="76" r="5"/>
		</g>
		<g>
			<circle style="fill:#3D320C;" cx="34" cy="76.016" r="2"/>
		</g>
		<g>
			<circle style="fill:#FFF5D9;" cx="55" cy="76.016" r="7"/>
		</g>
		<g>
			<circle style="fill:#F5C43D;" cx="55" cy="76" r="5"/>
		</g>
		<g>
			<circle style="fill:#3D320C;" cx="55" cy="76.016" r="2"/>
		</g>
		<g>
			<circle style="fill:#FFF5D9;" cx="76" cy="76.016" r="7"/>
		</g>
		<g>
			<circle style="fill:#F5C43D;" cx="76" cy="76" r="5"/>
		</g>
		<g>
			<circle style="fill:#3D320C;" cx="76" cy="76.016" r="2"/>
		</g>
	</g>
</g>
<g id="R-Yellow" style="display:none;">
	<g style="display:inline;">
		<circle style="fill:#FFD75E;" cx="55" cy="55" r="55"/>
	</g>
	<g style="display:inline;">
		<g>
			<path style="fill:#3D320C;" d="M87,76.008C87,82.079,82.079,87,76.008,87H23V65.016h53.008C82.079,65.016,87,69.937,87,76.008z"
				/>
		</g>
		<g>
			<path style="fill:#66510D;" d="M83,76.016c0,3.866-3.134,7-7,7H23v-14h53C79.866,69.016,83,72.15,83,76.016z"/>
		</g>
		<g>
			<circle style="fill:#FFF5D9;" cx="34" cy="76" r="7"/>
		</g>
		<g>
			<path style="fill:#E07000;" d="M60,62.364c0,1.465-1.188,2.652-2.652,2.652H25.652c-1.464,0-2.652-1.187-2.652-2.652V33.652
				C23,32.188,24.188,31,25.652,31h31.696C58.812,31,60,32.188,60,33.652V62.364z"/>
		</g>
		<g>
			<path style="fill:#FA9200;" d="M57.348,31H25.652C24.187,31,23,32.188,23,33.652v28.712c0,0.946,0.499,1.77,1.244,2.24
				l34.708-33.05C58.506,31.212,57.954,31,57.348,31z"/>
		</g>
		<g>
			<rect x="49.521" y="54.408" style="fill:#FFAA00;" width="7.956" height="5.304"/>
		</g>
		<g>
			<polygon style="fill:#FFE9A1;" points="46.868,41.148 44.216,38.495 41.565,41.148 38.912,38.495 36.26,41.148 36.26,31 
				46.868,31 			"/>
		</g>
		<g>
			<path style="fill:#E07000;" d="M79,63.643C79,64.393,78.393,65,77.643,65H61.357C60.607,65,60,64.393,60,63.643V48.714
				c0-0.75,0.607-1.357,1.357-1.357h16.285c0.75,0,1.357,0.607,1.357,1.357V63.643z"/>
		</g>
		<g>
			<path style="fill:#FA9200;" d="M77.643,47.357H61.357c-0.75,0-1.357,0.607-1.357,1.357v14.929c0,0.484,0.255,0.906,0.637,1.147
				l17.827-17.149C78.235,47.466,77.953,47.357,77.643,47.357z"/>
		</g>
		<g>
			<rect x="73.571" y="59.571" style="fill:#FFAA00;" width="4.071" height="2.714"/>
		</g>
		<g>
			<polygon style="fill:#FFE9A1;" points="72.214,52.786 70.857,51.429 69.5,52.786 68.143,51.429 66.786,52.786 66.786,47.357 
				72.214,47.357 			"/>
		</g>
		<g>
			<circle style="fill:#F5C43D;" cx="34" cy="76" r="5"/>
		</g>
		<g>
			<circle style="fill:#3D320C;" cx="34" cy="76.016" r="2"/>
		</g>
		<g>
			<circle style="fill:#FFF5D9;" cx="55" cy="76.016" r="7"/>
		</g>
		<g>
			<circle style="fill:#F5C43D;" cx="55" cy="76" r="5"/>
		</g>
		<g>
			<circle style="fill:#3D320C;" cx="55" cy="76.016" r="2"/>
		</g>
		<g>
			<circle style="fill:#FFF5D9;" cx="76" cy="76.016" r="7"/>
		</g>
		<g>
			<circle style="fill:#F5C43D;" cx="76" cy="76" r="5"/>
		</g>
		<g>
			<circle style="fill:#3D320C;" cx="76" cy="76.016" r="2"/>
		</g>
	</g>
</g>
</svg>
