<?xml version="1.0" encoding="iso-8859-1"?>
<!-- Generator: Adobe Illustrator 17.1.0, SVG Export Plug-In . SVG Version: 6.00 Build 0)  -->
<!DOCTYPE svg PUBLIC "-//W3C//DTD SVG 1.0//EN" "http://www.w3.org/TR/2001/REC-SVG-20010904/DTD/svg10.dtd">
<svg version="1.0" xmlns="http://www.w3.org/2000/svg" xmlns:xlink="http://www.w3.org/1999/xlink" x="0px" y="0px" width="110px"
	 height="110px" viewBox="0 0 110 110" style="enable-background:new 0 0 110 110;" xml:space="preserve">
<g id="Artboard" style="display:none;">
	<rect x="-73" y="-339" style="display:inline;fill:#848484;" width="1422" height="538"/>
</g>
<g id="R-Multicolor" style="display:none;">
	<circle style="display:inline;fill:#25B7D3;" cx="55" cy="54.848" r="55"/>
	<g style="display:inline;">
		<path style="fill:#3E3E3F;" d="M87,73.575c0,1.607-1.302,2.909-2.909,2.909H25.909c-1.607,0-2.909-1.302-2.909-2.909V32.848
			c0-1.607,1.302-2.909,2.909-2.909h58.182c1.607,0,2.909,1.302,2.909,2.909V73.575z"/>
		<rect x="46.273" y="76.485" style="fill:#E2E4E5;" width="17.455" height="7.455"/>
		<path style="fill:#F0F1F1;" d="M69.545,85.394c0,0.803-0.651,1.455-1.455,1.455H41.909c-0.803,0-1.455-0.651-1.455-1.455
			s0.651-1.455,1.455-1.455h26.182C68.894,83.939,69.545,84.59,69.545,85.394z"/>
		<path style="fill:#FFFFFF;" d="M87,73.575v-8.727H23v8.727c0,1.607,1.303,2.909,2.909,2.909h58.182
			C85.697,76.485,87,75.182,87,73.575z"/>
		<path style="fill:#CFD3D4;" d="M55,74.757c-2.156,0-3.909-1.753-3.909-3.909c0-2.156,1.754-3.909,3.909-3.909
			s3.909,1.753,3.909,3.909C58.909,73.004,57.156,74.757,55,74.757z M55,68.939c-1.053,0-1.909,0.856-1.909,1.909
			c0,1.052,0.856,1.909,1.909,1.909s1.909-0.856,1.909-1.909C56.909,69.796,56.053,68.939,55,68.939z"/>
		<path style="fill:#5B5C5F;" d="M23,32.848v32h19.724l34.909-34.909H25.909C24.303,29.939,23,31.242,23,32.848z"/>
		<circle style="fill:#FFFFFF;" cx="55" cy="38.848" r="16"/>
		<path style="fill:#17B198;" d="M64.9,40.154c-0.204-0.492-0.685-0.814-1.218-0.814h-3.409v-9.228c0-0.728-0.59-1.318-1.318-1.318
			h-7.909c-0.728,0-1.318,0.59-1.318,1.318v9.228h-3.409c-0.533,0-1.014,0.321-1.218,0.814c-0.204,0.493-0.091,1.059,0.286,1.437
			l8.656,7.925c0.515,0.515,1.349,0.515,1.864,0l8.708-7.925C64.991,41.214,65.104,40.647,64.9,40.154z"/>
	</g>
</g>
<g id="Multicolor">
	<g>
		<path style="fill:#3E3E3F;" d="M87,73.575c0,1.607-1.302,2.909-2.909,2.909H25.909c-1.607,0-2.909-1.302-2.909-2.909V32.848
			c0-1.607,1.302-2.909,2.909-2.909h58.182c1.607,0,2.909,1.302,2.909,2.909V73.575z"/>
		<rect x="46.273" y="76.485" style="fill:#E2E4E5;" width="17.455" height="7.455"/>
		<path style="fill:#F0F1F1;" d="M69.545,85.394c0,0.803-0.651,1.455-1.455,1.455H41.909c-0.803,0-1.455-0.651-1.455-1.455
			s0.651-1.455,1.455-1.455h26.182C68.894,83.939,69.545,84.59,69.545,85.394z"/>
		<path style="fill:#FFFFFF;" d="M87,73.575v-8.727H23v8.727c0,1.607,1.303,2.909,2.909,2.909h58.182
			C85.697,76.485,87,75.182,87,73.575z"/>
		<path style="fill:#CFD3D4;" d="M55,74.757c-2.156,0-3.909-1.753-3.909-3.909c0-2.156,1.754-3.909,3.909-3.909
			s3.909,1.753,3.909,3.909C58.909,73.004,57.156,74.757,55,74.757z M55,68.939c-1.053,0-1.909,0.856-1.909,1.909
			c0,1.052,0.856,1.909,1.909,1.909s1.909-0.856,1.909-1.909C56.909,69.796,56.053,68.939,55,68.939z"/>
		<path style="fill:#5B5C5F;" d="M23,32.848v32h19.724l34.909-34.909H25.909C24.303,29.939,23,31.242,23,32.848z"/>
		<circle style="fill:#FFFFFF;" cx="55" cy="38.848" r="16"/>
		<path style="fill:#17B198;" d="M64.9,40.154c-0.204-0.492-0.685-0.814-1.218-0.814h-3.409v-9.228c0-0.728-0.59-1.318-1.318-1.318
			h-7.909c-0.728,0-1.318,0.59-1.318,1.318v9.228h-3.409c-0.533,0-1.014,0.321-1.218,0.814c-0.204,0.493-0.091,1.059,0.286,1.437
			l8.656,7.925c0.515,0.515,1.349,0.515,1.864,0l8.708-7.925C64.991,41.214,65.104,40.647,64.9,40.154z"/>
	</g>
</g>
<g id="Blue" style="display:none;">
	<g style="display:inline;">
		<g>
			<path style="fill:#0C333D;" d="M87,73.728c0,1.606-1.302,2.909-2.909,2.909H25.909c-1.607,0-2.909-1.303-2.909-2.909V33
				c0-1.606,1.302-2.909,2.909-2.909h58.182C85.698,30.091,87,31.394,87,33V73.728z"/>
		</g>
		<g>
			<rect x="46.272" y="76.637" style="fill:#E1F5FA;" width="17.455" height="7.454"/>
		</g>
		<g>
			<path style="fill:#FFFFFF;" d="M69.545,85.546c0,0.803-0.651,1.454-1.455,1.454H41.909c-0.803,0-1.455-0.651-1.455-1.454
				c0-0.804,0.651-1.455,1.455-1.455h26.182C68.894,84.091,69.545,84.742,69.545,85.546z"/>
		</g>
		<g>
			<path style="fill:#FFFFFF;" d="M87,73.728V65H23v8.728c0,1.606,1.303,2.909,2.909,2.909h58.182
				C85.697,76.637,87,75.334,87,73.728z"/>
		</g>
		<g>
			<path style="fill:#BBE7F2;" d="M55,74.909c-2.155,0-3.909-1.754-3.909-3.909s1.754-3.909,3.909-3.909s3.909,1.753,3.909,3.909
				S57.155,74.909,55,74.909z M55,69.091c-1.053,0-1.909,0.856-1.909,1.909s0.856,1.909,1.909,1.909s1.909-0.857,1.909-1.909
				S56.053,69.091,55,69.091z"/>
		</g>
		<g>
			<path style="fill:#0F6175;" d="M23,33v32h19.724l34.909-34.909H25.909C24.303,30.091,23,31.394,23,33z"/>
		</g>
		<g>
			<circle style="fill:#FFFFFF;" cx="55" cy="39" r="16"/>
		</g>
		<g>
			<path style="fill:#00B7E5;" d="M64.899,40.306c-0.204-0.492-0.685-0.813-1.218-0.813h-3.409v-9.228
				c0-0.728-0.59-1.318-1.318-1.318h-7.909c-0.728,0-1.318,0.591-1.318,1.318v9.228h-3.409c-0.533,0-1.014,0.321-1.218,0.813
				c-0.204,0.493-0.092,1.06,0.286,1.437l8.656,7.925c0.515,0.515,1.349,0.515,1.864,0l8.708-7.925
				C64.991,41.365,65.104,40.799,64.899,40.306z"/>
		</g>
	</g>
</g>
<g id="R-Blue" style="display:none;">
	<g style="display:inline;">
		<circle style="fill:#81D2EB;" cx="55" cy="55" r="55"/>
	</g>
	<g style="display:inline;">
		<g>
			<path style="fill:#0C333D;" d="M87,73.727c0,1.607-1.302,2.909-2.909,2.909H25.909c-1.607,0-2.909-1.303-2.909-2.909V33
				c0-1.606,1.302-2.909,2.909-2.909h58.182C85.698,30.091,87,31.394,87,33V73.727z"/>
		</g>
		<g>
			<rect x="46.272" y="76.637" style="fill:#E1F5FA;" width="17.455" height="7.454"/>
		</g>
		<g>
			<path style="fill:#FFFFFF;" d="M69.545,85.546c0,0.803-0.651,1.454-1.455,1.454H41.909c-0.803,0-1.455-0.651-1.455-1.454
				c0-0.804,0.651-1.455,1.455-1.455h26.182C68.894,84.091,69.545,84.742,69.545,85.546z"/>
		</g>
		<g>
			<path style="fill:#FFFFFF;" d="M87,73.727V65H23v8.727c0,1.607,1.303,2.909,2.909,2.909h58.182
				C85.697,76.637,87,75.334,87,73.727z"/>
		</g>
		<g>
			<path style="fill:#BBE7F2;" d="M55,74.909c-2.155,0-3.909-1.754-3.909-3.909c0-2.155,1.754-3.909,3.909-3.909
				s3.909,1.753,3.909,3.909C58.909,73.155,57.155,74.909,55,74.909z M55,69.091c-1.053,0-1.909,0.856-1.909,1.909
				c0,1.053,0.856,1.909,1.909,1.909s1.909-0.856,1.909-1.909C56.909,69.947,56.053,69.091,55,69.091z"/>
		</g>
		<g>
			<path style="fill:#0F6175;" d="M23,33v32h19.724l34.909-34.909H25.909C24.303,30.091,23,31.394,23,33z"/>
		</g>
		<g>
			<circle style="fill:#FFFFFF;" cx="55" cy="39" r="16"/>
		</g>
		<g>
			<path style="fill:#00B7E5;" d="M64.899,40.306c-0.204-0.492-0.685-0.813-1.218-0.813h-3.409v-9.228
				c0-0.728-0.59-1.318-1.318-1.318h-7.909c-0.728,0-1.318,0.591-1.318,1.318v9.228h-3.409c-0.533,0-1.014,0.321-1.218,0.813
				c-0.204,0.493-0.092,1.06,0.286,1.437l8.656,7.925c0.515,0.515,1.349,0.515,1.864,0l8.708-7.925
				C64.991,41.365,65.104,40.799,64.899,40.306z"/>
		</g>
	</g>
</g>
<g id="Green" style="display:none;">
	<g style="display:inline;">
		<g>
			<path style="fill:#0A3631;" d="M87,73.728c0,1.606-1.302,2.909-2.909,2.909H25.909c-1.607,0-2.909-1.303-2.909-2.909V33
				c0-1.606,1.302-2.909,2.909-2.909h58.182C85.698,30.091,87,31.394,87,33V73.728z"/>
		</g>
		<g>
			<rect x="46.272" y="76.637" style="fill:#D7FCF9;" width="17.455" height="7.454"/>
		</g>
		<g>
			<path style="fill:#FFFFFF;" d="M69.545,85.546c0,0.803-0.651,1.454-1.455,1.454H41.909c-0.803,0-1.455-0.651-1.455-1.454
				c0-0.804,0.651-1.455,1.455-1.455h26.182C68.894,84.091,69.545,84.742,69.545,85.546z"/>
		</g>
		<g>
			<path style="fill:#FFFFFF;" d="M87,73.728V65H23v8.728c0,1.606,1.303,2.909,2.909,2.909h58.182
				C85.697,76.637,87,75.334,87,73.728z"/>
		</g>
		<g>
			<path style="fill:#AAF0E9;" d="M55,74.909c-2.155,0-3.909-1.754-3.909-3.909s1.754-3.909,3.909-3.909s3.909,1.753,3.909,3.909
				S57.155,74.909,55,74.909z M55,69.091c-1.053,0-1.909,0.856-1.909,1.909s0.856,1.909,1.909,1.909s1.909-0.857,1.909-1.909
				S56.053,69.091,55,69.091z"/>
		</g>
		<g>
			<path style="fill:#14635B;" d="M23,33v32h19.724l34.909-34.909H25.909C24.303,30.091,23,31.394,23,33z"/>
		</g>
		<g>
			<circle style="fill:#FFFFFF;" cx="55" cy="39" r="16"/>
		</g>
		<g>
			<path style="fill:#00D6C1;" d="M64.899,40.306c-0.204-0.492-0.685-0.813-1.218-0.813h-3.409v-9.228
				c0-0.728-0.59-1.318-1.318-1.318h-7.909c-0.728,0-1.318,0.591-1.318,1.318v9.228h-3.409c-0.533,0-1.014,0.321-1.218,0.813
				c-0.204,0.493-0.092,1.06,0.286,1.437l8.656,7.925c0.515,0.515,1.349,0.515,1.864,0l8.708-7.925
				C64.991,41.365,65.104,40.799,64.899,40.306z"/>
		</g>
	</g>
</g>
<g id="R-Green" style="display:none;">
	<g style="display:inline;">
		<circle style="fill:#87E0C8;" cx="55" cy="55" r="55"/>
	</g>
	<g style="display:inline;">
		<g>
			<path style="fill:#0A3631;" d="M87,73.728c0,1.606-1.302,2.909-2.909,2.909H25.909c-1.607,0-2.909-1.303-2.909-2.909V33
				c0-1.606,1.302-2.909,2.909-2.909h58.182C85.698,30.091,87,31.394,87,33V73.728z"/>
		</g>
		<g>
			<rect x="46.272" y="76.637" style="fill:#D7FCF9;" width="17.455" height="7.454"/>
		</g>
		<g>
			<path style="fill:#FFFFFF;" d="M69.545,85.546c0,0.803-0.651,1.454-1.455,1.454H41.909c-0.803,0-1.455-0.651-1.455-1.454
				c0-0.804,0.651-1.455,1.455-1.455h26.182C68.894,84.091,69.545,84.742,69.545,85.546z"/>
		</g>
		<g>
			<path style="fill:#FFFFFF;" d="M87,73.728V65H23v8.728c0,1.606,1.303,2.909,2.909,2.909h58.182
				C85.697,76.637,87,75.334,87,73.728z"/>
		</g>
		<g>
			<path style="fill:#AAF0E9;" d="M55,74.909c-2.155,0-3.909-1.754-3.909-3.909s1.754-3.909,3.909-3.909s3.909,1.753,3.909,3.909
				S57.155,74.909,55,74.909z M55,69.091c-1.053,0-1.909,0.856-1.909,1.909s0.856,1.909,1.909,1.909s1.909-0.857,1.909-1.909
				S56.053,69.091,55,69.091z"/>
		</g>
		<g>
			<path style="fill:#14635B;" d="M23,33v32h19.724l34.909-34.909H25.909C24.303,30.091,23,31.394,23,33z"/>
		</g>
		<g>
			<circle style="fill:#FFFFFF;" cx="55" cy="39" r="16"/>
		</g>
		<g>
			<path style="fill:#00D6C1;" d="M64.899,40.306c-0.204-0.492-0.685-0.813-1.218-0.813h-3.409v-9.228
				c0-0.728-0.59-1.318-1.318-1.318h-7.909c-0.728,0-1.318,0.591-1.318,1.318v9.228h-3.409c-0.533,0-1.014,0.321-1.218,0.813
				c-0.204,0.493-0.092,1.06,0.286,1.437l8.656,7.925c0.515,0.515,1.349,0.515,1.864,0l8.708-7.925
				C64.991,41.365,65.104,40.799,64.899,40.306z"/>
		</g>
	</g>
</g>
<g id="Red" style="display:none;">
	<g style="display:inline;">
		<g>
			<path style="fill:#4A1410;" d="M87,73.728c0,1.606-1.302,2.909-2.909,2.909H25.909c-1.607,0-2.909-1.303-2.909-2.909V33
				c0-1.606,1.302-2.909,2.909-2.909h58.182C85.698,30.091,87,31.394,87,33V73.728z"/>
		</g>
		<g>
			<rect x="46.272" y="76.637" style="fill:#FFEFED;" width="17.455" height="7.454"/>
		</g>
		<g>
			<path style="fill:#FFFFFF;" d="M69.545,85.546c0,0.803-0.651,1.454-1.455,1.454H41.909c-0.803,0-1.455-0.651-1.455-1.454
				c0-0.804,0.651-1.455,1.455-1.455h26.182C68.894,84.091,69.545,84.742,69.545,85.546z"/>
		</g>
		<g>
			<path style="fill:#FFFFFF;" d="M87,73.728V65H23v8.728c0,1.606,1.303,2.909,2.909,2.909h58.182
				C85.697,76.637,87,75.334,87,73.728z"/>
		</g>
		<g>
			<path style="fill:#FFD7D4;" d="M55,74.909c-2.155,0-3.909-1.754-3.909-3.909s1.754-3.909,3.909-3.909s3.909,1.753,3.909,3.909
				S57.155,74.909,55,74.909z M55,69.091c-1.053,0-1.909,0.856-1.909,1.909s0.856,1.909,1.909,1.909s1.909-0.857,1.909-1.909
				S56.053,69.091,55,69.091z"/>
		</g>
		<g>
			<path style="fill:#7D261E;" d="M23,33v32h19.724l34.909-34.909H25.909C24.303,30.091,23,31.394,23,33z"/>
		</g>
		<g>
			<circle style="fill:#FFFFFF;" cx="55" cy="39" r="16"/>
		</g>
		<g>
			<path style="fill:#FF6C5E;" d="M64.899,40.306c-0.204-0.492-0.685-0.813-1.218-0.813h-3.409v-9.228
				c0-0.728-0.59-1.318-1.318-1.318h-7.909c-0.728,0-1.318,0.591-1.318,1.318v9.228h-3.409c-0.533,0-1.014,0.321-1.218,0.813
				c-0.204,0.493-0.092,1.06,0.286,1.437l8.656,7.925c0.515,0.515,1.349,0.515,1.864,0l8.708-7.925
				C64.991,41.365,65.104,40.799,64.899,40.306z"/>
		</g>
	</g>
</g>
<g id="R-Red" style="display:none;">
	<g style="display:inline;">
		<circle style="fill:#FABBAF;" cx="55" cy="55" r="55"/>
	</g>
	<g style="display:inline;">
		<g>
			<path style="fill:#4A1410;" d="M87,73.727c0,1.606-1.302,2.909-2.909,2.909H25.909c-1.607,0-2.909-1.303-2.909-2.909V33
				c0-1.606,1.302-2.909,2.909-2.909h58.182C85.698,30.091,87,31.394,87,33V73.727z"/>
		</g>
		<g>
			<rect x="46.272" y="76.637" style="fill:#FFEFED;" width="17.455" height="7.454"/>
		</g>
		<g>
			<path style="fill:#FFFFFF;" d="M69.545,85.546c0,0.803-0.651,1.454-1.455,1.454H41.909c-0.803,0-1.455-0.651-1.455-1.454
				c0-0.804,0.651-1.455,1.455-1.455h26.182C68.894,84.091,69.545,84.742,69.545,85.546z"/>
		</g>
		<g>
			<path style="fill:#FFFFFF;" d="M87,73.727V65H23v8.728c0,1.606,1.303,2.909,2.909,2.909h58.182
				C85.697,76.637,87,75.334,87,73.727z"/>
		</g>
		<g>
			<path style="fill:#FFD7D4;" d="M55,74.909c-2.155,0-3.909-1.754-3.909-3.909s1.754-3.909,3.909-3.909s3.909,1.753,3.909,3.909
				S57.155,74.909,55,74.909z M55,69.091c-1.053,0-1.909,0.856-1.909,1.909s0.856,1.909,1.909,1.909s1.909-0.857,1.909-1.909
				S56.053,69.091,55,69.091z"/>
		</g>
		<g>
			<path style="fill:#7D261E;" d="M23,33v32h19.724l34.909-34.909H25.909C24.303,30.091,23,31.394,23,33z"/>
		</g>
		<g>
			<circle style="fill:#FFFFFF;" cx="55" cy="39" r="16"/>
		</g>
		<g>
			<path style="fill:#FF6C5E;" d="M64.899,40.306c-0.204-0.492-0.685-0.813-1.218-0.813h-3.409v-9.228
				c0-0.728-0.59-1.318-1.318-1.318h-7.909c-0.728,0-1.318,0.591-1.318,1.318v9.228h-3.409c-0.533,0-1.014,0.321-1.218,0.813
				c-0.204,0.493-0.092,1.06,0.286,1.437l8.656,7.925c0.515,0.515,1.349,0.515,1.864,0l8.708-7.925
				C64.991,41.365,65.104,40.799,64.899,40.306z"/>
		</g>
	</g>
</g>
<g id="Yellow" style="display:none;">
	<g style="display:inline;">
		<g>
			<path style="fill:#3D320C;" d="M87,73.728c0,1.606-1.302,2.909-2.909,2.909H25.909c-1.607,0-2.909-1.303-2.909-2.909V33
				c0-1.606,1.302-2.909,2.909-2.909h58.182C85.698,30.091,87,31.394,87,33V73.728z"/>
		</g>
		<g>
			<rect x="46.272" y="76.637" style="fill:#FFF5D9;" width="17.455" height="7.454"/>
		</g>
		<g>
			<path style="fill:#FFFFFF;" d="M69.545,85.546c0,0.803-0.651,1.454-1.455,1.454H41.909c-0.803,0-1.455-0.651-1.455-1.454
				c0-0.804,0.651-1.455,1.455-1.455h26.182C68.894,84.091,69.545,84.742,69.545,85.546z"/>
		</g>
		<g>
			<path style="fill:#FFFFFF;" d="M87,73.728V65H23v8.728c0,1.606,1.303,2.909,2.909,2.909h58.182
				C85.697,76.637,87,75.334,87,73.728z"/>
		</g>
		<g>
			<path style="fill:#FFE9A1;" d="M55,74.909c-2.155,0-3.909-1.754-3.909-3.909s1.754-3.909,3.909-3.909s3.909,1.753,3.909,3.909
				S57.155,74.909,55,74.909z M55,69.091c-1.053,0-1.909,0.856-1.909,1.909s0.856,1.909,1.909,1.909s1.909-0.857,1.909-1.909
				S56.053,69.091,55,69.091z"/>
		</g>
		<g>
			<path style="fill:#66510D;" d="M23,33v32h19.724l34.909-34.909H25.909C24.303,30.091,23,31.394,23,33z"/>
		</g>
		<g>
			<circle style="fill:#FFFFFF;" cx="55" cy="39" r="16"/>
		</g>
		<g>
			<path style="fill:#FFAA00;" d="M64.899,40.306c-0.204-0.492-0.685-0.813-1.218-0.813h-3.409v-9.228
				c0-0.728-0.59-1.318-1.318-1.318h-7.909c-0.728,0-1.318,0.591-1.318,1.318v9.228h-3.409c-0.533,0-1.014,0.321-1.218,0.813
				c-0.204,0.493-0.092,1.06,0.286,1.437l8.656,7.925c0.515,0.515,1.349,0.515,1.864,0l8.708-7.925
				C64.991,41.365,65.104,40.799,64.899,40.306z"/>
		</g>
	</g>
</g>
<g id="R-Yellow" style="display:none;">
	<g style="display:inline;">
		<circle style="fill:#FFD75E;" cx="55" cy="55" r="55"/>
	</g>
	<g style="display:inline;">
		<g>
			<path style="fill:#3D320C;" d="M87,73.728c0,1.606-1.302,2.909-2.909,2.909H25.909c-1.607,0-2.909-1.303-2.909-2.909V33
				c0-1.606,1.302-2.909,2.909-2.909h58.182C85.698,30.091,87,31.394,87,33V73.728z"/>
		</g>
		<g>
			<rect x="46.272" y="76.637" style="fill:#FFF5D9;" width="17.455" height="7.454"/>
		</g>
		<g>
			<path style="fill:#FFFFFF;" d="M69.545,85.546c0,0.803-0.651,1.454-1.455,1.454H41.909c-0.803,0-1.455-0.651-1.455-1.454
				c0-0.804,0.651-1.455,1.455-1.455h26.182C68.894,84.091,69.545,84.742,69.545,85.546z"/>
		</g>
		<g>
			<path style="fill:#FFFFFF;" d="M87,73.728V65H23v8.728c0,1.606,1.303,2.909,2.909,2.909h58.182
				C85.697,76.637,87,75.334,87,73.728z"/>
		</g>
		<g>
			<path style="fill:#FFE9A1;" d="M55,74.909c-2.155,0-3.909-1.754-3.909-3.909s1.754-3.909,3.909-3.909s3.909,1.753,3.909,3.909
				S57.155,74.909,55,74.909z M55,69.091c-1.053,0-1.909,0.856-1.909,1.909s0.856,1.909,1.909,1.909s1.909-0.857,1.909-1.909
				S56.053,69.091,55,69.091z"/>
		</g>
		<g>
			<path style="fill:#66510D;" d="M23,33v32h19.724l34.909-34.909H25.909C24.303,30.091,23,31.394,23,33z"/>
		</g>
		<g>
			<circle style="fill:#FFFFFF;" cx="55" cy="39" r="16"/>
		</g>
		<g>
			<path style="fill:#FFAA00;" d="M64.899,40.306c-0.204-0.492-0.685-0.813-1.218-0.813h-3.409v-9.228
				c0-0.728-0.59-1.318-1.318-1.318h-7.909c-0.728,0-1.318,0.591-1.318,1.318v9.228h-3.409c-0.533,0-1.014,0.321-1.218,0.813
				c-0.204,0.493-0.092,1.06,0.286,1.437l8.656,7.925c0.515,0.515,1.349,0.515,1.864,0l8.708-7.925
				C64.991,41.365,65.104,40.799,64.899,40.306z"/>
		</g>
	</g>
</g>
</svg>
