<?xml version="1.0" encoding="iso-8859-1"?>
<!-- Generator: Adobe Illustrator 17.1.0, SVG Export Plug-In . SVG Version: 6.00 Build 0)  -->
<!DOCTYPE svg PUBLIC "-//W3C//DTD SVG 1.0//EN" "http://www.w3.org/TR/2001/REC-SVG-20010904/DTD/svg10.dtd">
<svg version="1.0" xmlns="http://www.w3.org/2000/svg" xmlns:xlink="http://www.w3.org/1999/xlink" x="0px" y="0px" width="110px"
	 height="110px" viewBox="0 0 110 110" style="enable-background:new 0 0 110 110;" xml:space="preserve">
<g id="Artboard" style="display:none;">
	
		<rect x="-558.5" y="-161.5" style="display:inline;fill:#808080;stroke:#000000;stroke-miterlimit:10;" width="1349" height="445"/>
</g>
<g id="R-Multicolor" style="display:none;">
	<circle style="display:inline;fill:#FABC3D;" cx="55" cy="55" r="55"/>
	<g style="display:inline;">
		<path style="fill:#059BBF;" d="M55,27c-13,0-25,13-25,33c0,24.728,17.842,23,25,23s25,1.728,25-23C80,40,68,27,55,27z"/>
		<path style="fill:#21B2D1;" d="M30,60c0,24.728,17.842,23,25,23V27C42,27,30,40,30,60z"/>
		<path style="fill:#6FDAF1;" d="M64.668,37.88c-4.336,0-8.058,2.625-9.668,6.372c-1.61-3.747-5.332-6.372-9.668-6.372
			c-5.811,0-10.521,4.71-10.521,10.521c0,5.81,4.71,10.521,10.521,10.521c4.336,0,8.058-2.625,9.668-6.372
			c1.61,3.747,5.332,6.372,9.668,6.372c5.811,0,10.521-4.71,10.521-10.521C75.189,42.591,70.479,37.88,64.668,37.88z"/>
		<circle style="fill:#FACB1B;" cx="55" cy="63.581" r="6.5"/>
		<path style="fill:#FBE158;" d="M48.5,63.581c0,3.59,2.91,6.5,6.5,6.5v-13C51.41,57.081,48.5,59.991,48.5,63.581z"/>
		<path style="fill:#3E3E3F;" d="M50.727,39.375c1.888,1.132,3.396,2.836,4.273,4.877c0.898-2.091,2.456-3.831,4.409-4.962
			c-0.192-2.516-2.616-3.619-2.616-3.619s-0.375,1-0.875,2.625c-0.625-3.125-5.25-4.5-5.25-4.5S50.87,35.327,50.727,39.375z"/>
		<path style="fill:#0484AB;" d="M77.337,44.769c5.35-2.729,8.795-12.01,9.53-19.1c0.07-0.676-0.171-1.347-0.654-1.824
			c-0.483-0.477-1.158-0.708-1.833-0.63c-9.794,1.141-15.228,4.694-17.153,7.882C71.486,34.154,75.062,38.82,77.337,44.769z"/>
		<path style="fill:#6FDAF1;" d="M75.25,29c-0.551-0.482,7.208-4.095,8.5-2.875c2.25,2.125-5,12.625-5,12.625s3.167-7.916,2-9.375
			C79.75,28.125,76.25,29.875,75.25,29z"/>
		<path style="fill:#0484AB;" d="M32.663,44.769c2.274-5.949,5.851-10.615,10.11-13.672c-1.926-3.187-7.359-6.741-17.153-7.882
			c-0.675-0.079-1.349,0.153-1.833,0.63s-0.724,1.148-0.654,1.824C23.868,32.759,27.313,42.041,32.663,44.769z"/>
		<path style="fill:#FFFFFF;" d="M41.222,79c-14.004,0-8.516,10.113-4.477,6.074c1.142,2.513,6.34,2.813,7.852-0.074
			c0.37,1.704,1.638,2,2.847,2C53.507,87,51.861,79,41.222,79z"/>
		<path style="fill:#FFFFFF;" d="M68.778,79c14.004,0,8.516,10.113,4.477,6.074c-1.142,2.513-6.34,2.813-7.852-0.074
			c-0.37,1.704-1.638,2-2.847,2C56.493,87,58.139,79,68.778,79z"/>
		<path style="fill:#FA5655;" d="M59.5,63.665c0,2.485-2.015,4.5-4.5,4.5c-2.485,0-4.5-2.015-4.5-4.5H59.5z"/>
		<circle style="fill:#FFFFFF;" cx="45.551" cy="47.89" r="6.502"/>
		<path style="fill:#3E3E3F;" d="M47.338,48.424c0-0.776,0.629-1.404,1.404-1.404c0.059,0,0.115,0.01,0.172,0.017
			c-0.466-1.249-1.66-2.142-3.071-2.142c-1.816,0-3.288,1.472-3.288,3.288c0,1.816,1.472,3.288,3.288,3.288
			c1.216,0,2.265-0.667,2.834-1.648C47.933,49.787,47.338,49.177,47.338,48.424z"/>
		<circle style="fill:#FFFFFF;" cx="64.887" cy="47.89" r="6.502"/>
		<path style="fill:#3E3E3F;" d="M66.674,48.424c0-0.776,0.628-1.404,1.404-1.404c0.059,0,0.115,0.01,0.172,0.017
			c-0.466-1.249-1.66-2.142-3.071-2.142c-1.816,0-3.288,1.472-3.288,3.288c0,1.816,1.472,3.288,3.288,3.288
			c1.216,0,2.265-0.667,2.834-1.648C67.269,49.787,66.674,49.177,66.674,48.424z"/>
		<path style="fill:#6FDAF1;" d="M34.75,29c0.551-0.482-7.208-4.095-8.5-2.875c-2.25,2.125,5,12.625,5,12.625s-3.167-7.916-2-9.375
			C30.25,28.125,33.75,29.875,34.75,29z"/>
		<path style="fill:#21B2D1;" d="M39.572,45.333H51.53c-0.993-2.32-3.296-3.945-5.979-3.945
			C42.868,41.387,40.566,43.013,39.572,45.333z"/>
		<path style="fill:#21B2D1;" d="M58.908,45.333h11.958c-0.993-2.32-3.296-3.945-5.979-3.945
			C62.204,41.387,59.902,43.013,58.908,45.333z"/>
	</g>
</g>
<g id="Multicolor">
	<g>
		<path style="fill:#059BBF;" d="M55,27c-13,0-25,13-25,33c0,24.728,17.842,23,25,23s25,1.728,25-23C80,40,68,27,55,27z"/>
		<path style="fill:#21B2D1;" d="M30,60c0,24.728,17.842,23,25,23V27C42,27,30,40,30,60z"/>
		<path style="fill:#6FDAF1;" d="M64.668,37.88c-4.336,0-8.058,2.625-9.668,6.372c-1.61-3.747-5.332-6.372-9.668-6.372
			c-5.811,0-10.521,4.71-10.521,10.521c0,5.81,4.71,10.521,10.521,10.521c4.336,0,8.058-2.625,9.668-6.372
			c1.61,3.747,5.332,6.372,9.668,6.372c5.811,0,10.521-4.71,10.521-10.521C75.189,42.591,70.479,37.88,64.668,37.88z"/>
		<circle style="fill:#FACB1B;" cx="55" cy="63.581" r="6.5"/>
		<path style="fill:#FBE158;" d="M48.5,63.581c0,3.59,2.91,6.5,6.5,6.5v-13C51.41,57.081,48.5,59.991,48.5,63.581z"/>
		<path style="fill:#3E3E3F;" d="M50.727,39.375c1.888,1.132,3.396,2.836,4.273,4.877c0.898-2.091,2.456-3.831,4.409-4.962
			c-0.192-2.516-2.616-3.619-2.616-3.619s-0.375,1-0.875,2.625c-0.625-3.125-5.25-4.5-5.25-4.5S50.87,35.327,50.727,39.375z"/>
		<path style="fill:#0484AB;" d="M77.337,44.769c5.35-2.729,8.795-12.01,9.53-19.1c0.07-0.676-0.171-1.347-0.654-1.824
			c-0.483-0.477-1.158-0.708-1.833-0.63c-9.794,1.141-15.228,4.694-17.153,7.882C71.486,34.154,75.062,38.82,77.337,44.769z"/>
		<path style="fill:#6FDAF1;" d="M75.25,29c-0.551-0.482,7.208-4.095,8.5-2.875c2.25,2.125-5,12.625-5,12.625s3.167-7.916,2-9.375
			C79.75,28.125,76.25,29.875,75.25,29z"/>
		<path style="fill:#0484AB;" d="M32.663,44.769c2.274-5.949,5.851-10.615,10.11-13.672c-1.926-3.187-7.359-6.741-17.153-7.882
			c-0.675-0.079-1.349,0.153-1.833,0.63s-0.724,1.148-0.654,1.824C23.868,32.759,27.313,42.041,32.663,44.769z"/>
		<path style="fill:#FFFFFF;" d="M41.222,79c-14.004,0-8.516,10.113-4.477,6.074c1.142,2.513,6.34,2.813,7.852-0.074
			c0.37,1.704,1.638,2,2.847,2C53.507,87,51.861,79,41.222,79z"/>
		<path style="fill:#FFFFFF;" d="M68.778,79c14.004,0,8.516,10.113,4.477,6.074c-1.142,2.513-6.34,2.813-7.852-0.074
			c-0.37,1.704-1.638,2-2.847,2C56.493,87,58.139,79,68.778,79z"/>
		<path style="fill:#FA5655;" d="M59.5,63.665c0,2.485-2.015,4.5-4.5,4.5c-2.485,0-4.5-2.015-4.5-4.5H59.5z"/>
		<circle style="fill:#FFFFFF;" cx="45.551" cy="47.89" r="6.502"/>
		<path style="fill:#3E3E3F;" d="M47.338,48.424c0-0.776,0.629-1.404,1.404-1.404c0.059,0,0.115,0.01,0.172,0.017
			c-0.466-1.249-1.66-2.142-3.071-2.142c-1.816,0-3.288,1.472-3.288,3.288c0,1.816,1.472,3.288,3.288,3.288
			c1.216,0,2.265-0.667,2.834-1.648C47.933,49.787,47.338,49.177,47.338,48.424z"/>
		<circle style="fill:#FFFFFF;" cx="64.887" cy="47.89" r="6.502"/>
		<path style="fill:#3E3E3F;" d="M66.674,48.424c0-0.776,0.628-1.404,1.404-1.404c0.059,0,0.115,0.01,0.172,0.017
			c-0.466-1.249-1.66-2.142-3.071-2.142c-1.816,0-3.288,1.472-3.288,3.288c0,1.816,1.472,3.288,3.288,3.288
			c1.216,0,2.265-0.667,2.834-1.648C67.269,49.787,66.674,49.177,66.674,48.424z"/>
		<path style="fill:#6FDAF1;" d="M34.75,29c0.551-0.482-7.208-4.095-8.5-2.875c-2.25,2.125,5,12.625,5,12.625s-3.167-7.916-2-9.375
			C30.25,28.125,33.75,29.875,34.75,29z"/>
		<path style="fill:#21B2D1;" d="M39.572,45.333H51.53c-0.993-2.32-3.296-3.945-5.979-3.945
			C42.868,41.387,40.566,43.013,39.572,45.333z"/>
		<path style="fill:#21B2D1;" d="M58.908,45.333h11.958c-0.993-2.32-3.296-3.945-5.979-3.945
			C62.204,41.387,59.902,43.013,58.908,45.333z"/>
	</g>
</g>
<g id="Blue" style="display:none;">
	<g style="display:inline;">
		<g>
			<path style="fill:#0081A1;" d="M55,26.999c-13,0-25,13-25,33c0,24.728,17.842,23,25,23s25,1.728,25-23
				C80,39.999,68,26.999,55,26.999z"/>
		</g>
		<g>
			<path style="fill:#009FC7;" d="M30,59.999c0,24.728,17.842,23,25,23v-56C42,26.999,30,39.999,30,59.999z"/>
		</g>
		<g>
			<path style="fill:#BBE7F2;" d="M64.668,37.879c-4.336,0-8.058,2.625-9.668,6.372c-1.61-3.746-5.332-6.372-9.668-6.372
				c-5.81,0-10.521,4.71-10.521,10.521c0,5.81,4.711,10.521,10.521,10.521c4.337,0,8.058-2.625,9.668-6.372
				c1.61,3.747,5.332,6.372,9.668,6.372c5.811,0,10.521-4.71,10.521-10.521C75.189,42.59,70.479,37.879,64.668,37.879z"/>
		</g>
		<g>
			<circle style="fill:#E1F5FA;" cx="55" cy="63.58" r="6.5"/>
		</g>
		<g>
			<path style="fill:#FFFFFF;" d="M48.5,63.58c0,3.59,2.91,6.5,6.5,6.5v-13C51.41,57.08,48.5,59.99,48.5,63.58z"/>
		</g>
		<g>
			<path style="fill:#0C333D;" d="M50.727,39.374c1.888,1.132,3.396,2.836,4.273,4.877c0.898-2.091,2.456-3.831,4.409-4.962
				c-0.192-2.516-2.617-3.619-2.617-3.619s-0.375,1-0.875,2.625c-0.625-3.125-5.25-4.5-5.25-4.5S50.87,35.326,50.727,39.374z"/>
		</g>
		<g>
			<path style="fill:#BBE7F2;" d="M77.337,44.768c5.35-2.729,8.795-12.011,9.53-19.1c0.07-0.676-0.171-1.347-0.654-1.824
				c-0.484-0.477-1.158-0.708-1.833-0.63c-9.794,1.141-15.228,4.694-17.153,7.882C71.486,34.153,75.062,38.819,77.337,44.768z"/>
		</g>
		<g>
			<path style="fill:#53BAD4;" d="M75.25,28.999c-0.551-0.482,7.209-4.095,8.5-2.875c2.25,2.125-5,12.625-5,12.625
				s3.167-7.916,2-9.375C79.75,28.124,76.25,29.874,75.25,28.999z"/>
		</g>
		<g>
			<path style="fill:#BBE7F2;" d="M32.663,44.768c2.274-5.949,5.851-10.615,10.11-13.672c-1.926-3.188-7.359-6.741-17.153-7.882
				c-0.675-0.079-1.349,0.153-1.833,0.63c-0.484,0.477-0.724,1.148-0.654,1.824C23.868,32.758,27.313,42.039,32.663,44.768z"/>
		</g>
		<g>
			<path style="fill:#FFFFFF;" d="M41.222,78.999c-14.004,0-8.516,10.113-4.477,6.074c1.142,2.513,6.34,2.812,7.852-0.074
				c0.37,1.704,1.638,2,2.847,2C53.507,86.999,51.861,78.999,41.222,78.999z"/>
		</g>
		<g>
			<path style="fill:#FFFFFF;" d="M68.778,78.999c14.004,0,8.516,10.113,4.477,6.074c-1.142,2.513-6.34,2.812-7.852-0.074
				c-0.37,1.704-1.638,2-2.847,2C56.493,86.999,58.139,78.999,68.778,78.999z"/>
		</g>
		<g>
			<path style="fill:#0C333D;" d="M59.5,63.664c0,2.485-2.015,4.5-4.5,4.5s-4.5-2.015-4.5-4.5H59.5z"/>
		</g>
		<g>
			<circle style="fill:#FFFFFF;" cx="45.551" cy="47.889" r="6.502"/>
		</g>
		<g>
			<path style="fill:#0C333D;" d="M47.338,48.423c0-0.776,0.629-1.404,1.404-1.404c0.059,0,0.115,0.01,0.172,0.017
				c-0.466-1.248-1.66-2.142-3.071-2.142c-1.816,0-3.288,1.472-3.288,3.288c0,1.816,1.472,3.288,3.288,3.288
				c1.216,0,2.265-0.667,2.834-1.648C47.933,49.786,47.338,49.176,47.338,48.423z"/>
		</g>
		<g>
			<circle style="fill:#FFFFFF;" cx="64.887" cy="47.889" r="6.502"/>
		</g>
		<g>
			<path style="fill:#0C333D;" d="M66.674,48.423c0-0.776,0.628-1.404,1.404-1.404c0.059,0,0.115,0.01,0.172,0.017
				c-0.466-1.248-1.66-2.142-3.071-2.142c-1.816,0-3.288,1.472-3.288,3.288c0,1.816,1.472,3.288,3.288,3.288
				c1.216,0,2.265-0.667,2.834-1.648C67.269,49.786,66.674,49.176,66.674,48.423z"/>
		</g>
		<g>
			<path style="fill:#53BAD4;" d="M34.75,28.999c0.551-0.482-7.208-4.095-8.5-2.875c-2.25,2.125,5,12.625,5,12.625
				s-3.167-7.916-2-9.375C30.25,28.124,33.75,29.874,34.75,28.999z"/>
		</g>
		<g>
			<path style="fill:#81D2EB;" d="M39.572,45.332H51.53c-0.993-2.32-3.296-3.945-5.979-3.945
				C42.868,41.387,40.566,43.012,39.572,45.332z"/>
		</g>
		<g>
			<path style="fill:#81D2EB;" d="M58.908,45.332h11.958c-0.993-2.32-3.296-3.945-5.979-3.945
				C62.204,41.387,59.902,43.012,58.908,45.332z"/>
		</g>
	</g>
</g>
<g id="R-Blue" style="display:none;">
	<g style="display:inline;">
		<circle style="fill:#81D2EB;" cx="55" cy="55" r="55"/>
	</g>
	<g style="display:inline;">
		<g>
			<path style="fill:#0081A1;" d="M55,27c-13,0-25,13-25,33c0,24.728,17.842,23,25,23s25,1.728,25-23C80,40,68,27,55,27z"/>
		</g>
		<g>
			<path style="fill:#009FC7;" d="M30,60c0,24.728,17.842,23,25,23V27C42,27,30,40,30,60z"/>
		</g>
		<g>
			<path style="fill:#BBE7F2;" d="M64.668,37.88c-4.336,0-8.058,2.625-9.668,6.372c-1.61-3.746-5.332-6.372-9.668-6.372
				c-5.81,0-10.521,4.71-10.521,10.521c0,5.811,4.711,10.521,10.521,10.521c4.337,0,8.058-2.625,9.668-6.372
				c1.61,3.747,5.332,6.372,9.668,6.372c5.811,0,10.521-4.71,10.521-10.521C75.189,42.591,70.479,37.88,64.668,37.88z"/>
		</g>
		<g>
			<circle style="fill:#E1F5FA;" cx="55" cy="63.581" r="6.5"/>
		</g>
		<g>
			<path style="fill:#FFFFFF;" d="M48.5,63.581c0,3.59,2.91,6.5,6.5,6.5v-13C51.41,57.081,48.5,59.991,48.5,63.581z"/>
		</g>
		<g>
			<path style="fill:#0C333D;" d="M50.727,39.375c1.888,1.132,3.396,2.836,4.273,4.877c0.898-2.091,2.456-3.831,4.409-4.962
				c-0.192-2.516-2.617-3.619-2.617-3.619s-0.375,1-0.875,2.625c-0.625-3.125-5.25-4.5-5.25-4.5S50.87,35.327,50.727,39.375z"/>
		</g>
		<g>
			<path style="fill:#BBE7F2;" d="M77.337,44.77c5.35-2.729,8.795-12.011,9.53-19.1c0.07-0.676-0.171-1.347-0.654-1.824
				c-0.484-0.477-1.158-0.709-1.833-0.63c-9.794,1.141-15.228,4.694-17.153,7.882C71.486,34.154,75.062,38.82,77.337,44.77z"/>
		</g>
		<g>
			<path style="fill:#53BAD4;" d="M75.25,29c-0.551-0.482,7.209-4.095,8.5-2.875c2.25,2.125-5,12.625-5,12.625s3.167-7.916,2-9.375
				C79.75,28.125,76.25,29.875,75.25,29z"/>
		</g>
		<g>
			<path style="fill:#BBE7F2;" d="M32.663,44.77c2.274-5.949,5.851-10.615,10.11-13.672c-1.926-3.188-7.359-6.741-17.153-7.882
				c-0.675-0.079-1.349,0.153-1.833,0.63c-0.484,0.477-0.724,1.148-0.654,1.824C23.868,32.759,27.313,42.041,32.663,44.77z"/>
		</g>
		<g>
			<path style="fill:#FFFFFF;" d="M41.222,79c-14.004,0-8.516,10.113-4.477,6.074c1.142,2.513,6.34,2.812,7.852-0.074
				c0.37,1.704,1.638,2,2.847,2C53.507,87,51.861,79,41.222,79z"/>
		</g>
		<g>
			<path style="fill:#FFFFFF;" d="M68.778,79c14.004,0,8.516,10.113,4.477,6.074c-1.142,2.513-6.34,2.812-7.852-0.074
				c-0.37,1.704-1.638,2-2.847,2C56.493,87,58.139,79,68.778,79z"/>
		</g>
		<g>
			<path style="fill:#0C333D;" d="M59.5,63.665c0,2.485-2.015,4.5-4.5,4.5s-4.5-2.015-4.5-4.5H59.5z"/>
		</g>
		<g>
			<circle style="fill:#FFFFFF;" cx="45.551" cy="47.89" r="6.502"/>
		</g>
		<g>
			<path style="fill:#0C333D;" d="M47.338,48.424c0-0.776,0.629-1.404,1.404-1.404c0.059,0,0.115,0.01,0.172,0.017
				c-0.466-1.248-1.66-2.142-3.071-2.142c-1.816,0-3.288,1.472-3.288,3.288s1.472,3.288,3.288,3.288
				c1.216,0,2.265-0.667,2.834-1.648C47.933,49.787,47.338,49.177,47.338,48.424z"/>
		</g>
		<g>
			<circle style="fill:#FFFFFF;" cx="64.887" cy="47.89" r="6.502"/>
		</g>
		<g>
			<path style="fill:#0C333D;" d="M66.674,48.424c0-0.776,0.628-1.404,1.404-1.404c0.059,0,0.115,0.01,0.172,0.017
				c-0.466-1.248-1.66-2.142-3.071-2.142c-1.816,0-3.288,1.472-3.288,3.288s1.472,3.288,3.288,3.288
				c1.216,0,2.265-0.667,2.834-1.648C67.269,49.787,66.674,49.177,66.674,48.424z"/>
		</g>
		<g>
			<path style="fill:#53BAD4;" d="M34.75,29c0.551-0.482-7.208-4.095-8.5-2.875c-2.25,2.125,5,12.625,5,12.625s-3.167-7.916-2-9.375
				C30.25,28.125,33.75,29.875,34.75,29z"/>
		</g>
		<g>
			<path style="fill:#81D2EB;" d="M39.572,45.333H51.53c-0.993-2.32-3.296-3.945-5.979-3.945
				C42.868,41.388,40.566,43.013,39.572,45.333z"/>
		</g>
		<g>
			<path style="fill:#81D2EB;" d="M58.908,45.333h11.958c-0.993-2.32-3.296-3.945-5.979-3.945
				C62.204,41.388,59.902,43.013,58.908,45.333z"/>
		</g>
	</g>
</g>
<g id="Green" style="display:none;">
	<g style="display:inline;">
		<g>
			<path style="fill:#009687;" d="M55,27c-13,0-25,13-25,33c0,24.728,17.842,23,25,23s25,1.728,25-23C80,40,68,27,55,27z"/>
		</g>
		<g>
			<path style="fill:#00B8A5;" d="M30,60c0,24.728,17.842,23,25,23V27C42,27,30,40,30,60z"/>
		</g>
		<g>
			<path style="fill:#AAF0E9;" d="M64.668,37.88c-4.336,0-8.058,2.625-9.668,6.372c-1.61-3.746-5.332-6.372-9.668-6.372
				c-5.81,0-10.521,4.71-10.521,10.521c0,5.811,4.711,10.521,10.521,10.521c4.337,0,8.058-2.625,9.668-6.372
				c1.61,3.747,5.332,6.372,9.668,6.372c5.811,0,10.521-4.71,10.521-10.521C75.189,42.591,70.479,37.88,64.668,37.88z"/>
		</g>
		<g>
			<circle style="fill:#D7FCF9;" cx="55" cy="63.581" r="6.5"/>
		</g>
		<g>
			<path style="fill:#FFFFFF;" d="M48.5,63.581c0,3.59,2.91,6.5,6.5,6.5v-13C51.41,57.081,48.5,59.991,48.5,63.581z"/>
		</g>
		<g>
			<path style="fill:#0A3631;" d="M50.727,39.375c1.888,1.132,3.396,2.836,4.273,4.877c0.898-2.091,2.456-3.831,4.409-4.962
				c-0.192-2.516-2.617-3.619-2.617-3.619s-0.375,1-0.875,2.625c-0.625-3.125-5.25-4.5-5.25-4.5S50.87,35.327,50.727,39.375z"/>
		</g>
		<g>
			<path style="fill:#AAF0E9;" d="M77.337,44.77c5.35-2.729,8.795-12.011,9.53-19.1c0.07-0.676-0.171-1.347-0.654-1.824
				c-0.484-0.477-1.158-0.709-1.832-0.63c-9.795,1.141-15.228,4.694-17.153,7.882C71.486,34.154,75.062,38.82,77.337,44.77z"/>
		</g>
		<g>
			<path style="fill:#5DCFC3;" d="M75.25,29c-0.551-0.482,7.208-4.095,8.5-2.875c2.25,2.125-5,12.625-5,12.625s3.167-7.916,2-9.375
				C79.75,28.125,76.25,29.875,75.25,29z"/>
		</g>
		<g>
			<path style="fill:#AAF0E9;" d="M32.663,44.77c2.274-5.949,5.851-10.615,10.11-13.672c-1.926-3.188-7.359-6.741-17.153-7.882
				c-0.675-0.079-1.349,0.153-1.832,0.63c-0.484,0.477-0.724,1.148-0.654,1.824C23.868,32.759,27.313,42.041,32.663,44.77z"/>
		</g>
		<g>
			<path style="fill:#FFFFFF;" d="M41.222,79c-14.004,0-8.516,10.113-4.477,6.074c1.142,2.513,6.34,2.812,7.852-0.074
				c0.37,1.704,1.638,2,2.847,2C53.507,87,51.861,79,41.222,79z"/>
		</g>
		<g>
			<path style="fill:#FFFFFF;" d="M68.778,79c14.004,0,8.516,10.113,4.477,6.074c-1.142,2.513-6.34,2.812-7.852-0.074
				c-0.37,1.704-1.638,2-2.847,2C56.493,87,58.139,79,68.778,79z"/>
		</g>
		<g>
			<path style="fill:#0A3631;" d="M59.5,63.665c0,2.485-2.015,4.5-4.5,4.5c-2.485,0-4.5-2.015-4.5-4.5H59.5z"/>
		</g>
		<g>
			<circle style="fill:#FFFFFF;" cx="45.551" cy="47.89" r="6.502"/>
		</g>
		<g>
			<path style="fill:#0A3631;" d="M47.338,48.424c0-0.776,0.629-1.404,1.404-1.404c0.059,0,0.115,0.01,0.172,0.017
				c-0.466-1.248-1.66-2.142-3.071-2.142c-1.816,0-3.288,1.472-3.288,3.288s1.472,3.288,3.288,3.288
				c1.216,0,2.265-0.667,2.834-1.648C47.933,49.787,47.338,49.177,47.338,48.424z"/>
		</g>
		<g>
			<circle style="fill:#FFFFFF;" cx="64.887" cy="47.89" r="6.502"/>
		</g>
		<g>
			<path style="fill:#0A3631;" d="M66.674,48.424c0-0.776,0.628-1.404,1.404-1.404c0.059,0,0.115,0.01,0.172,0.017
				c-0.466-1.248-1.66-2.142-3.071-2.142c-1.816,0-3.288,1.472-3.288,3.288s1.472,3.288,3.288,3.288
				c1.216,0,2.265-0.667,2.834-1.648C67.269,49.787,66.674,49.177,66.674,48.424z"/>
		</g>
		<g>
			<path style="fill:#5DCFC3;" d="M34.75,29c0.551-0.482-7.208-4.095-8.5-2.875c-2.25,2.125,5,12.625,5,12.625s-3.167-7.916-2-9.375
				C30.25,28.125,33.75,29.875,34.75,29z"/>
		</g>
		<g>
			<path style="fill:#87E0C8;" d="M39.572,45.333H51.53c-0.993-2.32-3.296-3.945-5.979-3.945
				C42.868,41.388,40.566,43.013,39.572,45.333z"/>
		</g>
		<g>
			<path style="fill:#87E0C8;" d="M58.908,45.333h11.958c-0.993-2.32-3.296-3.945-5.979-3.945
				C62.204,41.388,59.902,43.013,58.908,45.333z"/>
		</g>
	</g>
</g>
<g id="R-Green" style="display:none;">
	<g style="display:inline;">
		<circle style="fill:#87E0C8;" cx="55" cy="55" r="55"/>
	</g>
	<g style="display:inline;">
		<g>
			<path style="fill:#009687;" d="M55,27c-13,0-25,13-25,33c0,24.728,17.842,23,25,23s25,1.728,25-23C80,40,68,27,55,27z"/>
		</g>
		<g>
			<path style="fill:#00B8A5;" d="M30,60c0,24.728,17.842,23,25,23V27C42,27,30,40,30,60z"/>
		</g>
		<g>
			<path style="fill:#AAF0E9;" d="M64.668,37.88c-4.336,0-8.058,2.625-9.668,6.372c-1.61-3.746-5.332-6.372-9.668-6.372
				c-5.81,0-10.521,4.71-10.521,10.521c0,5.811,4.711,10.521,10.521,10.521c4.337,0,8.058-2.625,9.668-6.372
				c1.61,3.747,5.332,6.372,9.668,6.372c5.811,0,10.521-4.71,10.521-10.521C75.189,42.591,70.479,37.88,64.668,37.88z"/>
		</g>
		<g>
			<circle style="fill:#D7FCF9;" cx="55" cy="63.581" r="6.5"/>
		</g>
		<g>
			<path style="fill:#FFFFFF;" d="M48.5,63.581c0,3.59,2.91,6.5,6.5,6.5v-13C51.41,57.081,48.5,59.991,48.5,63.581z"/>
		</g>
		<g>
			<path style="fill:#0A3631;" d="M50.727,39.375c1.888,1.132,3.396,2.836,4.273,4.877c0.898-2.091,2.456-3.831,4.409-4.962
				c-0.192-2.516-2.617-3.619-2.617-3.619s-0.375,1-0.875,2.625c-0.625-3.125-5.25-4.5-5.25-4.5S50.87,35.327,50.727,39.375z"/>
		</g>
		<g>
			<path style="fill:#AAF0E9;" d="M77.337,44.77c5.35-2.729,8.795-12.011,9.53-19.1c0.07-0.676-0.171-1.347-0.654-1.824
				c-0.484-0.477-1.158-0.709-1.832-0.63c-9.795,1.141-15.228,4.694-17.153,7.882C71.486,34.154,75.062,38.82,77.337,44.77z"/>
		</g>
		<g>
			<path style="fill:#5DCFC3;" d="M75.25,29c-0.551-0.482,7.208-4.095,8.5-2.875c2.25,2.125-5,12.625-5,12.625s3.167-7.916,2-9.375
				C79.75,28.125,76.25,29.875,75.25,29z"/>
		</g>
		<g>
			<path style="fill:#AAF0E9;" d="M32.663,44.77c2.274-5.949,5.851-10.615,10.11-13.672c-1.926-3.188-7.359-6.741-17.153-7.882
				c-0.675-0.079-1.349,0.153-1.832,0.63c-0.484,0.477-0.724,1.148-0.654,1.824C23.868,32.759,27.313,42.041,32.663,44.77z"/>
		</g>
		<g>
			<path style="fill:#FFFFFF;" d="M41.222,79c-14.004,0-8.516,10.113-4.477,6.074c1.142,2.513,6.34,2.812,7.852-0.074
				c0.37,1.704,1.638,2,2.847,2C53.507,87,51.861,79,41.222,79z"/>
		</g>
		<g>
			<path style="fill:#FFFFFF;" d="M68.778,79c14.004,0,8.516,10.113,4.477,6.074c-1.142,2.513-6.34,2.812-7.852-0.074
				c-0.37,1.704-1.638,2-2.847,2C56.493,87,58.139,79,68.778,79z"/>
		</g>
		<g>
			<path style="fill:#0A3631;" d="M59.5,63.665c0,2.485-2.015,4.5-4.5,4.5c-2.485,0-4.5-2.015-4.5-4.5H59.5z"/>
		</g>
		<g>
			<circle style="fill:#FFFFFF;" cx="45.551" cy="47.89" r="6.502"/>
		</g>
		<g>
			<path style="fill:#0A3631;" d="M47.338,48.424c0-0.776,0.629-1.404,1.404-1.404c0.059,0,0.115,0.01,0.172,0.017
				c-0.466-1.248-1.66-2.142-3.071-2.142c-1.816,0-3.288,1.472-3.288,3.288s1.472,3.288,3.288,3.288
				c1.216,0,2.265-0.667,2.834-1.648C47.933,49.787,47.338,49.177,47.338,48.424z"/>
		</g>
		<g>
			<circle style="fill:#FFFFFF;" cx="64.887" cy="47.89" r="6.502"/>
		</g>
		<g>
			<path style="fill:#0A3631;" d="M66.674,48.424c0-0.776,0.628-1.404,1.404-1.404c0.059,0,0.115,0.01,0.172,0.017
				c-0.466-1.248-1.66-2.142-3.071-2.142c-1.816,0-3.288,1.472-3.288,3.288s1.472,3.288,3.288,3.288
				c1.216,0,2.265-0.667,2.834-1.648C67.269,49.787,66.674,49.177,66.674,48.424z"/>
		</g>
		<g>
			<path style="fill:#5DCFC3;" d="M34.75,29c0.551-0.482-7.208-4.095-8.5-2.875c-2.25,2.125,5,12.625,5,12.625s-3.167-7.916-2-9.375
				C30.25,28.125,33.75,29.875,34.75,29z"/>
		</g>
		<g>
			<path style="fill:#87E0C8;" d="M39.572,45.333H51.53c-0.993-2.32-3.296-3.945-5.979-3.945
				C42.868,41.388,40.566,43.013,39.572,45.333z"/>
		</g>
		<g>
			<path style="fill:#87E0C8;" d="M58.908,45.333h11.958c-0.993-2.32-3.296-3.945-5.979-3.945
				C62.204,41.388,59.902,43.013,58.908,45.333z"/>
		</g>
	</g>
</g>
<g id="Red" style="display:none;">
	<g style="display:inline;">
		<g>
			<path style="fill:#C23023;" d="M55,26.999c-13,0-25,13-25,33c0,24.728,17.842,23,25,23s25,1.728,25-23
				C80,39.999,68,26.999,55,26.999z"/>
		</g>
		<g>
			<path style="fill:#E54B44;" d="M30,59.999c0,24.728,17.842,23,25,23v-56C42,26.999,30,39.999,30,59.999z"/>
		</g>
		<g>
			<path style="fill:#FFD7D4;" d="M64.668,37.879c-4.336,0-8.058,2.625-9.668,6.372c-1.61-3.746-5.332-6.372-9.668-6.372
				c-5.81,0-10.521,4.71-10.521,10.521c0,5.81,4.711,10.521,10.521,10.521c4.337,0,8.058-2.625,9.668-6.372
				c1.61,3.747,5.332,6.372,9.668,6.372c5.811,0,10.521-4.71,10.521-10.521C75.189,42.59,70.479,37.879,64.668,37.879z"/>
		</g>
		<g>
			<circle style="fill:#FFEFED;" cx="55" cy="63.58" r="6.5"/>
		</g>
		<g>
			<path style="fill:#FFFFFF;" d="M48.5,63.58c0,3.59,2.91,6.5,6.5,6.5v-13C51.41,57.08,48.5,59.99,48.5,63.58z"/>
		</g>
		<g>
			<path style="fill:#4A1410;" d="M50.727,39.374c1.888,1.132,3.396,2.836,4.273,4.877c0.898-2.091,2.456-3.831,4.409-4.962
				c-0.192-2.516-2.617-3.619-2.617-3.619s-0.375,1-0.875,2.625c-0.625-3.125-5.25-4.5-5.25-4.5S50.87,35.326,50.727,39.374z"/>
		</g>
		<g>
			<path style="fill:#FFD7D4;" d="M77.337,44.768c5.35-2.729,8.795-12.011,9.53-19.1c0.07-0.676-0.171-1.347-0.654-1.824
				c-0.484-0.477-1.158-0.708-1.833-0.63c-9.794,1.141-15.228,4.694-17.153,7.882C71.486,34.153,75.062,38.819,77.337,44.768z"/>
		</g>
		<g>
			<path style="fill:#E8A099;" d="M75.25,28.999c-0.551-0.482,7.209-4.095,8.5-2.875c2.25,2.125-5,12.625-5,12.625
				s3.167-7.916,2-9.375C79.75,28.124,76.25,29.874,75.25,28.999z"/>
		</g>
		<g>
			<path style="fill:#FFD7D4;" d="M32.663,44.768c2.274-5.949,5.851-10.615,10.11-13.672c-1.926-3.188-7.359-6.741-17.153-7.882
				c-0.675-0.079-1.349,0.153-1.832,0.63c-0.484,0.477-0.724,1.148-0.654,1.824C23.868,32.758,27.314,42.039,32.663,44.768z"/>
		</g>
		<g>
			<path style="fill:#FFFFFF;" d="M41.222,78.999c-14.004,0-8.516,10.113-4.477,6.074c1.142,2.513,6.34,2.812,7.852-0.074
				c0.37,1.704,1.638,2,2.847,2C53.507,86.999,51.861,78.999,41.222,78.999z"/>
		</g>
		<g>
			<path style="fill:#FFFFFF;" d="M68.778,78.999c14.004,0,8.516,10.113,4.477,6.074c-1.142,2.513-6.34,2.812-7.852-0.074
				c-0.37,1.704-1.638,2-2.847,2C56.493,86.999,58.139,78.999,68.778,78.999z"/>
		</g>
		<g>
			<path style="fill:#4A1410;" d="M59.5,63.664c0,2.485-2.015,4.5-4.5,4.5c-2.485,0-4.5-2.015-4.5-4.5H59.5z"/>
		</g>
		<g>
			<circle style="fill:#FFFFFF;" cx="45.551" cy="47.889" r="6.502"/>
		</g>
		<g>
			<path style="fill:#4A1410;" d="M47.338,48.423c0-0.776,0.629-1.404,1.404-1.404c0.059,0,0.115,0.01,0.172,0.017
				c-0.466-1.248-1.66-2.142-3.071-2.142c-1.816,0-3.288,1.472-3.288,3.288c0,1.816,1.472,3.288,3.288,3.288
				c1.216,0,2.265-0.667,2.834-1.648C47.933,49.786,47.338,49.176,47.338,48.423z"/>
		</g>
		<g>
			<circle style="fill:#FFFFFF;" cx="64.887" cy="47.889" r="6.502"/>
		</g>
		<g>
			<path style="fill:#4A1410;" d="M66.674,48.423c0-0.776,0.628-1.404,1.404-1.404c0.059,0,0.115,0.01,0.172,0.017
				c-0.466-1.248-1.66-2.142-3.071-2.142c-1.816,0-3.288,1.472-3.288,3.288c0,1.816,1.472,3.288,3.288,3.288
				c1.216,0,2.265-0.667,2.834-1.648C67.269,49.786,66.674,49.176,66.674,48.423z"/>
		</g>
		<g>
			<path style="fill:#E8A099;" d="M34.75,28.999c0.551-0.482-7.208-4.095-8.5-2.875c-2.25,2.125,5,12.625,5,12.625
				s-3.167-7.916-2-9.375C30.25,28.124,33.75,29.874,34.75,28.999z"/>
		</g>
		<g>
			<path style="fill:#FABBAF;" d="M39.572,45.332H51.53c-0.993-2.32-3.296-3.945-5.979-3.945
				C42.868,41.387,40.566,43.012,39.572,45.332z"/>
		</g>
		<g>
			<path style="fill:#FABBAF;" d="M58.908,45.332h11.958c-0.993-2.32-3.296-3.945-5.979-3.945
				C62.204,41.387,59.902,43.012,58.908,45.332z"/>
		</g>
	</g>
</g>
<g id="R-Red" style="display:none;">
	<g style="display:inline;">
		<circle style="fill:#FABBAF;" cx="55" cy="55" r="55"/>
	</g>
	<g style="display:inline;">
		<g>
			<path style="fill:#C23023;" d="M55,27c-13,0-25,13-25,33c0,24.728,17.842,23,25,23s25,1.728,25-23C80,40,68,27,55,27z"/>
		</g>
		<g>
			<path style="fill:#E54B44;" d="M30,60c0,24.728,17.842,23,25,23V27C42,27,30,40,30,60z"/>
		</g>
		<g>
			<path style="fill:#FFD7D4;" d="M64.668,37.88c-4.336,0-8.058,2.625-9.668,6.372c-1.61-3.746-5.332-6.372-9.668-6.372
				c-5.81,0-10.521,4.71-10.521,10.521c0,5.811,4.711,10.521,10.521,10.521c4.337,0,8.058-2.625,9.668-6.372
				c1.61,3.747,5.332,6.372,9.668,6.372c5.811,0,10.521-4.71,10.521-10.521C75.189,42.591,70.479,37.88,64.668,37.88z"/>
		</g>
		<g>
			<circle style="fill:#FFEFED;" cx="55" cy="63.581" r="6.5"/>
		</g>
		<g>
			<path style="fill:#FFFFFF;" d="M48.5,63.581c0,3.59,2.91,6.5,6.5,6.5v-13C51.41,57.081,48.5,59.991,48.5,63.581z"/>
		</g>
		<g>
			<path style="fill:#4A1410;" d="M50.727,39.375c1.888,1.132,3.396,2.836,4.273,4.877c0.898-2.091,2.456-3.831,4.409-4.962
				c-0.192-2.516-2.617-3.619-2.617-3.619s-0.375,1-0.875,2.625c-0.625-3.125-5.25-4.5-5.25-4.5S50.87,35.327,50.727,39.375z"/>
		</g>
		<g>
			<path style="fill:#FFD7D4;" d="M77.337,44.77c5.35-2.729,8.795-12.011,9.53-19.1c0.07-0.676-0.171-1.347-0.654-1.824
				c-0.484-0.477-1.158-0.709-1.833-0.63c-9.794,1.141-15.228,4.694-17.153,7.882C71.486,34.154,75.062,38.82,77.337,44.77z"/>
		</g>
		<g>
			<path style="fill:#E8A099;" d="M75.25,29c-0.551-0.482,7.209-4.095,8.5-2.875c2.25,2.125-5,12.625-5,12.625s3.167-7.916,2-9.375
				C79.75,28.125,76.25,29.875,75.25,29z"/>
		</g>
		<g>
			<path style="fill:#FFD7D4;" d="M32.663,44.77c2.274-5.949,5.851-10.615,10.11-13.672c-1.926-3.188-7.359-6.741-17.153-7.882
				c-0.675-0.079-1.349,0.153-1.833,0.63c-0.484,0.477-0.724,1.148-0.654,1.824C23.868,32.759,27.313,42.041,32.663,44.77z"/>
		</g>
		<g>
			<path style="fill:#FFFFFF;" d="M41.222,79c-14.004,0-8.516,10.113-4.477,6.074c1.142,2.513,6.34,2.812,7.852-0.074
				c0.37,1.704,1.638,2,2.847,2C53.507,87,51.861,79,41.222,79z"/>
		</g>
		<g>
			<path style="fill:#FFFFFF;" d="M68.778,79c14.004,0,8.516,10.113,4.477,6.074c-1.142,2.513-6.34,2.812-7.852-0.074
				c-0.37,1.704-1.638,2-2.847,2C56.493,87,58.139,79,68.778,79z"/>
		</g>
		<g>
			<path style="fill:#4A1410;" d="M59.5,63.665c0,2.485-2.015,4.5-4.5,4.5s-4.5-2.015-4.5-4.5H59.5z"/>
		</g>
		<g>
			<circle style="fill:#FFFFFF;" cx="45.551" cy="47.89" r="6.502"/>
		</g>
		<g>
			<path style="fill:#4A1410;" d="M47.338,48.424c0-0.776,0.629-1.404,1.404-1.404c0.059,0,0.115,0.01,0.172,0.017
				c-0.466-1.248-1.66-2.142-3.071-2.142c-1.816,0-3.288,1.472-3.288,3.288s1.472,3.288,3.288,3.288
				c1.216,0,2.265-0.667,2.834-1.648C47.933,49.787,47.338,49.177,47.338,48.424z"/>
		</g>
		<g>
			<circle style="fill:#FFFFFF;" cx="64.887" cy="47.89" r="6.502"/>
		</g>
		<g>
			<path style="fill:#4A1410;" d="M66.674,48.424c0-0.776,0.628-1.404,1.404-1.404c0.059,0,0.115,0.01,0.172,0.017
				c-0.466-1.248-1.66-2.142-3.071-2.142c-1.816,0-3.288,1.472-3.288,3.288s1.472,3.288,3.288,3.288
				c1.216,0,2.265-0.667,2.834-1.648C67.269,49.787,66.674,49.177,66.674,48.424z"/>
		</g>
		<g>
			<path style="fill:#E8A099;" d="M34.75,29c0.551-0.482-7.208-4.095-8.5-2.875c-2.25,2.125,5,12.625,5,12.625s-3.167-7.916-2-9.375
				C30.25,28.125,33.75,29.875,34.75,29z"/>
		</g>
		<g>
			<path style="fill:#FABBAF;" d="M39.572,45.333H51.53c-0.993-2.32-3.296-3.945-5.979-3.945
				C42.868,41.388,40.566,43.013,39.572,45.333z"/>
		</g>
		<g>
			<path style="fill:#FABBAF;" d="M58.908,45.333h11.958c-0.993-2.32-3.296-3.945-5.979-3.945
				C62.204,41.388,59.902,43.013,58.908,45.333z"/>
		</g>
	</g>
</g>
<g id="Yellow" style="display:none;">
	<g style="display:inline;">
		<g>
			<path style="fill:#E07000;" d="M55,26.999c-13,0-25,13-25,33c0,24.728,17.842,23,25,23s25,1.728,25-23
				C80,39.999,68,26.999,55,26.999z"/>
		</g>
		<g>
			<path style="fill:#FA9200;" d="M30,59.999c0,24.728,17.842,23,25,23v-56C42,26.999,30,39.999,30,59.999z"/>
		</g>
		<g>
			<path style="fill:#FFE9A1;" d="M64.668,37.879c-4.336,0-8.058,2.625-9.668,6.372c-1.61-3.746-5.332-6.372-9.668-6.372
				c-5.81,0-10.521,4.71-10.521,10.521c0,5.81,4.711,10.521,10.521,10.521c4.337,0,8.058-2.625,9.668-6.372
				c1.61,3.747,5.332,6.372,9.668,6.372c5.811,0,10.521-4.71,10.521-10.521C75.189,42.59,70.479,37.879,64.668,37.879z"/>
		</g>
		<g>
			<circle style="fill:#FFF5D9;" cx="55" cy="63.58" r="6.5"/>
		</g>
		<g>
			<path style="fill:#FFFFFF;" d="M48.5,63.58c0,3.59,2.91,6.5,6.5,6.5v-13C51.41,57.08,48.5,59.99,48.5,63.58z"/>
		</g>
		<g>
			<path style="fill:#3D320C;" d="M50.727,39.374c1.888,1.132,3.396,2.836,4.273,4.877c0.898-2.091,2.456-3.831,4.409-4.962
				c-0.192-2.516-2.617-3.619-2.617-3.619s-0.375,1-0.875,2.625c-0.625-3.125-5.25-4.5-5.25-4.5S50.87,35.326,50.727,39.374z"/>
		</g>
		<g>
			<path style="fill:#FFE9A1;" d="M77.337,44.768c5.35-2.729,8.795-12.011,9.53-19.1c0.07-0.676-0.171-1.347-0.654-1.824
				c-0.484-0.477-1.158-0.708-1.833-0.63c-9.794,1.141-15.228,4.694-17.153,7.882C71.486,34.153,75.062,38.819,77.337,44.768z"/>
		</g>
		<g>
			<path style="fill:#F5C43D;" d="M75.25,28.999c-0.551-0.482,7.209-4.095,8.5-2.875c2.25,2.125-5,12.625-5,12.625
				s3.167-7.916,2-9.375C79.75,28.124,76.25,29.874,75.25,28.999z"/>
		</g>
		<g>
			<path style="fill:#FFE9A1;" d="M32.663,44.768c2.274-5.949,5.851-10.615,10.11-13.672c-1.926-3.188-7.359-6.741-17.153-7.882
				c-0.675-0.079-1.349,0.153-1.832,0.63c-0.484,0.477-0.724,1.148-0.654,1.824C23.868,32.758,27.314,42.039,32.663,44.768z"/>
		</g>
		<g>
			<path style="fill:#FFFFFF;" d="M41.222,78.999c-14.004,0-8.516,10.113-4.477,6.074c1.142,2.513,6.34,2.812,7.852-0.074
				c0.37,1.704,1.638,2,2.847,2C53.507,86.999,51.861,78.999,41.222,78.999z"/>
		</g>
		<g>
			<path style="fill:#FFFFFF;" d="M68.778,78.999c14.004,0,8.516,10.113,4.477,6.074c-1.142,2.513-6.34,2.812-7.852-0.074
				c-0.37,1.704-1.638,2-2.847,2C56.493,86.999,58.139,78.999,68.778,78.999z"/>
		</g>
		<g>
			<path style="fill:#3D320C;" d="M59.5,63.664c0,2.485-2.015,4.5-4.5,4.5c-2.485,0-4.5-2.015-4.5-4.5H59.5z"/>
		</g>
		<g>
			<circle style="fill:#FFFFFF;" cx="45.551" cy="47.889" r="6.502"/>
		</g>
		<g>
			<path style="fill:#3D320C;" d="M47.338,48.423c0-0.776,0.629-1.404,1.404-1.404c0.059,0,0.115,0.01,0.172,0.017
				c-0.466-1.248-1.66-2.142-3.071-2.142c-1.816,0-3.288,1.472-3.288,3.288c0,1.816,1.472,3.288,3.288,3.288
				c1.216,0,2.265-0.667,2.834-1.648C47.933,49.786,47.338,49.176,47.338,48.423z"/>
		</g>
		<g>
			<circle style="fill:#FFFFFF;" cx="64.887" cy="47.889" r="6.502"/>
		</g>
		<g>
			<path style="fill:#3D320C;" d="M66.674,48.423c0-0.776,0.628-1.404,1.404-1.404c0.059,0,0.115,0.01,0.172,0.017
				c-0.466-1.248-1.66-2.142-3.071-2.142c-1.816,0-3.288,1.472-3.288,3.288c0,1.816,1.472,3.288,3.288,3.288
				c1.216,0,2.265-0.667,2.834-1.648C67.269,49.786,66.674,49.176,66.674,48.423z"/>
		</g>
		<g>
			<path style="fill:#F5C43D;" d="M34.75,28.999c0.551-0.482-7.208-4.095-8.5-2.875c-2.25,2.125,5,12.625,5,12.625
				s-3.167-7.916-2-9.375C30.25,28.124,33.75,29.874,34.75,28.999z"/>
		</g>
		<g>
			<path style="fill:#FFD75E;" d="M39.572,45.332H51.53c-0.993-2.32-3.296-3.945-5.979-3.945
				C42.868,41.387,40.566,43.012,39.572,45.332z"/>
		</g>
		<g>
			<path style="fill:#FFD75E;" d="M58.908,45.332h11.958c-0.993-2.32-3.296-3.945-5.979-3.945
				C62.204,41.387,59.902,43.012,58.908,45.332z"/>
		</g>
	</g>
</g>
<g id="R-Yellow" style="display:none;">
	<g style="display:inline;">
		<circle style="fill:#FFD75E;" cx="55" cy="55" r="55"/>
	</g>
	<g style="display:inline;">
		<g>
			<path style="fill:#E07000;" d="M55,27c-13,0-25,13-25,33c0,24.728,17.842,23,25,23s25,1.728,25-23C80,40,68,27,55,27z"/>
		</g>
		<g>
			<path style="fill:#FA9200;" d="M30,60c0,24.728,17.842,23,25,23V27C42,27,30,40,30,60z"/>
		</g>
		<g>
			<path style="fill:#FFE9A1;" d="M64.668,37.88c-4.336,0-8.058,2.625-9.668,6.372c-1.61-3.746-5.332-6.372-9.668-6.372
				c-5.81,0-10.521,4.71-10.521,10.521c0,5.811,4.711,10.521,10.521,10.521c4.337,0,8.058-2.625,9.668-6.372
				c1.61,3.747,5.332,6.372,9.668,6.372c5.811,0,10.521-4.71,10.521-10.521C75.189,42.591,70.479,37.88,64.668,37.88z"/>
		</g>
		<g>
			<circle style="fill:#FFF5D9;" cx="55" cy="63.581" r="6.5"/>
		</g>
		<g>
			<path style="fill:#FFFFFF;" d="M48.5,63.581c0,3.59,2.91,6.5,6.5,6.5v-13C51.41,57.081,48.5,59.991,48.5,63.581z"/>
		</g>
		<g>
			<path style="fill:#3D320C;" d="M50.727,39.375c1.888,1.132,3.396,2.836,4.273,4.877c0.898-2.091,2.456-3.831,4.409-4.962
				c-0.192-2.516-2.617-3.619-2.617-3.619s-0.375,1-0.875,2.625c-0.625-3.125-5.25-4.5-5.25-4.5S50.87,35.327,50.727,39.375z"/>
		</g>
		<g>
			<path style="fill:#FFE9A1;" d="M77.337,44.77c5.35-2.729,8.795-12.011,9.53-19.1c0.07-0.676-0.171-1.347-0.654-1.824
				c-0.484-0.477-1.158-0.709-1.833-0.63c-9.794,1.141-15.228,4.694-17.153,7.882C71.486,34.154,75.062,38.82,77.337,44.77z"/>
		</g>
		<g>
			<path style="fill:#F5C43D;" d="M75.25,29c-0.551-0.482,7.209-4.095,8.5-2.875c2.25,2.125-5,12.625-5,12.625s3.167-7.916,2-9.375
				C79.75,28.125,76.25,29.875,75.25,29z"/>
		</g>
		<g>
			<path style="fill:#FFE9A1;" d="M32.663,44.77c2.274-5.949,5.851-10.615,10.11-13.672c-1.926-3.188-7.359-6.741-17.153-7.882
				c-0.675-0.079-1.349,0.153-1.833,0.63c-0.484,0.477-0.724,1.148-0.654,1.824C23.868,32.759,27.313,42.041,32.663,44.77z"/>
		</g>
		<g>
			<path style="fill:#FFFFFF;" d="M41.222,79c-14.004,0-8.516,10.113-4.477,6.074c1.142,2.513,6.34,2.812,7.852-0.074
				c0.37,1.704,1.638,2,2.847,2C53.507,87,51.861,79,41.222,79z"/>
		</g>
		<g>
			<path style="fill:#FFFFFF;" d="M68.778,79c14.004,0,8.516,10.113,4.477,6.074c-1.142,2.513-6.34,2.812-7.852-0.074
				c-0.37,1.704-1.638,2-2.847,2C56.493,87,58.139,79,68.778,79z"/>
		</g>
		<g>
			<path style="fill:#3D320C;" d="M59.5,63.665c0,2.485-2.015,4.5-4.5,4.5s-4.5-2.015-4.5-4.5H59.5z"/>
		</g>
		<g>
			<circle style="fill:#FFFFFF;" cx="45.551" cy="47.89" r="6.502"/>
		</g>
		<g>
			<path style="fill:#3D320C;" d="M47.338,48.424c0-0.776,0.629-1.404,1.404-1.404c0.059,0,0.115,0.01,0.172,0.017
				c-0.466-1.248-1.66-2.142-3.071-2.142c-1.816,0-3.288,1.472-3.288,3.288s1.472,3.288,3.288,3.288
				c1.216,0,2.265-0.667,2.834-1.648C47.933,49.787,47.338,49.177,47.338,48.424z"/>
		</g>
		<g>
			<circle style="fill:#FFFFFF;" cx="64.887" cy="47.89" r="6.502"/>
		</g>
		<g>
			<path style="fill:#3D320C;" d="M66.674,48.424c0-0.776,0.628-1.404,1.404-1.404c0.059,0,0.115,0.01,0.172,0.017
				c-0.466-1.248-1.66-2.142-3.071-2.142c-1.816,0-3.288,1.472-3.288,3.288s1.472,3.288,3.288,3.288
				c1.216,0,2.265-0.667,2.834-1.648C67.269,49.787,66.674,49.177,66.674,48.424z"/>
		</g>
		<g>
			<path style="fill:#F5C43D;" d="M34.75,29c0.551-0.482-7.208-4.095-8.5-2.875c-2.25,2.125,5,12.625,5,12.625s-3.167-7.916-2-9.375
				C30.25,28.125,33.75,29.875,34.75,29z"/>
		</g>
		<g>
			<path style="fill:#FFD75E;" d="M39.572,45.333H51.53c-0.993-2.32-3.296-3.945-5.979-3.945
				C42.868,41.388,40.566,43.013,39.572,45.333z"/>
		</g>
		<g>
			<path style="fill:#FFD75E;" d="M58.908,45.333h11.958c-0.993-2.32-3.296-3.945-5.979-3.945
				C62.204,41.388,59.902,43.013,58.908,45.333z"/>
		</g>
	</g>
</g>
</svg>
