<?xml version="1.0" encoding="iso-8859-1"?>
<!-- Generator: Adobe Illustrator 17.1.0, SVG Export Plug-In . SVG Version: 6.00 Build 0)  -->
<!DOCTYPE svg PUBLIC "-//W3C//DTD SVG 1.0//EN" "http://www.w3.org/TR/2001/REC-SVG-20010904/DTD/svg10.dtd">
<svg version="1.0" xmlns="http://www.w3.org/2000/svg" xmlns:xlink="http://www.w3.org/1999/xlink" x="0px" y="0px" width="110px"
	 height="110px" viewBox="0 0 110 110" style="enable-background:new 0 0 110 110;" xml:space="preserve">
<g id="Artboard" style="display:none;">
	<rect x="-587.5" y="-42.5" style="display:inline;fill:#808080;stroke:#000000;stroke-miterlimit:10;" width="1371" height="326"/>
</g>
<g id="R-Multicolor" style="display:none;">
	<circle style="display:inline;fill:#25B7D3;" cx="55" cy="55" r="55"/>
	<g style="display:inline;">
		<path style="fill:#F0F1F1;" d="M27,83V25c0-1.105-0.895-2-2-2s-2,0.895-2,2v62h62c1.105,0,2-0.895,2-2s-0.895-2-2-2H27z"/>
		<rect x="33" y="67" style="fill:#0484AB;" width="12" height="16"/>
		<rect x="51" y="56" style="fill:#0484AB;" width="12" height="27"/>
		<rect x="69" y="34" style="fill:#0484AB;" width="12" height="49"/>
		<path style="fill:#9CE5F4;" d="M70.271,44.665c0.403-9.111-6.655-16.824-15.766-17.227c-9.111-0.403-16.824,6.655-17.227,15.766
			c-0.126,2.838,0.474,5.539,1.632,7.927L24.613,65.465c1.15,3.433,3.442,5.72,6.878,6.861l14.051-14.087
			c2.22,1.28,4.765,2.072,7.502,2.193C62.155,60.834,69.868,53.776,70.271,44.665z"/>
		<path style="fill:#C9F2F8;" d="M54.505,27.438c-9.111-0.404-16.824,6.655-17.227,15.766c-0.126,2.837,0.474,5.539,1.632,7.927
			L24.613,65.465c0.64,1.913,1.649,3.456,2.999,4.657L65.45,32.284C62.633,29.459,58.804,27.628,54.505,27.438z"/>
		<circle style="fill:#40C9E7;" cx="53.775" cy="43.934" r="11.795"/>
		<path style="fill:#6FDAF1;" d="M54.296,32.151c-6.508-0.288-12.017,4.754-12.305,11.261c-0.153,3.448,1.2,6.606,3.465,8.865
			l16.661-16.662C60.105,33.596,57.369,32.287,54.296,32.151z"/>
		<path style="fill:#84462D;" d="M38.91,51.131L24.613,65.465c1.15,3.433,3.442,5.72,6.878,6.861l14.051-14.087
			C42.674,56.584,40.354,54.106,38.91,51.131z"/>
		<path style="fill:#9C6144;" d="M38.91,51.131L24.613,65.465c0.64,1.913,1.649,3.456,2.999,4.657L42.124,55.61
			C40.818,54.31,39.722,52.803,38.91,51.131z"/>
		<path style="fill:#F3B607;" d="M42.506,61.281l3.035-3.043c-2.868-1.654-5.188-4.132-6.631-7.107l-3.282,3.29L42.506,61.281z"/>
		<path style="fill:#FBE158;" d="M38.91,51.131l-3.282,3.29l3.847,3.838l2.648-2.648C40.818,54.31,39.722,52.803,38.91,51.131z"/>
	</g>
</g>
<g id="Multicolor">
	<g>
		<path style="fill:#F0F1F1;" d="M27,83V25c0-1.105-0.895-2-2-2s-2,0.895-2,2v62h62c1.105,0,2-0.895,2-2s-0.895-2-2-2H27z"/>
		<rect x="33" y="67" style="fill:#0484AB;" width="12" height="16"/>
		<rect x="51" y="56" style="fill:#0484AB;" width="12" height="27"/>
		<rect x="69" y="34" style="fill:#0484AB;" width="12" height="49"/>
		<path style="fill:#9CE5F4;" d="M70.271,44.665c0.403-9.111-6.655-16.824-15.766-17.227c-9.111-0.403-16.824,6.655-17.227,15.766
			c-0.126,2.838,0.474,5.539,1.632,7.927L24.613,65.465c1.15,3.433,3.442,5.72,6.878,6.861l14.051-14.087
			c2.22,1.28,4.765,2.072,7.502,2.193C62.155,60.834,69.868,53.776,70.271,44.665z"/>
		<path style="fill:#C9F2F8;" d="M54.505,27.438c-9.111-0.404-16.824,6.655-17.227,15.766c-0.126,2.837,0.474,5.539,1.632,7.927
			L24.613,65.465c0.64,1.913,1.649,3.456,2.999,4.657L65.45,32.284C62.633,29.459,58.804,27.628,54.505,27.438z"/>
		<circle style="fill:#40C9E7;" cx="53.775" cy="43.934" r="11.795"/>
		<path style="fill:#6FDAF1;" d="M54.296,32.151c-6.508-0.288-12.017,4.754-12.305,11.261c-0.153,3.448,1.2,6.606,3.465,8.865
			l16.661-16.662C60.105,33.596,57.369,32.287,54.296,32.151z"/>
		<path style="fill:#84462D;" d="M38.91,51.131L24.613,65.465c1.15,3.433,3.442,5.72,6.878,6.861l14.051-14.087
			C42.674,56.584,40.354,54.106,38.91,51.131z"/>
		<path style="fill:#9C6144;" d="M38.91,51.131L24.613,65.465c0.64,1.913,1.649,3.456,2.999,4.657L42.124,55.61
			C40.818,54.31,39.722,52.803,38.91,51.131z"/>
		<path style="fill:#F3B607;" d="M42.506,61.281l3.035-3.043c-2.868-1.654-5.188-4.132-6.631-7.107l-3.282,3.29L42.506,61.281z"/>
		<path style="fill:#FBE158;" d="M38.91,51.131l-3.282,3.29l3.847,3.838l2.648-2.648C40.818,54.31,39.722,52.803,38.91,51.131z"/>
	</g>
</g>
<g id="Blue" style="display:none;">
	<g style="display:inline;">
		<g>
			<rect x="51" y="57" style="fill:#009FC7;" width="12" height="27"/>
		</g>
		<g>
			<path style="fill:#BBE7F2;" d="M27,83V25c0-1.104-0.895-2-2-2c-1.104,0-2,0.896-2,2v62h62c1.104,0,2-0.896,2-2s-0.896-2-2-2H27z"
				/>
		</g>
		<g>
			<rect x="33" y="67" style="fill:#33899E;" width="12" height="16"/>
		</g>
		<g>
			<rect x="69" y="34" style="fill:#E1F5FA;" width="12" height="49"/>
		</g>
		<g>
			<path style="fill:#E1F5FA;" d="M70.271,44.665c0.403-9.111-6.655-16.824-15.767-17.227c-9.11-0.404-16.823,6.655-17.227,15.766
				c-0.126,2.837,0.474,5.539,1.632,7.927L24.612,65.465c1.15,3.433,3.442,5.72,6.878,6.861l14.051-14.087
				c2.22,1.28,4.765,2.072,7.502,2.193C62.155,60.834,69.868,53.776,70.271,44.665z"/>
		</g>
		<g>
			<path style="fill:#FFFFFF;" d="M54.505,27.438c-9.11-0.403-16.823,6.655-17.227,15.767c-0.126,2.837,0.474,5.539,1.632,7.927
				L24.612,65.465c0.641,1.913,1.649,3.456,3,4.657L65.45,32.284C62.633,29.459,58.805,27.628,54.505,27.438z"/>
		</g>
		<g>
			<circle style="fill:#009FC7;" cx="53.774" cy="43.935" r="11.795"/>
		</g>
		<g>
			<path style="fill:#00B7E5;" d="M54.296,32.151c-6.508-0.289-12.017,4.753-12.305,11.261c-0.152,3.448,1.2,6.606,3.465,8.865
				l16.662-16.662C60.105,33.597,57.369,32.287,54.296,32.151z"/>
		</g>
		<g>
			<path style="fill:#0C333D;" d="M38.91,51.131L24.612,65.465c1.15,3.433,3.442,5.72,6.878,6.861l14.051-14.087
				C42.674,56.584,40.354,54.106,38.91,51.131z"/>
		</g>
		<g>
			<path style="fill:#0F6175;" d="M38.91,51.131L24.612,65.465c0.641,1.913,1.649,3.456,3,4.657L42.124,55.61
				C40.817,54.311,39.722,52.803,38.91,51.131z"/>
		</g>
		<g>
			<path style="fill:#0F6175;" d="M42.507,61.281l3.035-3.043c-2.868-1.654-5.188-4.132-6.631-7.107l-3.282,3.29L42.507,61.281z"/>
		</g>
		<g>
			<path style="fill:#53BAD4;" d="M38.91,51.131l-3.282,3.29l3.847,3.837l2.648-2.648C40.817,54.311,39.722,52.803,38.91,51.131z"/>
		</g>
	</g>
</g>
<g id="R-Blue" style="display:none;">
	<g style="display:inline;">
		<circle style="fill:#81D2EB;" cx="55" cy="55" r="55"/>
	</g>
	<g style="display:inline;">
		<g>
			<rect x="51" y="57" style="fill:#009FC7;" width="12" height="27"/>
		</g>
		<g>
			<path style="fill:#BBE7F2;" d="M27,83V25c0-1.104-0.895-2-2-2c-1.104,0-2,0.896-2,2v62h62c1.104,0,2-0.896,2-2s-0.896-2-2-2H27z"
				/>
		</g>
		<g>
			<rect x="33" y="67" style="fill:#33899E;" width="12" height="16"/>
		</g>
		<g>
			<rect x="69" y="34" style="fill:#E1F5FA;" width="12" height="49"/>
		</g>
		<g>
			<path style="fill:#E1F5FA;" d="M70.271,44.665c0.403-9.111-6.655-16.824-15.767-17.227c-9.11-0.404-16.823,6.655-17.227,15.766
				c-0.126,2.837,0.474,5.539,1.632,7.927L24.612,65.465c1.15,3.433,3.442,5.72,6.878,6.861l14.051-14.087
				c2.22,1.28,4.765,2.072,7.502,2.193C62.155,60.834,69.868,53.776,70.271,44.665z"/>
		</g>
		<g>
			<path style="fill:#FFFFFF;" d="M54.505,27.438c-9.11-0.403-16.823,6.655-17.227,15.767c-0.126,2.837,0.474,5.539,1.632,7.927
				L24.612,65.465c0.641,1.913,1.649,3.456,3,4.657L65.45,32.284C62.633,29.459,58.805,27.628,54.505,27.438z"/>
		</g>
		<g>
			<circle style="fill:#009FC7;" cx="53.774" cy="43.935" r="11.795"/>
		</g>
		<g>
			<path style="fill:#00B7E5;" d="M54.296,32.151c-6.508-0.289-12.017,4.753-12.305,11.261c-0.152,3.448,1.2,6.606,3.465,8.865
				l16.662-16.662C60.105,33.597,57.369,32.287,54.296,32.151z"/>
		</g>
		<g>
			<path style="fill:#0C333D;" d="M38.91,51.131L24.612,65.465c1.15,3.433,3.442,5.72,6.878,6.861l14.051-14.087
				C42.674,56.584,40.354,54.106,38.91,51.131z"/>
		</g>
		<g>
			<path style="fill:#0F6175;" d="M38.91,51.131L24.612,65.465c0.641,1.913,1.649,3.456,3,4.657L42.124,55.61
				C40.817,54.311,39.722,52.803,38.91,51.131z"/>
		</g>
		<g>
			<path style="fill:#0F6175;" d="M42.507,61.281l3.035-3.043c-2.868-1.654-5.188-4.132-6.631-7.107l-3.282,3.29L42.507,61.281z"/>
		</g>
		<g>
			<path style="fill:#53BAD4;" d="M38.91,51.131l-3.282,3.29l3.847,3.837l2.648-2.648C40.817,54.311,39.722,52.803,38.91,51.131z"/>
		</g>
	</g>
</g>
<g id="Green" style="display:none;">
	<g style="display:inline;">
		<g>
			<rect x="51" y="57" style="fill:#00B8A5;" width="12" height="27"/>
		</g>
		<g>
			<path style="fill:#AAF0E9;" d="M27,83V25c0-1.104-0.895-2-2-2c-1.104,0-2,0.896-2,2v62h62c1.104,0,2-0.896,2-2s-0.896-2-2-2H27z"
				/>
		</g>
		<g>
			<rect x="33" y="67" style="fill:#3E948B;" width="12" height="16"/>
		</g>
		<g>
			<rect x="69" y="34" style="fill:#D7FCF9;" width="12" height="49"/>
		</g>
		<g>
			<path style="fill:#D7FCF9;" d="M70.271,44.665c0.403-9.111-6.655-16.824-15.767-17.227c-9.11-0.404-16.823,6.655-17.227,15.766
				c-0.126,2.837,0.474,5.539,1.632,7.927L24.612,65.465c1.15,3.433,3.442,5.72,6.878,6.861l14.051-14.087
				c2.22,1.28,4.765,2.072,7.502,2.193C62.155,60.834,69.868,53.776,70.271,44.665z"/>
		</g>
		<g>
			<path style="fill:#FFFFFF;" d="M54.505,27.438c-9.11-0.403-16.823,6.655-17.227,15.767c-0.126,2.837,0.474,5.539,1.632,7.927
				L24.612,65.465c0.641,1.913,1.649,3.456,3,4.657L65.45,32.284C62.633,29.459,58.805,27.628,54.505,27.438z"/>
		</g>
		<g>
			<circle style="fill:#00B8A5;" cx="53.774" cy="43.935" r="11.795"/>
		</g>
		<g>
			<path style="fill:#00D6C1;" d="M54.296,32.151c-6.508-0.289-12.017,4.753-12.305,11.261c-0.152,3.448,1.2,6.606,3.465,8.865
				l16.662-16.662C60.105,33.597,57.369,32.287,54.296,32.151z"/>
		</g>
		<g>
			<path style="fill:#0A3631;" d="M38.91,51.131L24.612,65.465c1.15,3.433,3.442,5.72,6.878,6.861l14.051-14.087
				C42.674,56.584,40.354,54.106,38.91,51.131z"/>
		</g>
		<g>
			<path style="fill:#14635B;" d="M38.91,51.131L24.612,65.465c0.641,1.913,1.649,3.456,3,4.657L42.124,55.61
				C40.817,54.311,39.722,52.803,38.91,51.131z"/>
		</g>
		<g>
			<path style="fill:#14635B;" d="M42.507,61.281l3.035-3.043c-2.868-1.654-5.188-4.132-6.631-7.107l-3.282,3.29L42.507,61.281z"/>
		</g>
		<g>
			<path style="fill:#5DCFC3;" d="M38.91,51.131l-3.282,3.29l3.847,3.837l2.648-2.648C40.817,54.311,39.722,52.803,38.91,51.131z"/>
		</g>
	</g>
</g>
<g id="R-Green" style="display:none;">
	<g style="display:inline;">
		<circle style="fill:#87E0C8;" cx="55" cy="55" r="55"/>
	</g>
	<g style="display:inline;">
		<g>
			<rect x="51" y="57" style="fill:#00B8A5;" width="12" height="27"/>
		</g>
		<g>
			<path style="fill:#AAF0E9;" d="M27,83V25c0-1.104-0.896-2-2-2s-2,0.896-2,2v62h62c1.104,0,2-0.896,2-2s-0.896-2-2-2H27z"/>
		</g>
		<g>
			<rect x="33" y="67" style="fill:#3E948B;" width="12" height="16"/>
		</g>
		<g>
			<rect x="69" y="34" style="fill:#D7FCF9;" width="12" height="49"/>
		</g>
		<g>
			<path style="fill:#D7FCF9;" d="M70.271,44.665c0.403-9.111-6.655-16.824-15.767-17.227c-9.11-0.404-16.823,6.655-17.227,15.766
				c-0.126,2.837,0.474,5.539,1.632,7.927L24.612,65.465c1.15,3.433,3.442,5.72,6.878,6.861l14.051-14.087
				c2.22,1.28,4.765,2.072,7.502,2.193C62.155,60.834,69.868,53.776,70.271,44.665z"/>
		</g>
		<g>
			<path style="fill:#FFFFFF;" d="M54.505,27.438c-9.11-0.403-16.823,6.655-17.227,15.767c-0.126,2.837,0.474,5.539,1.632,7.927
				L24.612,65.465c0.641,1.913,1.649,3.456,2.999,4.657L65.45,32.284C62.633,29.459,58.805,27.628,54.505,27.438z"/>
		</g>
		<g>
			<circle style="fill:#00B8A5;" cx="53.774" cy="43.935" r="11.795"/>
		</g>
		<g>
			<path style="fill:#00D6C1;" d="M54.296,32.151c-6.508-0.289-12.017,4.753-12.305,11.261c-0.152,3.448,1.2,6.606,3.465,8.865
				l16.662-16.662C60.105,33.597,57.369,32.287,54.296,32.151z"/>
		</g>
		<g>
			<path style="fill:#0A3631;" d="M38.91,51.131L24.612,65.465c1.15,3.433,3.442,5.72,6.878,6.861l14.051-14.087
				C42.674,56.584,40.354,54.106,38.91,51.131z"/>
		</g>
		<g>
			<path style="fill:#14635B;" d="M38.91,51.131L24.612,65.465c0.641,1.913,1.649,3.456,2.999,4.657L42.124,55.61
				C40.817,54.311,39.722,52.803,38.91,51.131z"/>
		</g>
		<g>
			<path style="fill:#14635B;" d="M42.507,61.281l3.035-3.043c-2.868-1.654-5.188-4.132-6.631-7.107l-3.282,3.29L42.507,61.281z"/>
		</g>
		<g>
			<path style="fill:#5DCFC3;" d="M38.91,51.131l-3.282,3.29l3.847,3.837l2.648-2.648C40.817,54.311,39.722,52.803,38.91,51.131z"/>
		</g>
	</g>
</g>
<g id="Red" style="display:none;">
	<g style="display:inline;">
		<g>
			<rect x="51" y="57" style="fill:#E54B44;" width="12" height="27"/>
		</g>
		<g>
			<path style="fill:#FFD7D4;" d="M27,83V25c0-1.104-0.896-2-2-2s-2,0.896-2,2v62h62c1.104,0,2-0.896,2-2s-0.896-2-2-2H27z"/>
		</g>
		<g>
			<rect x="33" y="67" style="fill:#B84E44;" width="12" height="16"/>
		</g>
		<g>
			<rect x="69" y="34" style="fill:#FFEFED;" width="12" height="49"/>
		</g>
		<g>
			<path style="fill:#FFEFED;" d="M70.271,44.665c0.403-9.111-6.655-16.824-15.767-17.227c-9.11-0.404-16.823,6.655-17.227,15.766
				c-0.126,2.837,0.474,5.539,1.632,7.927L24.612,65.465c1.15,3.433,3.442,5.72,6.878,6.861l14.051-14.087
				c2.22,1.28,4.765,2.072,7.502,2.193C62.155,60.834,69.868,53.776,70.271,44.665z"/>
		</g>
		<g>
			<path style="fill:#FFFFFF;" d="M54.505,27.438c-9.11-0.403-16.823,6.655-17.227,15.767c-0.126,2.837,0.474,5.539,1.632,7.927
				L24.612,65.465c0.641,1.913,1.649,3.456,2.999,4.657L65.45,32.284C62.633,29.459,58.805,27.628,54.505,27.438z"/>
		</g>
		<g>
			<circle style="fill:#E54B44;" cx="53.774" cy="43.935" r="11.795"/>
		</g>
		<g>
			<path style="fill:#FF6C5E;" d="M54.296,32.151c-6.508-0.289-12.017,4.753-12.305,11.261c-0.152,3.448,1.2,6.606,3.465,8.865
				l16.662-16.662C60.105,33.597,57.369,32.287,54.296,32.151z"/>
		</g>
		<g>
			<path style="fill:#4A1410;" d="M38.91,51.131L24.612,65.465c1.15,3.433,3.442,5.72,6.878,6.861l14.051-14.087
				C42.674,56.584,40.354,54.106,38.91,51.131z"/>
		</g>
		<g>
			<path style="fill:#7D261E;" d="M38.91,51.131L24.612,65.465c0.641,1.913,1.649,3.456,2.999,4.657L42.124,55.61
				C40.817,54.311,39.722,52.803,38.91,51.131z"/>
		</g>
		<g>
			<path style="fill:#7D261E;" d="M42.507,61.281l3.035-3.043c-2.868-1.654-5.188-4.132-6.631-7.107l-3.282,3.29L42.507,61.281z"/>
		</g>
		<g>
			<path style="fill:#E8A099;" d="M38.91,51.131l-3.282,3.29l3.847,3.837l2.648-2.648C40.817,54.311,39.722,52.803,38.91,51.131z"/>
		</g>
	</g>
</g>
<g id="R-Red" style="display:none;">
	<g style="display:inline;">
		<circle style="fill:#FABBAF;" cx="55" cy="55" r="55"/>
	</g>
	<g style="display:inline;">
		<g>
			<rect x="51" y="57" style="fill:#E54B44;" width="12" height="27"/>
		</g>
		<g>
			<path style="fill:#FFD7D4;" d="M27,83V25c0-1.104-0.895-2-2-2c-1.104,0-2,0.896-2,2v62h62c1.104,0,2-0.896,2-2s-0.896-2-2-2H27z"
				/>
		</g>
		<g>
			<rect x="33" y="67" style="fill:#B84E44;" width="12" height="16"/>
		</g>
		<g>
			<rect x="69" y="34" style="fill:#FFEFED;" width="12" height="49"/>
		</g>
		<g>
			<path style="fill:#FFEFED;" d="M70.271,44.665c0.403-9.111-6.655-16.824-15.767-17.227c-9.11-0.404-16.823,6.655-17.227,15.766
				c-0.126,2.837,0.474,5.539,1.632,7.927L24.612,65.465c1.15,3.433,3.442,5.72,6.878,6.861l14.051-14.087
				c2.22,1.28,4.765,2.072,7.502,2.193C62.155,60.834,69.868,53.776,70.271,44.665z"/>
		</g>
		<g>
			<path style="fill:#FFFFFF;" d="M54.505,27.438c-9.11-0.403-16.823,6.655-17.227,15.767c-0.126,2.837,0.474,5.539,1.632,7.927
				L24.612,65.465c0.641,1.913,1.649,3.456,3,4.657L65.45,32.284C62.633,29.459,58.805,27.628,54.505,27.438z"/>
		</g>
		<g>
			<circle style="fill:#E54B44;" cx="53.774" cy="43.935" r="11.795"/>
		</g>
		<g>
			<path style="fill:#FF6C5E;" d="M54.296,32.151c-6.508-0.289-12.017,4.753-12.305,11.261c-0.152,3.448,1.2,6.606,3.465,8.865
				l16.662-16.662C60.105,33.597,57.369,32.287,54.296,32.151z"/>
		</g>
		<g>
			<path style="fill:#4A1410;" d="M38.91,51.131L24.612,65.465c1.15,3.433,3.442,5.72,6.878,6.861l14.051-14.087
				C42.674,56.584,40.354,54.106,38.91,51.131z"/>
		</g>
		<g>
			<path style="fill:#7D261E;" d="M38.91,51.131L24.612,65.465c0.641,1.913,1.649,3.456,3,4.657L42.124,55.61
				C40.817,54.311,39.722,52.803,38.91,51.131z"/>
		</g>
		<g>
			<path style="fill:#7D261E;" d="M42.507,61.281l3.035-3.043c-2.868-1.654-5.188-4.132-6.631-7.107l-3.282,3.29L42.507,61.281z"/>
		</g>
		<g>
			<path style="fill:#E8A099;" d="M38.91,51.131l-3.282,3.29l3.847,3.837l2.648-2.648C40.817,54.311,39.722,52.803,38.91,51.131z"/>
		</g>
	</g>
</g>
<g id="Yellow" style="display:none;">
	<g style="display:inline;">
		<g>
			<rect x="51" y="57" style="fill:#FA9200;" width="12" height="27"/>
		</g>
		<g>
			<path style="fill:#FFE9A1;" d="M27,83V25c0-1.104-0.895-2-2-2c-1.104,0-2,0.896-2,2v62h62c1.104,0,2-0.896,2-2s-0.896-2-2-2H27z"
				/>
		</g>
		<g>
			<rect x="33" y="67" style="fill:#947615;" width="12" height="16"/>
		</g>
		<g>
			<rect x="69" y="34" style="fill:#FFF5D9;" width="12" height="49"/>
		</g>
		<g>
			<path style="fill:#FFF5D9;" d="M70.271,44.665c0.403-9.111-6.655-16.824-15.767-17.227c-9.11-0.404-16.823,6.655-17.227,15.766
				c-0.126,2.837,0.474,5.539,1.632,7.927L24.612,65.465c1.15,3.433,3.442,5.72,6.878,6.861l14.051-14.087
				c2.22,1.28,4.765,2.072,7.502,2.193C62.155,60.834,69.868,53.776,70.271,44.665z"/>
		</g>
		<g>
			<path style="fill:#FFFFFF;" d="M54.505,27.438c-9.11-0.403-16.823,6.655-17.227,15.767c-0.126,2.837,0.474,5.539,1.632,7.927
				L24.612,65.465c0.641,1.913,1.649,3.456,3,4.657L65.45,32.284C62.633,29.459,58.805,27.628,54.505,27.438z"/>
		</g>
		<g>
			<circle style="fill:#FA9200;" cx="53.774" cy="43.935" r="11.795"/>
		</g>
		<g>
			<path style="fill:#FFAA00;" d="M54.296,32.151c-6.508-0.289-12.017,4.753-12.305,11.261c-0.152,3.448,1.2,6.606,3.465,8.865
				l16.662-16.662C60.105,33.597,57.369,32.287,54.296,32.151z"/>
		</g>
		<g>
			<path style="fill:#3D320C;" d="M38.91,51.131L24.612,65.465c1.15,3.433,3.442,5.72,6.878,6.861l14.051-14.087
				C42.674,56.584,40.354,54.106,38.91,51.131z"/>
		</g>
		<g>
			<path style="fill:#66510D;" d="M38.91,51.131L24.612,65.465c0.641,1.913,1.649,3.456,3,4.657L42.124,55.61
				C40.817,54.311,39.722,52.803,38.91,51.131z"/>
		</g>
		<g>
			<path style="fill:#66510D;" d="M42.507,61.281l3.035-3.043c-2.868-1.654-5.188-4.132-6.631-7.107l-3.282,3.29L42.507,61.281z"/>
		</g>
		<g>
			<path style="fill:#F5C43D;" d="M38.91,51.131l-3.282,3.29l3.847,3.837l2.648-2.648C40.817,54.311,39.722,52.803,38.91,51.131z"/>
		</g>
	</g>
</g>
<g id="R-Yellow" style="display:none;">
	<g style="display:inline;">
		<circle style="fill:#FFD75E;" cx="55" cy="55" r="55"/>
	</g>
	<g style="display:inline;">
		<g>
			<rect x="51" y="57" style="fill:#FA9200;" width="12" height="27"/>
		</g>
		<g>
			<path style="fill:#FFE9A1;" d="M27,83V25c0-1.104-0.895-2-2-2c-1.104,0-2,0.896-2,2v62h62c1.104,0,2-0.896,2-2s-0.896-2-2-2H27z"
				/>
		</g>
		<g>
			<rect x="33" y="67" style="fill:#947615;" width="12" height="16"/>
		</g>
		<g>
			<rect x="69" y="34" style="fill:#FFF5D9;" width="12" height="49"/>
		</g>
		<g>
			<path style="fill:#FFF5D9;" d="M70.271,44.665c0.403-9.111-6.655-16.824-15.767-17.227c-9.11-0.404-16.823,6.655-17.227,15.766
				c-0.126,2.837,0.474,5.539,1.632,7.927L24.612,65.465c1.15,3.433,3.442,5.72,6.878,6.861l14.051-14.087
				c2.22,1.28,4.765,2.072,7.502,2.193C62.155,60.834,69.868,53.776,70.271,44.665z"/>
		</g>
		<g>
			<path style="fill:#FFFFFF;" d="M54.505,27.438c-9.11-0.403-16.823,6.655-17.227,15.767c-0.126,2.837,0.474,5.539,1.632,7.927
				L24.612,65.465c0.641,1.913,1.649,3.456,3,4.657L65.45,32.284C62.633,29.459,58.805,27.628,54.505,27.438z"/>
		</g>
		<g>
			<circle style="fill:#FA9200;" cx="53.774" cy="43.935" r="11.795"/>
		</g>
		<g>
			<path style="fill:#FFAA00;" d="M54.296,32.151c-6.508-0.289-12.017,4.753-12.305,11.261c-0.152,3.448,1.2,6.606,3.465,8.865
				l16.662-16.662C60.105,33.597,57.369,32.287,54.296,32.151z"/>
		</g>
		<g>
			<path style="fill:#3D320C;" d="M38.91,51.131L24.612,65.465c1.15,3.433,3.442,5.72,6.878,6.861l14.051-14.087
				C42.674,56.584,40.354,54.106,38.91,51.131z"/>
		</g>
		<g>
			<path style="fill:#66510D;" d="M38.91,51.131L24.612,65.465c0.641,1.913,1.649,3.456,3,4.657L42.124,55.61
				C40.817,54.311,39.722,52.803,38.91,51.131z"/>
		</g>
		<g>
			<path style="fill:#66510D;" d="M42.507,61.281l3.035-3.043c-2.868-1.654-5.188-4.132-6.631-7.107l-3.282,3.29L42.507,61.281z"/>
		</g>
		<g>
			<path style="fill:#F5C43D;" d="M38.91,51.131l-3.282,3.29l3.847,3.837l2.648-2.648C40.817,54.311,39.722,52.803,38.91,51.131z"/>
		</g>
	</g>
</g>
</svg>
