<?xml version="1.0" encoding="iso-8859-1"?>
<!-- Generator: Adobe Illustrator 17.1.0, SVG Export Plug-In . SVG Version: 6.00 Build 0)  -->
<!DOCTYPE svg PUBLIC "-//W3C//DTD SVG 1.0//EN" "http://www.w3.org/TR/2001/REC-SVG-20010904/DTD/svg10.dtd">
<svg version="1.0" xmlns="http://www.w3.org/2000/svg" xmlns:xlink="http://www.w3.org/1999/xlink" x="0px" y="0px" width="110px"
	 height="110px" viewBox="0 0 110 110" style="enable-background:new 0 0 110 110;" xml:space="preserve">
<g id="Artboard" style="display:none;">
	
		<rect x="-575.5" y="-325.5" style="display:inline;fill:#808080;stroke:#000000;stroke-miterlimit:10;" width="1401" height="740"/>
</g>
<g id="R-Multicolor" style="display:none;">
	<circle style="display:inline;fill:#32BEA6;" cx="55" cy="55" r="55"/>
	<g style="display:inline;">
		<g>
			<path style="fill:#F8E1C2;" d="M78.905,63V51c0-13.255-10.745-24-24-24s-24,10.745-24,24v12l-7.011,7.011
				c-0.229,0.229-0.333,0.556-0.279,0.875c0.055,0.32,0.261,0.593,0.553,0.733c20.491,9.841,40.982,9.841,61.473,0
				c0.292-0.14,0.498-0.414,0.553-0.733c0.055-0.32-0.049-0.646-0.278-0.875L78.905,63z"/>
		</g>
		<g>
			<path style="fill:#FCF1E2;" d="M30.905,51v12l-7.011,7.011c-0.229,0.229-0.333,0.555-0.279,0.875
				c0.055,0.32,0.261,0.593,0.553,0.733C34.414,76.54,44.66,79,54.905,79V27C41.65,27,30.905,37.745,30.905,51z"/>
		</g>
		<g>
			<rect x="30.905" y="59" style="fill:#A97A45;" width="48" height="4"/>
		</g>
		<g>
			<path style="fill:#FA5655;" d="M82.917,55.604l-4.84,1.823l2.133-4.711c0.455-1.006,0.009-2.191-0.997-2.647
				c-1.006-0.456-2.191-0.009-2.647,0.997l-2.133,4.711l-1.823-4.84c-0.389-1.034-1.543-1.556-2.577-1.167
				c-1.034,0.389-1.556,1.543-1.167,2.577l1.823,4.84l-4.711-2.133c-1.006-0.456-2.191-0.009-2.647,0.997
				c-0.456,1.006-0.009,2.191,0.997,2.647l4.711,2.133l-4.84,1.823c-1.034,0.389-1.556,1.543-1.167,2.577s1.543,1.556,2.577,1.167
				l4.84-1.823l-2.133,4.711c-0.456,1.006-0.009,2.191,0.997,2.647c1.006,0.456,2.191,0.009,2.647-0.997l2.133-4.711l1.823,4.84
				c0.389,1.034,1.543,1.556,2.577,1.167c1.034-0.389,1.556-1.543,1.167-2.577l-1.823-4.84l4.711,2.133
				c1.006,0.456,2.191,0.009,2.647-0.997c0.455-1.006,0.009-2.191-0.997-2.647l-4.711-2.133l4.84-1.823
				c1.034-0.389,1.556-1.543,1.167-2.577C85.104,55.737,83.951,55.214,82.917,55.604z"/>
		</g>
		<g>
			<circle style="fill:#FACB1B;" cx="74.264" cy="61" r="3"/>
		</g>
		<g>
			<rect x="30.905" y="59" style="fill:#D4A263;" width="24" height="4"/>
		</g>
	</g>
</g>
<g id="Multicolor">
	<g>
		<g>
			<path style="fill:#F8E1C2;" d="M78.905,63V51c0-13.255-10.745-24-24-24s-24,10.745-24,24v12l-7.011,7.011
				c-0.229,0.229-0.333,0.556-0.279,0.875c0.055,0.32,0.261,0.593,0.553,0.733c20.491,9.841,40.982,9.841,61.473,0
				c0.292-0.14,0.498-0.414,0.553-0.733c0.055-0.32-0.049-0.646-0.278-0.875L78.905,63z"/>
		</g>
		<g>
			<path style="fill:#FCF1E2;" d="M30.905,51v12l-7.011,7.011c-0.229,0.229-0.333,0.555-0.279,0.875
				c0.055,0.32,0.261,0.593,0.553,0.733C34.414,76.54,44.66,79,54.905,79V27C41.65,27,30.905,37.745,30.905,51z"/>
		</g>
		<g>
			<rect x="30.905" y="59" style="fill:#A97A45;" width="48" height="4"/>
		</g>
		<g>
			<path style="fill:#FA5655;" d="M82.917,55.604l-4.84,1.823l2.133-4.711c0.455-1.006,0.009-2.191-0.997-2.647
				c-1.006-0.456-2.191-0.009-2.647,0.997l-2.133,4.711l-1.823-4.84c-0.389-1.034-1.543-1.556-2.577-1.167
				c-1.034,0.389-1.556,1.543-1.167,2.577l1.823,4.84l-4.711-2.133c-1.006-0.456-2.191-0.009-2.647,0.997
				c-0.456,1.006-0.009,2.191,0.997,2.647l4.711,2.133l-4.84,1.823c-1.034,0.389-1.556,1.543-1.167,2.577s1.543,1.556,2.577,1.167
				l4.84-1.823l-2.133,4.711c-0.456,1.006-0.009,2.191,0.997,2.647c1.006,0.456,2.191,0.009,2.647-0.997l2.133-4.711l1.823,4.84
				c0.389,1.034,1.543,1.556,2.577,1.167c1.034-0.389,1.556-1.543,1.167-2.577l-1.823-4.84l4.711,2.133
				c1.006,0.456,2.191,0.009,2.647-0.997c0.455-1.006,0.009-2.191-0.997-2.647l-4.711-2.133l4.84-1.823
				c1.034-0.389,1.556-1.543,1.167-2.577C85.104,55.737,83.951,55.214,82.917,55.604z"/>
		</g>
		<g>
			<circle style="fill:#FACB1B;" cx="74.264" cy="61" r="3"/>
		</g>
		<g>
			<rect x="30.905" y="59" style="fill:#D4A263;" width="24" height="4"/>
		</g>
	</g>
</g>
<g id="Blue" style="display:none;">
	<g style="display:inline;">
		<g>
			<path style="fill:#E1F5FA;" d="M78.928,63V51c0-13.255-10.744-24-24-24c-13.254,0-24,10.745-24,24v12l-7.011,7.011
				c-0.229,0.229-0.333,0.556-0.278,0.875c0.055,0.32,0.261,0.593,0.553,0.733c20.491,9.841,40.982,9.841,61.473,0
				c0.293-0.141,0.499-0.413,0.553-0.733c0.055-0.319-0.049-0.646-0.278-0.875L78.928,63z"/>
		</g>
		<g>
			<path style="fill:#FFFFFF;" d="M30.928,51v12l-7.01,7.011c-0.229,0.229-0.334,0.556-0.279,0.875
				c0.055,0.32,0.261,0.593,0.553,0.733C34.438,76.54,44.683,79,54.928,79V27C41.674,27,30.928,37.745,30.928,51z"/>
		</g>
		<g>
			<rect x="30.928" y="59" style="fill:#0081A1;" width="48" height="4"/>
		</g>
		<g>
			<path style="fill:#00B7E5;" d="M82.94,55.604l-4.839,1.823l2.133-4.711c0.456-1.007,0.01-2.191-0.997-2.647
				c-1.006-0.456-2.191-0.009-2.646,0.997l-2.133,4.711l-1.823-4.84c-0.39-1.033-1.543-1.556-2.577-1.166
				c-1.033,0.389-1.556,1.543-1.166,2.576l1.822,4.84l-4.711-2.133c-1.006-0.456-2.191-0.01-2.646,0.996
				c-0.456,1.007-0.01,2.191,0.996,2.647l4.712,2.133l-4.84,1.823c-1.034,0.389-1.556,1.543-1.167,2.576
				c0.39,1.034,1.543,1.557,2.577,1.167l4.84-1.823l-2.134,4.711c-0.455,1.007-0.009,2.191,0.997,2.647
				c1.007,0.456,2.191,0.009,2.647-0.997l2.133-4.711l1.822,4.84c0.39,1.033,1.544,1.556,2.577,1.166
				c1.034-0.389,1.556-1.543,1.167-2.576l-1.823-4.84l4.711,2.133c1.007,0.456,2.191,0.01,2.647-0.996
				c0.455-1.007,0.009-2.191-0.997-2.648L79.51,61.17l4.84-1.823c1.034-0.389,1.557-1.543,1.167-2.576
				C85.127,55.736,83.974,55.214,82.94,55.604z"/>
		</g>
		<g>
			<circle style="fill:#FFFFFF;" cx="74.287" cy="61" r="3"/>
		</g>
		<g>
			<rect x="30.928" y="59" style="fill:#009FC7;" width="24" height="4"/>
		</g>
	</g>
</g>
<g id="R-Blue" style="display:none;">
	<circle style="display:inline;fill:#81D2EB;" cx="55" cy="55" r="55"/>
	<g style="display:inline;">
		<g>
			<path style="fill:#E1F5FA;" d="M78.904,63V51c0-13.255-10.744-24-24-24c-13.254,0-24,10.745-24,24v12l-7.011,7.011
				c-0.229,0.229-0.333,0.556-0.278,0.875c0.055,0.32,0.261,0.593,0.553,0.733c20.491,9.841,40.982,9.841,61.473,0
				c0.293-0.141,0.499-0.413,0.553-0.733c0.055-0.319-0.049-0.646-0.278-0.875L78.904,63z"/>
		</g>
		<g>
			<path style="fill:#FFFFFF;" d="M30.904,51v12l-7.01,7.011c-0.229,0.229-0.334,0.556-0.279,0.875
				c0.055,0.32,0.261,0.593,0.553,0.733C34.414,76.54,44.659,79,54.904,79V27C41.65,27,30.904,37.745,30.904,51z"/>
		</g>
		<g>
			<rect x="30.904" y="59" style="fill:#0081A1;" width="48" height="4"/>
		</g>
		<g>
			<path style="fill:#00B7E5;" d="M82.916,55.604l-4.839,1.823l2.133-4.711c0.456-1.007,0.01-2.191-0.997-2.647
				c-1.006-0.456-2.191-0.009-2.646,0.997l-2.133,4.711l-1.823-4.84c-0.39-1.033-1.543-1.556-2.577-1.166
				c-1.033,0.389-1.556,1.543-1.166,2.576l1.822,4.84l-4.711-2.133c-1.006-0.456-2.191-0.01-2.646,0.996
				c-0.456,1.007-0.01,2.191,0.996,2.647l4.712,2.133l-4.84,1.823c-1.034,0.389-1.556,1.543-1.167,2.576
				c0.39,1.034,1.543,1.557,2.577,1.167l4.84-1.823l-2.134,4.711c-0.455,1.007-0.009,2.191,0.997,2.647
				c1.007,0.456,2.191,0.009,2.647-0.997l2.133-4.711l1.822,4.84c0.39,1.033,1.544,1.556,2.577,1.166
				c1.034-0.389,1.556-1.543,1.167-2.576l-1.823-4.84l4.711,2.133c1.007,0.456,2.191,0.01,2.647-0.996
				c0.455-1.007,0.009-2.191-0.997-2.648l-4.712-2.133l4.84-1.823c1.034-0.389,1.557-1.543,1.167-2.576
				C85.104,55.736,83.95,55.214,82.916,55.604z"/>
		</g>
		<g>
			<circle style="fill:#FFFFFF;" cx="74.264" cy="61" r="3"/>
		</g>
		<g>
			<rect x="30.904" y="59" style="fill:#009FC7;" width="24" height="4"/>
		</g>
	</g>
</g>
<g id="Green" style="display:none;">
	<g style="display:inline;">
		<g>
			<path style="fill:#D7FCF9;" d="M78.928,63V51c0-13.255-10.744-24-24-24c-13.254,0-24,10.745-24,24v12l-7.011,7.011
				c-0.229,0.229-0.333,0.556-0.278,0.875c0.055,0.32,0.261,0.593,0.553,0.733c20.491,9.841,40.982,9.841,61.473,0
				c0.293-0.141,0.499-0.413,0.553-0.733c0.055-0.319-0.049-0.646-0.278-0.875L78.928,63z"/>
		</g>
		<g>
			<path style="fill:#FFFFFF;" d="M30.928,51v12l-7.01,7.011c-0.229,0.229-0.334,0.556-0.279,0.875
				c0.055,0.32,0.261,0.593,0.553,0.733C34.438,76.54,44.683,79,54.928,79V27C41.674,27,30.928,37.745,30.928,51z"/>
		</g>
		<g>
			<rect x="30.928" y="59" style="fill:#009687;" width="48" height="4"/>
		</g>
		<g>
			<path style="fill:#00D6C1;" d="M82.94,55.604l-4.839,1.823l2.133-4.711c0.456-1.007,0.01-2.191-0.997-2.647
				c-1.006-0.456-2.191-0.009-2.646,0.997l-2.133,4.711l-1.823-4.84c-0.39-1.033-1.543-1.556-2.577-1.166
				c-1.033,0.389-1.556,1.543-1.166,2.576l1.822,4.84l-4.711-2.133c-1.006-0.456-2.191-0.01-2.646,0.996
				c-0.456,1.007-0.01,2.191,0.996,2.647l4.712,2.133l-4.84,1.823c-1.034,0.389-1.556,1.543-1.167,2.576
				c0.39,1.034,1.543,1.557,2.577,1.167l4.84-1.823l-2.134,4.711c-0.455,1.007-0.009,2.191,0.997,2.647
				c1.007,0.456,2.191,0.009,2.647-0.997l2.133-4.711l1.822,4.84c0.39,1.033,1.544,1.556,2.577,1.166
				c1.034-0.389,1.556-1.543,1.167-2.576l-1.823-4.84l4.711,2.133c1.007,0.456,2.191,0.01,2.647-0.996
				c0.455-1.007,0.009-2.191-0.997-2.648L79.51,61.17l4.84-1.823c1.034-0.389,1.557-1.543,1.167-2.576
				C85.127,55.736,83.974,55.214,82.94,55.604z"/>
		</g>
		<g>
			<circle style="fill:#FFFFFF;" cx="74.287" cy="61" r="3"/>
		</g>
		<g>
			<rect x="30.928" y="59" style="fill:#00B8A5;" width="24" height="4"/>
		</g>
	</g>
</g>
<g id="R-Green" style="display:none;">
	<circle style="display:inline;fill:#77E0C4;" cx="55" cy="55" r="55"/>
	<g style="display:inline;">
		<g>
			<path style="fill:#D7FCF9;" d="M78.904,63V51c0-13.255-10.744-24-24-24c-13.254,0-24,10.745-24,24v12l-7.011,7.011
				c-0.229,0.229-0.333,0.556-0.278,0.875c0.055,0.32,0.261,0.593,0.553,0.733c20.491,9.841,40.982,9.841,61.473,0
				c0.293-0.141,0.499-0.413,0.553-0.733c0.055-0.319-0.049-0.646-0.278-0.875L78.904,63z"/>
		</g>
		<g>
			<path style="fill:#FFFFFF;" d="M30.904,51v12l-7.01,7.011c-0.229,0.229-0.334,0.556-0.279,0.875
				c0.055,0.32,0.261,0.593,0.553,0.733C34.414,76.54,44.659,79,54.904,79V27C41.65,27,30.904,37.745,30.904,51z"/>
		</g>
		<g>
			<rect x="30.904" y="59" style="fill:#009687;" width="48" height="4"/>
		</g>
		<g>
			<path style="fill:#00D6C1;" d="M82.916,55.604l-4.839,1.823l2.133-4.711c0.456-1.007,0.01-2.191-0.997-2.647
				c-1.006-0.456-2.191-0.009-2.646,0.997l-2.133,4.711l-1.823-4.84c-0.39-1.033-1.543-1.556-2.577-1.166
				c-1.033,0.389-1.556,1.543-1.166,2.576l1.822,4.84l-4.711-2.133c-1.006-0.456-2.191-0.01-2.646,0.996
				c-0.456,1.007-0.01,2.191,0.996,2.647l4.712,2.133l-4.84,1.823c-1.034,0.389-1.556,1.543-1.167,2.576
				c0.39,1.034,1.543,1.557,2.577,1.167l4.84-1.823l-2.134,4.711c-0.455,1.007-0.009,2.191,0.997,2.647
				c1.007,0.456,2.191,0.009,2.647-0.997l2.133-4.711l1.822,4.84c0.39,1.033,1.544,1.556,2.577,1.166
				c1.034-0.389,1.556-1.543,1.167-2.576l-1.823-4.84l4.711,2.133c1.007,0.456,2.191,0.01,2.647-0.996
				c0.455-1.007,0.009-2.191-0.997-2.648l-4.712-2.133l4.84-1.823c1.034-0.389,1.557-1.543,1.167-2.576
				C85.104,55.736,83.95,55.214,82.916,55.604z"/>
		</g>
		<g>
			<circle style="fill:#FFFFFF;" cx="74.264" cy="61" r="3"/>
		</g>
		<g>
			<rect x="30.904" y="59" style="fill:#00B8A5;" width="24" height="4"/>
		</g>
	</g>
</g>
<g id="Red" style="display:none;">
	<g style="display:inline;">
		<g>
			<path style="fill:#FFEFED;" d="M78.928,63V51c0-13.255-10.744-24-24-24c-13.254,0-24,10.745-24,24v12l-7.011,7.011
				c-0.229,0.229-0.333,0.556-0.278,0.875c0.055,0.32,0.261,0.593,0.553,0.733c20.491,9.841,40.982,9.841,61.473,0
				c0.293-0.141,0.499-0.413,0.553-0.733c0.055-0.319-0.049-0.646-0.278-0.875L78.928,63z"/>
		</g>
		<g>
			<path style="fill:#FFFFFF;" d="M30.928,51v12l-7.01,7.011c-0.229,0.229-0.334,0.556-0.279,0.875
				c0.055,0.32,0.261,0.593,0.553,0.733C34.438,76.54,44.683,79,54.928,79V27C41.674,27,30.928,37.745,30.928,51z"/>
		</g>
		<g>
			<rect x="30.928" y="59" style="fill:#C23023;" width="48" height="4"/>
		</g>
		<g>
			<path style="fill:#FF6C5E;" d="M82.94,55.604l-4.839,1.823l2.133-4.711c0.456-1.007,0.01-2.191-0.997-2.647
				c-1.006-0.456-2.191-0.009-2.646,0.997l-2.133,4.711l-1.823-4.84c-0.39-1.033-1.543-1.556-2.577-1.166
				c-1.033,0.389-1.556,1.543-1.166,2.576l1.822,4.84l-4.711-2.133c-1.006-0.456-2.191-0.01-2.646,0.996
				c-0.456,1.007-0.01,2.191,0.996,2.647l4.712,2.133l-4.84,1.823c-1.034,0.389-1.556,1.543-1.167,2.576
				c0.39,1.034,1.543,1.557,2.577,1.167l4.84-1.823l-2.134,4.711c-0.455,1.007-0.009,2.191,0.997,2.647
				c1.007,0.456,2.191,0.009,2.647-0.997l2.133-4.711l1.822,4.84c0.39,1.033,1.544,1.556,2.577,1.166
				c1.034-0.389,1.556-1.543,1.167-2.576l-1.823-4.84l4.711,2.133c1.007,0.456,2.191,0.01,2.647-0.996
				c0.455-1.007,0.009-2.191-0.997-2.648L79.51,61.17l4.84-1.823c1.034-0.389,1.557-1.543,1.167-2.576
				C85.127,55.736,83.974,55.214,82.94,55.604z"/>
		</g>
		<g>
			<circle style="fill:#FFFFFF;" cx="74.287" cy="61" r="3"/>
		</g>
		<g>
			<rect x="30.928" y="59" style="fill:#E54B44;" width="24" height="4"/>
		</g>
	</g>
</g>
<g id="R-Red" style="display:none;">
	<circle style="display:inline;fill:#FABBAF;" cx="55" cy="55" r="55"/>
	<g style="display:inline;">
		<g>
			<path style="fill:#FFEFED;" d="M78.904,63V51c0-13.255-10.744-24-24-24c-13.254,0-24,10.745-24,24v12l-7.011,7.011
				c-0.229,0.229-0.333,0.556-0.278,0.875c0.055,0.32,0.261,0.593,0.553,0.733c20.491,9.841,40.982,9.841,61.473,0
				c0.293-0.141,0.499-0.413,0.553-0.733c0.055-0.319-0.049-0.646-0.278-0.875L78.904,63z"/>
		</g>
		<g>
			<path style="fill:#FFFFFF;" d="M30.904,51v12l-7.01,7.011c-0.229,0.229-0.334,0.556-0.279,0.875
				c0.055,0.32,0.261,0.593,0.553,0.733C34.414,76.54,44.659,79,54.904,79V27C41.65,27,30.904,37.745,30.904,51z"/>
		</g>
		<g>
			<rect x="30.904" y="59" style="fill:#C23023;" width="48" height="4"/>
		</g>
		<g>
			<path style="fill:#FF6C5E;" d="M82.916,55.604l-4.839,1.823l2.133-4.711c0.456-1.007,0.01-2.191-0.997-2.647
				c-1.006-0.456-2.191-0.009-2.646,0.997l-2.133,4.711l-1.823-4.84c-0.39-1.033-1.543-1.556-2.577-1.166
				c-1.033,0.389-1.556,1.543-1.166,2.576l1.822,4.84l-4.711-2.133c-1.006-0.456-2.191-0.01-2.646,0.996
				c-0.456,1.007-0.01,2.191,0.996,2.647l4.712,2.133l-4.84,1.823c-1.034,0.389-1.556,1.543-1.167,2.576
				c0.39,1.034,1.543,1.557,2.577,1.167l4.84-1.823l-2.134,4.711c-0.455,1.007-0.009,2.191,0.997,2.647
				c1.007,0.456,2.191,0.009,2.647-0.997l2.133-4.711l1.822,4.84c0.39,1.033,1.544,1.556,2.577,1.166
				c1.034-0.389,1.556-1.543,1.167-2.576l-1.823-4.84l4.711,2.133c1.007,0.456,2.191,0.01,2.647-0.996
				c0.455-1.007,0.009-2.191-0.997-2.648l-4.712-2.133l4.84-1.823c1.034-0.389,1.557-1.543,1.167-2.576
				C85.104,55.736,83.95,55.214,82.916,55.604z"/>
		</g>
		<g>
			<circle style="fill:#FFFFFF;" cx="74.264" cy="61" r="3"/>
		</g>
		<g>
			<rect x="30.904" y="59" style="fill:#E54B44;" width="24" height="4"/>
		</g>
	</g>
</g>
<g id="Yellow" style="display:none;">
	<g style="display:inline;">
		<g>
			<path style="fill:#FFF5D9;" d="M78.928,63V51c0-13.255-10.744-24-24-24c-13.254,0-24,10.745-24,24v12l-7.011,7.011
				c-0.229,0.229-0.333,0.556-0.278,0.875c0.055,0.32,0.261,0.593,0.553,0.733c20.491,9.841,40.982,9.841,61.473,0
				c0.293-0.141,0.499-0.413,0.553-0.733c0.055-0.319-0.049-0.646-0.278-0.875L78.928,63z"/>
		</g>
		<g>
			<path style="fill:#FFFFFF;" d="M30.928,51v12l-7.01,7.011c-0.229,0.229-0.334,0.556-0.279,0.875
				c0.055,0.32,0.261,0.593,0.553,0.733C34.438,76.54,44.683,79,54.928,79V27C41.674,27,30.928,37.745,30.928,51z"/>
		</g>
		<g>
			<rect x="30.928" y="59" style="fill:#E07000;" width="48" height="4"/>
		</g>
		<g>
			<path style="fill:#FFAA00;" d="M82.94,55.604l-4.839,1.823l2.133-4.711c0.456-1.007,0.01-2.191-0.997-2.647
				c-1.006-0.456-2.191-0.009-2.646,0.997l-2.133,4.711l-1.823-4.84c-0.39-1.033-1.543-1.556-2.577-1.166
				c-1.033,0.389-1.556,1.543-1.166,2.576l1.822,4.84l-4.711-2.133c-1.006-0.456-2.191-0.01-2.646,0.996
				c-0.456,1.007-0.01,2.191,0.996,2.647l4.712,2.133l-4.84,1.823c-1.034,0.389-1.556,1.543-1.167,2.576
				c0.39,1.034,1.543,1.557,2.577,1.167l4.84-1.823l-2.134,4.711c-0.455,1.007-0.009,2.191,0.997,2.647
				c1.007,0.456,2.191,0.009,2.647-0.997l2.133-4.711l1.822,4.84c0.39,1.033,1.544,1.556,2.577,1.166
				c1.034-0.389,1.556-1.543,1.167-2.576l-1.823-4.84l4.711,2.133c1.007,0.456,2.191,0.01,2.647-0.996
				c0.455-1.007,0.009-2.191-0.997-2.648L79.51,61.17l4.84-1.823c1.034-0.389,1.557-1.543,1.167-2.576
				C85.127,55.736,83.974,55.214,82.94,55.604z"/>
		</g>
		<g>
			<circle style="fill:#FFFFFF;" cx="74.287" cy="61" r="3"/>
		</g>
		<g>
			<rect x="30.928" y="59" style="fill:#FA9200;" width="24" height="4"/>
		</g>
	</g>
</g>
<g id="R-Yellow" style="display:none;">
	<circle style="display:inline;fill:#FFD75E;" cx="55" cy="55" r="55"/>
	<g style="display:inline;">
		<g>
			<path style="fill:#FFF5D9;" d="M78.904,63V51c0-13.255-10.744-24-24-24c-13.254,0-24,10.745-24,24v12l-7.011,7.011
				c-0.229,0.229-0.333,0.556-0.278,0.875c0.055,0.32,0.261,0.593,0.553,0.733c20.491,9.841,40.982,9.841,61.473,0
				c0.293-0.141,0.499-0.413,0.553-0.733c0.055-0.319-0.049-0.646-0.278-0.875L78.904,63z"/>
		</g>
		<g>
			<path style="fill:#FFFFFF;" d="M30.904,51v12l-7.01,7.011c-0.229,0.229-0.334,0.556-0.279,0.875
				c0.055,0.32,0.261,0.593,0.553,0.733C34.414,76.54,44.659,79,54.904,79V27C41.65,27,30.904,37.745,30.904,51z"/>
		</g>
		<g>
			<rect x="30.904" y="59" style="fill:#E07000;" width="48" height="4"/>
		</g>
		<g>
			<path style="fill:#FFAA00;" d="M82.916,55.603l-4.839,1.823l2.133-4.711c0.456-1.007,0.01-2.191-0.997-2.647
				c-1.006-0.456-2.191-0.009-2.646,0.997l-2.133,4.711l-1.823-4.84c-0.39-1.033-1.543-1.556-2.577-1.166
				c-1.033,0.389-1.556,1.543-1.166,2.576l1.822,4.84l-4.711-2.133c-1.006-0.456-2.191-0.01-2.647,0.996
				c-0.456,1.007-0.01,2.191,0.996,2.647l4.712,2.133l-4.84,1.823c-1.034,0.389-1.556,1.543-1.167,2.576
				c0.39,1.034,1.543,1.557,2.577,1.167l4.84-1.823l-2.134,4.711c-0.455,1.007-0.009,2.191,0.997,2.647
				c1.007,0.456,2.191,0.009,2.647-0.997l2.133-4.711l1.822,4.84c0.39,1.033,1.544,1.556,2.577,1.166
				c1.034-0.389,1.556-1.543,1.167-2.576l-1.823-4.84l4.711,2.133c1.007,0.456,2.191,0.01,2.647-0.996
				c0.455-1.007,0.009-2.191-0.997-2.647l-4.712-2.133l4.84-1.823c1.034-0.389,1.557-1.543,1.167-2.576
				C85.104,55.736,83.95,55.214,82.916,55.603z"/>
		</g>
		<g>
			<circle style="fill:#FFFFFF;" cx="74.264" cy="61" r="3"/>
		</g>
		<g>
			<rect x="30.904" y="59" style="fill:#FA9200;" width="24" height="4"/>
		</g>
	</g>
</g>
</svg>
