<?xml version="1.0" encoding="iso-8859-1"?>
<!-- Generator: Adobe Illustrator 17.1.0, SVG Export Plug-In . SVG Version: 6.00 Build 0)  -->
<!DOCTYPE svg PUBLIC "-//W3C//DTD SVG 1.0//EN" "http://www.w3.org/TR/2001/REC-SVG-20010904/DTD/svg10.dtd">
<svg version="1.0" xmlns="http://www.w3.org/2000/svg" xmlns:xlink="http://www.w3.org/1999/xlink" x="0px" y="0px" width="110px"
	 height="110px" viewBox="0 0 110 110" style="enable-background:new 0 0 110 110;" xml:space="preserve">
<g id="Artboard" style="display:none;">
	<rect x="-1075" y="-49" style="display:inline;fill:#808080;" width="1358" height="326"/>
</g>
<g id="R-Multicolor" style="display:none;">
	<circle style="display:inline;fill:#FABC3D;" cx="55" cy="54.98" r="55"/>
	<g style="display:inline;">
		<path style="fill:#0484AB;" d="M87,28.98v52c0,3.31-2.69,6-6,6H29c-3.31,0-6-2.69-6-6v-52c0-3.31,2.69-6,6-6h52
			C84.31,22.98,87,25.67,87,28.98z"/>
		<path style="fill:#059BBF;" d="M87,31.93v49.05c0,3.31-2.69,6-6,6H29c-3.31,0-6-2.69-6-6V67.24l11.21-7.21l17.01,3l15.53-10.35
			l8.96-15.91L87,31.93z"/>
		<path style="fill:#21B2D1;" d="M87,39.98v-2h-7v-4h-2v4h-5v2h5v6h-6v-3h-2v3h-1v2h1v6h-6v0h-2v0h0v2h0v6h-6v-2h-2v2h-6v-1.001h-2
			v1.001h-6v-2h-2v2h-6v-1.001h-2v1.001h-2.22v2H30v6h-7v2h7v6h-7v2h7v6.999h2V79.98h6v7h2v-7h6v6.999h2V79.98h6v7h2v-7h6v7h2v-7h6
			v7h2v-7h6v7h2v-7h7v-2h-7v-6h7v-2h-7v-6h7v-2h-7v-6h7v-2h-7v-6h7v-2h-7v-6H87z M64,55.98h6v6h-6V55.98z M70,63.98v6h-6v-6H70z
			 M62,63.98v6h-6v-6H62z M54,63.98v6h-6v-6H54z M46,63.98v6h-6v-6H46z M32,63.98h6v6h-6V63.98z M32,77.98v-6h6v6H32z M40,77.98v-6
			h6v6H40z M48,77.98v-6h6v6H48z M56,77.98v-6h6v6H56z M64,77.98v-6h6v6H64z M78,77.98h-6v-6h6V77.98z M78,69.98h-6v-6h6V69.98z
			 M78,61.98h-6v-6h6V61.98z M78,53.98h-6v-6h6V53.98z"/>
		<path style="fill:#FFFFFF;" d="M87,29.75l-10.657,4.561c-2.675-1.35-5.437,1.629-3.915,4.192l-5.916,10.529
			c-2.138-0.371-3.949,1.555-3.412,3.681l-10.308,6.875C52.292,59.211,51.675,58.98,51,58.98c-1.12,0-2.084,0.621-2.6,1.53
			L36.95,58.488c-0.679-4.095-6.793-2.775-5.864,1.178L23,64.86v2.38l9.17-5.898c1.483,1.151,3.537,0.68,4.429-0.891l11.45,2.02
			c0.235,1.422,1.462,2.509,2.95,2.509c1.892,0,3.398-1.766,2.898-3.735l10.31-6.871c2.853,2.14,6.397-1.663,4.042-4.358
			l5.754-10.218c2.462,0.871,4.714-1.556,3.781-3.917L87,31.93V29.75z"/>
		<polygon style="fill:#FFFFFF;" points="59,47.98 51,53.98 43,47.98 43,29.98 59,29.98 		"/>
		<g>
			<path style="fill:#F37A10;" d="M51.035,34.133c0.44,0,0.789,0.349,0.789,0.789v0.212c0.819,0.122,1.547,0.364,2.199,0.728
				c0.288,0.167,0.546,0.455,0.546,0.91c0,0.576-0.455,1.016-1.031,1.016c-0.182,0-0.364-0.045-0.531-0.136
				c-0.425-0.228-0.849-0.41-1.259-0.516v2.305c2.306,0.622,3.292,1.562,3.292,3.261s-1.304,2.791-3.215,3.003v0.804
				c0,0.44-0.349,0.789-0.789,0.789c-0.439,0-0.789-0.349-0.789-0.789V45.69c-1.077-0.137-2.093-0.516-2.988-1.062
				c-0.318-0.197-0.516-0.5-0.516-0.91c0-0.592,0.455-1.032,1.046-1.032c0.197,0,0.41,0.076,0.591,0.197
				c0.637,0.41,1.244,0.698,1.941,0.85v-2.412c-2.184-0.592-3.261-1.426-3.261-3.23c0-1.668,1.274-2.791,3.185-2.988v-0.182
				C50.247,34.482,50.596,34.133,51.035,34.133z M50.322,39.047v-2.048c-0.728,0.106-1.046,0.47-1.046,0.956
				C49.276,38.425,49.488,38.743,50.322,39.047z M51.748,41.701v2.108c0.713-0.106,1.077-0.44,1.077-0.986
				C52.825,42.323,52.567,41.99,51.748,41.701z"/>
		</g>
	</g>
</g>
<g id="Multicolor">
	<g>
		<path style="fill:#0484AB;" d="M87,28.98v52c0,3.31-2.69,6-6,6H29c-3.31,0-6-2.69-6-6v-52c0-3.31,2.69-6,6-6h52
			C84.31,22.98,87,25.67,87,28.98z"/>
		<path style="fill:#059BBF;" d="M87,31.93v49.05c0,3.31-2.69,6-6,6H29c-3.31,0-6-2.69-6-6V67.24l11.21-7.21l17.01,3l15.53-10.35
			l8.96-15.91L87,31.93z"/>
		<path style="fill:#21B2D1;" d="M87,39.98v-2h-7v-4h-2v4h-5v2h5v6h-6v-3h-2v3h-1v2h1v6h-6v0h-2v0h0v2h0v6h-6v-2h-2v2h-6v-1.001h-2
			v1.001h-6v-2h-2v2h-6v-1.001h-2v1.001h-2.22v2H30v6h-7v2h7v6h-7v2h7v6.999h2V79.98h6v7h2v-7h6v6.999h2V79.98h6v7h2v-7h6v7h2v-7h6
			v7h2v-7h6v7h2v-7h7v-2h-7v-6h7v-2h-7v-6h7v-2h-7v-6h7v-2h-7v-6h7v-2h-7v-6H87z M64,55.98h6v6h-6V55.98z M70,63.98v6h-6v-6H70z
			 M62,63.98v6h-6v-6H62z M54,63.98v6h-6v-6H54z M46,63.98v6h-6v-6H46z M32,63.98h6v6h-6V63.98z M32,77.98v-6h6v6H32z M40,77.98v-6
			h6v6H40z M48,77.98v-6h6v6H48z M56,77.98v-6h6v6H56z M64,77.98v-6h6v6H64z M78,77.98h-6v-6h6V77.98z M78,69.98h-6v-6h6V69.98z
			 M78,61.98h-6v-6h6V61.98z M78,53.98h-6v-6h6V53.98z"/>
		<path style="fill:#FFFFFF;" d="M87,29.75l-10.657,4.561c-2.675-1.35-5.437,1.629-3.915,4.192l-5.916,10.529
			c-2.138-0.371-3.949,1.555-3.412,3.681l-10.308,6.875C52.292,59.211,51.675,58.98,51,58.98c-1.12,0-2.084,0.621-2.6,1.53
			L36.95,58.488c-0.679-4.095-6.793-2.775-5.864,1.178L23,64.86v2.38l9.17-5.898c1.483,1.151,3.537,0.68,4.429-0.891l11.45,2.02
			c0.235,1.422,1.462,2.509,2.95,2.509c1.892,0,3.398-1.766,2.898-3.735l10.31-6.871c2.853,2.14,6.397-1.663,4.042-4.358
			l5.754-10.218c2.462,0.871,4.714-1.556,3.781-3.917L87,31.93V29.75z"/>
		<polygon style="fill:#FFFFFF;" points="59,47.98 51,53.98 43,47.98 43,29.98 59,29.98 		"/>
		<g>
			<path style="fill:#F37A10;" d="M51.035,34.133c0.44,0,0.789,0.349,0.789,0.789v0.212c0.819,0.122,1.547,0.364,2.199,0.728
				c0.288,0.167,0.546,0.455,0.546,0.91c0,0.576-0.455,1.016-1.031,1.016c-0.182,0-0.364-0.045-0.531-0.136
				c-0.425-0.228-0.849-0.41-1.259-0.516v2.305c2.306,0.622,3.292,1.562,3.292,3.261s-1.304,2.791-3.215,3.003v0.804
				c0,0.44-0.349,0.789-0.789,0.789c-0.439,0-0.789-0.349-0.789-0.789V45.69c-1.077-0.137-2.093-0.516-2.988-1.062
				c-0.318-0.197-0.516-0.5-0.516-0.91c0-0.592,0.455-1.032,1.046-1.032c0.197,0,0.41,0.076,0.591,0.197
				c0.637,0.41,1.244,0.698,1.941,0.85v-2.412c-2.184-0.592-3.261-1.426-3.261-3.23c0-1.668,1.274-2.791,3.185-2.988v-0.182
				C50.247,34.482,50.596,34.133,51.035,34.133z M50.322,39.047v-2.048c-0.728,0.106-1.046,0.47-1.046,0.956
				C49.276,38.425,49.488,38.743,50.322,39.047z M51.748,41.701v2.108c0.713-0.106,1.077-0.44,1.077-0.986
				C52.825,42.323,52.567,41.99,51.748,41.701z"/>
		</g>
	</g>
</g>
<g id="Blue" style="display:none;">
	<g style="display:inline;">
		<g>
			<path style="fill:#009FC7;" d="M87,29v52c0,3.31-2.69,6-6,6H29c-3.31,0-6-2.69-6-6V29c0-3.31,2.69-6,6-6h52
				C84.31,23,87,25.69,87,29z"/>
		</g>
		<g>
			<path style="fill:#0081A1;" d="M87,31.95V81c0,3.31-2.69,6-6,6H29c-3.31,0-6-2.69-6-6V67.26l11.21-7.21l17.01,3L66.75,52.7
				l8.96-15.91L87,31.95z"/>
		</g>
		<g>
			<path style="fill:#00B7E5;" d="M87,40v-2h-7v-4h-2v4h-5v2h5v6h-6v-3h-2v3h-1v2h1v6h-6v0h-2v0l0,0v2l0,0v6h-6v-2h-2v2h-6v-1.001
				h-2V62h-6v-2h-2v2h-6v-1.001h-2V62h-2.22v2H30v6h-7v2h7v6h-7v2h7v6.999h2V80h6v6.999h2V80h6v6.999h2V80h6v6.999h2V80h6v6.999h2
				V80h6v7h2v-7h6v7h2v-7h7v-2h-7v-6h7v-2h-7v-6h7v-2h-7v-6h7v-2h-7v-6h7v-2h-7v-6H87z M64,56h6v6h-6V56z M70,64v6h-6v-6H70z M62,64
				v6h-6v-6H62z M54,64v6h-6v-6H54z M46,64v6h-6v-6H46z M32,64h6v6h-6V64z M32,78v-6h6v6H32z M40,78v-6h6v6H40z M48,78v-6h6v6H48z
				 M56,78v-6h6v6H56z M64,78v-6h6v6H64z M78,78h-6v-6h6V78z M78,70h-6v-6h6V70z M78,62h-6v-6h6V62z M78,54h-6v-6h6V54z"/>
		</g>
		<g>
			<path style="fill:#FFFFFF;" d="M87,29.77l-10.657,4.561c-2.675-1.35-5.438,1.629-3.915,4.192l-5.916,10.529
				c-2.138-0.371-3.95,1.555-3.413,3.681l-10.308,6.875C52.292,59.231,51.675,59,51,59c-1.12,0-2.084,0.621-2.6,1.529l-11.45-2.021
				c-0.679-4.095-6.793-2.775-5.864,1.178L23,64.879v2.38l9.17-5.898c1.483,1.151,3.538,0.68,4.429-0.891l11.45,2.02
				C48.285,63.912,49.511,65,51,65c1.892,0,3.398-1.766,2.898-3.735l10.311-6.871c2.853,2.14,6.397-1.663,4.042-4.358l5.754-10.218
				c2.462,0.871,4.714-1.556,3.78-3.917L87,31.95V29.77z"/>
		</g>
		<g>
			<polygon style="fill:#FFFFFF;" points="59,48 51,54 43,48 43,30 59,30 			"/>
		</g>
		<g>
			<g>
				<path style="fill:#00B7E5;" d="M51.035,34.152c0.44,0,0.789,0.349,0.789,0.789v0.212c0.819,0.121,1.547,0.364,2.199,0.728
					c0.288,0.167,0.546,0.455,0.546,0.91c0,0.576-0.455,1.016-1.031,1.016c-0.182,0-0.364-0.045-0.531-0.137
					c-0.425-0.228-0.849-0.41-1.259-0.516v2.305c2.306,0.622,3.292,1.562,3.292,3.261s-1.304,2.791-3.215,3.003v0.804
					c0,0.439-0.349,0.789-0.789,0.789c-0.439,0-0.789-0.349-0.789-0.789V45.71c-1.077-0.137-2.093-0.516-2.988-1.062
					c-0.318-0.197-0.516-0.5-0.516-0.91c0-0.592,0.455-1.032,1.046-1.032c0.197,0,0.41,0.076,0.591,0.198
					c0.637,0.409,1.244,0.697,1.941,0.85v-2.412c-2.184-0.592-3.261-1.425-3.261-3.23c0-1.669,1.274-2.791,3.185-2.989v-0.182
					C50.247,34.502,50.596,34.152,51.035,34.152z M50.322,39.067v-2.048c-0.728,0.106-1.046,0.47-1.046,0.956
					C49.276,38.445,49.488,38.763,50.322,39.067z M51.748,41.721v2.108c0.713-0.106,1.077-0.44,1.077-0.986
					C52.825,42.343,52.567,42.009,51.748,41.721z"/>
			</g>
		</g>
	</g>
</g>
<g id="R-Blue" style="display:none;">
	<g style="display:inline;">
		<circle style="fill:#81D2EB;" cx="55" cy="55" r="55"/>
	</g>
	<g style="display:inline;">
		<g>
			<path style="fill:#009FC7;" d="M87,29v52c0,3.31-2.69,6-6,6H29c-3.31,0-6-2.69-6-6V29c0-3.31,2.69-6,6-6h52
				C84.31,23,87,25.69,87,29z"/>
		</g>
		<g>
			<path style="fill:#0081A1;" d="M87,31.95V81c0,3.31-2.69,6-6,6H29c-3.31,0-6-2.69-6-6V67.26l11.21-7.21l17.01,3L66.75,52.7
				l8.96-15.91L87,31.95z"/>
		</g>
		<g>
			<path style="fill:#00B7E5;" d="M87,40v-2h-7v-4h-2v4h-5v2h5v6h-6v-3h-2v3h-1v2h1v6h-6v0h-2v0l0,0v2l0,0v6h-6v-2h-2v2h-6v-1.001
				h-2V62h-6v-2h-2v2h-6v-1.001h-2V62h-2.22v2h2.22v6h-7v2h7v6h-7v2h7v6.999h2V80h6v7h2v-7h6v6.999h2V80h6v7h2v-7h6v7h2v-7h6v7h2v-7
				h6v7h2v-7h7v-2h-7v-6h7v-2h-7v-6h7v-2h-7v-6h7v-2h-7v-6h7v-2h-7v-6H87z M64,56h6v6h-6V56z M70,64v6h-6v-6H70z M62,64v6h-6v-6H62z
				 M54,64v6h-6v-6H54z M46,64v6h-6v-6H46z M31.999,64h6v6h-6V64z M31.999,78v-6h6v6H31.999z M40,78v-6h6v6H40z M48,78v-6h6v6H48z
				 M56,78v-6h6v6H56z M64,78v-6h6v6H64z M78,78h-6v-6h6V78z M78,70h-6v-6h6V70z M78,62h-6v-6h6V62z M78,54h-6v-6h6V54z"/>
		</g>
		<g>
			<path style="fill:#FFFFFF;" d="M87,29.77l-10.657,4.561c-2.675-1.35-5.438,1.629-3.915,4.192l-5.915,10.529
				c-2.138-0.371-3.95,1.555-3.413,3.681l-10.308,6.875C52.291,59.231,51.675,59,51,59c-1.12,0-2.084,0.621-2.6,1.529l-11.45-2.022
				c-0.679-4.095-6.793-2.775-5.864,1.178L23,64.88v2.38l9.17-5.898c1.483,1.151,3.538,0.68,4.429-0.891l11.45,2.02
				C48.285,63.913,49.511,65,51,65c1.892,0,3.398-1.766,2.898-3.735l10.311-6.871c2.853,2.14,6.397-1.663,4.041-4.358l5.754-10.218
				c2.462,0.871,4.714-1.556,3.78-3.917L87,31.95V29.77z"/>
		</g>
		<g>
			<polygon style="fill:#FFFFFF;" points="59,48 51,54 43,48 43,30 59,30 			"/>
		</g>
		<g>
			<g>
				<path style="fill:#00B7E5;" d="M51.035,34.153c0.44,0,0.789,0.349,0.789,0.789v0.212c0.819,0.121,1.547,0.364,2.199,0.728
					c0.288,0.167,0.546,0.455,0.546,0.91c0,0.576-0.455,1.016-1.031,1.016c-0.182,0-0.364-0.045-0.531-0.137
					c-0.425-0.228-0.849-0.41-1.259-0.516v2.305c2.306,0.622,3.292,1.562,3.292,3.261s-1.304,2.791-3.215,3.003v0.804
					c0,0.439-0.349,0.789-0.789,0.789c-0.44,0-0.789-0.349-0.789-0.789V45.71c-1.077-0.137-2.093-0.516-2.988-1.062
					c-0.318-0.197-0.516-0.5-0.516-0.91c0-0.592,0.455-1.032,1.046-1.032c0.197,0,0.41,0.076,0.591,0.198
					c0.637,0.409,1.244,0.697,1.941,0.85v-2.412c-2.184-0.592-3.261-1.425-3.261-3.23c0-1.669,1.274-2.791,3.185-2.989v-0.182
					C50.247,34.502,50.596,34.153,51.035,34.153z M50.322,39.067v-2.048c-0.728,0.106-1.046,0.47-1.046,0.956
					C49.276,38.445,49.488,38.763,50.322,39.067z M51.748,41.721v2.108c0.713-0.106,1.077-0.44,1.077-0.986
					C52.825,42.343,52.567,42.01,51.748,41.721z"/>
			</g>
		</g>
	</g>
</g>
<g id="Green" style="display:none;">
	<g style="display:inline;">
		<g>
			<path style="fill:#00B8A5;" d="M87,29v52c0,3.31-2.69,6-6,6H29c-3.31,0-6-2.69-6-6V29c0-3.31,2.69-6,6-6h52
				C84.31,23,87,25.69,87,29z"/>
		</g>
		<g>
			<path style="fill:#009687;" d="M87,31.95V81c0,3.31-2.69,6-6,6H29c-3.31,0-6-2.69-6-6V67.26l11.21-7.21l17.01,3L66.75,52.7
				l8.96-15.91L87,31.95z"/>
		</g>
		<g>
			<path style="fill:#00D6C1;" d="M87,40v-2h-7v-4h-2v4h-5v2h5v6h-6v-3h-2v3h-1v2h1v6h-6v0h-2v0l0,0v2l0,0v6h-6v-2h-2v2h-6v-1.001
				h-2V62h-6v-2h-2v2h-6v-1.001h-2V62h-2.22v2H30v6h-7v2h7v6h-7v2h7v6.999h2V80h6v6.999h2V80h6v6.999h2V80h6v6.999h2V80h6v6.999h2
				V80h6v7h2v-7h6v7h2v-7h7v-2h-7v-6h7v-2h-7v-6h7v-2h-7v-6h7v-2h-7v-6h7v-2h-7v-6H87z M64,56h6v6h-6V56z M70,64v6h-6v-6H70z M62,64
				v6h-6v-6H62z M54,64v6h-6v-6H54z M46,64v6h-6v-6H46z M32,64h6v6h-6V64z M32,78v-6h6v6H32z M40,78v-6h6v6H40z M48,78v-6h6v6H48z
				 M56,78v-6h6v6H56z M64,78v-6h6v6H64z M78,78h-6v-6h6V78z M78,70h-6v-6h6V70z M78,62h-6v-6h6V62z M78,54h-6v-6h6V54z"/>
		</g>
		<g>
			<path style="fill:#FFFFFF;" d="M87,29.77l-10.657,4.561c-2.675-1.35-5.438,1.629-3.915,4.192l-5.916,10.529
				c-2.138-0.371-3.95,1.555-3.413,3.681l-10.308,6.875C52.292,59.231,51.675,59,51,59c-1.12,0-2.084,0.621-2.6,1.529l-11.45-2.021
				c-0.679-4.095-6.793-2.775-5.864,1.178L23,64.879v2.38l9.17-5.898c1.483,1.151,3.538,0.68,4.429-0.891l11.45,2.02
				C48.285,63.912,49.511,65,51,65c1.892,0,3.398-1.766,2.898-3.735l10.311-6.871c2.853,2.14,6.397-1.663,4.042-4.358l5.754-10.218
				c2.462,0.871,4.714-1.556,3.78-3.917L87,31.95V29.77z"/>
		</g>
		<g>
			<polygon style="fill:#FFFFFF;" points="59,48 51,54 43,48 43,30 59,30 			"/>
		</g>
		<g>
			<g>
				<path style="fill:#00D6C1;" d="M51.035,34.152c0.44,0,0.789,0.349,0.789,0.789v0.212c0.819,0.121,1.547,0.364,2.199,0.728
					c0.288,0.167,0.546,0.455,0.546,0.91c0,0.576-0.455,1.016-1.031,1.016c-0.182,0-0.364-0.045-0.531-0.137
					c-0.425-0.228-0.849-0.41-1.259-0.516v2.305c2.306,0.622,3.292,1.562,3.292,3.261s-1.304,2.791-3.215,3.003v0.804
					c0,0.439-0.349,0.789-0.789,0.789c-0.439,0-0.789-0.349-0.789-0.789V45.71c-1.077-0.137-2.093-0.516-2.988-1.062
					c-0.318-0.197-0.516-0.5-0.516-0.91c0-0.592,0.455-1.032,1.046-1.032c0.197,0,0.41,0.076,0.591,0.198
					c0.637,0.409,1.244,0.697,1.941,0.85v-2.412c-2.184-0.592-3.261-1.425-3.261-3.23c0-1.669,1.274-2.791,3.185-2.989v-0.182
					C50.247,34.502,50.596,34.152,51.035,34.152z M50.322,39.067v-2.048c-0.728,0.106-1.046,0.47-1.046,0.956
					C49.276,38.445,49.488,38.763,50.322,39.067z M51.748,41.721v2.108c0.713-0.106,1.077-0.44,1.077-0.986
					C52.825,42.343,52.567,42.009,51.748,41.721z"/>
			</g>
		</g>
	</g>
</g>
<g id="R-Green" style="display:none;">
	<g style="display:inline;">
		<circle style="fill:#87E0C8;" cx="55" cy="55" r="55"/>
	</g>
	<g style="display:inline;">
		<g>
			<path style="fill:#00B8A5;" d="M87,29v52c0,3.31-2.69,6-6,6H29c-3.31,0-6-2.69-6-6V29c0-3.31,2.69-6,6-6h52
				C84.31,23,87,25.69,87,29z"/>
		</g>
		<g>
			<path style="fill:#009687;" d="M87,31.95V81c0,3.31-2.69,6-6,6H29c-3.31,0-6-2.69-6-6V67.26l11.21-7.21l17.01,3L66.75,52.7
				l8.96-15.91L87,31.95z"/>
		</g>
		<g>
			<path style="fill:#00D6C1;" d="M87,40v-2h-7v-4h-2v4h-5v2h5v6h-6v-3h-2v3h-1v2h1v6h-6v0h-2v0l0,0v2l0,0v6h-6v-2h-2v2h-6v-1.001
				h-2V62h-6v-2h-2v2h-6v-1.001h-2V62h-2.22v2h2.22v6h-7v2h7v6h-7v2h7v6.999h2V80h6v7h2v-7h6v6.999h2V80h6v7h2v-7h6v7h2v-7h6v7h2v-7
				h6v7h2v-7h7v-2h-7v-6h7v-2h-7v-6h7v-2h-7v-6h7v-2h-7v-6h7v-2h-7v-6H87z M64,56h6v6h-6V56z M70,64v6h-6v-6H70z M62,64v6h-6v-6H62z
				 M54,64v6h-6v-6H54z M46,64v6h-6v-6H46z M31.999,64h6v6h-6V64z M31.999,78v-6h6v6H31.999z M40,78v-6h6v6H40z M48,78v-6h6v6H48z
				 M56,78v-6h6v6H56z M64,78v-6h6v6H64z M78,78h-6v-6h6V78z M78,70h-6v-6h6V70z M78,62h-6v-6h6V62z M78,54h-6v-6h6V54z"/>
		</g>
		<g>
			<path style="fill:#FFFFFF;" d="M87,29.77l-10.657,4.561c-2.675-1.35-5.438,1.629-3.915,4.192l-5.915,10.529
				c-2.138-0.371-3.95,1.555-3.413,3.681l-10.308,6.875C52.291,59.231,51.675,59,51,59c-1.12,0-2.084,0.621-2.6,1.529l-11.45-2.022
				c-0.679-4.095-6.793-2.775-5.864,1.178L23,64.88v2.38l9.17-5.898c1.483,1.151,3.538,0.68,4.429-0.891l11.45,2.02
				C48.285,63.913,49.511,65,51,65c1.892,0,3.398-1.766,2.898-3.735l10.311-6.871c2.853,2.14,6.397-1.663,4.041-4.358l5.754-10.218
				c2.462,0.871,4.714-1.556,3.78-3.917L87,31.95V29.77z"/>
		</g>
		<g>
			<polygon style="fill:#FFFFFF;" points="59,48 51,54 43,48 43,30 59,30 			"/>
		</g>
		<g>
			<g>
				<path style="fill:#00D6C1;" d="M51.035,34.153c0.44,0,0.789,0.349,0.789,0.789v0.212c0.819,0.121,1.547,0.364,2.199,0.728
					c0.288,0.167,0.546,0.455,0.546,0.91c0,0.576-0.455,1.016-1.031,1.016c-0.182,0-0.364-0.045-0.531-0.137
					c-0.425-0.228-0.849-0.41-1.259-0.516v2.305c2.306,0.622,3.292,1.562,3.292,3.261s-1.304,2.791-3.215,3.003v0.804
					c0,0.439-0.349,0.789-0.789,0.789c-0.44,0-0.789-0.349-0.789-0.789V45.71c-1.077-0.137-2.093-0.516-2.988-1.062
					c-0.318-0.197-0.516-0.5-0.516-0.91c0-0.592,0.455-1.032,1.046-1.032c0.197,0,0.41,0.076,0.591,0.198
					c0.637,0.409,1.244,0.697,1.941,0.85v-2.412c-2.184-0.592-3.261-1.425-3.261-3.23c0-1.669,1.274-2.791,3.185-2.989v-0.182
					C50.247,34.502,50.596,34.153,51.035,34.153z M50.322,39.067v-2.048c-0.728,0.106-1.046,0.47-1.046,0.956
					C49.276,38.445,49.488,38.763,50.322,39.067z M51.748,41.721v2.108c0.713-0.106,1.077-0.44,1.077-0.986
					C52.825,42.343,52.567,42.01,51.748,41.721z"/>
			</g>
		</g>
	</g>
</g>
<g id="Red" style="display:none;">
	<g style="display:inline;">
		<g>
			<path style="fill:#E54B44;" d="M87,29v52c0,3.31-2.69,6-6,6H29c-3.31,0-6-2.69-6-6V29c0-3.31,2.69-6,6-6h52
				C84.31,23,87,25.69,87,29z"/>
		</g>
		<g>
			<path style="fill:#C23023;" d="M87,31.95V81c0,3.31-2.69,6-6,6H29c-3.31,0-6-2.69-6-6V67.26l11.21-7.21l17.01,3L66.75,52.7
				l8.96-15.91L87,31.95z"/>
		</g>
		<g>
			<path style="fill:#FF6C5E;" d="M87,40v-2h-7v-4h-2v4h-5v2h5v6h-6v-3h-2v3h-1v2h1v6h-6v0h-2v0l0,0v2l0,0v6h-6v-2h-2v2h-6v-1.001
				h-2V62h-6v-2h-2v2h-6v-1.001h-2V62h-2.22v2h2.22v6h-7v2h7v6h-7v2h7v6.999h2V80h6v6.999h2V80h6v6.999h2V80h6v6.999h2V80h6v6.999h2
				V80h6v7h2v-7h6v7h2v-7h7v-2h-7v-6h7v-2h-7v-6h7v-2h-7v-6h7v-2h-7v-6h7v-2h-7v-6H87z M64,56h6v6h-6V56z M70,64v6h-6v-6H70z M62,64
				v6h-6v-6H62z M54,64v6h-6v-6H54z M46,64v6h-6v-6H46z M31.999,64h6v6h-6V64z M31.999,78v-6h6v6H31.999z M40,78v-6h6v6H40z M48,78
				v-6h6v6H48z M56,78v-6h6v6H56z M64,78v-6h6v6H64z M78,78h-6v-6h6V78z M78,70h-6v-6h6V70z M78,62h-6v-6h6V62z M78,54h-6v-6h6V54z"
				/>
		</g>
		<g>
			<path style="fill:#FFFFFF;" d="M87,29.77l-10.657,4.561c-2.675-1.35-5.438,1.629-3.915,4.192l-5.915,10.529
				c-2.138-0.371-3.95,1.555-3.413,3.681l-10.308,6.875C52.291,59.231,51.675,59,51,59c-1.12,0-2.084,0.621-2.6,1.529l-11.45-2.021
				c-0.679-4.095-6.793-2.775-5.864,1.178L23,64.879v2.38l9.17-5.898c1.483,1.151,3.538,0.68,4.429-0.891l11.45,2.02
				C48.285,63.912,49.511,65,51,65c1.892,0,3.398-1.766,2.898-3.735l10.311-6.871c2.853,2.14,6.397-1.663,4.041-4.358l5.754-10.218
				c2.462,0.871,4.714-1.556,3.78-3.917L87,31.95V29.77z"/>
		</g>
		<g>
			<polygon style="fill:#FFFFFF;" points="59,48 51,54 43,48 43,30 59,30 			"/>
		</g>
		<g>
			<g>
				<path style="fill:#FF6C5E;" d="M51.035,34.152c0.44,0,0.789,0.349,0.789,0.789v0.212c0.819,0.121,1.547,0.364,2.199,0.728
					c0.288,0.167,0.546,0.455,0.546,0.91c0,0.576-0.455,1.016-1.031,1.016c-0.182,0-0.364-0.045-0.531-0.137
					c-0.425-0.228-0.849-0.41-1.259-0.516v2.305c2.306,0.622,3.292,1.562,3.292,3.261s-1.304,2.791-3.215,3.003v0.804
					c0,0.439-0.349,0.789-0.789,0.789c-0.44,0-0.789-0.349-0.789-0.789V45.71c-1.077-0.137-2.093-0.516-2.988-1.062
					c-0.318-0.197-0.516-0.5-0.516-0.91c0-0.592,0.455-1.032,1.046-1.032c0.197,0,0.41,0.076,0.591,0.198
					c0.637,0.409,1.244,0.697,1.941,0.85v-2.412c-2.184-0.592-3.261-1.425-3.261-3.23c0-1.669,1.274-2.791,3.185-2.989v-0.182
					C50.247,34.502,50.596,34.152,51.035,34.152z M50.322,39.067v-2.048c-0.728,0.106-1.046,0.47-1.046,0.956
					C49.276,38.445,49.488,38.763,50.322,39.067z M51.748,41.721v2.108c0.713-0.106,1.077-0.44,1.077-0.986
					C52.825,42.343,52.567,42.009,51.748,41.721z"/>
			</g>
		</g>
	</g>
</g>
<g id="R-Red" style="display:none;">
	<g style="display:inline;">
		<circle style="fill:#FABBAF;" cx="55" cy="55" r="55"/>
	</g>
	<g style="display:inline;">
		<g>
			<path style="fill:#E54B44;" d="M87,29v52c0,3.31-2.69,6-6,6H29c-3.31,0-6-2.69-6-6V29c0-3.31,2.69-6,6-6h52
				C84.31,23,87,25.69,87,29z"/>
		</g>
		<g>
			<path style="fill:#C23023;" d="M87,31.95V81c0,3.31-2.69,6-6,6H29c-3.31,0-6-2.69-6-6V67.26l11.21-7.21l17.01,3L66.75,52.7
				l8.96-15.91L87,31.95z"/>
		</g>
		<g>
			<path style="fill:#FF6C5E;" d="M87,40v-2h-7v-4h-2v4h-5v2h5v6h-6v-3h-2v3h-1v2h1v6h-6v0h-2v0l0,0v2l0,0v6h-6v-2h-2v2h-6v-1.001
				h-2V62h-6v-2h-2v2h-6v-1.001h-2V62h-2.22v2H30v6h-7v2h7v6h-7v2h7v6.999h2V80h6v7h2v-7h6v6.999h2V80h6v7h2v-7h6v7h2v-7h6v7h2v-7h6
				v7h2v-7h7v-2h-7v-6h7v-2h-7v-6h7v-2h-7v-6h7v-2h-7v-6h7v-2h-7v-6H87z M64,56h6v6h-6V56z M70,64v6h-6v-6H70z M62,64v6h-6v-6H62z
				 M54,64v6h-6v-6H54z M46,64v6h-6v-6H46z M32,64h6v6h-6V64z M32,78v-6h6v6H32z M40,78v-6h6v6H40z M48,78v-6h6v6H48z M56,78v-6h6v6
				H56z M64,78v-6h6v6H64z M78,78h-6v-6h6V78z M78,70h-6v-6h6V70z M78,62h-6v-6h6V62z M78,54h-6v-6h6V54z"/>
		</g>
		<g>
			<path style="fill:#FFFFFF;" d="M87,29.77l-10.657,4.561c-2.675-1.35-5.438,1.629-3.915,4.192l-5.916,10.529
				c-2.138-0.371-3.95,1.555-3.413,3.681l-10.308,6.875C52.292,59.231,51.675,59,51,59c-1.12,0-2.084,0.621-2.6,1.529l-11.45-2.022
				c-0.679-4.095-6.793-2.775-5.864,1.178L23,64.88v2.38l9.17-5.898c1.483,1.151,3.538,0.68,4.429-0.891l11.45,2.02
				C48.285,63.913,49.511,65,51,65c1.892,0,3.398-1.766,2.898-3.735l10.311-6.871c2.853,2.14,6.397-1.663,4.042-4.358l5.754-10.218
				c2.462,0.871,4.714-1.556,3.78-3.917L87,31.95V29.77z"/>
		</g>
		<g>
			<polygon style="fill:#FFFFFF;" points="59,48 51,54 43,48 43,30 59,30 			"/>
		</g>
		<g>
			<g>
				<path style="fill:#FF6C5E;" d="M51.035,34.153c0.44,0,0.789,0.349,0.789,0.789v0.212c0.819,0.121,1.547,0.364,2.199,0.728
					c0.288,0.167,0.546,0.455,0.546,0.91c0,0.576-0.455,1.016-1.031,1.016c-0.182,0-0.364-0.045-0.531-0.137
					c-0.425-0.228-0.849-0.41-1.259-0.516v2.305c2.306,0.622,3.292,1.562,3.292,3.261s-1.304,2.791-3.215,3.003v0.804
					c0,0.439-0.349,0.789-0.789,0.789c-0.439,0-0.789-0.349-0.789-0.789V45.71c-1.077-0.137-2.093-0.516-2.988-1.062
					c-0.318-0.197-0.516-0.5-0.516-0.91c0-0.592,0.455-1.032,1.046-1.032c0.197,0,0.41,0.076,0.591,0.198
					c0.637,0.409,1.244,0.697,1.941,0.85v-2.412c-2.184-0.592-3.261-1.425-3.261-3.23c0-1.669,1.274-2.791,3.185-2.989v-0.182
					C50.247,34.502,50.596,34.153,51.035,34.153z M50.322,39.067v-2.048c-0.728,0.106-1.046,0.47-1.046,0.956
					C49.276,38.445,49.488,38.763,50.322,39.067z M51.748,41.721v2.108c0.713-0.106,1.077-0.44,1.077-0.986
					C52.825,42.343,52.567,42.01,51.748,41.721z"/>
			</g>
		</g>
	</g>
</g>
<g id="Yellow" style="display:none;">
	<g style="display:inline;">
		<g>
			<path style="fill:#FA9200;" d="M87,29v52c0,3.31-2.69,6-6,6H29c-3.31,0-6-2.69-6-6V29c0-3.31,2.69-6,6-6h52
				C84.31,23,87,25.69,87,29z"/>
		</g>
		<g>
			<path style="fill:#E07000;" d="M87,31.95V81c0,3.31-2.69,6-6,6H29c-3.31,0-6-2.69-6-6V67.26l11.21-7.21l17.01,3L66.75,52.7
				l8.96-15.91L87,31.95z"/>
		</g>
		<g>
			<path style="fill:#FFAA00;" d="M87,40v-2h-7v-4h-2v4h-5v2h5v6h-6v-3h-2v3h-1v2h1v6h-6v0h-2v0l0,0v2l0,0v6h-6v-2h-2v2h-6v-1.001
				h-2V62h-6v-2h-2v2h-6v-1.001h-2V62h-2.22v2H30v6h-7v2h7v6h-7v2h7v6.999h2V80h6v7h2v-7h6v6.999h2V80h6v7h2v-7h6v7h2v-7h6v7h2v-7h6
				v7h2v-7h7v-2h-7v-6h7v-2h-7v-6h7v-2h-7v-6h7v-2h-7v-6h7v-2h-7v-6H87z M64,56h6v6h-6V56z M70,64v6h-6v-6H70z M62,64v6h-6v-6H62z
				 M54,64v6h-6v-6H54z M46,64v6h-6v-6H46z M32,64h6v6h-6V64z M32,78v-6h6v6H32z M40,78v-6h6v6H40z M48,78v-6h6v6H48z M56,78v-6h6v6
				H56z M64,78v-6h6v6H64z M78,78h-6v-6h6V78z M78,70h-6v-6h6V70z M78,62h-6v-6h6V62z M78,54h-6v-6h6V54z"/>
		</g>
		<g>
			<path style="fill:#FFFFFF;" d="M87,29.77l-10.657,4.561c-2.675-1.35-5.438,1.629-3.915,4.192l-5.916,10.529
				c-2.138-0.371-3.95,1.555-3.413,3.681l-10.308,6.875C52.292,59.231,51.675,59,51,59c-1.12,0-2.084,0.621-2.6,1.529l-11.45-2.022
				c-0.679-4.095-6.793-2.775-5.864,1.178L23,64.88v2.38l9.17-5.898c1.483,1.151,3.538,0.68,4.429-0.891l11.45,2.02
				C48.285,63.913,49.511,65,51,65c1.892,0,3.398-1.766,2.898-3.735l10.311-6.871c2.853,2.14,6.397-1.663,4.042-4.358l5.754-10.218
				c2.462,0.871,4.714-1.556,3.78-3.917L87,31.95V29.77z"/>
		</g>
		<g>
			<polygon style="fill:#FFFFFF;" points="59,48 51,54 43,48 43,30 59,30 			"/>
		</g>
		<g>
			<g>
				<path style="fill:#FFAA00;" d="M51.035,34.153c0.44,0,0.789,0.349,0.789,0.789v0.212c0.819,0.121,1.547,0.364,2.199,0.728
					c0.288,0.167,0.546,0.455,0.546,0.91c0,0.576-0.455,1.016-1.031,1.016c-0.182,0-0.364-0.045-0.531-0.137
					c-0.425-0.228-0.849-0.41-1.259-0.516v2.305c2.306,0.622,3.292,1.562,3.292,3.261s-1.304,2.791-3.215,3.003v0.804
					c0,0.439-0.349,0.789-0.789,0.789c-0.44,0-0.789-0.349-0.789-0.789V45.71c-1.077-0.137-2.093-0.516-2.988-1.062
					c-0.318-0.197-0.516-0.5-0.516-0.91c0-0.592,0.455-1.032,1.046-1.032c0.197,0,0.41,0.076,0.591,0.198
					c0.637,0.409,1.244,0.697,1.941,0.85v-2.412c-2.184-0.592-3.261-1.425-3.261-3.23c0-1.669,1.274-2.791,3.185-2.989v-0.182
					C50.247,34.502,50.596,34.153,51.035,34.153z M50.322,39.067v-2.048c-0.728,0.106-1.046,0.47-1.046,0.956
					C49.276,38.445,49.488,38.763,50.322,39.067z M51.748,41.721v2.108c0.713-0.106,1.077-0.44,1.077-0.986
					C52.825,42.343,52.567,42.01,51.748,41.721z"/>
			</g>
		</g>
	</g>
</g>
<g id="R-Yellow" style="display:none;">
	<g style="display:inline;">
		<circle style="fill:#FFD75E;" cx="55" cy="55" r="55"/>
	</g>
	<g style="display:inline;">
		<g>
			<path style="fill:#FA9200;" d="M87,29v52c0,3.31-2.69,6-6,6H29c-3.31,0-6-2.69-6-6V29c0-3.31,2.69-6,6-6h52
				C84.31,23,87,25.69,87,29z"/>
		</g>
		<g>
			<path style="fill:#E07000;" d="M87,31.95V81c0,3.31-2.69,6-6,6H29c-3.31,0-6-2.69-6-6V67.26l11.21-7.21l17.01,3L66.75,52.7
				l8.96-15.91L87,31.95z"/>
		</g>
		<g>
			<path style="fill:#FFAA00;" d="M87,40v-2h-7v-4h-2v4h-5v2h5v6h-6v-3h-2v3h-1v2h1v6h-6v0h-2v0l0,0v2l0,0v6h-6v-2h-2v2h-6v-1.001
				h-2V62h-6v-2h-2v2h-6v-1.001h-2V62h-2.22v2H30v6h-7v2h7v6h-7v2h7v6.999h2V80h6v7h2v-7h6v6.999h2V80h6v7h2v-7h6v7h2v-7h6v7h2v-7h6
				v7h2v-7h7v-2h-7v-6h7v-2h-7v-6h7v-2h-7v-6h7v-2h-7v-6h7v-2h-7v-6H87z M64,56h6v6h-6V56z M70,64v6h-6v-6H70z M62,64v6h-6v-6H62z
				 M54,64v6h-6v-6H54z M46,64v6h-6v-6H46z M32,64h6v6h-6V64z M32,78v-6h6v6H32z M40,78v-6h6v6H40z M48,78v-6h6v6H48z M56,78v-6h6v6
				H56z M64,78v-6h6v6H64z M78,78h-6v-6h6V78z M78,70h-6v-6h6V70z M78,62h-6v-6h6V62z M78,54h-6v-6h6V54z"/>
		</g>
		<g>
			<path style="fill:#FFFFFF;" d="M87,29.77l-10.657,4.561c-2.675-1.35-5.438,1.629-3.915,4.192l-5.916,10.529
				c-2.138-0.371-3.95,1.555-3.413,3.681l-10.308,6.875C52.292,59.231,51.675,59,51,59c-1.12,0-2.084,0.621-2.6,1.529l-11.45-2.022
				c-0.679-4.095-6.793-2.775-5.864,1.178L23,64.88v2.38l9.17-5.898c1.483,1.151,3.538,0.68,4.429-0.891l11.45,2.02
				C48.285,63.913,49.511,65,51,65c1.892,0,3.398-1.766,2.898-3.735l10.311-6.871c2.853,2.14,6.397-1.663,4.042-4.358l5.754-10.218
				c2.462,0.871,4.714-1.556,3.78-3.917L87,31.95V29.77z"/>
		</g>
		<g>
			<polygon style="fill:#FFFFFF;" points="59,48 51,54 43,48 43,30 59,30 			"/>
		</g>
		<g>
			<g>
				<path style="fill:#FFAA00;" d="M51.035,34.153c0.44,0,0.789,0.349,0.789,0.789v0.212c0.819,0.121,1.547,0.364,2.199,0.728
					c0.288,0.167,0.546,0.455,0.546,0.91c0,0.576-0.455,1.016-1.031,1.016c-0.182,0-0.364-0.045-0.531-0.137
					c-0.425-0.228-0.849-0.41-1.259-0.516v2.305c2.306,0.622,3.292,1.562,3.292,3.261s-1.304,2.791-3.215,3.003v0.804
					c0,0.439-0.349,0.789-0.789,0.789c-0.44,0-0.789-0.349-0.789-0.789V45.71c-1.077-0.137-2.093-0.516-2.988-1.062
					c-0.318-0.197-0.516-0.5-0.516-0.91c0-0.592,0.455-1.032,1.046-1.032c0.197,0,0.41,0.076,0.591,0.198
					c0.637,0.409,1.244,0.697,1.941,0.85v-2.412c-2.184-0.592-3.261-1.425-3.261-3.23c0-1.669,1.274-2.791,3.185-2.989v-0.182
					C50.247,34.502,50.596,34.153,51.035,34.153z M50.322,39.067v-2.048c-0.728,0.106-1.046,0.47-1.046,0.956
					C49.276,38.445,49.488,38.763,50.322,39.067z M51.748,41.721v2.108c0.713-0.106,1.077-0.44,1.077-0.986
					C52.825,42.343,52.567,42.01,51.748,41.721z"/>
			</g>
		</g>
	</g>
</g>
</svg>
