<?xml version="1.0" encoding="iso-8859-1"?>
<!-- Generator: Adobe Illustrator 17.1.0, SVG Export Plug-In . SVG Version: 6.00 Build 0)  -->
<!DOCTYPE svg PUBLIC "-//W3C//DTD SVG 1.0//EN" "http://www.w3.org/TR/2001/REC-SVG-20010904/DTD/svg10.dtd">
<svg version="1.0" xmlns="http://www.w3.org/2000/svg" xmlns:xlink="http://www.w3.org/1999/xlink" x="0px" y="0px" width="110px"
	 height="110px" viewBox="0 0 110 110" style="enable-background:new 0 0 110 110;" xml:space="preserve">
<g id="Artboard" style="display:none;">
	<rect x="-187" y="-591" style="display:inline;fill:#8C8C8C;" width="1412" height="743"/>
</g>
<g id="R-Multicolor" style="display:none;">
	<circle style="display:inline;fill:#25B7D3;" cx="55" cy="55" r="55"/>
	<g style="display:inline;">
		<polygon style="fill:#CFD3D4;" points="49.67,76.33 43,83 43,73 		"/>
		<polygon style="fill:#FFFFFF;" points="87,27 65,84 43,73 43,83 35,67 23,59 		"/>
		<polygon style="fill:#E2E4E5;" points="35,67 43,83 43,73 87,27 		"/>
	</g>
</g>
<g id="Multicolor">
	<g>
		<polygon style="fill:#CFD3D4;" points="49.67,76.33 43,83 43,73 		"/>
		<polygon style="fill:#FFFFFF;" points="87,27 65,84 43,73 43,83 35,67 23,59 		"/>
		<polygon style="fill:#E2E4E5;" points="35,67 43,83 43,73 87,27 		"/>
	</g>
</g>
<g id="Blue" style="display:none;">
	<g style="display:inline;">
		<g>
			<polygon style="fill:#BBE7F2;" points="49.67,76.33 43,83 43,73 			"/>
		</g>
		<g>
			<polygon style="fill:#FFFFFF;" points="87,27 65,84 43,73 43,83 35,67 23,59 			"/>
		</g>
		<g>
			<polygon style="fill:#E1F5FA;" points="35,67 43,83 43,73 87,27 			"/>
		</g>
	</g>
</g>
<g id="R-Blue" style="display:none;">
	<g style="display:inline;">
		<circle style="fill:#81D2EB;" cx="55" cy="55" r="55"/>
	</g>
	<g style="display:inline;">
		<g>
			<polygon style="fill:#BBE7F2;" points="49.67,76.33 43,83 43,73 			"/>
		</g>
		<g>
			<polygon style="fill:#FFFFFF;" points="87,27 65,84 43,73 43,83 35,67 23,59 			"/>
		</g>
		<g>
			<polygon style="fill:#E1F5FA;" points="35,67 43,83 43,73 87,27 			"/>
		</g>
	</g>
</g>
<g id="Green" style="display:none;">
	<g style="display:inline;">
		<g>
			<polygon style="fill:#AAF0E9;" points="49.67,76.33 43,83 43,73 			"/>
		</g>
		<g>
			<polygon style="fill:#FFFFFF;" points="87,27 65,84 43,73 43,83 35,67 23,59 			"/>
		</g>
		<g>
			<polygon style="fill:#D7FCF9;" points="35,67 43,83 43,73 87,27 			"/>
		</g>
	</g>
</g>
<g id="R-Green" style="display:none;">
	<g style="display:inline;">
		<circle style="fill:#87E0C8;" cx="55" cy="55" r="55"/>
	</g>
	<g style="display:inline;">
		<g>
			<polygon style="fill:#AAF0E9;" points="49.67,76.33 43,83 43,73 			"/>
		</g>
		<g>
			<polygon style="fill:#FFFFFF;" points="87,27 65,84 43,73 43,83 35,67 23,59 			"/>
		</g>
		<g>
			<polygon style="fill:#D7FCF9;" points="35,67 43,83 43,73 87,27 			"/>
		</g>
	</g>
</g>
<g id="Red" style="display:none;">
	<g style="display:inline;">
		<g>
			<polygon style="fill:#FFD7D4;" points="49.566,76.33 42.896,83 42.896,73 			"/>
		</g>
		<g>
			<polygon style="fill:#FFFFFF;" points="86.896,27 64.896,84 42.896,73 42.896,83 34.896,67 22.896,59 			"/>
		</g>
		<g>
			<polygon style="fill:#FFEFED;" points="34.896,67 42.896,83 42.896,73 86.896,27 			"/>
		</g>
	</g>
</g>
<g id="R-Red" style="display:none;">
	<g style="display:inline;">
		<circle style="fill:#FABBAF;" cx="55" cy="55" r="55"/>
	</g>
	<g style="display:inline;">
		<g>
			<polygon style="fill:#FFD7D4;" points="49.67,76.33 43,83 43,73 			"/>
		</g>
		<g>
			<polygon style="fill:#FFFFFF;" points="87,27 65,84 43,73 43,83 35,67 23,59 			"/>
		</g>
		<g>
			<polygon style="fill:#FFEFED;" points="35,67 43,83 43,73 87,27 			"/>
		</g>
	</g>
</g>
<g id="Yellow" style="display:none;">
	<g style="display:inline;">
		<g>
			<polygon style="fill:#FFE9A1;" points="49.566,76.33 42.896,83 42.896,73 			"/>
		</g>
		<g>
			<polygon style="fill:#FFFFFF;" points="86.896,27 64.896,84 42.896,73 42.896,83 34.896,67 22.896,59 			"/>
		</g>
		<g>
			<polygon style="fill:#FFF5D9;" points="34.896,67 42.896,83 42.896,73 86.896,27 			"/>
		</g>
	</g>
</g>
<g id="R-Yellow" style="display:none;">
	<g style="display:inline;">
		<circle style="fill:#FFD75E;" cx="55" cy="55" r="55"/>
	</g>
	<g style="display:inline;">
		<g>
			<polygon style="fill:#FFE9A1;" points="49.67,76.33 43,83 43,73 			"/>
		</g>
		<g>
			<polygon style="fill:#FFFFFF;" points="87,27 65,84 43,73 43,83 35,67 23,59 			"/>
		</g>
		<g>
			<polygon style="fill:#FFF5D9;" points="35,67 43,83 43,73 87,27 			"/>
		</g>
	</g>
</g>
</svg>
