<?xml version="1.0" encoding="iso-8859-1"?>
<!-- Generator: Adobe Illustrator 17.1.0, SVG Export Plug-In . SVG Version: 6.00 Build 0)  -->
<!DOCTYPE svg PUBLIC "-//W3C//DTD SVG 1.0//EN" "http://www.w3.org/TR/2001/REC-SVG-20010904/DTD/svg10.dtd">
<svg version="1.0" xmlns="http://www.w3.org/2000/svg" xmlns:xlink="http://www.w3.org/1999/xlink" x="0px" y="0px" width="110px"
	 height="110px" viewBox="0 0 110 110" style="enable-background:new 0 0 110 110;" xml:space="preserve">
<g id="Artboard" style="display:none;">
	<rect x="-954" y="-458" style="display:inline;fill:#808080;" width="1364" height="731"/>
</g>
<g id="R-Multicolor" style="display:none;">
	<circle style="display:inline;fill:#32BEA6;" cx="55" cy="55" r="55"/>
	<g style="display:inline;">
		<rect x="43" y="43" style="fill:#C2F8F0;" width="24" height="24"/>
		<polygon style="fill:#FFFFFF;" points="67,43 83,33 67,23 43,23 27,33 43,43 		"/>
		<polygon style="fill:#8CE3D4;" points="27,33 27,77 43,67 43,43 		"/>
		<polygon style="fill:#8CE3D4;" points="83,77 83,33 67,43 67,67 		"/>
		<rect x="43" y="67" style="fill:#FFFFFF;" width="24" height="20"/>
		<polygon style="fill:#C2F8F0;" points="43,67 27,77 43,87 		"/>
		<polygon style="fill:#C2F8F0;" points="67,87 83,77 67,67 		"/>
	</g>
</g>
<g id="Multicolor_1_">
	<g>
		<rect x="43" y="43" style="fill:#C2F8F0;" width="24" height="24"/>
		<polygon style="fill:#FFFFFF;" points="67,43 83,33 67,23 43,23 27,33 43,43 		"/>
		<polygon style="fill:#8CE3D4;" points="27,33 27,77 43,67 43,43 		"/>
		<polygon style="fill:#8CE3D4;" points="83,77 83,33 67,43 67,67 		"/>
		<rect x="43" y="67" style="fill:#FFFFFF;" width="24" height="20"/>
		<polygon style="fill:#C2F8F0;" points="43,67 27,77 43,87 		"/>
		<polygon style="fill:#C2F8F0;" points="67,87 83,77 67,67 		"/>
	</g>
</g>
<g id="Blue" style="display:none;">
	<g style="display:inline;">
		<g>
			<rect x="43" y="43" style="fill:#BBE7F2;" width="24" height="24"/>
		</g>
		<g>
			<polygon style="fill:#FFFFFF;" points="67,43 83,33 67,23 43,23 27,33 43,43 			"/>
		</g>
		<g>
			<polygon style="fill:#E1F5FA;" points="27,33 27,77 43,67 43,43 			"/>
		</g>
		<g>
			<polygon style="fill:#E1F5FA;" points="83,77 83,33 67,43 67,67 			"/>
		</g>
		<g>
			<rect x="43" y="67" style="fill:#53BAD4;" width="24" height="20"/>
		</g>
		<g>
			<polygon style="fill:#BBE7F2;" points="43,67 27,77 43,87 			"/>
		</g>
		<g>
			<polygon style="fill:#BBE7F2;" points="67,87 83,77 67,67 			"/>
		</g>
	</g>
</g>
<g id="R-Blue" style="display:none;">
	<g style="display:inline;">
		<circle style="fill:#81D2EB;" cx="55" cy="55" r="55"/>
	</g>
	<g style="display:inline;">
		<g>
			<rect x="43" y="43" style="fill:#BBE7F2;" width="24" height="24"/>
		</g>
		<g>
			<polygon style="fill:#FFFFFF;" points="67,43 83,33 67,23 43,23 27,33 43,43 			"/>
		</g>
		<g>
			<polygon style="fill:#E1F5FA;" points="27,33 27,77 43,67 43,43 			"/>
		</g>
		<g>
			<polygon style="fill:#E1F5FA;" points="83,77 83,33 67,43 67,67 			"/>
		</g>
		<g>
			<rect x="43" y="67" style="fill:#53BAD4;" width="24" height="20"/>
		</g>
		<g>
			<polygon style="fill:#BBE7F2;" points="43,67 27,77 43,87 			"/>
		</g>
		<g>
			<polygon style="fill:#BBE7F2;" points="67,87 83,77 67,67 			"/>
		</g>
	</g>
</g>
<g id="Green" style="display:none;">
	<g style="display:inline;">
		<g>
			<rect x="43" y="43" style="fill:#AAF0E9;" width="24" height="24"/>
		</g>
		<g>
			<polygon style="fill:#FFFFFF;" points="67,43 83,33 67,23 43,23 27,33 43,43 			"/>
		</g>
		<g>
			<polygon style="fill:#D7FCF9;" points="27,33 27,77 43,67 43,43 			"/>
		</g>
		<g>
			<polygon style="fill:#D7FCF9;" points="83,77 83,33 67,43 67,67 			"/>
		</g>
		<g>
			<rect x="43" y="67" style="fill:#5DCFC3;" width="24" height="20"/>
		</g>
		<g>
			<polygon style="fill:#AAF0E9;" points="43,67 27,77 43,87 			"/>
		</g>
		<g>
			<polygon style="fill:#AAF0E9;" points="67,87 83,77 67,67 			"/>
		</g>
	</g>
</g>
<g id="R-Green" style="display:none;">
	<g style="display:inline;">
		<circle style="fill:#87E0C8;" cx="55" cy="55" r="55"/>
	</g>
	<g style="display:inline;">
		<g>
			<rect x="43" y="43" style="fill:#AAF0E9;" width="24" height="24"/>
		</g>
		<g>
			<polygon style="fill:#FFFFFF;" points="67,43 83,33 67,23 43,23 27,33 43,43 			"/>
		</g>
		<g>
			<polygon style="fill:#D7FCF9;" points="27,33 27,77 43,67 43,43 			"/>
		</g>
		<g>
			<polygon style="fill:#D7FCF9;" points="83,77 83,33 67,43 67,67 			"/>
		</g>
		<g>
			<rect x="43" y="67" style="fill:#5DCFC3;" width="24" height="20"/>
		</g>
		<g>
			<polygon style="fill:#AAF0E9;" points="43,67 27,77 43,87 			"/>
		</g>
		<g>
			<polygon style="fill:#AAF0E9;" points="67,87 83,77 67,67 			"/>
		</g>
	</g>
</g>
<g id="Red" style="display:none;">
	<g style="display:inline;">
		<g>
			<rect x="43" y="43" style="fill:#FFD7D4;" width="24" height="24"/>
		</g>
		<g>
			<polygon style="fill:#FFFFFF;" points="67,43 83,33 67,23 43,23 27,33 43,43 			"/>
		</g>
		<g>
			<polygon style="fill:#FFEFED;" points="27,33 27,77 43,67 43,43 			"/>
		</g>
		<g>
			<polygon style="fill:#FFEFED;" points="83,77 83,33 67,43 67,67 			"/>
		</g>
		<g>
			<rect x="43" y="67" style="fill:#E8A099;" width="24" height="20"/>
		</g>
		<g>
			<polygon style="fill:#FFD7D4;" points="43,67 27,77 43,87 			"/>
		</g>
		<g>
			<polygon style="fill:#FFD7D4;" points="67,87 83,77 67,67 			"/>
		</g>
	</g>
</g>
<g id="R-Red" style="display:none;">
	<g style="display:inline;">
		<circle style="fill:#FABBAF;" cx="55" cy="55" r="55"/>
	</g>
	<g style="display:inline;">
		<g>
			<rect x="43" y="43" style="fill:#FFD7D4;" width="24" height="24"/>
		</g>
		<g>
			<polygon style="fill:#FFFFFF;" points="67,43 83,33 67,23 43,23 27,33 43,43 			"/>
		</g>
		<g>
			<polygon style="fill:#FFEFED;" points="27,33 27,77 43,67 43,43 			"/>
		</g>
		<g>
			<polygon style="fill:#FFEFED;" points="83,77 83,33 67,43 67,67 			"/>
		</g>
		<g>
			<rect x="43" y="67" style="fill:#E8A099;" width="24" height="20"/>
		</g>
		<g>
			<polygon style="fill:#FFD7D4;" points="43,67 27,77 43,87 			"/>
		</g>
		<g>
			<polygon style="fill:#FFD7D4;" points="67,87 83,77 67,67 			"/>
		</g>
	</g>
</g>
<g id="Yellow" style="display:none;">
	<g style="display:inline;">
		<g>
			<rect x="43" y="43" style="fill:#FFE9A1;" width="24" height="24"/>
		</g>
		<g>
			<polygon style="fill:#FFFFFF;" points="67,43 83,33 67,23 43,23 27,33 43,43 			"/>
		</g>
		<g>
			<polygon style="fill:#FFF5D9;" points="27,33 27,77 43,67 43,43 			"/>
		</g>
		<g>
			<polygon style="fill:#FFF5D9;" points="83,77 83,33 67,43 67,67 			"/>
		</g>
		<g>
			<rect x="43" y="67" style="fill:#F5C43D;" width="24" height="20"/>
		</g>
		<g>
			<polygon style="fill:#FFE9A1;" points="43,67 27,77 43,87 			"/>
		</g>
		<g>
			<polygon style="fill:#FFE9A1;" points="67,87 83,77 67,67 			"/>
		</g>
	</g>
</g>
<g id="R-Yellow" style="display:none;">
	<g style="display:inline;">
		<circle style="fill:#FFD75E;" cx="55" cy="55" r="55"/>
	</g>
	<g style="display:inline;">
		<g>
			<rect x="43" y="43" style="fill:#FFE9A1;" width="24" height="24"/>
		</g>
		<g>
			<polygon style="fill:#FFFFFF;" points="67,43 83,33 67,23 43,23 27,33 43,43 			"/>
		</g>
		<g>
			<polygon style="fill:#FFF5D9;" points="27,33 27,77 43,67 43,43 			"/>
		</g>
		<g>
			<polygon style="fill:#FFF5D9;" points="83,77 83,33 67,43 67,67 			"/>
		</g>
		<g>
			<rect x="43" y="67" style="fill:#F5C43D;" width="24" height="20"/>
		</g>
		<g>
			<polygon style="fill:#FFE9A1;" points="43,67 27,77 43,87 			"/>
		</g>
		<g>
			<polygon style="fill:#FFE9A1;" points="67,87 83,77 67,67 			"/>
		</g>
	</g>
</g>
</svg>
