<?xml version="1.0" encoding="iso-8859-1"?>
<!-- Generator: Adobe Illustrator 17.1.0, SVG Export Plug-In . SVG Version: 6.00 Build 0)  -->
<!DOCTYPE svg PUBLIC "-//W3C//DTD SVG 1.0//EN" "http://www.w3.org/TR/2001/REC-SVG-20010904/DTD/svg10.dtd">
<svg version="1.0" xmlns="http://www.w3.org/2000/svg" xmlns:xlink="http://www.w3.org/1999/xlink" x="0px" y="0px" width="110px"
	 height="110px" viewBox="0 0 110 110" style="enable-background:new 0 0 110 110;" xml:space="preserve">
<g id="Artboard" style="display:none;">
	<rect x="-1083" y="-335" style="display:inline;fill:#8C8C8C;" width="1412" height="743"/>
</g>
<g id="R-Multicolor" style="display:none;">
	<circle style="display:inline;fill:#32BEA6;" cx="55" cy="55" r="55"/>
	<g style="display:inline;">
		<rect x="47" y="23" style="fill:#3E3E3F;" width="12" height="14"/>
		<circle style="fill:#5B5C5F;" cx="53" cy="30" r="5"/>
		<rect x="27" y="65" style="fill:#F0F1F1;" width="52" height="18"/>
		<rect x="27" y="59" style="fill:#CFD3D4;" width="52" height="6"/>
		<polygon style="fill:#FFFFFF;" points="27,59 35,47 71,47 79,59 		"/>
		<path style="fill:#3E3E3F;" d="M85,63h-2v10h2c1.104,0,2-0.896,2-2v-6C87,63.896,86.104,63,85,63z"/>
		<g>
			<path style="fill:#FFFFFF;" d="M83,75h-4V41c0-2.206-1.794-4-4-4H59v-4h16c4.411,0,8,3.589,8,8V75z"/>
		</g>
		<path style="fill:#3E3E3F;" d="M69,85c0,1.105,0.895,2,2,2h4c1.105,0,2-0.895,2-2v-2h-8V85z"/>
		<path style="fill:#3E3E3F;" d="M29,85c0,1.105,0.895,2,2,2h4c1.105,0,2-0.895,2-2v-2h-8V85z"/>
		<rect x="72" y="71" style="fill:#CFD3D4;" width="2" height="8"/>
		<rect x="67" y="71" style="fill:#CFD3D4;" width="2" height="8"/>
		<rect x="62" y="71" style="fill:#CFD3D4;" width="2" height="8"/>
		<polygon style="fill:#6FDAF1;" points="32,57 37,49 69,49 74,57 		"/>
		<path style="fill:#5B5C5F;" d="M43,39c0,1.105,0.895,2,2,2h16c1.105,0,2-0.895,2-2s-0.895-2-2-2H45C43.895,37,43,37.895,43,39z"/>
		<circle style="fill:#6FDAF1;" cx="53" cy="30" r="3"/>
		<polygon style="fill:#3E3E3F;" points="57,43 49,43 47,41 59,41 		"/>
		<polygon style="fill:#E2E4E5;" points="27,59 27,65 54.869,65 60.869,59 		"/>
		<polygon style="fill:#FFFFFF;" points="27,65 27,83 36.869,83 54.869,65 		"/>
		<rect x="31" y="76" style="fill:#FA5655;" width="4" height="3"/>
		<rect x="36" y="76" style="fill:#32BEA6;" width="4" height="3"/>
	</g>
</g>
<g id="Multicolor">
	<g>
		<rect x="47" y="23" style="fill:#3E3E3F;" width="12" height="14"/>
		<circle style="fill:#5B5C5F;" cx="53" cy="30" r="5"/>
		<rect x="27" y="65" style="fill:#F0F1F1;" width="52" height="18"/>
		<rect x="27" y="59" style="fill:#CFD3D4;" width="52" height="6"/>
		<polygon style="fill:#FFFFFF;" points="27,59 35,47 71,47 79,59 		"/>
		<path style="fill:#3E3E3F;" d="M85,63h-2v10h2c1.104,0,2-0.896,2-2v-6C87,63.896,86.104,63,85,63z"/>
		<g>
			<path style="fill:#FFFFFF;" d="M83,75h-4V41c0-2.206-1.794-4-4-4H59v-4h16c4.411,0,8,3.589,8,8V75z"/>
		</g>
		<path style="fill:#3E3E3F;" d="M69,85c0,1.105,0.895,2,2,2h4c1.105,0,2-0.895,2-2v-2h-8V85z"/>
		<path style="fill:#3E3E3F;" d="M29,85c0,1.105,0.895,2,2,2h4c1.105,0,2-0.895,2-2v-2h-8V85z"/>
		<rect x="72" y="71" style="fill:#CFD3D4;" width="2" height="8"/>
		<rect x="67" y="71" style="fill:#CFD3D4;" width="2" height="8"/>
		<rect x="62" y="71" style="fill:#CFD3D4;" width="2" height="8"/>
		<polygon style="fill:#6FDAF1;" points="32,57 37,49 69,49 74,57 		"/>
		<path style="fill:#5B5C5F;" d="M43,39c0,1.105,0.895,2,2,2h16c1.105,0,2-0.895,2-2s-0.895-2-2-2H45C43.895,37,43,37.895,43,39z"/>
		<circle style="fill:#6FDAF1;" cx="53" cy="30" r="3"/>
		<polygon style="fill:#3E3E3F;" points="57,43 49,43 47,41 59,41 		"/>
		<polygon style="fill:#E2E4E5;" points="27,59 27,65 54.869,65 60.869,59 		"/>
		<polygon style="fill:#FFFFFF;" points="27,65 27,83 36.869,83 54.869,65 		"/>
		<rect x="31" y="76" style="fill:#FA5655;" width="4" height="3"/>
		<rect x="36" y="76" style="fill:#32BEA6;" width="4" height="3"/>
	</g>
</g>
<g id="Blue" style="display:none;">
	<g style="display:inline;">
		<g>
			<rect x="47" y="23" style="fill:#0C333D;" width="12" height="14"/>
		</g>
		<g>
			<circle style="fill:#0F6175;" cx="53" cy="30" r="5"/>
		</g>
		<g>
			<rect x="27" y="65" style="fill:#E1F5FA;" width="52" height="18"/>
		</g>
		<g>
			<rect x="27" y="59" style="fill:#BBE7F2;" width="52" height="6"/>
		</g>
		<g>
			<polygon style="fill:#FFFFFF;" points="27,59 35,47 71,47 79,59 			"/>
		</g>
		<g>
			<path style="fill:#0C333D;" d="M85,63h-2v10h2c1.104,0,2-0.896,2-2v-6C87,63.896,86.104,63,85,63z"/>
		</g>
		<g>
			<g>
				<path style="fill:#FFFFFF;" d="M83,75h-4V41c0-2.206-1.794-4-4-4H59v-4h16c4.411,0,8,3.589,8,8V75z"/>
			</g>
		</g>
		<g>
			<path style="fill:#0C333D;" d="M69,85c0,1.104,0.896,2,2,2h4c1.104,0,2-0.896,2-2v-2h-8V85z"/>
		</g>
		<g>
			<path style="fill:#0C333D;" d="M29,85c0,1.104,0.896,2,2,2h4c1.104,0,2-0.896,2-2v-2h-8V85z"/>
		</g>
		<g>
			<rect x="72" y="71" style="fill:#53BAD4;" width="2" height="8"/>
		</g>
		<g>
			<rect x="67" y="71" style="fill:#53BAD4;" width="2" height="8"/>
		</g>
		<g>
			<rect x="62" y="71" style="fill:#53BAD4;" width="2" height="8"/>
		</g>
		<g>
			<polygon style="fill:#00B7E5;" points="32,57 37,49 69,49 74,57 			"/>
		</g>
		<g>
			<path style="fill:#0F6175;" d="M43,39c0,1.104,0.896,2,2,2h16c1.104,0,2-0.896,2-2s-0.896-2-2-2H45C43.896,37,43,37.896,43,39z"
				/>
		</g>
		<g>
			<circle style="fill:#00B7E5;" cx="53" cy="30" r="3"/>
		</g>
		<g>
			<polygon style="fill:#0C333D;" points="57,43 49,43 47,41 59,41 			"/>
		</g>
		<g>
			<polygon style="fill:#E1F5FA;" points="27,59 27,65 54.869,65 60.869,59 			"/>
		</g>
		<g>
			<polygon style="fill:#FFFFFF;" points="27,65 27,83 36.869,83 54.869,65 			"/>
		</g>
		<g>
			<rect x="31" y="76" style="fill:#00B7E5;" width="4" height="3"/>
		</g>
		<g>
			<rect x="36" y="76" style="fill:#53BAD4;" width="4" height="3"/>
		</g>
	</g>
</g>
<g id="R-Blue" style="display:none;">
	<g style="display:inline;">
		<circle style="fill:#81D2EB;" cx="55" cy="55" r="55"/>
	</g>
	<g style="display:inline;">
		<g>
			<rect x="47" y="23" style="fill:#0C333D;" width="12" height="14"/>
		</g>
		<g>
			<circle style="fill:#0F6175;" cx="53" cy="30" r="5"/>
		</g>
		<g>
			<rect x="27" y="65" style="fill:#E1F5FA;" width="52" height="18"/>
		</g>
		<g>
			<rect x="27" y="59" style="fill:#BBE7F2;" width="52" height="6"/>
		</g>
		<g>
			<polygon style="fill:#FFFFFF;" points="27,59 35,47 71,47 79,59 			"/>
		</g>
		<g>
			<path style="fill:#0C333D;" d="M85,63h-2v10h2c1.104,0,2-0.896,2-2v-6C87,63.896,86.104,63,85,63z"/>
		</g>
		<g>
			<g>
				<path style="fill:#FFFFFF;" d="M83,75h-4V41c0-2.206-1.794-4-4-4H59v-4h16c4.411,0,8,3.589,8,8V75z"/>
			</g>
		</g>
		<g>
			<path style="fill:#0C333D;" d="M69,85c0,1.104,0.896,2,2,2h4c1.104,0,2-0.896,2-2v-2h-8V85z"/>
		</g>
		<g>
			<path style="fill:#0C333D;" d="M29,85c0,1.104,0.896,2,2,2h4c1.104,0,2-0.896,2-2v-2h-8V85z"/>
		</g>
		<g>
			<rect x="72" y="71" style="fill:#53BAD4;" width="2" height="8"/>
		</g>
		<g>
			<rect x="67" y="71" style="fill:#53BAD4;" width="2" height="8"/>
		</g>
		<g>
			<rect x="62" y="71" style="fill:#53BAD4;" width="2" height="8"/>
		</g>
		<g>
			<polygon style="fill:#00B7E5;" points="32,57 37,49 69,49 74,57 			"/>
		</g>
		<g>
			<path style="fill:#0F6175;" d="M43,39c0,1.104,0.896,2,2,2h16c1.104,0,2-0.896,2-2s-0.896-2-2-2H45C43.896,37,43,37.896,43,39z"
				/>
		</g>
		<g>
			<circle style="fill:#00B7E5;" cx="53" cy="30" r="3"/>
		</g>
		<g>
			<polygon style="fill:#0C333D;" points="57,43 49,43 47,41 59,41 			"/>
		</g>
		<g>
			<polygon style="fill:#E1F5FA;" points="27,59 27,65 54.869,65 60.869,59 			"/>
		</g>
		<g>
			<polygon style="fill:#FFFFFF;" points="27,65 27,83 36.869,83 54.869,65 			"/>
		</g>
		<g>
			<rect x="31" y="76" style="fill:#00B7E5;" width="4" height="3"/>
		</g>
		<g>
			<rect x="36" y="76" style="fill:#53BAD4;" width="4" height="3"/>
		</g>
	</g>
</g>
<g id="Green" style="display:none;">
	<g style="display:inline;">
		<g>
			<rect x="47" y="23" style="fill:#0A3631;" width="12" height="14"/>
		</g>
		<g>
			<circle style="fill:#14635B;" cx="53" cy="30" r="5"/>
		</g>
		<g>
			<rect x="27" y="65" style="fill:#D7FCF9;" width="52" height="18"/>
		</g>
		<g>
			<rect x="27" y="59" style="fill:#AAF0E9;" width="52" height="6"/>
		</g>
		<g>
			<polygon style="fill:#FFFFFF;" points="27,59 35,47 71,47 79,59 			"/>
		</g>
		<g>
			<path style="fill:#0A3631;" d="M85,63h-2v10h2c1.104,0,2-0.896,2-2v-6C87,63.896,86.104,63,85,63z"/>
		</g>
		<g>
			<g>
				<path style="fill:#FFFFFF;" d="M83,75h-4V41c0-2.206-1.794-4-4-4H59v-4h16c4.411,0,8,3.589,8,8V75z"/>
			</g>
		</g>
		<g>
			<path style="fill:#0A3631;" d="M69,85c0,1.104,0.896,2,2,2h4c1.104,0,2-0.896,2-2v-2h-8V85z"/>
		</g>
		<g>
			<path style="fill:#0A3631;" d="M29,85c0,1.104,0.896,2,2,2h4c1.104,0,2-0.896,2-2v-2h-8V85z"/>
		</g>
		<g>
			<rect x="72" y="71" style="fill:#5DCFC3;" width="2" height="8"/>
		</g>
		<g>
			<rect x="67" y="71" style="fill:#5DCFC3;" width="2" height="8"/>
		</g>
		<g>
			<rect x="62" y="71" style="fill:#5DCFC3;" width="2" height="8"/>
		</g>
		<g>
			<polygon style="fill:#00D6C1;" points="32,57 37,49 69,49 74,57 			"/>
		</g>
		<g>
			<path style="fill:#14635B;" d="M43,39c0,1.104,0.896,2,2,2h16c1.104,0,2-0.896,2-2s-0.896-2-2-2H45C43.895,37,43,37.896,43,39z"
				/>
		</g>
		<g>
			<circle style="fill:#00D6C1;" cx="53" cy="30" r="3"/>
		</g>
		<g>
			<polygon style="fill:#0A3631;" points="57,43 49,43 47,41 59,41 			"/>
		</g>
		<g>
			<polygon style="fill:#D7FCF9;" points="27,59 27,65 54.869,65 60.869,59 			"/>
		</g>
		<g>
			<polygon style="fill:#FFFFFF;" points="27,65 27,83 36.869,83 54.869,65 			"/>
		</g>
		<g>
			<rect x="31" y="76" style="fill:#00D6C1;" width="4" height="3"/>
		</g>
		<g>
			<rect x="36" y="76" style="fill:#5DCFC3;" width="4" height="3"/>
		</g>
	</g>
</g>
<g id="R-Green" style="display:none;">
	<g style="display:inline;">
		<circle style="fill:#87E0C8;" cx="55" cy="55" r="55"/>
	</g>
	<g style="display:inline;">
		<g>
			<rect x="47" y="23" style="fill:#0A3631;" width="12" height="14"/>
		</g>
		<g>
			<circle style="fill:#14635B;" cx="53" cy="30" r="5"/>
		</g>
		<g>
			<rect x="27" y="65" style="fill:#D7FCF9;" width="52" height="18"/>
		</g>
		<g>
			<rect x="27" y="59" style="fill:#AAF0E9;" width="52" height="6"/>
		</g>
		<g>
			<polygon style="fill:#FFFFFF;" points="27,59 35,47 71,47 79,59 			"/>
		</g>
		<g>
			<path style="fill:#0A3631;" d="M85,63h-2v10h2c1.104,0,2-0.896,2-2v-6C87,63.896,86.104,63,85,63z"/>
		</g>
		<g>
			<g>
				<path style="fill:#FFFFFF;" d="M83,75h-4V41c0-2.206-1.794-4-4-4H59v-4h16c4.411,0,8,3.589,8,8V75z"/>
			</g>
		</g>
		<g>
			<path style="fill:#0A3631;" d="M69,85c0,1.104,0.896,2,2,2h4c1.104,0,2-0.896,2-2v-2h-8V85z"/>
		</g>
		<g>
			<path style="fill:#0A3631;" d="M29,85c0,1.104,0.896,2,2,2h4c1.104,0,2-0.896,2-2v-2h-8V85z"/>
		</g>
		<g>
			<rect x="72" y="71" style="fill:#5DCFC3;" width="2" height="8"/>
		</g>
		<g>
			<rect x="67" y="71" style="fill:#5DCFC3;" width="2" height="8"/>
		</g>
		<g>
			<rect x="62" y="71" style="fill:#5DCFC3;" width="2" height="8"/>
		</g>
		<g>
			<polygon style="fill:#00D6C1;" points="32,57 37,49 69,49 74,57 			"/>
		</g>
		<g>
			<path style="fill:#14635B;" d="M43,39c0,1.104,0.896,2,2,2h16c1.104,0,2-0.896,2-2s-0.896-2-2-2H45C43.895,37,43,37.896,43,39z"
				/>
		</g>
		<g>
			<circle style="fill:#00D6C1;" cx="53" cy="30" r="3"/>
		</g>
		<g>
			<polygon style="fill:#0A3631;" points="57,43 49,43 47,41 59,41 			"/>
		</g>
		<g>
			<polygon style="fill:#D7FCF9;" points="27,59 27,65 54.868,65 60.868,59 			"/>
		</g>
		<g>
			<polygon style="fill:#FFFFFF;" points="27,65 27,83 36.868,83 54.868,65 			"/>
		</g>
		<g>
			<rect x="31" y="76" style="fill:#00D6C1;" width="4" height="3"/>
		</g>
		<g>
			<rect x="36" y="76" style="fill:#5DCFC3;" width="4" height="3"/>
		</g>
	</g>
</g>
<g id="Red" style="display:none;">
	<g style="display:inline;">
		<g>
			<rect x="46.896" y="23" style="fill:#4A1410;" width="12" height="14"/>
		</g>
		<g>
			<circle style="fill:#7D261E;" cx="52.896" cy="30" r="5"/>
		</g>
		<g>
			<rect x="26.896" y="65" style="fill:#FFEFED;" width="52" height="18"/>
		</g>
		<g>
			<rect x="26.896" y="59" style="fill:#FFD7D4;" width="52" height="6"/>
		</g>
		<g>
			<polygon style="fill:#FFFFFF;" points="26.896,59 34.896,47 70.896,47 78.896,59 			"/>
		</g>
		<g>
			<path style="fill:#4A1410;" d="M84.896,63h-2v10h2c1.104,0,2-0.896,2-2v-6C86.896,63.896,86.001,63,84.896,63z"/>
		</g>
		<g>
			<g>
				<path style="fill:#FFFFFF;" d="M82.896,75h-4V41c0-2.206-1.794-4-4-4h-16v-4h16c4.411,0,8,3.589,8,8V75z"/>
			</g>
		</g>
		<g>
			<path style="fill:#4A1410;" d="M68.896,85c0,1.104,0.895,2,2,2h4c1.104,0,2-0.896,2-2v-2h-8V85z"/>
		</g>
		<g>
			<path style="fill:#4A1410;" d="M28.896,85c0,1.104,0.896,2,2,2h4c1.104,0,2-0.896,2-2v-2h-8V85z"/>
		</g>
		<g>
			<rect x="71.896" y="71" style="fill:#E8A099;" width="2" height="8"/>
		</g>
		<g>
			<rect x="66.896" y="71" style="fill:#E8A099;" width="2" height="8"/>
		</g>
		<g>
			<rect x="61.896" y="71" style="fill:#E8A099;" width="2" height="8"/>
		</g>
		<g>
			<polygon style="fill:#FF6C5E;" points="31.896,57 36.896,49 68.896,49 73.896,57 			"/>
		</g>
		<g>
			<path style="fill:#7D261E;" d="M42.896,39c0,1.104,0.896,2,2,2h16c1.104,0,2-0.896,2-2s-0.896-2-2-2h-16
				C43.792,37,42.896,37.896,42.896,39z"/>
		</g>
		<g>
			<circle style="fill:#FF6C5E;" cx="52.896" cy="30" r="3"/>
		</g>
		<g>
			<polygon style="fill:#4A1410;" points="56.896,43 48.896,43 46.896,41 58.896,41 			"/>
		</g>
		<g>
			<polygon style="fill:#FFEFED;" points="26.896,59 26.896,65 54.765,65 60.765,59 			"/>
		</g>
		<g>
			<polygon style="fill:#FFFFFF;" points="26.896,65 26.896,83 36.765,83 54.765,65 			"/>
		</g>
		<g>
			<rect x="30.896" y="76" style="fill:#FF6C5E;" width="4" height="3"/>
		</g>
		<g>
			<rect x="35.896" y="76" style="fill:#E8A099;" width="4" height="3"/>
		</g>
	</g>
</g>
<g id="R-Red" style="display:none;">
	<g style="display:inline;">
		<circle style="fill:#FABBAF;" cx="55" cy="55" r="55"/>
	</g>
	<g style="display:inline;">
		<g>
			<rect x="47" y="23" style="fill:#4A1410;" width="12" height="14"/>
		</g>
		<g>
			<circle style="fill:#7D261E;" cx="53" cy="30" r="5"/>
		</g>
		<g>
			<rect x="27" y="65" style="fill:#FFEFED;" width="52" height="18"/>
		</g>
		<g>
			<rect x="27" y="59" style="fill:#FFD7D4;" width="52" height="6"/>
		</g>
		<g>
			<polygon style="fill:#FFFFFF;" points="27,59 35,47 71,47 79,59 			"/>
		</g>
		<g>
			<path style="fill:#4A1410;" d="M85,63h-2v10h2c1.104,0,2-0.896,2-2v-6C87,63.896,86.104,63,85,63z"/>
		</g>
		<g>
			<g>
				<path style="fill:#FFFFFF;" d="M83,75h-4V41c0-2.206-1.794-4-4-4H59v-4h16c4.411,0,8,3.589,8,8V75z"/>
			</g>
		</g>
		<g>
			<path style="fill:#4A1410;" d="M69,85c0,1.104,0.896,2,2,2h4c1.104,0,2-0.896,2-2v-2h-8V85z"/>
		</g>
		<g>
			<path style="fill:#4A1410;" d="M29,85c0,1.104,0.896,2,2,2h4c1.104,0,2-0.896,2-2v-2h-8V85z"/>
		</g>
		<g>
			<rect x="72" y="71" style="fill:#E8A099;" width="2" height="8"/>
		</g>
		<g>
			<rect x="67" y="71" style="fill:#E8A099;" width="2" height="8"/>
		</g>
		<g>
			<rect x="62" y="71" style="fill:#E8A099;" width="2" height="8"/>
		</g>
		<g>
			<polygon style="fill:#FF6C5E;" points="32,57 37,49 69,49 74,57 			"/>
		</g>
		<g>
			<path style="fill:#7D261E;" d="M43,39c0,1.104,0.896,2,2,2h16c1.104,0,2-0.896,2-2s-0.896-2-2-2H45C43.896,37,43,37.896,43,39z"
				/>
		</g>
		<g>
			<circle style="fill:#FF6C5E;" cx="53" cy="30" r="3"/>
		</g>
		<g>
			<polygon style="fill:#4A1410;" points="57,43 49,43 47,41 59,41 			"/>
		</g>
		<g>
			<polygon style="fill:#FFEFED;" points="27,59 27,65 54.869,65 60.869,59 			"/>
		</g>
		<g>
			<polygon style="fill:#FFFFFF;" points="27,65 27,83 36.869,83 54.869,65 			"/>
		</g>
		<g>
			<rect x="31" y="76" style="fill:#FF6C5E;" width="4" height="3"/>
		</g>
		<g>
			<rect x="36" y="76" style="fill:#E8A099;" width="4" height="3"/>
		</g>
	</g>
</g>
<g id="Yellow" style="display:none;">
	<g style="display:inline;">
		<g>
			<rect x="46.896" y="23" style="fill:#3D320C;" width="12" height="14"/>
		</g>
		<g>
			<circle style="fill:#66510D;" cx="52.896" cy="30" r="5"/>
		</g>
		<g>
			<rect x="26.896" y="65" style="fill:#FFF5D9;" width="52" height="18"/>
		</g>
		<g>
			<rect x="26.896" y="59" style="fill:#FFE9A1;" width="52" height="6"/>
		</g>
		<g>
			<polygon style="fill:#FFFFFF;" points="26.896,59 34.896,47 70.896,47 78.896,59 			"/>
		</g>
		<g>
			<path style="fill:#3D320C;" d="M84.896,63h-2v10h2c1.104,0,2-0.896,2-2v-6C86.896,63.896,86.001,63,84.896,63z"/>
		</g>
		<g>
			<g>
				<path style="fill:#FFFFFF;" d="M82.896,75h-4V41c0-2.206-1.794-4-4-4h-16v-4h16c4.411,0,8,3.589,8,8V75z"/>
			</g>
		</g>
		<g>
			<path style="fill:#3D320C;" d="M68.896,85c0,1.104,0.896,2,2,2h4c1.104,0,2-0.896,2-2v-2h-8V85z"/>
		</g>
		<g>
			<path style="fill:#3D320C;" d="M28.896,85c0,1.104,0.896,2,2,2h4c1.104,0,2-0.896,2-2v-2h-8V85z"/>
		</g>
		<g>
			<rect x="71.896" y="71" style="fill:#F5C43D;" width="2" height="8"/>
		</g>
		<g>
			<rect x="66.896" y="71" style="fill:#F5C43D;" width="2" height="8"/>
		</g>
		<g>
			<rect x="61.896" y="71" style="fill:#F5C43D;" width="2" height="8"/>
		</g>
		<g>
			<polygon style="fill:#FFAA00;" points="31.896,57 36.896,49 68.896,49 73.896,57 			"/>
		</g>
		<g>
			<path style="fill:#66510D;" d="M42.896,39c0,1.104,0.896,2,2,2h16c1.104,0,2-0.896,2-2s-0.896-2-2-2h-16
				C43.792,37,42.896,37.896,42.896,39z"/>
		</g>
		<g>
			<circle style="fill:#FFAA00;" cx="52.896" cy="30" r="3"/>
		</g>
		<g>
			<polygon style="fill:#3D320C;" points="56.896,43 48.896,43 46.896,41 58.896,41 			"/>
		</g>
		<g>
			<polygon style="fill:#FFF5D9;" points="26.896,59 26.896,65 54.765,65 60.765,59 			"/>
		</g>
		<g>
			<polygon style="fill:#FFFFFF;" points="26.896,65 26.896,83 36.765,83 54.765,65 			"/>
		</g>
		<g>
			<rect x="30.896" y="76" style="fill:#FFAA00;" width="4" height="3"/>
		</g>
		<g>
			<rect x="35.896" y="76" style="fill:#F5C43D;" width="4" height="3"/>
		</g>
	</g>
</g>
<g id="R-Yellow" style="display:none;">
	<g style="display:inline;">
		<circle style="fill:#FFD75E;" cx="55" cy="55" r="55"/>
	</g>
	<g style="display:inline;">
		<g>
			<rect x="47" y="23" style="fill:#3D320C;" width="12" height="14"/>
		</g>
		<g>
			<circle style="fill:#66510D;" cx="53" cy="30" r="5"/>
		</g>
		<g>
			<rect x="27" y="65" style="fill:#FFF5D9;" width="52" height="18"/>
		</g>
		<g>
			<rect x="27" y="59" style="fill:#FFE9A1;" width="52" height="6"/>
		</g>
		<g>
			<polygon style="fill:#FFFFFF;" points="27,59 35,47 71,47 79,59 			"/>
		</g>
		<g>
			<path style="fill:#3D320C;" d="M85,63h-2v10h2c1.104,0,2-0.896,2-2v-6C87,63.896,86.104,63,85,63z"/>
		</g>
		<g>
			<g>
				<path style="fill:#FFFFFF;" d="M83,75h-4V41c0-2.206-1.794-4-4-4H59v-4h16c4.411,0,8,3.589,8,8V75z"/>
			</g>
		</g>
		<g>
			<path style="fill:#3D320C;" d="M69,85c0,1.104,0.896,2,2,2h4c1.104,0,2-0.896,2-2v-2h-8V85z"/>
		</g>
		<g>
			<path style="fill:#3D320C;" d="M29,85c0,1.104,0.896,2,2,2h4c1.104,0,2-0.896,2-2v-2h-8V85z"/>
		</g>
		<g>
			<rect x="72" y="71" style="fill:#F5C43D;" width="2" height="8"/>
		</g>
		<g>
			<rect x="67" y="71" style="fill:#F5C43D;" width="2" height="8"/>
		</g>
		<g>
			<rect x="62" y="71" style="fill:#F5C43D;" width="2" height="8"/>
		</g>
		<g>
			<polygon style="fill:#FFAA00;" points="32,57 37,49 69,49 74,57 			"/>
		</g>
		<g>
			<path style="fill:#66510D;" d="M43,39c0,1.104,0.896,2,2,2h16c1.104,0,2-0.896,2-2s-0.896-2-2-2H45C43.896,37,43,37.896,43,39z"
				/>
		</g>
		<g>
			<circle style="fill:#FFAA00;" cx="53" cy="30" r="3"/>
		</g>
		<g>
			<polygon style="fill:#3D320C;" points="57,43 49,43 47,41 59,41 			"/>
		</g>
		<g>
			<polygon style="fill:#FFF5D9;" points="27,59 27,65 54.869,65 60.869,59 			"/>
		</g>
		<g>
			<polygon style="fill:#FFFFFF;" points="27,65 27,83 36.869,83 54.869,65 			"/>
		</g>
		<g>
			<rect x="31" y="76" style="fill:#FFAA00;" width="4" height="3"/>
		</g>
		<g>
			<rect x="36" y="76" style="fill:#F5C43D;" width="4" height="3"/>
		</g>
	</g>
</g>
</svg>
