<?xml version="1.0" encoding="iso-8859-1"?>
<!-- Generator: Adobe Illustrator 17.1.0, SVG Export Plug-In . SVG Version: 6.00 Build 0)  -->
<!DOCTYPE svg PUBLIC "-//W3C//DTD SVG 1.0//EN" "http://www.w3.org/TR/2001/REC-SVG-20010904/DTD/svg10.dtd">
<svg version="1.0" xmlns="http://www.w3.org/2000/svg" xmlns:xlink="http://www.w3.org/1999/xlink" x="0px" y="0px" width="110px"
	 height="110px" viewBox="0 0 110 110" style="enable-background:new 0 0 110 110;" xml:space="preserve">
<g id="Artboard" style="display:none;">
	
		<rect x="-702.5" y="-315.5" style="display:inline;fill:#808080;stroke:#000000;stroke-miterlimit:10;" width="1363" height="720"/>
</g>
<g id="R-Multicolor" style="display:none;">
	<circle style="display:inline;fill:#E04F5F;" cx="55" cy="55" r="55"/>
	<g style="display:inline;">
		<path style="fill:#B6BCBD;" d="M87,40v36c0,1.21-1.79,3-4,3H27c-2.21,0-4-1.79-4-3V40c0-3.21,1.79-5,4-5h56
			C85.21,35,87,36.79,87,40z"/>
		<path style="fill:#F0F1F1;" d="M87,39v9H23v-9c0-2.21,1.79-4,4-4h56C85.21,35,87,36.79,87,39z"/>
		<rect x="49" y="48" style="fill:#E2E4E5;" width="12" height="31"/>
		<g>
			<circle style="fill:#FFFFFF;" cx="70" cy="42" r="3"/>
			<path style="fill:#B6BCBD;" d="M70,40c1.104,0,2,0.896,2,2s-0.896,2-2,2s-2-0.896-2-2S68.896,40,70,40 M70,38
				c-2.206,0-4,1.794-4,4s1.794,4,4,4s4-1.794,4-4S72.206,38,70,38L70,38z"/>
		</g>
		<g>
			<circle style="fill:#FFFFFF;" cx="79" cy="42" r="3"/>
			<path style="fill:#B6BCBD;" d="M79,40c1.104,0,2,0.896,2,2s-0.896,2-2,2s-2-0.896-2-2S77.896,40,79,40 M79,38
				c-2.206,0-4,1.794-4,4s1.794,4,4,4s4-1.794,4-4S81.206,38,79,38L79,38z"/>
		</g>
		<path style="fill:#CFD3D4;" d="M41,27h-1c-0.552,0-1,0.448-1,1v7h2V27z"/>
		<path style="fill:#CFD3D4;" d="M71,28c0-0.552-0.448-1-1-1h-1v8h2V28z"/>
		<rect x="41" y="27" style="fill:#3E3E3F;" width="28" height="4"/>
		<circle style="fill:#5B5C5F;" cx="55" cy="58" r="2"/>
		<circle style="fill:#5B5C5F;" cx="55" cy="66" r="2"/>
		<path style="fill:#FFFFFF;" d="M27.08,35c-2.21,0-4,1.79-4,4v9H54l13-13H27.08z"/>
		<rect x="47" y="40" style="fill:#17B198;" width="16" height="4"/>
		<polygon style="fill:#4AC3AF;" points="62,40 47,40 47,44 58,44 		"/>
		<path style="fill:#CFD3D4;" d="M23,48v28c0,0.573,0.41,1.272,1.067,1.853L53.92,48H23z"/>
		<rect x="29" y="40" style="fill:#FA5655;" width="2" height="4"/>
		<rect x="33" y="40" style="fill:#F3B607;" width="2" height="4"/>
		<rect x="37" y="40" style="fill:#4AC3AF;" width="2" height="4"/>
		<circle style="fill:#3E3E3F;" cx="36" cy="62" r="8.8"/>
		<path style="fill:#F0F1F1;" d="M74,51c-6.075,0-11,4.925-11,11c0,4.044,2.189,7.569,5.44,9.48l15.04-15.04
			C81.569,53.189,78.044,51,74,51z"/>
		<circle style="fill:#3E3E3F;" cx="74" cy="62" r="8.8"/>
		<circle style="fill:#818284;" cx="74" cy="62" r="3.3"/>
		<path style="fill:#F0F1F1;" d="M74,51c-6.075,0-11,4.925-11,11s4.925,11,11,11s11-4.925,11-11S80.075,51,74,51z M74,53.2
			c4.521,0,8.242,3.411,8.739,7.8H65.261C65.758,56.611,69.479,53.2,74,53.2z M74,70.8c-4.521,0-8.242-3.411-8.739-7.8h17.479
			C82.242,67.389,78.521,70.8,74,70.8z"/>
		<polygon style="fill:#F0F1F1;" points="53.92,48 49,48 49,52.92 		"/>
		<circle style="fill:#818284;" cx="36" cy="62" r="3.3"/>
		<path style="fill:#F0F1F1;" d="M36,51c-6.075,0-11,4.925-11,11s4.925,11,11,11s11-4.925,11-11S42.075,51,36,51z M36,53.2
			c4.521,0,8.242,3.411,8.739,7.8H27.261C27.758,56.611,31.479,53.2,36,53.2z M36,70.8c-4.521,0-8.242-3.411-8.739-7.8h17.479
			C44.242,67.389,40.521,70.8,36,70.8z"/>
	</g>
</g>
<g id="Multicolor">
	<g>
		<path style="fill:#B6BCBD;" d="M87,40v36c0,1.21-1.79,3-4,3H27c-2.21,0-4-1.79-4-3V40c0-3.21,1.79-5,4-5h56
			C85.21,35,87,36.79,87,40z"/>
		<path style="fill:#F0F1F1;" d="M87,39v9H23v-9c0-2.21,1.79-4,4-4h56C85.21,35,87,36.79,87,39z"/>
		<rect x="49" y="48" style="fill:#E2E4E5;" width="12" height="31"/>
		<g>
			<circle style="fill:#FFFFFF;" cx="70" cy="42" r="3"/>
			<path style="fill:#B6BCBD;" d="M70,40c1.104,0,2,0.896,2,2s-0.896,2-2,2s-2-0.896-2-2S68.896,40,70,40 M70,38
				c-2.206,0-4,1.794-4,4s1.794,4,4,4s4-1.794,4-4S72.206,38,70,38L70,38z"/>
		</g>
		<g>
			<circle style="fill:#FFFFFF;" cx="79" cy="42" r="3"/>
			<path style="fill:#B6BCBD;" d="M79,40c1.104,0,2,0.896,2,2s-0.896,2-2,2s-2-0.896-2-2S77.896,40,79,40 M79,38
				c-2.206,0-4,1.794-4,4s1.794,4,4,4s4-1.794,4-4S81.206,38,79,38L79,38z"/>
		</g>
		<path style="fill:#CFD3D4;" d="M41,27h-1c-0.552,0-1,0.448-1,1v7h2V27z"/>
		<path style="fill:#CFD3D4;" d="M71,28c0-0.552-0.448-1-1-1h-1v8h2V28z"/>
		<rect x="41" y="27" style="fill:#3E3E3F;" width="28" height="4"/>
		<circle style="fill:#5B5C5F;" cx="55" cy="58" r="2"/>
		<circle style="fill:#5B5C5F;" cx="55" cy="66" r="2"/>
		<path style="fill:#FFFFFF;" d="M27.08,35c-2.21,0-4,1.79-4,4v9H54l13-13H27.08z"/>
		<rect x="47" y="40" style="fill:#17B198;" width="16" height="4"/>
		<polygon style="fill:#4AC3AF;" points="62,40 47,40 47,44 58,44 		"/>
		<path style="fill:#CFD3D4;" d="M23,48v28c0,0.573,0.41,1.272,1.067,1.853L53.92,48H23z"/>
		<rect x="29" y="40" style="fill:#FA5655;" width="2" height="4"/>
		<rect x="33" y="40" style="fill:#F3B607;" width="2" height="4"/>
		<rect x="37" y="40" style="fill:#4AC3AF;" width="2" height="4"/>
		<circle style="fill:#3E3E3F;" cx="36" cy="62" r="8.8"/>
		<path style="fill:#F0F1F1;" d="M74,51c-6.075,0-11,4.925-11,11c0,4.044,2.189,7.569,5.44,9.48l15.04-15.04
			C81.569,53.189,78.044,51,74,51z"/>
		<circle style="fill:#3E3E3F;" cx="74" cy="62" r="8.8"/>
		<circle style="fill:#818284;" cx="74" cy="62" r="3.3"/>
		<path style="fill:#F0F1F1;" d="M74,51c-6.075,0-11,4.925-11,11s4.925,11,11,11s11-4.925,11-11S80.075,51,74,51z M74,53.2
			c4.521,0,8.242,3.411,8.739,7.8H65.261C65.758,56.611,69.479,53.2,74,53.2z M74,70.8c-4.521,0-8.242-3.411-8.739-7.8h17.479
			C82.242,67.389,78.521,70.8,74,70.8z"/>
		<polygon style="fill:#F0F1F1;" points="53.92,48 49,48 49,52.92 		"/>
		<circle style="fill:#818284;" cx="36" cy="62" r="3.3"/>
		<path style="fill:#F0F1F1;" d="M36,51c-6.075,0-11,4.925-11,11s4.925,11,11,11s11-4.925,11-11S42.075,51,36,51z M36,53.2
			c4.521,0,8.242,3.411,8.739,7.8H27.261C27.758,56.611,31.479,53.2,36,53.2z M36,70.8c-4.521,0-8.242-3.411-8.739-7.8h17.479
			C44.242,67.389,40.521,70.8,36,70.8z"/>
	</g>
</g>
<g id="Blue" style="display:none;">
	<g style="display:inline;">
		<g>
			<path style="fill:#BBE7F2;" d="M87,40v36c0,1.21-1.79,3-4,3H27c-2.21,0-4-1.79-4-3V40c0-3.21,1.79-5,4-5h56
				C85.21,35,87,36.79,87,40z"/>
		</g>
		<g>
			<path style="fill:#E1F5FA;" d="M87,39v9H23v-9c0-2.21,1.79-4,4-4h56C85.21,35,87,36.79,87,39z"/>
		</g>
		<g>
			<rect x="49" y="48" style="fill:#E1F5FA;" width="12" height="31"/>
		</g>
		<g>
			<circle style="fill:#FFFFFF;" cx="70" cy="42" r="3"/>
		</g>
		<g>
			<path style="fill:#53BAD4;" d="M70,40c1.104,0,2,0.896,2,2s-0.896,2-2,2s-2-0.896-2-2S68.896,40,70,40 M70,38
				c-2.206,0-4,1.794-4,4s1.794,4,4,4c2.206,0,4-1.794,4-4S72.206,38,70,38L70,38z"/>
		</g>
		<g>
			<circle style="fill:#FFFFFF;" cx="79" cy="42" r="3"/>
		</g>
		<g>
			<path style="fill:#53BAD4;" d="M79,40c1.104,0,2,0.896,2,2s-0.896,2-2,2s-2-0.896-2-2S77.896,40,79,40 M79,38
				c-2.206,0-4,1.794-4,4s1.794,4,4,4c2.206,0,4-1.794,4-4S81.206,38,79,38L79,38z"/>
		</g>
		<g>
			<path style="fill:#E1F5FA;" d="M41,27h-1c-0.552,0-1,0.448-1,1v7h2V27z"/>
		</g>
		<g>
			<path style="fill:#E1F5FA;" d="M71,28c0-0.552-0.448-1-1-1h-1v8h2V28z"/>
		</g>
		<g>
			<rect x="41" y="27" style="fill:#0C333D;" width="28" height="4"/>
		</g>
		<g>
			<circle style="fill:#0F6175;" cx="55" cy="58" r="2"/>
		</g>
		<g>
			<circle style="fill:#0F6175;" cx="55" cy="66" r="2"/>
		</g>
		<g>
			<path style="fill:#FFFFFF;" d="M27.08,35c-2.21,0-4,1.79-4,4v9H54l13-13H27.08z"/>
		</g>
		<g>
			<rect x="47" y="40" style="fill:#009FC7;" width="16" height="4"/>
		</g>
		<g>
			<polygon style="fill:#00B7E5;" points="62,40 47,40 47,44 58,44 			"/>
		</g>
		<g>
			<path style="fill:#E1F5FA;" d="M23,48v28c0,0.573,0.41,1.272,1.067,1.853L53.92,48H23z"/>
		</g>
		<g>
			<rect x="29" y="40" style="fill:#0081A1;" width="2" height="4"/>
		</g>
		<g>
			<rect x="33" y="40" style="fill:#009FC7;" width="2" height="4"/>
		</g>
		<g>
			<rect x="37" y="40" style="fill:#00B7E5;" width="2" height="4"/>
		</g>
		<g>
			<circle style="fill:#0C333D;" cx="36" cy="62" r="8.8"/>
		</g>
		<g>
			<path style="fill:#BBE7F2;" d="M74,51c-6.075,0-11,4.925-11,11c0,4.044,2.189,7.569,5.44,9.48l15.04-15.04
				C81.569,53.189,78.044,51,74,51z"/>
		</g>
		<g>
			<circle style="fill:#0C333D;" cx="74" cy="62" r="8.8"/>
		</g>
		<g>
			<circle style="fill:#33899E;" cx="74" cy="62" r="3.3"/>
		</g>
		<g>
			<path style="fill:#FFFFFF;" d="M74,51c-6.075,0-11,4.925-11,11s4.925,11,11,11c6.075,0,11-4.925,11-11S80.075,51,74,51z M74,53.2
				c4.521,0,8.242,3.411,8.739,7.8H65.261C65.758,56.611,69.479,53.2,74,53.2z M74,70.799c-4.521,0-8.242-3.411-8.739-7.8h17.479
				C82.242,67.388,78.521,70.799,74,70.799z"/>
		</g>
		<g>
			<polygon style="fill:#FFFFFF;" points="53.92,48 49,48 49,52.92 			"/>
		</g>
		<g>
			<circle style="fill:#33899E;" cx="36" cy="62" r="3.3"/>
		</g>
		<g>
			<path style="fill:#FFFFFF;" d="M36,51c-6.075,0-11,4.925-11,11s4.925,11,11,11s11-4.925,11-11S42.075,51,36,51z M36,53.2
				c4.521,0,8.242,3.411,8.739,7.8H27.261C27.758,56.611,31.478,53.2,36,53.2z M36,70.799c-4.521,0-8.242-3.411-8.739-7.8h17.479
				C44.242,67.388,40.521,70.799,36,70.799z"/>
		</g>
	</g>
</g>
<g id="R-Blue" style="display:none;">
	<g style="display:inline;">
		<circle style="fill:#81D2EB;" cx="55" cy="55" r="55"/>
	</g>
	<g style="display:inline;">
		<g>
			<path style="fill:#BBE7F2;" d="M87,40v36c0,1.21-1.79,3-4,3H27c-2.21,0-4-1.79-4-3V40c0-3.21,1.79-5,4-5h56
				C85.21,35,87,36.79,87,40z"/>
		</g>
		<g>
			<path style="fill:#E1F5FA;" d="M87,39v9H23v-9c0-2.21,1.79-4,4-4h56C85.21,35,87,36.79,87,39z"/>
		</g>
		<g>
			<rect x="49" y="48" style="fill:#E1F5FA;" width="12" height="31"/>
		</g>
		<g>
			<circle style="fill:#FFFFFF;" cx="70" cy="42" r="3"/>
		</g>
		<g>
			<path style="fill:#53BAD4;" d="M70,40c1.104,0,2,0.896,2,2s-0.896,2-2,2s-2-0.896-2-2S68.896,40,70,40 M70,38
				c-2.206,0-4,1.794-4,4s1.794,4,4,4c2.206,0,4-1.794,4-4S72.206,38,70,38L70,38z"/>
		</g>
		<g>
			<circle style="fill:#FFFFFF;" cx="79" cy="42" r="3"/>
		</g>
		<g>
			<path style="fill:#53BAD4;" d="M79,40c1.104,0,2,0.896,2,2s-0.896,2-2,2s-2-0.896-2-2S77.896,40,79,40 M79,38
				c-2.206,0-4,1.794-4,4s1.794,4,4,4c2.206,0,4-1.794,4-4S81.206,38,79,38L79,38z"/>
		</g>
		<g>
			<path style="fill:#E1F5FA;" d="M41,27h-1c-0.552,0-1,0.448-1,1v7h2V27z"/>
		</g>
		<g>
			<path style="fill:#E1F5FA;" d="M71,28c0-0.552-0.448-1-1-1h-1v8h2V28z"/>
		</g>
		<g>
			<rect x="41" y="27" style="fill:#0C333D;" width="28" height="4"/>
		</g>
		<g>
			<circle style="fill:#0F6175;" cx="55" cy="58" r="2"/>
		</g>
		<g>
			<circle style="fill:#0F6175;" cx="55" cy="66" r="2"/>
		</g>
		<g>
			<path style="fill:#FFFFFF;" d="M27.08,35c-2.21,0-4,1.79-4,4v9H54l13-13H27.08z"/>
		</g>
		<g>
			<rect x="47" y="40" style="fill:#009FC7;" width="16" height="4"/>
		</g>
		<g>
			<polygon style="fill:#00B7E5;" points="62,40 47,40 47,44 58,44 			"/>
		</g>
		<g>
			<path style="fill:#E1F5FA;" d="M23,48v28c0,0.573,0.41,1.272,1.067,1.853L53.92,48H23z"/>
		</g>
		<g>
			<rect x="29" y="40" style="fill:#0081A1;" width="2" height="4"/>
		</g>
		<g>
			<rect x="33" y="40" style="fill:#009FC7;" width="2" height="4"/>
		</g>
		<g>
			<rect x="37" y="40" style="fill:#00B7E5;" width="2" height="4"/>
		</g>
		<g>
			<circle style="fill:#0C333D;" cx="36" cy="62" r="8.8"/>
		</g>
		<g>
			<path style="fill:#BBE7F2;" d="M74,51c-6.075,0-11,4.925-11,11c0,4.044,2.189,7.569,5.44,9.48l15.04-15.04
				C81.569,53.189,78.044,51,74,51z"/>
		</g>
		<g>
			<circle style="fill:#0C333D;" cx="74" cy="62" r="8.8"/>
		</g>
		<g>
			<circle style="fill:#33899E;" cx="74" cy="62" r="3.3"/>
		</g>
		<g>
			<path style="fill:#FFFFFF;" d="M74,51c-6.075,0-11,4.925-11,11s4.925,11,11,11c6.075,0,11-4.925,11-11S80.075,51,74,51z M74,53.2
				c4.521,0,8.242,3.411,8.739,7.8H65.261C65.758,56.611,69.479,53.2,74,53.2z M74,70.8c-4.521,0-8.242-3.411-8.739-7.8h17.479
				C82.242,67.389,78.521,70.8,74,70.8z"/>
		</g>
		<g>
			<polygon style="fill:#FFFFFF;" points="53.92,48 49,48 49,52.92 			"/>
		</g>
		<g>
			<circle style="fill:#33899E;" cx="36" cy="62" r="3.3"/>
		</g>
		<g>
			<path style="fill:#FFFFFF;" d="M36,51c-6.075,0-11,4.925-11,11s4.925,11,11,11s11-4.925,11-11S42.075,51,36,51z M36,53.2
				c4.521,0,8.242,3.411,8.739,7.8H27.261C27.758,56.611,31.478,53.2,36,53.2z M36,70.8c-4.521,0-8.242-3.411-8.739-7.8h17.479
				C44.242,67.389,40.521,70.8,36,70.8z"/>
		</g>
	</g>
</g>
<g id="Green" style="display:none;">
	<g style="display:inline;">
		<g>
			<path style="fill:#AAF0E9;" d="M87,40v36c0,1.21-1.79,3-4,3H27c-2.21,0-4-1.79-4-3V40c0-3.21,1.79-5,4-5h56
				C85.21,35,87,36.79,87,40z"/>
		</g>
		<g>
			<path style="fill:#D7FCF9;" d="M87,39v9H23v-9c0-2.21,1.79-4,4-4h56C85.21,35,87,36.79,87,39z"/>
		</g>
		<g>
			<rect x="49" y="48" style="fill:#D7FCF9;" width="12" height="31"/>
		</g>
		<g>
			<circle style="fill:#FFFFFF;" cx="70" cy="42" r="3"/>
		</g>
		<g>
			<path style="fill:#5DCFC3;" d="M70,40c1.104,0,2,0.896,2,2s-0.896,2-2,2s-2-0.896-2-2S68.896,40,70,40 M70,38
				c-2.206,0-4,1.794-4,4s1.794,4,4,4c2.206,0,4-1.794,4-4S72.206,38,70,38L70,38z"/>
		</g>
		<g>
			<circle style="fill:#FFFFFF;" cx="79" cy="42" r="3"/>
		</g>
		<g>
			<path style="fill:#5DCFC3;" d="M79,40c1.104,0,2,0.896,2,2s-0.896,2-2,2s-2-0.896-2-2S77.896,40,79,40 M79,38
				c-2.206,0-4,1.794-4,4s1.794,4,4,4c2.206,0,4-1.794,4-4S81.206,38,79,38L79,38z"/>
		</g>
		<g>
			<path style="fill:#D7FCF9;" d="M41,27h-1c-0.552,0-1,0.448-1,1v7h2V27z"/>
		</g>
		<g>
			<path style="fill:#D7FCF9;" d="M71,28c0-0.552-0.448-1-1-1h-1v8h2V28z"/>
		</g>
		<g>
			<rect x="41" y="27" style="fill:#0A3631;" width="28" height="4"/>
		</g>
		<g>
			<circle style="fill:#14635B;" cx="55" cy="58" r="2"/>
		</g>
		<g>
			<circle style="fill:#14635B;" cx="55" cy="66" r="2"/>
		</g>
		<g>
			<path style="fill:#FFFFFF;" d="M27.08,35c-2.21,0-4,1.79-4,4v9H54l13-13H27.08z"/>
		</g>
		<g>
			<rect x="47" y="40" style="fill:#00B8A5;" width="16" height="4"/>
		</g>
		<g>
			<polygon style="fill:#00D6C1;" points="62,40 47,40 47,44 58,44 			"/>
		</g>
		<g>
			<path style="fill:#D7FCF9;" d="M23,48v28c0,0.573,0.41,1.272,1.067,1.853L53.92,48H23z"/>
		</g>
		<g>
			<rect x="29" y="40" style="fill:#009687;" width="2" height="4"/>
		</g>
		<g>
			<rect x="33" y="40" style="fill:#00B8A5;" width="2" height="4"/>
		</g>
		<g>
			<rect x="37" y="40" style="fill:#00D6C1;" width="2" height="4"/>
		</g>
		<g>
			<circle style="fill:#0A3631;" cx="36" cy="62" r="8.8"/>
		</g>
		<g>
			<path style="fill:#AAF0E9;" d="M74,51c-6.075,0-11,4.925-11,11c0,4.044,2.189,7.569,5.44,9.48l15.04-15.04
				C81.569,53.189,78.044,51,74,51z"/>
		</g>
		<g>
			<circle style="fill:#0A3631;" cx="74" cy="62" r="8.8"/>
		</g>
		<g>
			<circle style="fill:#3E948B;" cx="74" cy="62" r="3.3"/>
		</g>
		<g>
			<path style="fill:#FFFFFF;" d="M74,51c-6.075,0-11,4.925-11,11s4.925,11,11,11c6.075,0,11-4.925,11-11S80.075,51,74,51z M74,53.2
				c4.521,0,8.242,3.411,8.739,7.8H65.261C65.758,56.611,69.479,53.2,74,53.2z M74,70.8c-4.521,0-8.242-3.411-8.739-7.8h17.479
				C82.242,67.389,78.521,70.8,74,70.8z"/>
		</g>
		<g>
			<polygon style="fill:#FFFFFF;" points="53.92,48 49,48 49,52.92 			"/>
		</g>
		<g>
			<circle style="fill:#3E948B;" cx="36" cy="62" r="3.3"/>
		</g>
		<g>
			<path style="fill:#FFFFFF;" d="M36,51c-6.075,0-11,4.925-11,11s4.925,11,11,11s11-4.925,11-11S42.075,51,36,51z M36,53.2
				c4.521,0,8.242,3.411,8.739,7.8H27.261C27.758,56.611,31.478,53.2,36,53.2z M36,70.8c-4.521,0-8.242-3.411-8.739-7.8h17.479
				C44.242,67.389,40.521,70.8,36,70.8z"/>
		</g>
	</g>
</g>
<g id="R-Green" style="display:none;">
	<g style="display:inline;">
		<circle style="fill:#87E0C8;" cx="55" cy="55" r="55"/>
	</g>
	<g style="display:inline;">
		<g>
			<path style="fill:#AAF0E9;" d="M87,40v36c0,1.21-1.79,3-4,3H27c-2.21,0-4-1.79-4-3V40c0-3.21,1.79-5,4-5h56
				C85.21,35,87,36.79,87,40z"/>
		</g>
		<g>
			<path style="fill:#D7FCF9;" d="M87,39v9H23v-9c0-2.21,1.79-4,4-4h56C85.21,35,87,36.79,87,39z"/>
		</g>
		<g>
			<rect x="49" y="48" style="fill:#D7FCF9;" width="12" height="31"/>
		</g>
		<g>
			<circle style="fill:#FFFFFF;" cx="70" cy="42" r="3"/>
		</g>
		<g>
			<path style="fill:#5DCFC3;" d="M70,40c1.104,0,2,0.896,2,2s-0.896,2-2,2s-2-0.896-2-2S68.896,40,70,40 M70,38
				c-2.206,0-4,1.794-4,4s1.794,4,4,4s4-1.794,4-4S72.206,38,70,38L70,38z"/>
		</g>
		<g>
			<circle style="fill:#FFFFFF;" cx="79" cy="42" r="3"/>
		</g>
		<g>
			<path style="fill:#5DCFC3;" d="M79,40c1.104,0,2,0.896,2,2s-0.896,2-2,2s-2-0.896-2-2S77.896,40,79,40 M79,38
				c-2.206,0-4,1.794-4,4s1.794,4,4,4s4-1.794,4-4S81.206,38,79,38L79,38z"/>
		</g>
		<g>
			<path style="fill:#D7FCF9;" d="M41,27h-1c-0.552,0-1,0.448-1,1v7h2V27z"/>
		</g>
		<g>
			<path style="fill:#D7FCF9;" d="M71,28c0-0.552-0.448-1-1-1h-1v8h2V28z"/>
		</g>
		<g>
			<rect x="41" y="27" style="fill:#0A3631;" width="28" height="4"/>
		</g>
		<g>
			<circle style="fill:#14635B;" cx="55" cy="58" r="2"/>
		</g>
		<g>
			<circle style="fill:#14635B;" cx="55" cy="66" r="2"/>
		</g>
		<g>
			<path style="fill:#FFFFFF;" d="M27.08,35c-2.21,0-4,1.79-4,4v9H54l13-13H27.08z"/>
		</g>
		<g>
			<rect x="47" y="40" style="fill:#00B8A5;" width="16" height="4"/>
		</g>
		<g>
			<polygon style="fill:#00D6C1;" points="62,40 47,40 47,44 58,44 			"/>
		</g>
		<g>
			<path style="fill:#D7FCF9;" d="M23,48v28c0,0.573,0.41,1.272,1.067,1.853L53.92,48H23z"/>
		</g>
		<g>
			<rect x="29" y="40" style="fill:#009687;" width="2" height="4"/>
		</g>
		<g>
			<rect x="33" y="40" style="fill:#00B8A5;" width="2" height="4"/>
		</g>
		<g>
			<rect x="37" y="40" style="fill:#00D6C1;" width="2" height="4"/>
		</g>
		<g>
			<circle style="fill:#0A3631;" cx="36" cy="62" r="8.8"/>
		</g>
		<g>
			<path style="fill:#AAF0E9;" d="M74,51c-6.075,0-11,4.925-11,11c0,4.044,2.189,7.569,5.44,9.48l15.04-15.04
				C81.569,53.189,78.044,51,74,51z"/>
		</g>
		<g>
			<circle style="fill:#0A3631;" cx="74" cy="62" r="8.8"/>
		</g>
		<g>
			<circle style="fill:#3E948B;" cx="74" cy="62" r="3.3"/>
		</g>
		<g>
			<path style="fill:#FFFFFF;" d="M74,51c-6.075,0-11,4.925-11,11s4.925,11,11,11s11-4.925,11-11S80.075,51,74,51z M74,53.2
				c4.521,0,8.242,3.411,8.739,7.8H65.261C65.758,56.611,69.479,53.2,74,53.2z M74,70.8c-4.521,0-8.242-3.411-8.739-7.8h17.479
				C82.242,67.389,78.521,70.8,74,70.8z"/>
		</g>
		<g>
			<polygon style="fill:#FFFFFF;" points="53.92,48 49,48 49,52.92 			"/>
		</g>
		<g>
			<circle style="fill:#3E948B;" cx="36" cy="62" r="3.3"/>
		</g>
		<g>
			<path style="fill:#FFFFFF;" d="M36,51c-6.075,0-11,4.925-11,11s4.925,11,11,11s11-4.925,11-11S42.075,51,36,51z M36,53.2
				c4.521,0,8.242,3.411,8.739,7.8H27.261C27.758,56.611,31.479,53.2,36,53.2z M36,70.8c-4.521,0-8.242-3.411-8.739-7.8h17.479
				C44.242,67.389,40.521,70.8,36,70.8z"/>
		</g>
	</g>
</g>
<g id="Red" style="display:none;">
	<g style="display:inline;">
		<g>
			<path style="fill:#FFD7D4;" d="M87,40v36c0,1.21-1.79,3-4,3H27c-2.21,0-4-1.79-4-3V40c0-3.21,1.79-5,4-5h56
				C85.21,35,87,36.79,87,40z"/>
		</g>
		<g>
			<path style="fill:#FFEFED;" d="M87,39v9H23v-9c0-2.21,1.79-4,4-4h56C85.21,35,87,36.79,87,39z"/>
		</g>
		<g>
			<rect x="49" y="48" style="fill:#FFEFED;" width="12" height="31"/>
		</g>
		<g>
			<circle style="fill:#FFFFFF;" cx="70" cy="42" r="3"/>
		</g>
		<g>
			<path style="fill:#E8A099;" d="M70,40c1.104,0,2,0.896,2,2s-0.896,2-2,2s-2-0.896-2-2S68.896,40,70,40 M70,38
				c-2.206,0-4,1.794-4,4s1.794,4,4,4s4-1.794,4-4S72.206,38,70,38L70,38z"/>
		</g>
		<g>
			<circle style="fill:#FFFFFF;" cx="79" cy="42" r="3"/>
		</g>
		<g>
			<path style="fill:#E8A099;" d="M79,40c1.104,0,2,0.896,2,2s-0.896,2-2,2s-2-0.896-2-2S77.896,40,79,40 M79,38
				c-2.206,0-4,1.794-4,4s1.794,4,4,4s4-1.794,4-4S81.206,38,79,38L79,38z"/>
		</g>
		<g>
			<path style="fill:#FFEFED;" d="M41,27h-1c-0.552,0-1,0.448-1,1v7h2V27z"/>
		</g>
		<g>
			<path style="fill:#FFEFED;" d="M71,28c0-0.552-0.448-1-1-1h-1v8h2V28z"/>
		</g>
		<g>
			<rect x="41" y="27" style="fill:#4A1410;" width="28" height="4"/>
		</g>
		<g>
			<circle style="fill:#7D261E;" cx="55" cy="58" r="2"/>
		</g>
		<g>
			<circle style="fill:#7D261E;" cx="55" cy="66" r="2"/>
		</g>
		<g>
			<path style="fill:#FFFFFF;" d="M27.08,35c-2.21,0-4,1.79-4,4v9H54l13-13H27.08z"/>
		</g>
		<g>
			<rect x="47" y="40" style="fill:#E54B44;" width="16" height="4"/>
		</g>
		<g>
			<polygon style="fill:#FF6C5E;" points="62,40 47,40 47,44 58,44 			"/>
		</g>
		<g>
			<path style="fill:#FFEFED;" d="M23,48v28c0,0.573,0.41,1.272,1.067,1.853L53.92,48H23z"/>
		</g>
		<g>
			<rect x="29" y="40" style="fill:#C23023;" width="2" height="4"/>
		</g>
		<g>
			<rect x="33" y="40" style="fill:#E54B44;" width="2" height="4"/>
		</g>
		<g>
			<rect x="37" y="40" style="fill:#FF6C5E;" width="2" height="4"/>
		</g>
		<g>
			<circle style="fill:#4A1410;" cx="36" cy="62" r="8.8"/>
		</g>
		<g>
			<path style="fill:#FFD7D4;" d="M74,51c-6.075,0-11,4.925-11,11c0,4.044,2.189,7.569,5.44,9.48l15.04-15.04
				C81.569,53.189,78.044,51,74,51z"/>
		</g>
		<g>
			<circle style="fill:#4A1410;" cx="74" cy="62" r="8.8"/>
		</g>
		<g>
			<circle style="fill:#B84E44;" cx="74" cy="62" r="3.3"/>
		</g>
		<g>
			<path style="fill:#FFFFFF;" d="M74,51c-6.075,0-11,4.925-11,11s4.925,11,11,11s11-4.925,11-11S80.075,51,74,51z M74,53.2
				c4.521,0,8.242,3.411,8.739,7.8H65.261C65.758,56.611,69.479,53.2,74,53.2z M74,70.8c-4.521,0-8.242-3.411-8.739-7.8h17.479
				C82.242,67.389,78.521,70.8,74,70.8z"/>
		</g>
		<g>
			<polygon style="fill:#FFFFFF;" points="53.92,48 49,48 49,52.92 			"/>
		</g>
		<g>
			<circle style="fill:#B84E44;" cx="36" cy="62" r="3.3"/>
		</g>
		<g>
			<path style="fill:#FFFFFF;" d="M36,51c-6.075,0-11,4.925-11,11s4.925,11,11,11s11-4.925,11-11S42.075,51,36,51z M36,53.2
				c4.521,0,8.242,3.411,8.739,7.8H27.261C27.758,56.611,31.479,53.2,36,53.2z M36,70.8c-4.521,0-8.242-3.411-8.739-7.8h17.479
				C44.242,67.389,40.521,70.8,36,70.8z"/>
		</g>
	</g>
</g>
<g id="R-Red" style="display:none;">
	<g style="display:inline;">
		<circle style="fill:#FABBAF;" cx="55" cy="55" r="55"/>
	</g>
	<g style="display:inline;">
		<g>
			<path style="fill:#FFD7D4;" d="M87,40v36c0,1.21-1.79,3-4,3H27c-2.21,0-4-1.79-4-3V40c0-3.21,1.79-5,4-5h56
				C85.21,35,87,36.79,87,40z"/>
		</g>
		<g>
			<path style="fill:#FFEFED;" d="M87,39v9H23v-9c0-2.21,1.79-4,4-4h56C85.21,35,87,36.79,87,39z"/>
		</g>
		<g>
			<rect x="49" y="48" style="fill:#FFEFED;" width="12" height="31"/>
		</g>
		<g>
			<circle style="fill:#FFFFFF;" cx="70" cy="42" r="3"/>
		</g>
		<g>
			<path style="fill:#E8A099;" d="M70,40c1.104,0,2,0.896,2,2s-0.896,2-2,2s-2-0.896-2-2S68.896,40,70,40 M70,38
				c-2.206,0-4,1.794-4,4s1.794,4,4,4c2.206,0,4-1.794,4-4S72.206,38,70,38L70,38z"/>
		</g>
		<g>
			<circle style="fill:#FFFFFF;" cx="79" cy="42" r="3"/>
		</g>
		<g>
			<path style="fill:#E8A099;" d="M79,40c1.104,0,2,0.896,2,2s-0.896,2-2,2s-2-0.896-2-2S77.896,40,79,40 M79,38
				c-2.206,0-4,1.794-4,4s1.794,4,4,4c2.206,0,4-1.794,4-4S81.206,38,79,38L79,38z"/>
		</g>
		<g>
			<path style="fill:#FFEFED;" d="M41,27h-1c-0.552,0-1,0.448-1,1v7h2V27z"/>
		</g>
		<g>
			<path style="fill:#FFEFED;" d="M71,28c0-0.552-0.448-1-1-1h-1v8h2V28z"/>
		</g>
		<g>
			<rect x="41" y="27" style="fill:#4A1410;" width="28" height="4"/>
		</g>
		<g>
			<circle style="fill:#7D261E;" cx="55" cy="58" r="2"/>
		</g>
		<g>
			<circle style="fill:#7D261E;" cx="55" cy="66" r="2"/>
		</g>
		<g>
			<path style="fill:#FFFFFF;" d="M27.08,35c-2.21,0-4,1.79-4,4v9H54l13-13H27.08z"/>
		</g>
		<g>
			<rect x="47" y="40" style="fill:#E54B44;" width="16" height="4"/>
		</g>
		<g>
			<polygon style="fill:#FF6C5E;" points="62,40 47,40 47,44 58,44 			"/>
		</g>
		<g>
			<path style="fill:#FFEFED;" d="M23,48v28c0,0.573,0.41,1.272,1.067,1.853L53.92,48H23z"/>
		</g>
		<g>
			<rect x="29" y="40" style="fill:#C23023;" width="2" height="4"/>
		</g>
		<g>
			<rect x="33" y="40" style="fill:#E54B44;" width="2" height="4"/>
		</g>
		<g>
			<rect x="37" y="40" style="fill:#FF6C5E;" width="2" height="4"/>
		</g>
		<g>
			<circle style="fill:#4A1410;" cx="36" cy="62" r="8.8"/>
		</g>
		<g>
			<path style="fill:#FFD7D4;" d="M74,51c-6.075,0-11,4.925-11,11c0,4.044,2.189,7.569,5.44,9.48l15.04-15.04
				C81.569,53.189,78.044,51,74,51z"/>
		</g>
		<g>
			<circle style="fill:#4A1410;" cx="74" cy="62" r="8.8"/>
		</g>
		<g>
			<circle style="fill:#B84E44;" cx="74" cy="62" r="3.3"/>
		</g>
		<g>
			<path style="fill:#FFFFFF;" d="M74,51c-6.075,0-11,4.925-11,11s4.925,11,11,11c6.075,0,11-4.925,11-11S80.075,51,74,51z M74,53.2
				c4.521,0,8.242,3.411,8.739,7.8H65.261C65.758,56.611,69.479,53.2,74,53.2z M74,70.8c-4.521,0-8.242-3.411-8.739-7.8h17.479
				C82.242,67.389,78.521,70.8,74,70.8z"/>
		</g>
		<g>
			<polygon style="fill:#FFFFFF;" points="53.92,48 49,48 49,52.92 			"/>
		</g>
		<g>
			<circle style="fill:#B84E44;" cx="36" cy="62" r="3.3"/>
		</g>
		<g>
			<path style="fill:#FFFFFF;" d="M36,51c-6.075,0-11,4.925-11,11s4.925,11,11,11s11-4.925,11-11S42.075,51,36,51z M36,53.2
				c4.521,0,8.242,3.411,8.739,7.8H27.261C27.758,56.611,31.478,53.2,36,53.2z M36,70.8c-4.521,0-8.242-3.411-8.739-7.8h17.479
				C44.242,67.389,40.521,70.8,36,70.8z"/>
		</g>
	</g>
</g>
<g id="Yellow" style="display:none;">
	<g style="display:inline;">
		<g>
			<path style="fill:#FFE9A1;" d="M87,40v36c0,1.21-1.79,3-4,3H27c-2.21,0-4-1.79-4-3V40c0-3.21,1.79-5,4-5h56
				C85.21,35,87,36.79,87,40z"/>
		</g>
		<g>
			<path style="fill:#FFF5D9;" d="M87,39v9H23v-9c0-2.21,1.79-4,4-4h56C85.21,35,87,36.79,87,39z"/>
		</g>
		<g>
			<rect x="49" y="48" style="fill:#FFF5D9;" width="12" height="31"/>
		</g>
		<g>
			<circle style="fill:#FFFFFF;" cx="70" cy="42" r="3"/>
		</g>
		<g>
			<path style="fill:#F5C43D;" d="M70,40c1.104,0,2,0.895,2,2c0,1.104-0.896,2-2,2s-2-0.896-2-2C68,40.895,68.896,40,70,40 M70,38
				c-2.206,0-4,1.794-4,4c0,2.206,1.794,4,4,4c2.206,0,4-1.794,4-4C74,39.794,72.206,38,70,38L70,38z"/>
		</g>
		<g>
			<circle style="fill:#FFFFFF;" cx="79" cy="42" r="3"/>
		</g>
		<g>
			<path style="fill:#F5C43D;" d="M79,40c1.104,0,2,0.895,2,2c0,1.104-0.896,2-2,2s-2-0.896-2-2C77,40.895,77.896,40,79,40 M79,38
				c-2.206,0-4,1.794-4,4c0,2.206,1.794,4,4,4c2.206,0,4-1.794,4-4C83,39.794,81.206,38,79,38L79,38z"/>
		</g>
		<g>
			<path style="fill:#FFF5D9;" d="M41,27h-1c-0.552,0-1,0.448-1,1v7h2V27z"/>
		</g>
		<g>
			<path style="fill:#FFF5D9;" d="M71,28c0-0.552-0.448-1-1-1h-1v8h2V28z"/>
		</g>
		<g>
			<rect x="41" y="27" style="fill:#3D320C;" width="28" height="4"/>
		</g>
		<g>
			<circle style="fill:#66510D;" cx="55" cy="58" r="2"/>
		</g>
		<g>
			<circle style="fill:#66510D;" cx="55" cy="66" r="2"/>
		</g>
		<g>
			<path style="fill:#FFFFFF;" d="M27.08,35c-2.21,0-4,1.79-4,4v9H54l13-13H27.08z"/>
		</g>
		<g>
			<rect x="47" y="40" style="fill:#FA9200;" width="16" height="4"/>
		</g>
		<g>
			<polygon style="fill:#FFAA00;" points="62,40 47,40 47,44 58,44 			"/>
		</g>
		<g>
			<path style="fill:#FFF5D9;" d="M23,48v28c0,0.573,0.41,1.272,1.067,1.853L53.92,48H23z"/>
		</g>
		<g>
			<rect x="29" y="40" style="fill:#E07000;" width="2" height="4"/>
		</g>
		<g>
			<rect x="33" y="40" style="fill:#FA9200;" width="2" height="4"/>
		</g>
		<g>
			<rect x="37" y="40" style="fill:#FFAA00;" width="2" height="4"/>
		</g>
		<g>
			<circle style="fill:#3D320C;" cx="36" cy="62" r="8.8"/>
		</g>
		<g>
			<path style="fill:#FFE9A1;" d="M74,51c-6.075,0-11,4.925-11,11c0,4.044,2.189,7.569,5.44,9.48l15.04-15.04
				C81.569,53.189,78.044,51,74,51z"/>
		</g>
		<g>
			<circle style="fill:#3D320C;" cx="74" cy="62" r="8.8"/>
		</g>
		<g>
			<circle style="fill:#947615;" cx="74" cy="62" r="3.3"/>
		</g>
		<g>
			<path style="fill:#FFFFFF;" d="M74,51c-6.075,0-11,4.925-11,11c0,6.075,4.925,11,11,11c6.075,0,11-4.925,11-11
				C85,55.924,80.075,51,74,51z M74,53.2c4.521,0,8.242,3.411,8.739,7.8H65.261C65.758,56.611,69.479,53.2,74,53.2z M74,70.799
				c-4.521,0-8.242-3.411-8.739-7.8h17.479C82.242,67.388,78.521,70.799,74,70.799z"/>
		</g>
		<g>
			<polygon style="fill:#FFFFFF;" points="53.92,48 49,48 49,52.92 			"/>
		</g>
		<g>
			<circle style="fill:#947615;" cx="36" cy="62" r="3.3"/>
		</g>
		<g>
			<path style="fill:#FFFFFF;" d="M36,51c-6.075,0-11,4.925-11,11c0,6.075,4.925,11,11,11s11-4.925,11-11C47,55.924,42.075,51,36,51
				z M36,53.2c4.521,0,8.242,3.411,8.739,7.8H27.261C27.758,56.611,31.479,53.2,36,53.2z M36,70.799c-4.521,0-8.242-3.411-8.739-7.8
				h17.479C44.242,67.388,40.521,70.799,36,70.799z"/>
		</g>
	</g>
</g>
<g id="R-Yellow" style="display:none;">
	<g style="display:inline;">
		<circle style="fill:#FFD75E;" cx="55" cy="55" r="55"/>
	</g>
	<g style="display:inline;">
		<g>
			<path style="fill:#FFE9A1;" d="M87,40v36c0,1.21-1.79,3-4,3H27c-2.21,0-4-1.79-4-3V40c0-3.21,1.79-5,4-5h56
				C85.21,35,87,36.79,87,40z"/>
		</g>
		<g>
			<path style="fill:#FFF5D9;" d="M87,39v9H23v-9c0-2.21,1.79-4,4-4h56C85.21,35,87,36.79,87,39z"/>
		</g>
		<g>
			<rect x="49" y="48" style="fill:#FFF5D9;" width="12" height="31"/>
		</g>
		<g>
			<circle style="fill:#FFFFFF;" cx="70" cy="42" r="3"/>
		</g>
		<g>
			<path style="fill:#F5C43D;" d="M70,40c1.104,0,2,0.896,2,2s-0.896,2-2,2s-2-0.896-2-2S68.896,40,70,40 M70,38
				c-2.206,0-4,1.794-4,4s1.794,4,4,4c2.206,0,4-1.794,4-4S72.206,38,70,38L70,38z"/>
		</g>
		<g>
			<circle style="fill:#FFFFFF;" cx="79" cy="42" r="3"/>
		</g>
		<g>
			<path style="fill:#F5C43D;" d="M79,40c1.104,0,2,0.896,2,2s-0.896,2-2,2s-2-0.896-2-2S77.896,40,79,40 M79,38
				c-2.206,0-4,1.794-4,4s1.794,4,4,4c2.206,0,4-1.794,4-4S81.206,38,79,38L79,38z"/>
		</g>
		<g>
			<path style="fill:#FFF5D9;" d="M41,27h-1c-0.552,0-1,0.448-1,1v7h2V27z"/>
		</g>
		<g>
			<path style="fill:#FFF5D9;" d="M71,28c0-0.552-0.448-1-1-1h-1v8h2V28z"/>
		</g>
		<g>
			<rect x="41" y="27" style="fill:#3D320C;" width="28" height="4"/>
		</g>
		<g>
			<circle style="fill:#66510D;" cx="55" cy="58" r="2"/>
		</g>
		<g>
			<circle style="fill:#66510D;" cx="55" cy="66" r="2"/>
		</g>
		<g>
			<path style="fill:#FFFFFF;" d="M27.08,35c-2.21,0-4,1.79-4,4v9H54l13-13H27.08z"/>
		</g>
		<g>
			<rect x="47" y="40" style="fill:#FA9200;" width="16" height="4"/>
		</g>
		<g>
			<polygon style="fill:#FFAA00;" points="62,40 47,40 47,44 58,44 			"/>
		</g>
		<g>
			<path style="fill:#FFF5D9;" d="M23,48v28c0,0.573,0.41,1.272,1.067,1.853L53.92,48H23z"/>
		</g>
		<g>
			<rect x="29" y="40" style="fill:#E07000;" width="2" height="4"/>
		</g>
		<g>
			<rect x="33" y="40" style="fill:#FA9200;" width="2" height="4"/>
		</g>
		<g>
			<rect x="37" y="40" style="fill:#FFAA00;" width="2" height="4"/>
		</g>
		<g>
			<circle style="fill:#3D320C;" cx="36" cy="62" r="8.8"/>
		</g>
		<g>
			<path style="fill:#FFE9A1;" d="M74,51c-6.075,0-11,4.925-11,11c0,4.044,2.189,7.569,5.44,9.48l15.04-15.04
				C81.569,53.189,78.044,51,74,51z"/>
		</g>
		<g>
			<circle style="fill:#3D320C;" cx="74" cy="62" r="8.8"/>
		</g>
		<g>
			<circle style="fill:#947615;" cx="74" cy="62" r="3.3"/>
		</g>
		<g>
			<path style="fill:#FFFFFF;" d="M74,51c-6.075,0-11,4.925-11,11s4.925,11,11,11c6.075,0,11-4.925,11-11S80.075,51,74,51z M74,53.2
				c4.521,0,8.242,3.411,8.739,7.8H65.261C65.758,56.611,69.479,53.2,74,53.2z M74,70.8c-4.521,0-8.242-3.411-8.739-7.8h17.479
				C82.242,67.389,78.521,70.8,74,70.8z"/>
		</g>
		<g>
			<polygon style="fill:#FFFFFF;" points="53.92,48 49,48 49,52.92 			"/>
		</g>
		<g>
			<circle style="fill:#947615;" cx="36" cy="62" r="3.3"/>
		</g>
		<g>
			<path style="fill:#FFFFFF;" d="M36,51c-6.075,0-11,4.925-11,11s4.925,11,11,11s11-4.925,11-11S42.075,51,36,51z M36,53.2
				c4.521,0,8.242,3.411,8.739,7.8H27.261C27.758,56.611,31.478,53.2,36,53.2z M36,70.8c-4.521,0-8.242-3.411-8.739-7.8h17.479
				C44.242,67.389,40.521,70.8,36,70.8z"/>
		</g>
	</g>
</g>
</svg>
