<?xml version="1.0" encoding="iso-8859-1"?>
<!-- Generator: Adobe Illustrator 17.1.0, SVG Export Plug-In . SVG Version: 6.00 Build 0)  -->
<!DOCTYPE svg PUBLIC "-//W3C//DTD SVG 1.0//EN" "http://www.w3.org/TR/2001/REC-SVG-20010904/DTD/svg10.dtd">
<svg version="1.0" xmlns="http://www.w3.org/2000/svg" xmlns:xlink="http://www.w3.org/1999/xlink" x="0px" y="0px" width="110px"
	 height="110px" viewBox="0 0 110 110" style="enable-background:new 0 0 110 110;" xml:space="preserve">
<g id="Artboard" style="display:none;">
	<rect x="-558.5" y="-25.5" style="display:inline;fill:#808080;stroke:#000000;stroke-miterlimit:10;" width="1335" height="316"/>
</g>
<g id="R-Multicolor" style="display:none;">
	<g style="display:inline;">
		<circle style="fill:#FABC3D;" cx="55" cy="55" r="55"/>
	</g>
	<g style="display:inline;">
		<path style="fill:#BF8662;" d="M50.105,66.996L45,63v6l-14.957,4.017C28.698,73.606,27.615,74.667,27,76l-4,11h32V68h-2.655
			C51.489,68,50.674,67.635,50.105,66.996z"/>
		<path style="fill:#AF7653;" d="M83,76c-0.615-1.333-1.698-2.394-3.043-2.983L65,69v-6l-5.105,3.996
			C59.326,67.635,58.511,68,57.655,68H55v19h32L83,76z"/>
		<path style="fill:#BF8662;" d="M72,47.259c0-1.111-1-2.222-2-2.222s-1,1.111-1,1.111v-1.111c-0.018-9-1.024-15-14-15
			s-13.982,6-14,15V53l4,10l5.105,3.996C50.674,67.635,51.489,68,52.345,68H55h2.655c0.856,0,1.671-0.365,2.24-1.004L65,63
			l3.193-7.982C71.039,54.827,72,50.518,72,47.259z"/>
		<path style="fill:#CC9978;" d="M41,45.036v1.111c0,0,0-1.111-1-1.111s-2,1.111-2,2.222c0,3.259,0.961,7.568,3.807,7.76L45,63
			l5.105,3.996C50.674,67.635,51.489,68,52.345,68H55V30.036C42.024,30.036,41.018,36.036,41,45.036z"/>
		<g>
			<path style="fill:#84462D;" d="M50,57.036h10c0,0,0,3-5,3S50,57.036,50,57.036z"/>
		</g>
		<path style="fill:#FFFFFF;" d="M74,71c0,0-2.886-0.612-4-1c-1.178,10.274-3.681,12.001-15,12.001S41.178,80.274,40,70
			c-1.114,0.388-4,1-4,1l-2,16h21h21L74,71z"/>
		<g>
			<path style="fill:none;" d="M25.506,77.564c0.007-0.008,0.014-0.015,0.02-0.023c-0.005,0.001-0.008,0.001-0.013,0.001
				C25.51,77.55,25.509,77.556,25.506,77.564z"/>
		</g>
		<g>
			<g>
				<path style="fill:#FACB1B;" d="M55.147,82.57L43.623,69.365c-0.182-0.208-0.16-0.524,0.048-0.706
					c0.208-0.182,0.524-0.16,0.705,0.048l10.76,12.33l10.482-12.325c0.179-0.21,0.494-0.236,0.705-0.057
					c0.21,0.179,0.236,0.494,0.057,0.705L55.147,82.57z"/>
			</g>
		</g>
		<g>
			<circle style="fill:#FACB1B;" cx="55" cy="82.911" r="4"/>
		</g>
		<g>
			<rect x="70.142" y="50.804" style="fill:#F3B607;" width="3" height="3"/>
		</g>
		<g>
			<g>
				<path style="fill:#FBEC9A;" d="M57.178,81.539c0,0.269-0.155,0.489-0.432,0.489c-0.44,0-0.757-0.823-1.507-0.823
					c-0.236,0-0.44,0.114-0.44,0.375c0,0.782,2.484,0.318,2.484,2.191c0,1.067-1.156,1.637-1.751,1.686
					c-0.195,0.016-0.171,0.081-0.171,0.277c0,0.399-0.024,0.391-0.423,0.391c-0.375,0-0.472,0.057-0.472-0.358
					c0-0.13,0.041-0.285-0.122-0.301c-0.309-0.041-0.945-0.179-1.181-0.35c-0.285-0.212-0.448-0.937-0.448-1.262
					c0-0.187,0.081-0.383,0.293-0.383c0.562,0,0.448,1.14,1.71,1.14c0.179,0,0.595-0.081,0.595-0.35
					c0-0.244-0.073-0.293-0.953-0.611c-0.741-0.261-1.515-0.774-1.515-1.653c0-0.814,0.66-1.466,1.433-1.621
					c0.212-0.041,0.187-0.065,0.187-0.285c0-0.407,0.024-0.391,0.423-0.391c0.383,0,0.472-0.057,0.472,0.358
					c0,0.114-0.041,0.277,0.106,0.309c0.106,0.016,0.513,0.122,0.562,0.122c0.098,0,0.22-0.081,0.366-0.081
					C56.698,80.407,57.178,81.034,57.178,81.539z"/>
			</g>
		</g>
		<g>
			<polygon style="fill:#FBE158;" points="70.142,53.804 73.142,50.804 70.142,50.804 			"/>
		</g>
		<g>
			<g>
				<path style="fill:#3E3E3F;" d="M63,42.036h-8h-8c0,0-6-0.582-6,4c0,4,3,7,6,7c5.324,0,5.379-5,8-5c2.623,0,2.674,5,8,5
					c3,0,6-3,6-7C69,41.455,63,42.036,63,42.036z M55.933,46.136h-1.867c0,0,0-1.867-1.853-2.099H55h2.786
					C55.933,44.269,55.933,46.136,55.933,46.136z"/>
			</g>
			<g>
				<g>
					<path style="fill:#5B5C5F;" d="M47.467,44.285c0,0-4.6-0.39-4.6,2.678c0,1.568,0.791,2.903,1.906,3.743l6.617-6.421H47.467z"/>
				</g>
			</g>
			<g>
				<g>
					<path style="fill:#5B5C5F;" d="M62.4,44.285c0,0-4.6-0.39-4.6,2.678c0,1.568,0.791,2.903,1.906,3.743l6.617-6.421H62.4z"/>
				</g>
			</g>
		</g>
		<g>
			<g>
				<path style="fill:#FA5655;" d="M42.964,35.799l-8.622,2.707c-2.355,0.878-2.368,2.348-0.029,3.267l5.915,2.324
					c8.511,3.234,19.745,2.632,26.858-1.759L42.964,35.799z"/>
			</g>
			<g>
				<path style="fill:#3E3E3F;" d="M69.995,33.156c0.272-1.732-10.731-7.649-13.419-8.071s-14.078,1.983-14.35,3.714l-2.161,7.921
					c-0.272,1.732,6.125,4.173,14.288,5.454c8.163,1.281,15,0.915,15.272-0.816L69.995,33.156z"/>
			</g>
			<g>
				<path style="fill:#F3B607;" d="M49.54,31.324c0,0-2.828,0.474-3.109,2.266c-0.281,1.792,1.985,4.9,1.985,4.9
					s3.109-2.266,3.39-4.057C52.087,32.641,49.54,31.324,49.54,31.324z"/>
			</g>
		</g>
	</g>
</g>
<g id="Multicolor">
	<g>
		<path style="fill:#BF8662;" d="M50.105,66.996L45,63v6l-14.957,4.017C28.698,73.606,27.615,74.667,27,76l-4,11h32V68h-2.655
			C51.489,68,50.674,67.635,50.105,66.996z"/>
		<path style="fill:#AF7653;" d="M83,76c-0.615-1.333-1.698-2.394-3.043-2.983L65,69v-6l-5.105,3.996
			C59.326,67.635,58.511,68,57.655,68H55v19h32L83,76z"/>
		<path style="fill:#BF8662;" d="M72,47.259c0-1.111-1-2.222-2-2.222s-1,1.111-1,1.111v-1.111c-0.018-9-1.024-15-14-15
			s-13.982,6-14,15V53l4,10l5.105,3.996C50.674,67.635,51.489,68,52.345,68H55h2.655c0.856,0,1.671-0.365,2.24-1.004L65,63
			l3.193-7.982C71.039,54.827,72,50.518,72,47.259z"/>
		<path style="fill:#CC9978;" d="M41,45.036v1.111c0,0,0-1.111-1-1.111s-2,1.111-2,2.222c0,3.259,0.961,7.568,3.807,7.76L45,63
			l5.105,3.996C50.674,67.635,51.489,68,52.345,68H55V30.036C42.024,30.036,41.018,36.036,41,45.036z"/>
		<g>
			<path style="fill:#84462D;" d="M50,57.036h10c0,0,0,3-5,3S50,57.036,50,57.036z"/>
		</g>
		<path style="fill:#FFFFFF;" d="M74,71c0,0-2.886-0.612-4-1c-1.178,10.274-3.681,12.001-15,12.001S41.178,80.274,40,70
			c-1.114,0.388-4,1-4,1l-2,16h21h21L74,71z"/>
		<g>
			<path style="fill:none;" d="M25.506,77.564c0.007-0.008,0.014-0.015,0.02-0.023c-0.005,0.001-0.008,0.001-0.013,0.001
				C25.51,77.55,25.509,77.556,25.506,77.564z"/>
		</g>
		<g>
			<g>
				<path style="fill:#FACB1B;" d="M55.147,82.57L43.623,69.365c-0.182-0.208-0.16-0.524,0.048-0.706
					c0.208-0.182,0.524-0.16,0.705,0.048l10.76,12.33l10.482-12.325c0.179-0.21,0.494-0.236,0.705-0.057
					c0.21,0.179,0.236,0.494,0.057,0.705L55.147,82.57z"/>
			</g>
		</g>
		<g>
			<circle style="fill:#FACB1B;" cx="55" cy="82.911" r="4"/>
		</g>
		<g>
			<rect x="70.142" y="50.804" style="fill:#F3B607;" width="3" height="3"/>
		</g>
		<g>
			<g>
				<path style="fill:#FBEC9A;" d="M57.178,81.539c0,0.269-0.155,0.489-0.432,0.489c-0.44,0-0.757-0.823-1.507-0.823
					c-0.236,0-0.44,0.114-0.44,0.375c0,0.782,2.484,0.318,2.484,2.191c0,1.067-1.156,1.637-1.751,1.686
					c-0.195,0.016-0.171,0.081-0.171,0.277c0,0.399-0.024,0.391-0.423,0.391c-0.375,0-0.472,0.057-0.472-0.358
					c0-0.13,0.041-0.285-0.122-0.301c-0.309-0.041-0.945-0.179-1.181-0.35c-0.285-0.212-0.448-0.937-0.448-1.262
					c0-0.187,0.081-0.383,0.293-0.383c0.562,0,0.448,1.14,1.71,1.14c0.179,0,0.595-0.081,0.595-0.35
					c0-0.244-0.073-0.293-0.953-0.611c-0.741-0.261-1.515-0.774-1.515-1.653c0-0.814,0.66-1.466,1.433-1.621
					c0.212-0.041,0.187-0.065,0.187-0.285c0-0.407,0.024-0.391,0.423-0.391c0.383,0,0.472-0.057,0.472,0.358
					c0,0.114-0.041,0.277,0.106,0.309c0.106,0.016,0.513,0.122,0.562,0.122c0.098,0,0.22-0.081,0.366-0.081
					C56.698,80.407,57.178,81.034,57.178,81.539z"/>
			</g>
		</g>
		<g>
			<polygon style="fill:#FBE158;" points="70.142,53.804 73.142,50.804 70.142,50.804 			"/>
		</g>
		<g>
			<g>
				<path style="fill:#3E3E3F;" d="M63,42.036h-8h-8c0,0-6-0.582-6,4c0,4,3,7,6,7c5.324,0,5.379-5,8-5c2.623,0,2.674,5,8,5
					c3,0,6-3,6-7C69,41.455,63,42.036,63,42.036z M55.933,46.136h-1.867c0,0,0-1.867-1.853-2.099H55h2.786
					C55.933,44.269,55.933,46.136,55.933,46.136z"/>
			</g>
			<g>
				<g>
					<path style="fill:#5B5C5F;" d="M47.467,44.285c0,0-4.6-0.39-4.6,2.678c0,1.568,0.791,2.903,1.906,3.743l6.617-6.421H47.467z"/>
				</g>
			</g>
			<g>
				<g>
					<path style="fill:#5B5C5F;" d="M62.4,44.285c0,0-4.6-0.39-4.6,2.678c0,1.568,0.791,2.903,1.906,3.743l6.617-6.421H62.4z"/>
				</g>
			</g>
		</g>
		<g>
			<g>
				<path style="fill:#FA5655;" d="M42.964,35.799l-8.622,2.707c-2.355,0.878-2.368,2.348-0.029,3.267l5.915,2.324
					c8.511,3.234,19.745,2.632,26.858-1.759L42.964,35.799z"/>
			</g>
			<g>
				<path style="fill:#3E3E3F;" d="M69.995,33.156c0.272-1.732-10.731-7.649-13.419-8.071s-14.078,1.983-14.35,3.714l-2.161,7.921
					c-0.272,1.732,6.125,4.173,14.288,5.454c8.163,1.281,15,0.915,15.272-0.816L69.995,33.156z"/>
			</g>
			<g>
				<path style="fill:#F3B607;" d="M49.54,31.324c0,0-2.828,0.474-3.109,2.266c-0.281,1.792,1.985,4.9,1.985,4.9
					s3.109-2.266,3.39-4.057C52.087,32.641,49.54,31.324,49.54,31.324z"/>
			</g>
		</g>
	</g>
</g>
<g id="Blue" style="display:none;">
	<g style="display:inline;">
		<path style="fill:#37A4BF;" d="M50.105,66.996L45,63v6l-14.958,4.018C28.698,73.606,27.615,74.667,27,76l-4,11h32V68h-2.655
			C51.489,68,50.674,67.635,50.105,66.996z"/>
		<path style="fill:#33899E;" d="M83,76c-0.615-1.333-1.698-2.394-3.044-2.982L65,69v-6l-5.106,3.996
			C59.326,67.635,58.511,68,57.655,68H55v19h32L83,76z"/>
		<path style="fill:#37A4BF;" d="M72,47.259c0-1.111-1-2.223-2-2.223s-1,1.111-1,1.111v-1.111c-0.018-9-1.024-15-14-15
			c-12.976,0-13.982,6-14,15V53l4,10l5.105,3.996C50.674,67.635,51.489,68,52.345,68H55h2.655c0.856,0,1.671-0.365,2.24-1.004L65,63
			l3.193-7.981C71.039,54.827,72,50.518,72,47.259z"/>
		<path style="fill:#53BAD4;" d="M41,45.036v1.111c0,0,0-1.111-1-1.111s-2,1.111-2,2.223c0,3.259,0.961,7.568,3.807,7.76L45,63
			l5.105,3.996C50.674,67.635,51.489,68,52.345,68H55V30.036C42.024,30.036,41.018,36.036,41,45.036z"/>
		<g>
			<path style="fill:#0F6175;" d="M50,57.036h10c0,0,0,3-5,3S50,57.036,50,57.036z"/>
		</g>
		<path style="fill:#FFFFFF;" d="M74,71c0,0-2.886-0.612-4-1c-1.178,10.274-3.681,12.002-15,12.002S41.178,80.274,40,70
			c-1.114,0.388-4,1-4,1l-2,16h21h21L74,71z"/>
		<g>
			<path style="fill:none;" d="M25.506,77.565c0.006-0.008,0.014-0.016,0.02-0.024c-0.005,0.001-0.008,0.001-0.014,0.001
				C25.51,77.551,25.509,77.557,25.506,77.565z"/>
		</g>
		<g>
			<g>
				<path style="fill:#E1F5FA;" d="M55.146,82.57L43.623,69.365c-0.182-0.208-0.161-0.524,0.048-0.705
					c0.208-0.183,0.524-0.161,0.705,0.047l10.761,12.33l10.482-12.325c0.179-0.21,0.494-0.236,0.705-0.057
					c0.21,0.179,0.236,0.495,0.057,0.705L55.146,82.57z"/>
			</g>
		</g>
		<g>
			<circle style="fill:#00B7E5;" cx="55" cy="82.911" r="4"/>
		</g>
		<g>
			<rect x="70.142" y="50.804" style="fill:#BBE7F2;" width="3" height="3"/>
		</g>
		<g>
			<g>
				<path style="fill:#BBE7F2;" d="M57.178,81.539c0,0.269-0.154,0.489-0.432,0.489c-0.44,0-0.757-0.823-1.506-0.823
					c-0.236,0-0.44,0.114-0.44,0.375c0,0.781,2.484,0.317,2.484,2.19c0,1.067-1.156,1.637-1.751,1.686
					c-0.195,0.017-0.171,0.082-0.171,0.277c0,0.399-0.024,0.391-0.423,0.391c-0.375,0-0.472,0.057-0.472-0.358
					c0-0.13,0.041-0.285-0.122-0.301c-0.31-0.041-0.945-0.18-1.181-0.351c-0.285-0.212-0.448-0.937-0.448-1.263
					c0-0.187,0.081-0.382,0.293-0.382c0.562,0,0.448,1.14,1.71,1.14c0.18,0,0.595-0.081,0.595-0.35c0-0.245-0.073-0.294-0.953-0.611
					c-0.741-0.261-1.515-0.773-1.515-1.653c0-0.814,0.66-1.466,1.434-1.62c0.211-0.041,0.188-0.065,0.188-0.285
					c0-0.407,0.024-0.391,0.423-0.391c0.383,0,0.472-0.057,0.472,0.358c0,0.114-0.041,0.277,0.106,0.31
					c0.106,0.017,0.513,0.123,0.562,0.123c0.098,0,0.22-0.082,0.366-0.082C56.698,80.407,57.178,81.034,57.178,81.539z"/>
			</g>
		</g>
		<g>
			<polygon style="fill:#FFFFFF;" points="70.142,53.804 73.142,50.804 70.142,50.804 			"/>
		</g>
		<g>
			<g>
				<path style="fill:#0C333D;" d="M63,42.036h-8h-8c0,0-6-0.581-6,4c0,4,3,7,6,7c5.324,0,5.379-5,8-5c2.623,0,2.674,5,8,5
					c3,0,6-3,6-7C69,41.455,63,42.036,63,42.036z M55.933,46.136h-1.866c0,0,0-1.867-1.853-2.1H55h2.786
					C55.933,44.269,55.933,46.136,55.933,46.136z"/>
			</g>
			<g>
				<g>
					<path style="fill:#0F6175;" d="M47.467,44.285c0,0-4.6-0.39-4.6,2.678c0,1.568,0.791,2.903,1.906,3.743l6.617-6.421H47.467z"/>
				</g>
			</g>
			<g>
				<g>
					<path style="fill:#0F6175;" d="M62.4,44.285c0,0-4.6-0.39-4.6,2.678c0,1.568,0.791,2.903,1.907,3.743l6.617-6.421H62.4z"/>
				</g>
			</g>
		</g>
		<g>
			<path style="fill:#00B7E5;" d="M42.964,35.799l-8.622,2.707c-2.355,0.878-2.368,2.348-0.029,3.267l5.916,2.324
				c8.511,3.233,19.745,2.632,26.858-1.759L42.964,35.799z"/>
		</g>
		<g>
			<path style="fill:#0081A1;" d="M69.995,33.156c0.272-1.731-10.731-7.649-13.419-8.071c-2.687-0.421-14.078,1.983-14.35,3.715
				l-2.161,7.921c-0.271,1.731,6.125,4.174,14.288,5.454c8.163,1.281,15,0.915,15.271-0.816L69.995,33.156z"/>
		</g>
		<g>
			<path style="fill:#00B7E5;" d="M49.541,31.324c0,0-2.828,0.474-3.109,2.266c-0.281,1.791,1.984,4.9,1.984,4.9
				s3.109-2.266,3.39-4.058C52.087,32.641,49.541,31.324,49.541,31.324z"/>
		</g>
	</g>
</g>
<g id="R-Blue" style="display:none;">
	<g style="display:inline;">
		<circle style="fill:#81D2EB;" cx="55" cy="55" r="55"/>
	</g>
	<g style="display:inline;">
		<path style="fill:#37A4BF;" d="M50.105,66.996L45,63v6l-14.958,4.018C28.698,73.606,27.615,74.667,27,76l-4,11h32V68h-2.655
			C51.489,68,50.674,67.635,50.105,66.996z"/>
		<path style="fill:#33899E;" d="M83,76c-0.615-1.333-1.698-2.394-3.044-2.982L65,69v-6l-5.106,3.996
			C59.326,67.635,58.511,68,57.655,68H55v19h32L83,76z"/>
		<path style="fill:#37A4BF;" d="M72,47.259c0-1.111-1-2.223-2-2.223s-1,1.111-1,1.111v-1.111c-0.018-9-1.024-15-14-15
			c-12.976,0-13.982,6-14,15V53l4,10l5.105,3.996C50.674,67.635,51.489,68,52.345,68H55h2.655c0.856,0,1.671-0.365,2.24-1.004L65,63
			l3.193-7.981C71.039,54.827,72,50.518,72,47.259z"/>
		<path style="fill:#53BAD4;" d="M41,45.036v1.111c0,0,0-1.111-1-1.111s-2,1.111-2,2.223c0,3.259,0.961,7.568,3.807,7.76L45,63
			l5.105,3.996C50.674,67.635,51.489,68,52.345,68H55V30.036C42.024,30.036,41.018,36.036,41,45.036z"/>
		<g>
			<path style="fill:#0F6175;" d="M50,57.036h10c0,0,0,3-5,3S50,57.036,50,57.036z"/>
		</g>
		<path style="fill:#FFFFFF;" d="M74,71c0,0-2.886-0.612-4-1c-1.178,10.274-3.681,12.002-15,12.002
			c-11.319,0-13.822-1.728-15-12.002c-1.114,0.388-4,1-4,1l-2,16h21h21L74,71z"/>
		<g>
			<path style="fill:none;" d="M25.506,77.565c0.006-0.008,0.014-0.016,0.02-0.024c-0.005,0.001-0.008,0.001-0.014,0.001
				C25.51,77.551,25.509,77.557,25.506,77.565z"/>
		</g>
		<g>
			<g>
				<path style="fill:#E1F5FA;" d="M55.146,82.57L43.623,69.365c-0.182-0.208-0.161-0.524,0.048-0.705
					c0.208-0.183,0.524-0.161,0.705,0.047l10.761,12.33l10.482-12.325c0.179-0.21,0.494-0.236,0.705-0.057
					c0.21,0.179,0.236,0.495,0.057,0.705L55.146,82.57z"/>
			</g>
		</g>
		<g>
			<circle style="fill:#00B7E5;" cx="55" cy="82.911" r="4"/>
		</g>
		<g>
			<rect x="70.142" y="50.804" style="fill:#BBE7F2;" width="3" height="3"/>
		</g>
		<g>
			<g>
				<path style="fill:#BBE7F2;" d="M57.178,81.539c0,0.269-0.154,0.489-0.432,0.489c-0.44,0-0.757-0.823-1.506-0.823
					c-0.236,0-0.44,0.114-0.44,0.375c0,0.781,2.484,0.317,2.484,2.19c0,1.067-1.156,1.637-1.751,1.686
					c-0.195,0.017-0.171,0.082-0.171,0.277c0,0.399-0.024,0.391-0.423,0.391c-0.375,0-0.472,0.057-0.472-0.358
					c0-0.13,0.041-0.285-0.122-0.301c-0.31-0.041-0.945-0.18-1.181-0.351c-0.285-0.212-0.448-0.937-0.448-1.263
					c0-0.187,0.081-0.382,0.293-0.382c0.562,0,0.448,1.14,1.71,1.14c0.18,0,0.595-0.081,0.595-0.35c0-0.245-0.073-0.294-0.953-0.611
					c-0.741-0.261-1.515-0.773-1.515-1.653c0-0.814,0.66-1.466,1.434-1.62c0.211-0.041,0.188-0.065,0.188-0.285
					c0-0.407,0.024-0.391,0.423-0.391c0.383,0,0.472-0.057,0.472,0.358c0,0.114-0.041,0.277,0.106,0.31
					c0.106,0.017,0.513,0.123,0.562,0.123c0.098,0,0.22-0.082,0.366-0.082C56.698,80.407,57.178,81.034,57.178,81.539z"/>
			</g>
		</g>
		<g>
			<polygon style="fill:#FFFFFF;" points="70.142,53.804 73.142,50.804 70.142,50.804 			"/>
		</g>
		<g>
			<g>
				<path style="fill:#0C333D;" d="M63,42.036h-8h-8c0,0-6-0.581-6,4c0,4,3,7,6,7c5.324,0,5.379-5,8-5c2.623,0,2.674,5,8,5
					c3,0,6-3,6-7C69,41.455,63,42.036,63,42.036z M55.933,46.136h-1.866c0,0,0-1.867-1.853-2.1H55h2.786
					C55.933,44.269,55.933,46.136,55.933,46.136z"/>
			</g>
			<g>
				<g>
					<path style="fill:#0F6175;" d="M47.467,44.285c0,0-4.6-0.39-4.6,2.678c0,1.568,0.791,2.903,1.906,3.743l6.617-6.421H47.467z"/>
				</g>
			</g>
			<g>
				<g>
					<path style="fill:#0F6175;" d="M62.4,44.285c0,0-4.6-0.39-4.6,2.678c0,1.568,0.792,2.903,1.907,3.743l6.617-6.421H62.4z"/>
				</g>
			</g>
		</g>
		<g>
			<path style="fill:#00B7E5;" d="M42.964,35.799l-8.622,2.707c-2.355,0.878-2.368,2.348-0.029,3.267l5.915,2.324
				c8.511,3.233,19.745,2.632,26.858-1.759L42.964,35.799z"/>
		</g>
		<g>
			<path style="fill:#0081A1;" d="M69.995,33.156c0.272-1.731-10.731-7.649-13.419-8.071c-2.687-0.421-14.078,1.983-14.35,3.715
				l-2.161,7.921c-0.271,1.731,6.125,4.174,14.288,5.454c8.163,1.281,15,0.915,15.271-0.816L69.995,33.156z"/>
		</g>
		<g>
			<path style="fill:#00B7E5;" d="M49.54,31.324c0,0-2.828,0.474-3.109,2.266c-0.281,1.791,1.984,4.9,1.984,4.9
				s3.109-2.266,3.39-4.058C52.087,32.641,49.54,31.324,49.54,31.324z"/>
		</g>
	</g>
</g>
<g id="Green" style="display:none;">
	<g style="display:inline;">
		<path style="fill:#28B5A7;" d="M50.105,66.996L45,63v6l-14.958,4.018C28.698,73.606,27.615,74.667,27,76l-4,11h32V68h-2.655
			C51.489,68,50.674,67.635,50.105,66.996z"/>
		<path style="fill:#3E948B;" d="M83,76c-0.615-1.333-1.698-2.394-3.044-2.982L65,69v-6l-5.106,3.996
			C59.326,67.635,58.511,68,57.655,68H55v19h32L83,76z"/>
		<path style="fill:#28B5A7;" d="M72,47.259c0-1.111-1-2.223-2-2.223s-1,1.111-1,1.111v-1.111c-0.018-9-1.024-15-14-15
			c-12.976,0-13.982,6-14,15V53l4,10l5.105,3.996C50.674,67.635,51.489,68,52.345,68H55h2.655c0.856,0,1.671-0.365,2.24-1.004L65,63
			l3.193-7.981C71.039,54.827,72,50.518,72,47.259z"/>
		<path style="fill:#55C9BE;" d="M41,45.036v1.111c0,0,0-1.111-1-1.111s-2,1.111-2,2.223c0,3.259,0.961,7.568,3.807,7.76L45,63
			l5.105,3.996C50.674,67.635,51.489,68,52.345,68H55V30.036C42.024,30.036,41.018,36.036,41,45.036z"/>
		<g>
			<path style="fill:#14635B;" d="M50,57.036h10c0,0,0,3-5,3S50,57.036,50,57.036z"/>
		</g>
		<path style="fill:#FFFFFF;" d="M74,71c0,0-2.886-0.612-4-1c-1.178,10.274-3.681,12.002-15,12.002S41.178,80.274,40,70
			c-1.114,0.388-4,1-4,1l-2,16h21h21L74,71z"/>
		<g>
			<path style="fill:none;" d="M25.506,77.565c0.006-0.008,0.014-0.016,0.02-0.024c-0.005,0.001-0.008,0.001-0.014,0.001
				C25.51,77.551,25.509,77.557,25.506,77.565z"/>
		</g>
		<g>
			<g>
				<path style="fill:#D7FCF9;" d="M55.146,82.57L43.623,69.365c-0.182-0.208-0.161-0.524,0.048-0.705
					c0.208-0.183,0.524-0.161,0.705,0.047l10.761,12.33l10.482-12.325c0.179-0.21,0.494-0.236,0.705-0.057
					c0.21,0.179,0.236,0.495,0.057,0.705L55.146,82.57z"/>
			</g>
		</g>
		<g>
			<circle style="fill:#00D6C1;" cx="55" cy="82.911" r="4"/>
		</g>
		<g>
			<rect x="70.142" y="50.804" style="fill:#AAF0E9;" width="3" height="3"/>
		</g>
		<g>
			<g>
				<path style="fill:#AAF0E9;" d="M57.178,81.539c0,0.269-0.154,0.489-0.432,0.489c-0.44,0-0.757-0.823-1.506-0.823
					c-0.236,0-0.44,0.114-0.44,0.375c0,0.781,2.484,0.317,2.484,2.19c0,1.067-1.156,1.637-1.751,1.686
					c-0.195,0.017-0.171,0.082-0.171,0.277c0,0.399-0.024,0.391-0.423,0.391c-0.375,0-0.472,0.057-0.472-0.358
					c0-0.13,0.041-0.285-0.122-0.301c-0.31-0.041-0.945-0.18-1.181-0.351c-0.285-0.212-0.448-0.937-0.448-1.263
					c0-0.187,0.081-0.382,0.293-0.382c0.562,0,0.448,1.14,1.71,1.14c0.18,0,0.595-0.081,0.595-0.35c0-0.245-0.073-0.294-0.953-0.611
					c-0.741-0.261-1.515-0.773-1.515-1.653c0-0.814,0.66-1.466,1.434-1.62c0.211-0.041,0.188-0.065,0.188-0.285
					c0-0.407,0.024-0.391,0.423-0.391c0.383,0,0.472-0.057,0.472,0.358c0,0.114-0.041,0.277,0.106,0.31
					c0.106,0.017,0.513,0.123,0.562,0.123c0.098,0,0.22-0.082,0.366-0.082C56.698,80.407,57.178,81.034,57.178,81.539z"/>
			</g>
		</g>
		<g>
			<polygon style="fill:#FFFFFF;" points="70.142,53.804 73.142,50.804 70.142,50.804 			"/>
		</g>
		<g>
			<g>
				<path style="fill:#0A3631;" d="M63,42.036h-8h-8c0,0-6-0.581-6,4c0,4,3,7,6,7c5.324,0,5.379-5,8-5c2.623,0,2.674,5,8,5
					c3,0,6-3,6-7C69,41.455,63,42.036,63,42.036z M55.933,46.136h-1.866c0,0,0-1.867-1.853-2.1H55h2.786
					C55.933,44.269,55.933,46.136,55.933,46.136z"/>
			</g>
			<g>
				<g>
					<path style="fill:#14635B;" d="M47.467,44.285c0,0-4.6-0.39-4.6,2.678c0,1.568,0.791,2.903,1.906,3.743l6.617-6.421H47.467z"/>
				</g>
			</g>
			<g>
				<g>
					<path style="fill:#14635B;" d="M62.4,44.285c0,0-4.6-0.39-4.6,2.678c0,1.568,0.791,2.903,1.907,3.743l6.617-6.421H62.4z"/>
				</g>
			</g>
		</g>
		<g>
			<path style="fill:#00D6C1;" d="M42.964,35.799l-8.622,2.707c-2.355,0.878-2.368,2.348-0.029,3.267l5.916,2.324
				c8.511,3.233,19.745,2.632,26.858-1.759L42.964,35.799z"/>
		</g>
		<g>
			<path style="fill:#009687;" d="M69.995,33.156c0.272-1.731-10.731-7.649-13.419-8.071c-2.687-0.421-14.078,1.983-14.35,3.715
				l-2.161,7.921c-0.271,1.731,6.125,4.174,14.288,5.454c8.163,1.281,15,0.915,15.271-0.816L69.995,33.156z"/>
		</g>
		<g>
			<path style="fill:#00D6C1;" d="M49.541,31.324c0,0-2.828,0.474-3.109,2.266c-0.281,1.791,1.984,4.9,1.984,4.9
				s3.109-2.266,3.39-4.058C52.087,32.641,49.541,31.324,49.541,31.324z"/>
		</g>
	</g>
</g>
<g id="R-Green" style="display:none;">
	<g style="display:inline;">
		<circle style="fill:#77E0C4;" cx="55" cy="55" r="55"/>
	</g>
	<g style="display:inline;">
		<path style="fill:#28B5A7;" d="M50.105,66.996L45,63v6l-14.958,4.018C28.698,73.606,27.615,74.667,27,76l-4,11h32V68h-2.655
			C51.489,68,50.674,67.635,50.105,66.996z"/>
		<path style="fill:#3E948B;" d="M83,76c-0.615-1.333-1.698-2.394-3.044-2.982L65,69v-6l-5.106,3.996
			C59.326,67.635,58.511,68,57.655,68H55v19h32L83,76z"/>
		<path style="fill:#28B5A7;" d="M72,47.259c0-1.111-1-2.223-2-2.223s-1,1.111-1,1.111v-1.111c-0.018-9-1.024-15-14-15
			c-12.976,0-13.982,6-14,15V53l4,10l5.105,3.996C50.674,67.635,51.489,68,52.345,68H55h2.655c0.856,0,1.671-0.365,2.24-1.004L65,63
			l3.193-7.981C71.039,54.827,72,50.518,72,47.259z"/>
		<path style="fill:#55C9BE;" d="M41,45.036v1.111c0,0,0-1.111-1-1.111s-2,1.111-2,2.223c0,3.259,0.961,7.568,3.807,7.76L45,63
			l5.105,3.996C50.674,67.635,51.489,68,52.345,68H55V30.036C42.024,30.036,41.018,36.036,41,45.036z"/>
		<g>
			<path style="fill:#14635B;" d="M50,57.036h10c0,0,0,3-5,3S50,57.036,50,57.036z"/>
		</g>
		<path style="fill:#FFFFFF;" d="M74,71c0,0-2.886-0.612-4-1c-1.178,10.274-3.681,12.002-15,12.002S41.178,80.274,40,70
			c-1.114,0.388-4,1-4,1l-2,16h21h21L74,71z"/>
		<g>
			<path style="fill:none;" d="M25.506,77.565c0.006-0.008,0.014-0.016,0.02-0.024c-0.005,0.001-0.008,0.001-0.014,0.001
				C25.51,77.551,25.509,77.557,25.506,77.565z"/>
		</g>
		<g>
			<g>
				<path style="fill:#D7FCF9;" d="M55.146,82.57L43.623,69.365c-0.182-0.208-0.161-0.524,0.048-0.705
					c0.208-0.183,0.524-0.161,0.705,0.047l10.761,12.33l10.482-12.325c0.179-0.21,0.494-0.236,0.705-0.057
					c0.21,0.179,0.236,0.495,0.057,0.705L55.146,82.57z"/>
			</g>
		</g>
		<g>
			<circle style="fill:#00D6C1;" cx="55" cy="82.911" r="4"/>
		</g>
		<g>
			<rect x="70.142" y="50.804" style="fill:#AAF0E9;" width="3" height="3"/>
		</g>
		<g>
			<g>
				<path style="fill:#AAF0E9;" d="M57.178,81.539c0,0.269-0.154,0.489-0.432,0.489c-0.44,0-0.757-0.823-1.506-0.823
					c-0.236,0-0.44,0.114-0.44,0.375c0,0.781,2.484,0.317,2.484,2.19c0,1.067-1.156,1.637-1.751,1.686
					c-0.195,0.017-0.171,0.082-0.171,0.277c0,0.399-0.024,0.391-0.423,0.391c-0.375,0-0.472,0.057-0.472-0.358
					c0-0.13,0.041-0.285-0.122-0.301c-0.31-0.041-0.945-0.18-1.181-0.351c-0.285-0.212-0.448-0.937-0.448-1.263
					c0-0.187,0.081-0.382,0.293-0.382c0.562,0,0.448,1.14,1.71,1.14c0.18,0,0.595-0.081,0.595-0.35c0-0.245-0.073-0.294-0.953-0.611
					c-0.741-0.261-1.515-0.773-1.515-1.653c0-0.814,0.66-1.466,1.434-1.62c0.211-0.041,0.188-0.065,0.188-0.285
					c0-0.407,0.024-0.391,0.423-0.391c0.383,0,0.472-0.057,0.472,0.358c0,0.114-0.041,0.277,0.106,0.31
					c0.106,0.017,0.513,0.123,0.562,0.123c0.098,0,0.22-0.082,0.366-0.082C56.698,80.407,57.178,81.034,57.178,81.539z"/>
			</g>
		</g>
		<g>
			<polygon style="fill:#FFFFFF;" points="70.142,53.804 73.142,50.804 70.142,50.804 			"/>
		</g>
		<g>
			<g>
				<path style="fill:#0A3631;" d="M63,42.036h-8h-8c0,0-6-0.581-6,4c0,4,3,7,6,7c5.324,0,5.379-5,8-5c2.623,0,2.674,5,8,5
					c3,0,6-3,6-7C69,41.455,63,42.036,63,42.036z M55.933,46.136h-1.866c0,0,0-1.867-1.853-2.1H55h2.786
					C55.933,44.269,55.933,46.136,55.933,46.136z"/>
			</g>
			<g>
				<g>
					<path style="fill:#14635B;" d="M47.467,44.285c0,0-4.6-0.39-4.6,2.678c0,1.568,0.791,2.903,1.906,3.743l6.617-6.421H47.467z"/>
				</g>
			</g>
			<g>
				<g>
					<path style="fill:#14635B;" d="M62.4,44.285c0,0-4.6-0.39-4.6,2.678c0,1.568,0.791,2.903,1.907,3.743l6.617-6.421H62.4z"/>
				</g>
			</g>
		</g>
		<g>
			<path style="fill:#00D6C1;" d="M42.964,35.799l-8.622,2.707c-2.355,0.878-2.368,2.348-0.029,3.267l5.916,2.324
				c8.511,3.233,19.745,2.632,26.858-1.759L42.964,35.799z"/>
		</g>
		<g>
			<path style="fill:#009687;" d="M69.995,33.156c0.272-1.731-10.731-7.649-13.419-8.071c-2.687-0.421-14.078,1.983-14.35,3.715
				l-2.161,7.921c-0.271,1.731,6.125,4.174,14.288,5.454c8.163,1.281,15,0.915,15.271-0.816L69.995,33.156z"/>
		</g>
		<g>
			<path style="fill:#00D6C1;" d="M49.541,31.324c0,0-2.828,0.474-3.109,2.266c-0.281,1.791,1.984,4.9,1.984,4.9
				s3.109-2.266,3.39-4.058C52.087,32.641,49.541,31.324,49.541,31.324z"/>
		</g>
	</g>
</g>
<g id="Red" style="display:none;">
	<g style="display:inline;">
		<path style="fill:#DB7D74;" d="M50.105,67.06L45,63.065v6l-14.958,4.018c-1.345,0.588-2.427,1.649-3.042,2.982l-4,11h32v-19
			h-2.655C51.489,68.065,50.674,67.7,50.105,67.06z"/>
		<path style="fill:#B84E44;" d="M83,76.065c-0.615-1.333-1.698-2.395-3.044-2.982L65,69.065v-6l-5.106,3.996
			c-0.569,0.639-1.384,1.004-2.24,1.004H55v19h32L83,76.065z"/>
		<path style="fill:#DB7D74;" d="M72,47.324c0-1.111-1-2.223-2-2.223s-1,1.111-1,1.111v-1.111c-0.018-9-1.024-15-14-15
			c-12.976,0-13.982,6-14,15v7.964l4,10l5.105,3.996c0.569,0.639,1.384,1.004,2.24,1.004H55h2.655c0.856,0,1.671-0.365,2.24-1.004
			L65,63.065l3.193-7.981C71.039,54.892,72,50.582,72,47.324z"/>
		<path style="fill:#E8A099;" d="M41,45.101v1.111c0,0,0-1.111-1-1.111s-2,1.111-2,2.223c0,3.259,0.961,7.568,3.807,7.76L45,63.065
			l5.105,3.996c0.569,0.639,1.384,1.004,2.24,1.004H55V30.101C42.024,30.101,41.018,36.101,41,45.101z"/>
		<g>
			<path style="fill:#7D261E;" d="M50,57.101h10c0,0,0,3-5,3S50,57.101,50,57.101z"/>
		</g>
		<path style="fill:#FFFFFF;" d="M74,71.065c0,0-2.886-0.612-4-1c-1.178,10.274-3.681,12.002-15,12.002
			c-11.319,0-13.822-1.728-15-12.002c-1.114,0.388-4,1-4,1l-2,16h21h21L74,71.065z"/>
		<g>
			<path style="fill:none;" d="M25.506,77.629c0.006-0.008,0.014-0.016,0.02-0.023c-0.005,0.001-0.008,0.001-0.014,0.001
				C25.51,77.616,25.509,77.621,25.506,77.629z"/>
		</g>
		<g>
			<g>
				<path style="fill:#FFEFED;" d="M55.146,82.635L43.623,69.43c-0.182-0.208-0.161-0.524,0.048-0.705
					c0.208-0.183,0.524-0.161,0.705,0.047l10.761,12.33l10.482-12.325c0.179-0.21,0.494-0.236,0.705-0.057
					c0.21,0.179,0.236,0.495,0.057,0.705L55.146,82.635z"/>
			</g>
		</g>
		<g>
			<circle style="fill:#FF6C5E;" cx="55" cy="82.976" r="4"/>
		</g>
		<g>
			<rect x="70.142" y="50.868" style="fill:#FFD7D4;" width="3" height="3"/>
		</g>
		<g>
			<g>
				<path style="fill:#FFD7D4;" d="M57.178,81.604c0,0.269-0.154,0.489-0.432,0.489c-0.44,0-0.757-0.823-1.506-0.823
					c-0.236,0-0.44,0.114-0.44,0.375c0,0.781,2.484,0.317,2.484,2.19c0,1.067-1.156,1.637-1.751,1.686
					c-0.195,0.017-0.171,0.082-0.171,0.277c0,0.399-0.024,0.391-0.423,0.391c-0.375,0-0.472,0.057-0.472-0.358
					c0-0.13,0.041-0.285-0.122-0.301c-0.31-0.041-0.945-0.18-1.181-0.351c-0.285-0.212-0.448-0.937-0.448-1.263
					c0-0.187,0.081-0.382,0.293-0.382c0.562,0,0.448,1.14,1.71,1.14c0.18,0,0.595-0.081,0.595-0.35c0-0.245-0.073-0.294-0.953-0.611
					c-0.741-0.261-1.515-0.773-1.515-1.653c0-0.814,0.66-1.466,1.434-1.62c0.211-0.041,0.188-0.065,0.188-0.285
					c0-0.407,0.024-0.391,0.423-0.391c0.383,0,0.472-0.057,0.472,0.358c0,0.114-0.041,0.277,0.106,0.31
					c0.106,0.017,0.513,0.123,0.562,0.123c0.098,0,0.22-0.082,0.366-0.082C56.698,80.472,57.178,81.099,57.178,81.604z"/>
			</g>
		</g>
		<g>
			<polygon style="fill:#FFFFFF;" points="70.142,53.868 73.142,50.868 70.142,50.868 			"/>
		</g>
		<g>
			<g>
				<path style="fill:#4A1410;" d="M63,42.101h-8h-8c0,0-6-0.581-6,4c0,4,3,7,6,7c5.324,0,5.379-5,8-5c2.623,0,2.674,5,8,5
					c3,0,6-3,6-7C69,41.52,63,42.101,63,42.101z M55.933,46.2h-1.866c0,0,0-1.867-1.853-2.1H55h2.786
					C55.933,44.334,55.933,46.2,55.933,46.2z"/>
			</g>
			<g>
				<g>
					<path style="fill:#7D261E;" d="M47.467,44.35c0,0-4.6-0.39-4.6,2.678c0,1.568,0.791,2.903,1.906,3.743l6.617-6.421H47.467z"/>
				</g>
			</g>
			<g>
				<g>
					<path style="fill:#7D261E;" d="M62.4,44.35c0,0-4.6-0.39-4.6,2.678c0,1.568,0.792,2.903,1.907,3.743l6.617-6.421H62.4z"/>
				</g>
			</g>
		</g>
		<g>
			<path style="fill:#FF6C5E;" d="M42.964,35.864l-8.622,2.707c-2.355,0.878-2.368,2.348-0.029,3.267l5.915,2.324
				c8.511,3.233,19.745,2.632,26.858-1.759L42.964,35.864z"/>
		</g>
		<g>
			<path style="fill:#C23023;" d="M69.995,33.221c0.272-1.731-10.731-7.649-13.419-8.071c-2.687-0.421-14.078,1.983-14.35,3.715
				l-2.161,7.921c-0.271,1.731,6.125,4.174,14.288,5.454c8.163,1.281,15,0.915,15.271-0.816L69.995,33.221z"/>
		</g>
		<g>
			<path style="fill:#FF6C5E;" d="M49.54,31.388c0,0-2.828,0.474-3.109,2.266c-0.281,1.791,1.984,4.9,1.984,4.9
				s3.109-2.266,3.39-4.058C52.087,32.706,49.54,31.388,49.54,31.388z"/>
		</g>
	</g>
</g>
<g id="R-Red" style="display:none;">
	<g style="display:inline;">
		<circle style="fill:#FABBAF;" cx="55" cy="55" r="55"/>
	</g>
	<g style="display:inline;">
		<path style="fill:#DB7D74;" d="M50.105,66.996L45,63v6l-14.958,4.018C28.698,73.606,27.615,74.667,27,76l-4,11h32V68h-2.655
			C51.489,68,50.674,67.635,50.105,66.996z"/>
		<path style="fill:#B84E44;" d="M83,76c-0.615-1.333-1.698-2.394-3.044-2.982L65,69v-6l-5.106,3.996
			C59.326,67.635,58.511,68,57.655,68H55v19h32L83,76z"/>
		<path style="fill:#DB7D74;" d="M72,47.259c0-1.111-1-2.223-2-2.223s-1,1.111-1,1.111v-1.111c-0.018-9-1.024-15-14-15
			c-12.976,0-13.982,6-14,15V53l4,10l5.105,3.996C50.674,67.635,51.489,68,52.345,68H55h2.655c0.856,0,1.671-0.365,2.24-1.004L65,63
			l3.193-7.981C71.039,54.827,72,50.518,72,47.259z"/>
		<path style="fill:#E8A099;" d="M41,45.036v1.111c0,0,0-1.111-1-1.111s-2,1.111-2,2.223c0,3.259,0.961,7.568,3.807,7.76L45,63
			l5.105,3.996C50.674,67.635,51.489,68,52.345,68H55V30.036C42.024,30.036,41.018,36.036,41,45.036z"/>
		<g>
			<path style="fill:#7D261E;" d="M50,57.036h10c0,0,0,3-5,3S50,57.036,50,57.036z"/>
		</g>
		<path style="fill:#FFFFFF;" d="M74,71c0,0-2.886-0.612-4-1c-1.178,10.274-3.681,12.002-15,12.002S41.178,80.274,40,70
			c-1.114,0.388-4,1-4,1l-2,16h21h21L74,71z"/>
		<g>
			<path style="fill:none;" d="M25.506,77.565c0.006-0.008,0.014-0.016,0.02-0.024c-0.005,0.001-0.008,0.001-0.014,0.001
				C25.51,77.551,25.509,77.557,25.506,77.565z"/>
		</g>
		<g>
			<g>
				<path style="fill:#FFEFED;" d="M55.146,82.57L43.623,69.365c-0.182-0.208-0.161-0.524,0.048-0.705
					c0.208-0.183,0.524-0.161,0.705,0.047l10.761,12.33l10.482-12.325c0.179-0.21,0.494-0.236,0.705-0.057
					c0.21,0.179,0.236,0.495,0.057,0.705L55.146,82.57z"/>
			</g>
		</g>
		<g>
			<circle style="fill:#FF6C5E;" cx="55" cy="82.911" r="4"/>
		</g>
		<g>
			<rect x="70.142" y="50.804" style="fill:#FFD7D4;" width="3" height="3"/>
		</g>
		<g>
			<g>
				<path style="fill:#FFD7D4;" d="M57.178,81.539c0,0.269-0.154,0.489-0.432,0.489c-0.44,0-0.757-0.823-1.506-0.823
					c-0.236,0-0.44,0.114-0.44,0.375c0,0.781,2.484,0.317,2.484,2.19c0,1.067-1.156,1.637-1.751,1.686
					c-0.195,0.017-0.171,0.082-0.171,0.277c0,0.399-0.024,0.391-0.423,0.391c-0.375,0-0.472,0.057-0.472-0.358
					c0-0.13,0.041-0.285-0.122-0.301c-0.31-0.041-0.945-0.18-1.181-0.351c-0.285-0.212-0.448-0.937-0.448-1.263
					c0-0.187,0.081-0.382,0.293-0.382c0.562,0,0.448,1.14,1.71,1.14c0.18,0,0.595-0.081,0.595-0.35c0-0.245-0.073-0.294-0.953-0.611
					c-0.741-0.261-1.515-0.773-1.515-1.653c0-0.814,0.66-1.466,1.434-1.62c0.211-0.041,0.188-0.065,0.188-0.285
					c0-0.407,0.024-0.391,0.423-0.391c0.383,0,0.472-0.057,0.472,0.358c0,0.114-0.041,0.277,0.106,0.31
					c0.106,0.017,0.513,0.123,0.562,0.123c0.098,0,0.22-0.082,0.366-0.082C56.698,80.407,57.178,81.034,57.178,81.539z"/>
			</g>
		</g>
		<g>
			<polygon style="fill:#FFFFFF;" points="70.142,53.804 73.142,50.804 70.142,50.804 			"/>
		</g>
		<g>
			<g>
				<path style="fill:#4A1410;" d="M63,42.036h-8h-8c0,0-6-0.581-6,4c0,4,3,7,6,7c5.324,0,5.379-5,8-5c2.623,0,2.674,5,8,5
					c3,0,6-3,6-7C69,41.455,63,42.036,63,42.036z M55.933,46.136h-1.866c0,0,0-1.867-1.853-2.1H55h2.786
					C55.933,44.269,55.933,46.136,55.933,46.136z"/>
			</g>
			<g>
				<g>
					<path style="fill:#7D261E;" d="M47.467,44.285c0,0-4.6-0.39-4.6,2.678c0,1.568,0.791,2.903,1.906,3.743l6.617-6.421H47.467z"/>
				</g>
			</g>
			<g>
				<g>
					<path style="fill:#7D261E;" d="M62.4,44.285c0,0-4.6-0.39-4.6,2.678c0,1.568,0.791,2.903,1.907,3.743l6.617-6.421H62.4z"/>
				</g>
			</g>
		</g>
		<g>
			<path style="fill:#FF6C5E;" d="M42.964,35.799l-8.622,2.707c-2.355,0.878-2.368,2.348-0.029,3.267l5.916,2.324
				c8.511,3.233,19.745,2.632,26.858-1.759L42.964,35.799z"/>
		</g>
		<g>
			<path style="fill:#C23023;" d="M69.995,33.156c0.272-1.731-10.731-7.649-13.419-8.071c-2.687-0.421-14.078,1.983-14.35,3.715
				l-2.161,7.921c-0.271,1.731,6.125,4.174,14.288,5.454c8.163,1.281,15,0.915,15.271-0.816L69.995,33.156z"/>
		</g>
		<g>
			<path style="fill:#FF6C5E;" d="M49.541,31.324c0,0-2.828,0.474-3.109,2.266c-0.281,1.791,1.984,4.9,1.984,4.9
				s3.109-2.266,3.39-4.058C52.087,32.641,49.541,31.324,49.541,31.324z"/>
		</g>
	</g>
</g>
<g id="Yellow" style="display:none;">
	<g style="display:inline;">
		<path style="fill:#D4A420;" d="M50.105,66.996L45,63v6l-14.958,4.018C28.698,73.606,27.615,74.667,27,76l-4,11h32V68h-2.655
			C51.489,68,50.674,67.635,50.105,66.996z"/>
		<path style="fill:#947615;" d="M83,76c-0.615-1.333-1.698-2.394-3.044-2.982L65,69v-6l-5.106,3.996
			C59.326,67.635,58.511,68,57.655,68H55v19h32L83,76z"/>
		<path style="fill:#D4A420;" d="M72,47.259c0-1.111-1-2.223-2-2.223s-1,1.111-1,1.111v-1.111c-0.018-9-1.024-15-14-15
			c-12.976,0-13.982,6-14,15V53l4,10l5.105,3.996C50.674,67.635,51.489,68,52.345,68H55h2.655c0.856,0,1.671-0.365,2.24-1.004L65,63
			l3.193-7.981C71.039,54.827,72,50.518,72,47.259z"/>
		<path style="fill:#F5C43D;" d="M41,45.036v1.111c0,0,0-1.111-1-1.111s-2,1.111-2,2.223c0,3.259,0.961,7.568,3.807,7.76L45,63
			l5.105,3.996C50.674,67.635,51.489,68,52.345,68H55V30.036C42.024,30.036,41.018,36.036,41,45.036z"/>
		<g>
			<path style="fill:#66510D;" d="M50,57.036h10c0,0,0,3-5,3S50,57.036,50,57.036z"/>
		</g>
		<path style="fill:#FFFFFF;" d="M74,71c0,0-2.886-0.612-4-1c-1.178,10.274-3.681,12.002-15,12.002S41.178,80.274,40,70
			c-1.114,0.388-4,1-4,1l-2,16h21h21L74,71z"/>
		<g>
			<path style="fill:none;" d="M25.506,77.565c0.006-0.008,0.014-0.016,0.02-0.024c-0.005,0.001-0.008,0.001-0.014,0.001
				C25.51,77.551,25.509,77.557,25.506,77.565z"/>
		</g>
		<g>
			<g>
				<path style="fill:#FFF5D9;" d="M55.146,82.57L43.623,69.365c-0.182-0.208-0.161-0.524,0.048-0.705
					c0.208-0.183,0.524-0.161,0.705,0.047l10.761,12.33l10.482-12.325c0.179-0.21,0.494-0.236,0.705-0.057
					c0.21,0.179,0.236,0.495,0.057,0.705L55.146,82.57z"/>
			</g>
		</g>
		<g>
			<circle style="fill:#FFAA00;" cx="55" cy="82.911" r="4"/>
		</g>
		<g>
			<rect x="70.142" y="50.804" style="fill:#FFE9A1;" width="3" height="3"/>
		</g>
		<g>
			<g>
				<path style="fill:#FFE9A1;" d="M57.178,81.539c0,0.269-0.154,0.489-0.432,0.489c-0.44,0-0.757-0.823-1.506-0.823
					c-0.236,0-0.44,0.114-0.44,0.375c0,0.781,2.484,0.317,2.484,2.19c0,1.067-1.156,1.637-1.751,1.686
					c-0.195,0.017-0.171,0.082-0.171,0.277c0,0.399-0.024,0.391-0.423,0.391c-0.375,0-0.472,0.057-0.472-0.358
					c0-0.13,0.041-0.285-0.122-0.301c-0.31-0.041-0.945-0.18-1.181-0.351c-0.285-0.212-0.448-0.937-0.448-1.263
					c0-0.187,0.081-0.382,0.293-0.382c0.562,0,0.448,1.14,1.71,1.14c0.18,0,0.595-0.081,0.595-0.35c0-0.245-0.073-0.294-0.953-0.611
					c-0.741-0.261-1.515-0.773-1.515-1.653c0-0.814,0.66-1.466,1.434-1.62c0.211-0.041,0.188-0.065,0.188-0.285
					c0-0.407,0.024-0.391,0.423-0.391c0.383,0,0.472-0.057,0.472,0.358c0,0.114-0.041,0.277,0.106,0.31
					c0.106,0.017,0.513,0.123,0.562,0.123c0.098,0,0.22-0.082,0.366-0.082C56.698,80.407,57.178,81.034,57.178,81.539z"/>
			</g>
		</g>
		<g>
			<polygon style="fill:#FFFFFF;" points="70.142,53.804 73.142,50.804 70.142,50.804 			"/>
		</g>
		<g>
			<g>
				<path style="fill:#3D320C;" d="M63,42.036h-8h-8c0,0-6-0.581-6,4c0,4,3,7,6,7c5.324,0,5.379-5,8-5c2.623,0,2.674,5,8,5
					c3,0,6-3,6-7C69,41.455,63,42.036,63,42.036z M55.933,46.136h-1.866c0,0,0-1.867-1.853-2.1H55h2.786
					C55.933,44.269,55.933,46.136,55.933,46.136z"/>
			</g>
			<g>
				<g>
					<path style="fill:#66510D;" d="M47.467,44.285c0,0-4.6-0.39-4.6,2.678c0,1.568,0.791,2.903,1.906,3.743l6.617-6.421H47.467z"/>
				</g>
			</g>
			<g>
				<g>
					<path style="fill:#66510D;" d="M62.4,44.285c0,0-4.6-0.39-4.6,2.678c0,1.568,0.791,2.903,1.907,3.743l6.617-6.421H62.4z"/>
				</g>
			</g>
		</g>
		<g>
			<path style="fill:#FFAA00;" d="M42.964,35.799l-8.622,2.707c-2.355,0.878-2.368,2.348-0.029,3.267l5.916,2.324
				c8.511,3.233,19.745,2.632,26.858-1.759L42.964,35.799z"/>
		</g>
		<g>
			<path style="fill:#E07000;" d="M69.995,33.156c0.272-1.731-10.731-7.649-13.419-8.071c-2.687-0.421-14.078,1.983-14.35,3.715
				l-2.161,7.921c-0.271,1.731,6.125,4.174,14.288,5.454c8.163,1.281,15,0.915,15.271-0.816L69.995,33.156z"/>
		</g>
		<g>
			<path style="fill:#FFAA00;" d="M49.541,31.324c0,0-2.828,0.474-3.109,2.266c-0.281,1.791,1.984,4.9,1.984,4.9
				s3.109-2.266,3.39-4.058C52.087,32.641,49.541,31.324,49.541,31.324z"/>
		</g>
	</g>
</g>
<g id="R-Yellow" style="display:none;">
	<g style="display:inline;">
		<circle style="fill:#FFD75E;" cx="55" cy="55" r="55"/>
	</g>
	<g style="display:inline;">
		<path style="fill:#D4A420;" d="M50.105,66.996L45,63v6l-14.958,4.018C28.698,73.606,27.615,74.667,27,76l-4,11h32V68h-2.655
			C51.489,68,50.674,67.635,50.105,66.996z"/>
		<path style="fill:#947615;" d="M83,76c-0.615-1.333-1.698-2.394-3.044-2.982L65,69v-6l-5.106,3.996
			C59.326,67.635,58.511,68,57.655,68H55v19h32L83,76z"/>
		<path style="fill:#D4A420;" d="M72,47.259c0-1.111-1-2.223-2-2.223s-1,1.111-1,1.111v-1.111c-0.018-9-1.024-15-14-15
			c-12.976,0-13.982,6-14,15V53l4,10l5.105,3.996C50.674,67.635,51.489,68,52.345,68H55h2.655c0.856,0,1.671-0.365,2.24-1.004L65,63
			l3.193-7.981C71.039,54.827,72,50.518,72,47.259z"/>
		<path style="fill:#F5C43D;" d="M41,45.036v1.111c0,0,0-1.111-1-1.111s-2,1.111-2,2.223c0,3.259,0.961,7.568,3.807,7.76L45,63
			l5.105,3.996C50.674,67.635,51.489,68,52.345,68H55V30.036C42.024,30.036,41.018,36.036,41,45.036z"/>
		<g>
			<path style="fill:#66510D;" d="M50,57.036h10c0,0,0,3-5,3S50,57.036,50,57.036z"/>
		</g>
		<path style="fill:#FFFFFF;" d="M74,71c0,0-2.886-0.612-4-1c-1.178,10.274-3.681,12.002-15,12.002S41.178,80.274,40,70
			c-1.114,0.388-4,1-4,1l-2,16h21h21L74,71z"/>
		<g>
			<path style="fill:none;" d="M25.506,77.565c0.006-0.008,0.014-0.016,0.02-0.024c-0.005,0.001-0.008,0.001-0.014,0.001
				C25.51,77.551,25.509,77.557,25.506,77.565z"/>
		</g>
		<g>
			<g>
				<path style="fill:#FFF5D9;" d="M55.146,82.57L43.623,69.365c-0.182-0.208-0.161-0.524,0.048-0.705
					c0.208-0.183,0.524-0.161,0.705,0.047l10.761,12.33l10.482-12.325c0.179-0.21,0.494-0.236,0.705-0.057
					c0.21,0.179,0.236,0.495,0.057,0.705L55.146,82.57z"/>
			</g>
		</g>
		<g>
			<circle style="fill:#FFAA00;" cx="55" cy="82.911" r="4"/>
		</g>
		<g>
			<rect x="70.142" y="50.804" style="fill:#FFE9A1;" width="3" height="3"/>
		</g>
		<g>
			<g>
				<path style="fill:#FFE9A1;" d="M57.178,81.539c0,0.269-0.154,0.489-0.432,0.489c-0.44,0-0.757-0.823-1.506-0.823
					c-0.236,0-0.44,0.114-0.44,0.375c0,0.781,2.484,0.317,2.484,2.19c0,1.067-1.156,1.637-1.751,1.686
					c-0.195,0.017-0.171,0.082-0.171,0.277c0,0.399-0.024,0.391-0.423,0.391c-0.375,0-0.472,0.057-0.472-0.358
					c0-0.13,0.041-0.285-0.122-0.301c-0.31-0.041-0.945-0.18-1.181-0.351c-0.285-0.212-0.448-0.937-0.448-1.263
					c0-0.187,0.081-0.382,0.293-0.382c0.562,0,0.448,1.14,1.71,1.14c0.18,0,0.595-0.081,0.595-0.35c0-0.245-0.073-0.294-0.953-0.611
					c-0.741-0.261-1.515-0.773-1.515-1.653c0-0.814,0.66-1.466,1.434-1.62c0.211-0.041,0.188-0.065,0.188-0.285
					c0-0.407,0.024-0.391,0.423-0.391c0.383,0,0.472-0.057,0.472,0.358c0,0.114-0.041,0.277,0.106,0.31
					c0.106,0.017,0.513,0.123,0.562,0.123c0.098,0,0.22-0.082,0.366-0.082C56.698,80.407,57.178,81.034,57.178,81.539z"/>
			</g>
		</g>
		<g>
			<polygon style="fill:#FFFFFF;" points="70.142,53.804 73.142,50.804 70.142,50.804 			"/>
		</g>
		<g>
			<g>
				<path style="fill:#3D320C;" d="M63,42.036h-8h-8c0,0-6-0.581-6,4c0,4,3,7,6,7c5.324,0,5.379-5,8-5c2.623,0,2.674,5,8,5
					c3,0,6-3,6-7C69,41.455,63,42.036,63,42.036z M55.933,46.136h-1.866c0,0,0-1.867-1.853-2.1H55h2.786
					C55.933,44.269,55.933,46.136,55.933,46.136z"/>
			</g>
			<g>
				<g>
					<path style="fill:#66510D;" d="M47.467,44.285c0,0-4.6-0.39-4.6,2.678c0,1.568,0.791,2.903,1.906,3.743l6.617-6.421H47.467z"/>
				</g>
			</g>
			<g>
				<g>
					<path style="fill:#66510D;" d="M62.4,44.285c0,0-4.6-0.39-4.6,2.678c0,1.568,0.791,2.903,1.907,3.743l6.617-6.421H62.4z"/>
				</g>
			</g>
		</g>
		<g>
			<path style="fill:#FFAA00;" d="M42.964,35.799l-8.622,2.707c-2.355,0.878-2.368,2.348-0.029,3.267l5.916,2.324
				c8.511,3.233,19.745,2.632,26.858-1.759L42.964,35.799z"/>
		</g>
		<g>
			<path style="fill:#E07000;" d="M69.995,33.156c0.272-1.731-10.731-7.649-13.419-8.071c-2.687-0.421-14.078,1.983-14.35,3.715
				l-2.161,7.921c-0.271,1.731,6.125,4.174,14.288,5.454c8.163,1.281,15,0.915,15.271-0.816L69.995,33.156z"/>
		</g>
		<g>
			<path style="fill:#FFAA00;" d="M49.541,31.324c0,0-2.828,0.474-3.109,2.266c-0.281,1.791,1.984,4.9,1.984,4.9
				s3.109-2.266,3.39-4.058C52.087,32.641,49.541,31.324,49.541,31.324z"/>
		</g>
	</g>
</g>
</svg>
