<?xml version="1.0" encoding="iso-8859-1"?>
<!-- Generator: Adobe Illustrator 17.1.0, SVG Export Plug-In . SVG Version: 6.00 Build 0)  -->
<!DOCTYPE svg PUBLIC "-//W3C//DTD SVG 1.0//EN" "http://www.w3.org/TR/2001/REC-SVG-20010904/DTD/svg10.dtd">
<svg version="1.0" xmlns="http://www.w3.org/2000/svg" xmlns:xlink="http://www.w3.org/1999/xlink" x="0px" y="0px" width="110px"
	 height="110px" viewBox="0 0 110 110" style="enable-background:new 0 0 110 110;" xml:space="preserve">
<g id="Artboard" style="display:none;">
	<rect x="-814.5" y="-25.5" style="display:inline;fill:#808080;stroke:#000000;stroke-miterlimit:10;" width="1335" height="316"/>
</g>
<g id="R-Multicolor" style="display:none;">
	<g style="display:inline;">
		<circle style="fill:#E04F5F;" cx="55" cy="55" r="55"/>
	</g>
	<g style="display:inline;">
		<g>
			<path style="fill:#FACB1B;" d="M23,87l4-11c0.615-1.333,1.698-2.394,3.043-2.983L43,68l9,19H23z"/>
		</g>
		<g>
			<polygon style="fill:#FFFFFF;" points="52,87 43,68 45,67.497 45,65 41,66 35,83 45,81 50,87 			"/>
		</g>
		<g>
			<path style="fill:#FACB1B;" d="M87,87l-4-11c-0.615-1.333-1.698-2.394-3.043-2.983L67,68l-9,19H87z"/>
		</g>
		<g>
			<polygon style="fill:#FFFFFF;" points="58,87 67,68 65,67.497 65,65 69,66 75,83 65,81 60,87 			"/>
		</g>
		<path style="fill:#9C6144;" d="M65,62.997l-5.105,3.996c-0.569,0.639-1.384,1.004-2.24,1.004H55h-2.655
			c-0.856,0-1.671-0.365-2.24-1.004L45,62.997v4.5l-2,0.5L52,87h6l9-19.003l-2-0.5V62.997z"/>
		<path style="fill:#BF8662;" d="M50.105,66.993L45,62.997v4.5l-2,0.5L52,87h3V67.997h-2.655
			C51.489,67.997,50.674,67.632,50.105,66.993z"/>
		<g>
			<path style="fill:#BF8662;" d="M55,30c-12.976,0-13.982,6-14,15v7.997l4,10l5.105,3.996c0.569,0.639,1.384,1.004,2.24,1.004H55
				h2.655c0.856,0,1.671-0.365,2.24-1.004L65,62.997l4-10V45C68.982,36,67.976,30,55,30z"/>
		</g>
		<g>
			<path style="fill:#CC9978;" d="M41,45v7.997l4,10l5.105,3.996c0.569,0.639,1.384,1.004,2.24,1.004H55V30
				C42.024,30,41.018,36,41,45z"/>
		</g>
		<g>
			<path style="fill:#3E3E3F;" d="M52,46.997c0-1.104-0.896-2-2-2c-0.002,0-0.004,0-0.006,0C49.995,45.019,50,45.039,50,45.06
				c0,1.103-0.892,1.996-1.994,2c0.033,1.075,0.91,1.938,1.994,1.938C51.104,48.997,52,48.102,52,46.997z"/>
		</g>
		<g>
			<path style="fill:#3E3E3F;" d="M61.994,46.997c0-1.104-0.896-2-2-2c-0.002,0-0.004,0-0.006,0
				c0.001,0.021,0.006,0.041,0.006,0.062c0,1.103-0.892,1.996-1.994,2c0.033,1.075,0.91,1.938,1.994,1.938
				C61.098,48.997,61.994,48.102,61.994,46.997z"/>
		</g>
		<g>
			<path style="fill:#84462D;" d="M50,56.997h10c0,0,0,3-5,3S50,56.997,50,56.997z"/>
		</g>
		<path style="fill:#099686;" d="M55,23.286c-5.383,0.058-21,1.079-21,11.003c0,0.526,0.293,1.177,0.733,1.862
			c2.901-6.814,15.53-6.83,20.267-6.852c4.737,0.021,17.366,0.037,20.267,6.852C75.707,35.466,76,34.815,76,34.289
			C76,24.365,60.383,23.344,55,23.286z"/>
		<path style="fill:#FACB1B;" d="M55,29.3c-4.737,0.021-17.366,0.037-20.267,6.852c0.562,0.878,1.368,1.811,2.149,2.628
			C40.872,35.064,49.562,35.315,55,35.3c5.438,0.015,14.128-0.236,18.118,3.479c0.781-0.817,1.587-1.75,2.149-2.628
			C72.366,29.337,59.737,29.321,55,29.3z"/>
		<path style="fill:#DF2C2C;" d="M55,35.3c-5.448,0.015-14.129-0.234-18.118,3.479c0.956,1,1.206,2.351,3.486,2.638
			c2.765,0.347,7.644,0.801,14.632,0.871c6.988-0.071,11.868-0.524,14.632-0.871c2.281-0.287,2.53-1.637,3.486-2.638
			C69.129,35.066,60.448,35.315,55,35.3z"/>
		<g>
			<path style="fill:#3E3E3F;" d="M76.922,56.736l-4.786-16.687c-0.498,0.635-1.131,1.195-2.504,1.368
				c-1.362,0.171-3.243,0.368-5.632,0.532V67c0,1.104,0.896,2,2,2s2-0.896,2-2V55.285l1.015,8.248
				c0.135,1.096,1.133,1.876,2.229,1.741c1.096-0.135,1.875-1.133,1.741-2.229l-1.191-9.678l1.283,4.473
				c0.304,1.062,1.412,1.676,2.474,1.371C76.613,58.906,77.227,57.798,76.922,56.736z"/>
		</g>
		<g>
			<path style="fill:#12B2A0;" d="M55,29.3v-6.014c-5.383,0.058-21,1.079-21,11.003c0,0.526,0.293,1.177,0.733,1.862
				C37.634,29.337,50.263,29.321,55,29.3z"/>
		</g>
		<g>
			<path style="fill:#FBE158;" d="M55,35.3v-6c-4.737,0.021-17.366,0.037-20.267,6.852c0.562,0.878,1.368,1.811,2.149,2.628
				C40.872,35.064,49.562,35.315,55,35.3z"/>
		</g>
		<g>
			<path style="fill:#FA5655;" d="M36.882,38.779c0.956,1,1.205,2.351,3.486,2.637c2.765,0.347,7.644,0.801,14.632,0.871V35.3
				C49.552,35.315,40.871,35.066,36.882,38.779z"/>
		</g>
		<g>
			<path style="fill:#3E3E3F;" d="M40.368,41.417c-1.373-0.172-2.006-0.732-2.504-1.367l-4.786,16.687
				c-0.305,1.062,0.309,2.169,1.371,2.474c1.062,0.304,2.169-0.309,2.474-1.371l1.283-4.473l-1.191,9.678
				c-0.135,1.096,0.645,2.094,1.741,2.229c1.097,0.135,2.095-0.645,2.229-1.741L42,55.285V67c0,1.104,0.896,2,2,2s2-0.896,2-2
				V41.949C43.611,41.785,41.73,41.588,40.368,41.417z"/>
		</g>
	</g>
</g>
<g id="Multicolor">
	<g>
		<g>
			<path style="fill:#FACB1B;" d="M23,87l4-11c0.615-1.333,1.698-2.394,3.043-2.983L43,68l9,19H23z"/>
		</g>
		<g>
			<polygon style="fill:#FFFFFF;" points="52,87 43,68 45,67.497 45,65 41,66 35,83 45,81 50,87 			"/>
		</g>
		<g>
			<path style="fill:#FACB1B;" d="M87,87l-4-11c-0.615-1.333-1.698-2.394-3.043-2.983L67,68l-9,19H87z"/>
		</g>
		<g>
			<polygon style="fill:#FFFFFF;" points="58,87 67,68 65,67.497 65,65 69,66 75,83 65,81 60,87 			"/>
		</g>
		<path style="fill:#9C6144;" d="M65,62.997l-5.105,3.996c-0.569,0.639-1.384,1.004-2.24,1.004H55h-2.655
			c-0.856,0-1.671-0.365-2.24-1.004L45,62.997v4.5l-2,0.5L52,87h6l9-19.003l-2-0.5V62.997z"/>
		<path style="fill:#BF8662;" d="M50.105,66.993L45,62.997v4.5l-2,0.5L52,87h3V67.997h-2.655
			C51.489,67.997,50.674,67.632,50.105,66.993z"/>
		<g>
			<path style="fill:#BF8662;" d="M55,30c-12.976,0-13.982,6-14,15v7.997l4,10l5.105,3.996c0.569,0.639,1.384,1.004,2.24,1.004H55
				h2.655c0.856,0,1.671-0.365,2.24-1.004L65,62.997l4-10V45C68.982,36,67.976,30,55,30z"/>
		</g>
		<g>
			<path style="fill:#CC9978;" d="M41,45v7.997l4,10l5.105,3.996c0.569,0.639,1.384,1.004,2.24,1.004H55V30
				C42.024,30,41.018,36,41,45z"/>
		</g>
		<g>
			<path style="fill:#3E3E3F;" d="M52,46.997c0-1.104-0.896-2-2-2c-0.002,0-0.004,0-0.006,0C49.995,45.019,50,45.039,50,45.06
				c0,1.103-0.892,1.996-1.994,2c0.033,1.075,0.91,1.938,1.994,1.938C51.104,48.997,52,48.102,52,46.997z"/>
		</g>
		<g>
			<path style="fill:#3E3E3F;" d="M61.994,46.997c0-1.104-0.896-2-2-2c-0.002,0-0.004,0-0.006,0
				c0.001,0.021,0.006,0.041,0.006,0.062c0,1.103-0.892,1.996-1.994,2c0.033,1.075,0.91,1.938,1.994,1.938
				C61.098,48.997,61.994,48.102,61.994,46.997z"/>
		</g>
		<g>
			<path style="fill:#84462D;" d="M50,56.997h10c0,0,0,3-5,3S50,56.997,50,56.997z"/>
		</g>
		<path style="fill:#099686;" d="M55,23.286c-5.383,0.058-21,1.079-21,11.003c0,0.526,0.293,1.177,0.733,1.862
			c2.901-6.814,15.53-6.83,20.267-6.852c4.737,0.021,17.366,0.037,20.267,6.852C75.707,35.466,76,34.815,76,34.289
			C76,24.365,60.383,23.344,55,23.286z"/>
		<path style="fill:#FACB1B;" d="M55,29.3c-4.737,0.021-17.366,0.037-20.267,6.852c0.562,0.878,1.368,1.811,2.149,2.628
			C40.872,35.064,49.562,35.315,55,35.3c5.438,0.015,14.128-0.236,18.118,3.479c0.781-0.817,1.587-1.75,2.149-2.628
			C72.366,29.337,59.737,29.321,55,29.3z"/>
		<path style="fill:#DF2C2C;" d="M55,35.3c-5.448,0.015-14.129-0.234-18.118,3.479c0.956,1,1.206,2.351,3.486,2.638
			c2.765,0.347,7.644,0.801,14.632,0.871c6.988-0.071,11.868-0.524,14.632-0.871c2.281-0.287,2.53-1.637,3.486-2.638
			C69.129,35.066,60.448,35.315,55,35.3z"/>
		<g>
			<path style="fill:#3E3E3F;" d="M76.922,56.736l-4.786-16.687c-0.498,0.635-1.131,1.195-2.504,1.368
				c-1.362,0.171-3.243,0.368-5.632,0.532V67c0,1.104,0.896,2,2,2s2-0.896,2-2V55.285l1.015,8.248
				c0.135,1.096,1.133,1.876,2.229,1.741c1.096-0.135,1.875-1.133,1.741-2.229l-1.191-9.678l1.283,4.473
				c0.304,1.062,1.412,1.676,2.474,1.371C76.613,58.906,77.227,57.798,76.922,56.736z"/>
		</g>
		<g>
			<path style="fill:#12B2A0;" d="M55,29.3v-6.014c-5.383,0.058-21,1.079-21,11.003c0,0.526,0.293,1.177,0.733,1.862
				C37.634,29.337,50.263,29.321,55,29.3z"/>
		</g>
		<g>
			<path style="fill:#FBE158;" d="M55,35.3v-6c-4.737,0.021-17.366,0.037-20.267,6.852c0.562,0.878,1.368,1.811,2.149,2.628
				C40.872,35.064,49.562,35.315,55,35.3z"/>
		</g>
		<g>
			<path style="fill:#FA5655;" d="M36.882,38.779c0.956,1,1.205,2.351,3.486,2.637c2.765,0.347,7.644,0.801,14.632,0.871V35.3
				C49.552,35.315,40.871,35.066,36.882,38.779z"/>
		</g>
		<g>
			<path style="fill:#3E3E3F;" d="M40.368,41.417c-1.373-0.172-2.006-0.732-2.504-1.367l-4.786,16.687
				c-0.305,1.062,0.309,2.169,1.371,2.474c1.062,0.304,2.169-0.309,2.474-1.371l1.283-4.473l-1.191,9.678
				c-0.135,1.096,0.645,2.094,1.741,2.229c1.097,0.135,2.095-0.645,2.229-1.741L42,55.285V67c0,1.104,0.896,2,2,2s2-0.896,2-2
				V41.949C43.611,41.785,41.73,41.588,40.368,41.417z"/>
		</g>
	</g>
</g>
<g id="Blue" style="display:none;">
	<g style="display:inline;">
		<g>
			<path style="fill:#0081A1;" d="M23,87l4-11c0.615-1.333,1.698-2.394,3.043-2.982L43,68l9,19H23z"/>
		</g>
		<g>
			<polygon style="fill:#FFFFFF;" points="52,87 43,68 45,67.497 45,65 41,66 35,83 45,81 50,87 			"/>
		</g>
		<g>
			<path style="fill:#0081A1;" d="M87,87l-4-11c-0.615-1.333-1.698-2.394-3.043-2.982L67,68l-9,19H87z"/>
		</g>
		<g>
			<polygon style="fill:#FFFFFF;" points="58,87 67,68 65,67.497 65,65 69,66 75,83 65,81 60,87 			"/>
		</g>
		<path style="fill:#33899E;" d="M65,62.997l-5.106,3.996c-0.569,0.639-1.384,1.004-2.24,1.004H55h-2.655
			c-0.856,0-1.671-0.365-2.24-1.004L45,62.997v4.5l-2,0.5L52,87h6l9-19.003l-2-0.5V62.997z"/>
		<path style="fill:#37A4BF;" d="M50.105,66.993L45,62.997v4.5l-2,0.5L52,87h3V67.997h-2.655
			C51.489,67.997,50.674,67.632,50.105,66.993z"/>
		<g>
			<path style="fill:#37A4BF;" d="M55,30c-12.976,0-13.982,6-14,15v7.997l4,10l5.105,3.996c0.569,0.639,1.384,1.004,2.24,1.004H55
				h2.655c0.856,0,1.671-0.365,2.24-1.004L65,62.997l4-10V45C68.982,36,67.976,30,55,30z"/>
		</g>
		<g>
			<path style="fill:#53BAD4;" d="M41,45v7.997l4,10l5.105,3.996c0.569,0.639,1.384,1.004,2.24,1.004H55V30
				C42.024,30,41.018,36,41,45z"/>
		</g>
		<g>
			<path style="fill:#0C333D;" d="M52,46.997c0-1.105-0.896-2-2-2c-0.002,0-0.004,0-0.006,0C49.995,45.019,50,45.039,50,45.06
				c0,1.102-0.892,1.996-1.994,2c0.033,1.075,0.91,1.938,1.994,1.938C51.104,48.997,52,48.102,52,46.997z"/>
		</g>
		<g>
			<path style="fill:#0C333D;" d="M61.994,46.997c0-1.105-0.896-2-2-2c-0.002,0-0.004,0-0.006,0
				c0.001,0.021,0.006,0.041,0.006,0.062c0,1.102-0.892,1.996-1.994,2c0.033,1.075,0.91,1.938,1.994,1.938
				C61.098,48.997,61.994,48.102,61.994,46.997z"/>
		</g>
		<g>
			<path style="fill:#0F6175;" d="M50,56.997h10c0,0,0,3-5,3S50,56.997,50,56.997z"/>
		</g>
		<path style="fill:#0F6175;" d="M55,23.286c-5.383,0.058-21,1.079-21,11.004c0,0.526,0.293,1.177,0.733,1.862
			c2.901-6.814,15.53-6.83,20.267-6.852c4.737,0.022,17.366,0.037,20.267,6.852C75.706,35.466,76,34.815,76,34.289
			C76,24.365,60.383,23.344,55,23.286z"/>
		<path style="fill:#E1F5FA;" d="M55,29.3c-4.737,0.022-17.366,0.037-20.267,6.852c0.562,0.878,1.368,1.811,2.149,2.628
			c3.99-3.716,12.681-3.464,18.118-3.48c5.437,0.016,14.128-0.236,18.118,3.48c0.781-0.817,1.587-1.75,2.149-2.628
			C72.366,29.337,59.737,29.321,55,29.3z"/>
		<path style="fill:#009FC7;" d="M55,35.3c-5.448,0.016-14.129-0.234-18.118,3.48c0.956,1,1.206,2.351,3.486,2.638
			c2.765,0.348,7.644,0.801,14.632,0.871c6.988-0.07,11.868-0.524,14.632-0.871c2.281-0.287,2.53-1.638,3.486-2.638
			C69.129,35.066,60.448,35.315,55,35.3z"/>
		<g>
			<path style="fill:#0C333D;" d="M76.922,56.736l-4.786-16.687c-0.498,0.635-1.131,1.195-2.504,1.368
				c-1.362,0.171-3.243,0.368-5.632,0.532V67c0,1.104,0.896,2,2,2s2-0.896,2-2V55.285l1.015,8.247
				c0.135,1.096,1.133,1.875,2.229,1.741c1.096-0.135,1.876-1.133,1.741-2.229l-1.191-9.678l1.283,4.473
				c0.304,1.062,1.412,1.676,2.474,1.371C76.613,58.906,77.227,57.798,76.922,56.736z"/>
		</g>
		<g>
			<path style="fill:#33899E;" d="M55,29.3v-6.014c-5.383,0.058-21,1.079-21,11.003c0,0.526,0.293,1.177,0.733,1.862
				C37.634,29.337,50.263,29.321,55,29.3z"/>
		</g>
		<g>
			<path style="fill:#FFFFFF;" d="M55,35.3v-6c-4.737,0.022-17.366,0.037-20.267,6.852c0.562,0.878,1.368,1.811,2.149,2.628
				C40.872,35.064,49.562,35.315,55,35.3z"/>
		</g>
		<g>
			<path style="fill:#00B7E5;" d="M36.882,38.779c0.956,1,1.206,2.351,3.486,2.638c2.765,0.348,7.644,0.801,14.632,0.871V35.3
				C49.552,35.315,40.871,35.066,36.882,38.779z"/>
		</g>
		<g>
			<path style="fill:#0C333D;" d="M40.368,41.417c-1.373-0.172-2.006-0.732-2.504-1.367l-4.786,16.687
				c-0.305,1.062,0.309,2.17,1.371,2.474c1.062,0.305,2.169-0.309,2.474-1.371l1.283-4.473l-1.191,9.678
				c-0.135,1.096,0.645,2.094,1.741,2.229c1.097,0.135,2.095-0.644,2.229-1.741L42,55.285V67c0,1.104,0.896,2,2,2s2-0.896,2-2
				V41.949C43.611,41.785,41.73,41.588,40.368,41.417z"/>
		</g>
	</g>
</g>
<g id="R-Blue" style="display:none;">
	<g style="display:inline;">
		<circle style="fill:#81D2EB;" cx="55" cy="55" r="55"/>
	</g>
	<g style="display:inline;">
		<g>
			<path style="fill:#0081A1;" d="M23,87l4-11c0.615-1.333,1.698-2.394,3.043-2.982L43,68l9,19H23z"/>
		</g>
		<g>
			<polygon style="fill:#FFFFFF;" points="52,87 43,68 45,67.497 45,65 41,66 35,83 45,81 50,87 			"/>
		</g>
		<g>
			<path style="fill:#0081A1;" d="M87,87l-4-11c-0.615-1.333-1.698-2.394-3.043-2.982L67,68l-9,19H87z"/>
		</g>
		<g>
			<polygon style="fill:#FFFFFF;" points="58,87 67,68 65,67.497 65,65 69,66 75,83 65,81 60,87 			"/>
		</g>
		<path style="fill:#33899E;" d="M65,62.997l-5.106,3.996c-0.569,0.639-1.384,1.004-2.24,1.004H55h-2.655
			c-0.856,0-1.671-0.365-2.24-1.004L45,62.997v4.5l-2,0.5L52,87h6l9-19.003l-2-0.5V62.997z"/>
		<path style="fill:#37A4BF;" d="M50.105,66.993L45,62.997v4.5l-2,0.5L52,87h3V67.997h-2.655
			C51.489,67.997,50.674,67.632,50.105,66.993z"/>
		<g>
			<path style="fill:#37A4BF;" d="M55,30c-12.976,0-13.982,6-14,15v7.997l4,10l5.105,3.996c0.569,0.639,1.384,1.004,2.24,1.004H55
				h2.655c0.856,0,1.671-0.365,2.24-1.004L65,62.997l4-10V45C68.982,36,67.976,30,55,30z"/>
		</g>
		<g>
			<path style="fill:#53BAD4;" d="M41,45v7.997l4,10l5.105,3.996c0.569,0.639,1.384,1.004,2.24,1.004H55V30
				C42.024,30,41.018,36,41,45z"/>
		</g>
		<g>
			<path style="fill:#0C333D;" d="M52,46.997c0-1.105-0.896-2-2-2c-0.002,0-0.004,0-0.006,0C49.995,45.019,50,45.039,50,45.06
				c0,1.102-0.892,1.996-1.994,2c0.033,1.075,0.91,1.938,1.994,1.938C51.104,48.997,52,48.102,52,46.997z"/>
		</g>
		<g>
			<path style="fill:#0C333D;" d="M61.994,46.997c0-1.105-0.896-2-2-2c-0.002,0-0.004,0-0.006,0
				c0.001,0.021,0.006,0.041,0.006,0.062c0,1.102-0.892,1.996-1.994,2c0.033,1.075,0.91,1.938,1.994,1.938
				C61.098,48.997,61.994,48.102,61.994,46.997z"/>
		</g>
		<g>
			<path style="fill:#0F6175;" d="M50,56.997h10c0,0,0,3-5,3S50,56.997,50,56.997z"/>
		</g>
		<path style="fill:#0F6175;" d="M55,23.286c-5.383,0.058-21,1.079-21,11.004c0,0.526,0.293,1.177,0.733,1.862
			c2.901-6.814,15.53-6.83,20.267-6.852c4.737,0.022,17.366,0.037,20.267,6.852C75.706,35.466,76,34.815,76,34.289
			C76,24.365,60.383,23.344,55,23.286z"/>
		<path style="fill:#E1F5FA;" d="M55,29.3c-4.737,0.022-17.366,0.037-20.267,6.852c0.562,0.878,1.368,1.811,2.149,2.628
			c3.99-3.716,12.681-3.464,18.118-3.48c5.437,0.016,14.128-0.236,18.118,3.48c0.781-0.817,1.587-1.75,2.149-2.628
			C72.366,29.337,59.737,29.321,55,29.3z"/>
		<path style="fill:#009FC7;" d="M55,35.3c-5.448,0.016-14.129-0.234-18.118,3.48c0.956,1,1.206,2.351,3.486,2.638
			c2.765,0.348,7.644,0.801,14.632,0.871c6.988-0.07,11.868-0.524,14.632-0.871c2.281-0.287,2.53-1.638,3.486-2.638
			C69.129,35.066,60.448,35.315,55,35.3z"/>
		<g>
			<path style="fill:#0C333D;" d="M76.922,56.736l-4.786-16.687c-0.498,0.635-1.131,1.195-2.504,1.368
				c-1.362,0.171-3.243,0.368-5.632,0.532V67c0,1.104,0.896,2,2,2s2-0.896,2-2V55.285l1.015,8.247
				c0.135,1.096,1.133,1.875,2.229,1.741c1.096-0.135,1.876-1.133,1.741-2.229l-1.191-9.678l1.283,4.473
				c0.304,1.062,1.412,1.676,2.474,1.371C76.613,58.906,77.227,57.798,76.922,56.736z"/>
		</g>
		<g>
			<path style="fill:#33899E;" d="M55,29.3v-6.014c-5.383,0.058-21,1.079-21,11.003c0,0.526,0.293,1.177,0.733,1.862
				C37.634,29.337,50.263,29.321,55,29.3z"/>
		</g>
		<g>
			<path style="fill:#FFFFFF;" d="M55,35.3v-6c-4.737,0.022-17.366,0.037-20.267,6.852c0.562,0.878,1.368,1.811,2.149,2.628
				C40.872,35.064,49.562,35.315,55,35.3z"/>
		</g>
		<g>
			<path style="fill:#00B7E5;" d="M36.882,38.779c0.956,1,1.206,2.351,3.486,2.638c2.765,0.348,7.644,0.801,14.632,0.871V35.3
				C49.552,35.315,40.871,35.066,36.882,38.779z"/>
		</g>
		<g>
			<path style="fill:#0C333D;" d="M40.368,41.417c-1.373-0.172-2.006-0.732-2.504-1.367l-4.786,16.687
				c-0.305,1.062,0.309,2.17,1.371,2.474c1.062,0.305,2.169-0.309,2.474-1.371l1.283-4.473l-1.191,9.678
				c-0.135,1.096,0.645,2.094,1.741,2.229c1.097,0.135,2.095-0.644,2.229-1.741L42,55.285V67c0,1.104,0.896,2,2,2s2-0.896,2-2
				V41.949C43.611,41.785,41.73,41.588,40.368,41.417z"/>
		</g>
	</g>
</g>
<g id="Green" style="display:none;">
	<g style="display:inline;">
		<g>
			<path style="fill:#009687;" d="M23,87l4-11c0.615-1.333,1.698-2.394,3.043-2.982L43,68l9,19H23z"/>
		</g>
		<g>
			<polygon style="fill:#FFFFFF;" points="52,87 43,68 45,67.497 45,65 41,66 35,83 45,81 50,87 			"/>
		</g>
		<g>
			<path style="fill:#009687;" d="M87,87l-4-11c-0.615-1.333-1.698-2.394-3.043-2.982L67,68l-9,19H87z"/>
		</g>
		<g>
			<polygon style="fill:#FFFFFF;" points="58,87 67,68 65,67.497 65,65 69,66 75,83 65,81 60,87 			"/>
		</g>
		<path style="fill:#3E948B;" d="M65,62.997l-5.106,3.996c-0.569,0.639-1.384,1.004-2.24,1.004H55h-2.655
			c-0.856,0-1.671-0.365-2.24-1.004L45,62.997v4.5l-2,0.5L52,87h6l9-19.003l-2-0.5V62.997z"/>
		<path style="fill:#28B5A7;" d="M50.105,66.993L45,62.997v4.5l-2,0.5L52,87h3V67.997h-2.655
			C51.489,67.997,50.674,67.632,50.105,66.993z"/>
		<g>
			<path style="fill:#28B5A7;" d="M55,30c-12.976,0-13.982,6-14,15v7.997l4,10l5.105,3.996c0.569,0.639,1.384,1.004,2.24,1.004H55
				h2.655c0.856,0,1.671-0.365,2.24-1.004L65,62.997l4-10V45C68.982,36,67.976,30,55,30z"/>
		</g>
		<g>
			<path style="fill:#55C9BE;" d="M41,45v7.997l4,10l5.105,3.996c0.569,0.639,1.384,1.004,2.24,1.004H55V30
				C42.024,30,41.018,36,41,45z"/>
		</g>
		<g>
			<path style="fill:#0A3631;" d="M52,46.997c0-1.105-0.896-2-2-2c-0.002,0-0.004,0-0.006,0C49.995,45.019,50,45.039,50,45.06
				c0,1.102-0.892,1.996-1.994,2c0.033,1.075,0.91,1.938,1.994,1.938C51.104,48.997,52,48.102,52,46.997z"/>
		</g>
		<g>
			<path style="fill:#0A3631;" d="M61.994,46.997c0-1.105-0.896-2-2-2c-0.002,0-0.004,0-0.006,0
				c0.001,0.021,0.006,0.041,0.006,0.062c0,1.102-0.892,1.996-1.994,2c0.033,1.075,0.91,1.938,1.994,1.938
				C61.098,48.997,61.994,48.102,61.994,46.997z"/>
		</g>
		<g>
			<path style="fill:#14635B;" d="M50,56.997h10c0,0,0,3-5,3S50,56.997,50,56.997z"/>
		</g>
		<path style="fill:#14635B;" d="M55,23.286c-5.383,0.058-21,1.079-21,11.004c0,0.526,0.293,1.177,0.733,1.862
			c2.901-6.814,15.53-6.83,20.267-6.852c4.737,0.022,17.366,0.037,20.267,6.852C75.706,35.466,76,34.815,76,34.289
			C76,24.365,60.383,23.344,55,23.286z"/>
		<path style="fill:#D7FCF9;" d="M55,29.3c-4.737,0.022-17.366,0.037-20.267,6.852c0.562,0.878,1.368,1.811,2.149,2.628
			c3.99-3.716,12.681-3.464,18.118-3.48c5.437,0.016,14.128-0.236,18.118,3.48c0.781-0.817,1.587-1.75,2.149-2.628
			C72.366,29.337,59.737,29.321,55,29.3z"/>
		<path style="fill:#00B8A5;" d="M55,35.3c-5.448,0.016-14.129-0.234-18.118,3.48c0.956,1,1.206,2.351,3.486,2.638
			c2.765,0.348,7.644,0.801,14.632,0.871c6.988-0.07,11.868-0.524,14.632-0.871c2.281-0.287,2.53-1.638,3.486-2.638
			C69.129,35.066,60.448,35.315,55,35.3z"/>
		<g>
			<path style="fill:#0A3631;" d="M76.922,56.736l-4.786-16.687c-0.498,0.635-1.131,1.195-2.504,1.368
				c-1.362,0.171-3.243,0.368-5.632,0.532V67c0,1.104,0.896,2,2,2s2-0.896,2-2V55.285l1.015,8.247
				c0.135,1.096,1.133,1.875,2.229,1.741c1.096-0.135,1.876-1.133,1.741-2.229l-1.191-9.678l1.283,4.473
				c0.304,1.062,1.412,1.676,2.474,1.371C76.613,58.906,77.227,57.798,76.922,56.736z"/>
		</g>
		<g>
			<path style="fill:#3E948B;" d="M55,29.3v-6.014c-5.383,0.058-21,1.079-21,11.003c0,0.526,0.293,1.177,0.733,1.862
				C37.634,29.337,50.263,29.321,55,29.3z"/>
		</g>
		<g>
			<path style="fill:#FFFFFF;" d="M55,35.3v-6c-4.737,0.022-17.366,0.037-20.267,6.852c0.562,0.878,1.368,1.811,2.149,2.628
				C40.872,35.064,49.562,35.315,55,35.3z"/>
		</g>
		<g>
			<path style="fill:#00D6C1;" d="M36.882,38.779c0.956,1,1.206,2.351,3.486,2.638c2.765,0.348,7.644,0.801,14.632,0.871V35.3
				C49.552,35.315,40.871,35.066,36.882,38.779z"/>
		</g>
		<g>
			<path style="fill:#0A3631;" d="M40.368,41.417c-1.373-0.172-2.006-0.732-2.504-1.367l-4.786,16.687
				c-0.305,1.062,0.309,2.17,1.371,2.474c1.062,0.305,2.169-0.309,2.474-1.371l1.283-4.473l-1.191,9.678
				c-0.135,1.096,0.645,2.094,1.741,2.229c1.097,0.135,2.095-0.644,2.229-1.741L42,55.285V67c0,1.104,0.896,2,2,2s2-0.896,2-2
				V41.949C43.611,41.785,41.73,41.588,40.368,41.417z"/>
		</g>
	</g>
</g>
<g id="R-Green" style="display:none;">
	<g style="display:inline;">
		<circle style="fill:#77E0C4;" cx="55" cy="55" r="55"/>
	</g>
	<g style="display:inline;">
		<g>
			<path style="fill:#009687;" d="M23,87l4-11c0.615-1.333,1.698-2.394,3.043-2.982L43,68l9,19H23z"/>
		</g>
		<g>
			<polygon style="fill:#FFFFFF;" points="52,87 43,68 45,67.497 45,65 41,66 35,83 45,81 50,87 			"/>
		</g>
		<g>
			<path style="fill:#009687;" d="M87,87l-4-11c-0.615-1.333-1.698-2.394-3.043-2.982L67,68l-9,19H87z"/>
		</g>
		<g>
			<polygon style="fill:#FFFFFF;" points="58,87 67,68 65,67.497 65,65 69,66 75,83 65,81 60,87 			"/>
		</g>
		<path style="fill:#3E948B;" d="M65,62.997l-5.106,3.996c-0.569,0.639-1.384,1.004-2.24,1.004H55h-2.655
			c-0.856,0-1.671-0.365-2.24-1.004L45,62.997v4.5l-2,0.5L52,87h6l9-19.003l-2-0.5V62.997z"/>
		<path style="fill:#28B5A7;" d="M50.105,66.993L45,62.997v4.5l-2,0.5L52,87h3V67.997h-2.655
			C51.489,67.997,50.674,67.632,50.105,66.993z"/>
		<g>
			<path style="fill:#28B5A7;" d="M55,30c-12.976,0-13.982,6-14,15v7.997l4,10l5.105,3.996c0.569,0.639,1.384,1.004,2.24,1.004H55
				h2.655c0.856,0,1.671-0.365,2.24-1.004L65,62.997l4-10V45C68.982,36,67.976,30,55,30z"/>
		</g>
		<g>
			<path style="fill:#55C9BE;" d="M41,45v7.997l4,10l5.105,3.996c0.569,0.639,1.384,1.004,2.24,1.004H55V30
				C42.024,30,41.018,36,41,45z"/>
		</g>
		<g>
			<path style="fill:#0A3631;" d="M52,46.997c0-1.105-0.896-2-2-2c-0.002,0-0.004,0-0.006,0C49.995,45.019,50,45.039,50,45.06
				c0,1.102-0.892,1.996-1.994,2c0.033,1.075,0.91,1.938,1.994,1.938C51.104,48.997,52,48.102,52,46.997z"/>
		</g>
		<g>
			<path style="fill:#0A3631;" d="M61.994,46.997c0-1.105-0.896-2-2-2c-0.002,0-0.004,0-0.006,0
				c0.001,0.021,0.006,0.041,0.006,0.062c0,1.102-0.892,1.996-1.994,2c0.033,1.075,0.91,1.938,1.994,1.938
				C61.098,48.997,61.994,48.102,61.994,46.997z"/>
		</g>
		<g>
			<path style="fill:#14635B;" d="M50,56.997h10c0,0,0,3-5,3S50,56.997,50,56.997z"/>
		</g>
		<path style="fill:#14635B;" d="M55,23.286c-5.383,0.058-21,1.079-21,11.004c0,0.526,0.293,1.177,0.733,1.862
			c2.901-6.814,15.53-6.83,20.267-6.852c4.737,0.022,17.366,0.037,20.267,6.852C75.706,35.466,76,34.815,76,34.289
			C76,24.365,60.383,23.344,55,23.286z"/>
		<path style="fill:#D7FCF9;" d="M55,29.3c-4.737,0.022-17.366,0.037-20.267,6.852c0.562,0.878,1.368,1.811,2.149,2.628
			c3.99-3.716,12.681-3.464,18.118-3.48c5.437,0.016,14.128-0.236,18.118,3.48c0.781-0.817,1.587-1.75,2.149-2.628
			C72.366,29.337,59.737,29.321,55,29.3z"/>
		<path style="fill:#00B8A5;" d="M55,35.3c-5.448,0.016-14.129-0.234-18.118,3.48c0.956,1,1.206,2.351,3.486,2.638
			c2.765,0.348,7.644,0.801,14.632,0.871c6.988-0.07,11.868-0.524,14.632-0.871c2.281-0.287,2.53-1.638,3.486-2.638
			C69.129,35.066,60.448,35.315,55,35.3z"/>
		<g>
			<path style="fill:#0A3631;" d="M76.922,56.736l-4.786-16.687c-0.498,0.635-1.131,1.195-2.504,1.368
				c-1.362,0.171-3.243,0.368-5.632,0.532V67c0,1.104,0.896,2,2,2s2-0.896,2-2V55.285l1.015,8.247
				c0.135,1.096,1.133,1.875,2.229,1.741c1.096-0.135,1.876-1.133,1.741-2.229l-1.191-9.678l1.283,4.473
				c0.304,1.062,1.412,1.676,2.474,1.371C76.613,58.906,77.227,57.798,76.922,56.736z"/>
		</g>
		<g>
			<path style="fill:#3E948B;" d="M55,29.3v-6.014c-5.383,0.058-21,1.079-21,11.003c0,0.526,0.293,1.177,0.733,1.862
				C37.634,29.337,50.263,29.321,55,29.3z"/>
		</g>
		<g>
			<path style="fill:#FFFFFF;" d="M55,35.3v-6c-4.737,0.022-17.366,0.037-20.267,6.852c0.562,0.878,1.368,1.811,2.149,2.628
				C40.872,35.064,49.562,35.315,55,35.3z"/>
		</g>
		<g>
			<path style="fill:#00D6C1;" d="M36.882,38.779c0.956,1,1.206,2.351,3.486,2.638c2.765,0.348,7.644,0.801,14.632,0.871V35.3
				C49.552,35.315,40.871,35.066,36.882,38.779z"/>
		</g>
		<g>
			<path style="fill:#0A3631;" d="M40.368,41.417c-1.373-0.172-2.006-0.732-2.504-1.367l-4.786,16.687
				c-0.305,1.062,0.309,2.17,1.371,2.474c1.062,0.305,2.169-0.309,2.474-1.371l1.283-4.473l-1.191,9.678
				c-0.135,1.096,0.645,2.094,1.741,2.229c1.097,0.135,2.095-0.644,2.229-1.741L42,55.285V67c0,1.104,0.896,2,2,2s2-0.896,2-2
				V41.949C43.611,41.785,41.73,41.588,40.368,41.417z"/>
		</g>
	</g>
</g>
<g id="Red" style="display:none;">
	<g style="display:inline;">
		<g>
			<path style="fill:#C23023;" d="M23,87.065l4-11c0.615-1.333,1.698-2.394,3.043-2.982L43,68.065l9,19H23z"/>
		</g>
		<g>
			<polygon style="fill:#FFFFFF;" points="52,87.065 43,68.065 45,67.562 45,65.065 41,66.065 35,83.065 45,81.065 50,87.065 			"/>
		</g>
		<g>
			<path style="fill:#C23023;" d="M87,87.065l-4-11c-0.615-1.333-1.698-2.394-3.043-2.982L67,68.065l-9,19H87z"/>
		</g>
		<g>
			<polygon style="fill:#FFFFFF;" points="58,87.065 67,68.065 65,67.562 65,65.065 69,66.065 75,83.065 65,81.065 60,87.065 			"/>
		</g>
		<path style="fill:#B84E44;" d="M65,63.062l-5.106,3.996c-0.569,0.639-1.384,1.004-2.24,1.004H55h-2.655
			c-0.856,0-1.671-0.365-2.24-1.004L45,63.062v4.5l-2,0.5l9,19.003h6l9-19.003l-2-0.5V63.062z"/>
		<path style="fill:#DB7D74;" d="M50.105,67.057L45,63.062v4.5l-2,0.5l9,19.003h3V68.062h-2.655
			C51.489,68.062,50.674,67.697,50.105,67.057z"/>
		<g>
			<path style="fill:#DB7D74;" d="M55,30.065c-12.976,0-13.982,6-14,15v7.997l4,10l5.105,3.996c0.569,0.639,1.384,1.004,2.24,1.004
				H55h2.655c0.856,0,1.671-0.365,2.24-1.004L65,63.062l4-10v-7.997C68.982,36.065,67.976,30.065,55,30.065z"/>
		</g>
		<g>
			<path style="fill:#E8A099;" d="M41,45.065v7.997l4,10l5.105,3.996c0.569,0.639,1.384,1.004,2.24,1.004H55V30.065
				C42.024,30.065,41.018,36.065,41,45.065z"/>
		</g>
		<g>
			<path style="fill:#4A1410;" d="M52,47.062c0-1.104-0.896-2-2-2c-0.002,0-0.004,0-0.006,0C49.995,45.083,50,45.103,50,45.124
				c0,1.103-0.892,1.996-1.994,2c0.033,1.075,0.91,1.938,1.994,1.938C51.104,49.062,52,48.166,52,47.062z"/>
		</g>
		<g>
			<path style="fill:#4A1410;" d="M61.994,47.062c0-1.104-0.896-2-2-2c-0.002,0-0.004,0-0.006,0
				c0.001,0.021,0.006,0.041,0.006,0.062c0,1.103-0.892,1.996-1.994,2c0.033,1.075,0.91,1.938,1.994,1.938
				C61.098,49.062,61.994,48.166,61.994,47.062z"/>
		</g>
		<g>
			<path style="fill:#7D261E;" d="M50,57.062h10c0,0,0,3-5,3S50,57.062,50,57.062z"/>
		</g>
		<path style="fill:#7D261E;" d="M55,23.35c-5.383,0.058-21,1.079-21,11.003c0,0.526,0.293,1.177,0.733,1.862
			c2.901-6.814,15.53-6.83,20.267-6.852c4.737,0.021,17.366,0.037,20.267,6.852C75.706,35.531,76,34.88,76,34.354
			C76,24.429,60.383,23.408,55,23.35z"/>
		<path style="fill:#FFEFED;" d="M55,29.365c-4.737,0.021-17.366,0.037-20.267,6.852c0.562,0.878,1.368,1.811,2.149,2.628
			c3.99-3.716,12.681-3.464,18.118-3.479c5.437,0.016,14.128-0.236,18.118,3.479c0.781-0.817,1.587-1.75,2.149-2.628
			C72.366,29.402,59.737,29.386,55,29.365z"/>
		<path style="fill:#E54B44;" d="M55,35.365c-5.448,0.016-14.129-0.234-18.118,3.479c0.956,1,1.206,2.351,3.486,2.638
			c2.765,0.348,7.644,0.801,14.632,0.871c6.988-0.07,11.868-0.523,14.632-0.871c2.281-0.287,2.53-1.638,3.486-2.638
			C69.129,35.131,60.448,35.38,55,35.365z"/>
		<g>
			<path style="fill:#4A1410;" d="M76.922,56.801l-4.786-16.687c-0.498,0.635-1.131,1.195-2.504,1.368
				c-1.362,0.171-3.243,0.368-5.632,0.532v25.051c0,1.104,0.896,2,2,2s2-0.896,2-2V55.35l1.015,8.247
				c0.135,1.096,1.133,1.875,2.229,1.741c1.096-0.135,1.876-1.133,1.741-2.229l-1.191-9.678l1.283,4.473
				c0.304,1.062,1.412,1.676,2.474,1.371C76.613,58.971,77.227,57.863,76.922,56.801z"/>
		</g>
		<g>
			<path style="fill:#B84E44;" d="M55,29.365v-6.014c-5.383,0.058-21,1.079-21,11.003c0,0.526,0.293,1.177,0.733,1.862
				C37.634,29.402,50.263,29.386,55,29.365z"/>
		</g>
		<g>
			<path style="fill:#FFFFFF;" d="M55,35.365v-6c-4.737,0.021-17.366,0.037-20.267,6.852c0.562,0.878,1.368,1.811,2.149,2.628
				C40.872,35.129,49.562,35.38,55,35.365z"/>
		</g>
		<g>
			<path style="fill:#FF6C5E;" d="M36.882,38.844c0.956,1,1.206,2.351,3.486,2.638c2.765,0.348,7.644,0.801,14.632,0.871v-6.988
				C49.552,35.38,40.871,35.131,36.882,38.844z"/>
		</g>
		<g>
			<path style="fill:#4A1410;" d="M40.368,41.482c-1.373-0.172-2.006-0.732-2.504-1.367l-4.786,16.687
				c-0.305,1.062,0.309,2.17,1.371,2.474c1.062,0.305,2.169-0.309,2.474-1.371l1.283-4.473l-1.191,9.678
				c-0.135,1.096,0.645,2.094,1.741,2.229c1.097,0.135,2.095-0.645,2.229-1.741L42,55.35v11.715c0,1.104,0.896,2,2,2s2-0.896,2-2
				V42.013C43.611,41.85,41.73,41.653,40.368,41.482z"/>
		</g>
	</g>
</g>
<g id="R-Red" style="display:none;">
	<g style="display:inline;">
		<circle style="fill:#FABBAF;" cx="55" cy="55" r="55"/>
	</g>
	<g style="display:inline;">
		<g>
			<path style="fill:#C23023;" d="M23,87l4-11c0.615-1.333,1.698-2.394,3.043-2.982L43,68l9,19H23z"/>
		</g>
		<g>
			<polygon style="fill:#FFFFFF;" points="52,87 43,68 45,67.497 45,65 41,66 35,83 45,81 50,87 			"/>
		</g>
		<g>
			<path style="fill:#C23023;" d="M87,87l-4-11c-0.615-1.333-1.698-2.394-3.043-2.982L67,68l-9,19H87z"/>
		</g>
		<g>
			<polygon style="fill:#FFFFFF;" points="58,87 67,68 65,67.497 65,65 69,66 75,83 65,81 60,87 			"/>
		</g>
		<path style="fill:#B84E44;" d="M65,62.997l-5.106,3.996c-0.569,0.639-1.384,1.004-2.24,1.004H55h-2.655
			c-0.856,0-1.671-0.365-2.24-1.004L45,62.997v4.5l-2,0.5L52,87h6l9-19.003l-2-0.5V62.997z"/>
		<path style="fill:#DB7D74;" d="M50.105,66.993L45,62.997v4.5l-2,0.5L52,87h3V67.997h-2.655
			C51.489,67.997,50.674,67.632,50.105,66.993z"/>
		<g>
			<path style="fill:#DB7D74;" d="M55,30c-12.976,0-13.982,6-14,15v7.997l4,10l5.105,3.996c0.569,0.639,1.384,1.004,2.24,1.004H55
				h2.655c0.856,0,1.671-0.365,2.24-1.004L65,62.997l4-10V45C68.982,36,67.976,30,55,30z"/>
		</g>
		<g>
			<path style="fill:#E8A099;" d="M41,45v7.997l4,10l5.105,3.996c0.569,0.639,1.384,1.004,2.24,1.004H55V30
				C42.024,30,41.018,36,41,45z"/>
		</g>
		<g>
			<path style="fill:#4A1410;" d="M52,46.997c0-1.105-0.896-2-2-2c-0.002,0-0.004,0-0.006,0C49.995,45.019,50,45.039,50,45.06
				c0,1.102-0.892,1.996-1.994,2c0.033,1.075,0.91,1.938,1.994,1.938C51.104,48.997,52,48.102,52,46.997z"/>
		</g>
		<g>
			<path style="fill:#4A1410;" d="M61.994,46.997c0-1.105-0.896-2-2-2c-0.002,0-0.004,0-0.006,0
				c0.001,0.021,0.006,0.041,0.006,0.062c0,1.102-0.892,1.996-1.994,2c0.033,1.075,0.91,1.938,1.994,1.938
				C61.098,48.997,61.994,48.102,61.994,46.997z"/>
		</g>
		<g>
			<path style="fill:#7D261E;" d="M50,56.997h10c0,0,0,3-5,3S50,56.997,50,56.997z"/>
		</g>
		<path style="fill:#7D261E;" d="M55,23.286c-5.383,0.058-21,1.079-21,11.004c0,0.526,0.293,1.177,0.733,1.862
			c2.901-6.814,15.53-6.83,20.267-6.852c4.737,0.022,17.366,0.037,20.267,6.852C75.706,35.466,76,34.815,76,34.289
			C76,24.365,60.383,23.344,55,23.286z"/>
		<path style="fill:#FFEFED;" d="M55,29.3c-4.737,0.022-17.366,0.037-20.267,6.852c0.562,0.878,1.368,1.811,2.149,2.628
			c3.99-3.716,12.681-3.464,18.118-3.48c5.437,0.016,14.128-0.236,18.118,3.48c0.781-0.817,1.587-1.75,2.149-2.628
			C72.366,29.337,59.737,29.321,55,29.3z"/>
		<path style="fill:#E54B44;" d="M55,35.3c-5.448,0.016-14.129-0.234-18.118,3.48c0.956,1,1.206,2.351,3.486,2.638
			c2.765,0.348,7.644,0.801,14.632,0.871c6.988-0.07,11.868-0.524,14.632-0.871c2.281-0.287,2.53-1.638,3.486-2.638
			C69.129,35.066,60.448,35.315,55,35.3z"/>
		<g>
			<path style="fill:#4A1410;" d="M76.922,56.736l-4.786-16.687c-0.498,0.635-1.131,1.195-2.504,1.368
				c-1.362,0.171-3.243,0.368-5.632,0.532V67c0,1.104,0.896,2,2,2s2-0.896,2-2V55.285l1.015,8.247
				c0.135,1.096,1.133,1.875,2.229,1.741c1.096-0.135,1.876-1.133,1.741-2.229l-1.191-9.678l1.283,4.473
				c0.304,1.062,1.412,1.676,2.474,1.371C76.613,58.906,77.227,57.798,76.922,56.736z"/>
		</g>
		<g>
			<path style="fill:#B84E44;" d="M55,29.3v-6.014c-5.383,0.058-21,1.079-21,11.003c0,0.526,0.293,1.177,0.733,1.862
				C37.634,29.337,50.263,29.321,55,29.3z"/>
		</g>
		<g>
			<path style="fill:#FFFFFF;" d="M55,35.3v-6c-4.737,0.022-17.366,0.037-20.267,6.852c0.562,0.878,1.368,1.811,2.149,2.628
				C40.872,35.064,49.562,35.315,55,35.3z"/>
		</g>
		<g>
			<path style="fill:#FF6C5E;" d="M36.882,38.779c0.956,1,1.206,2.351,3.486,2.638c2.765,0.348,7.644,0.801,14.632,0.871V35.3
				C49.552,35.315,40.871,35.066,36.882,38.779z"/>
		</g>
		<g>
			<path style="fill:#4A1410;" d="M40.368,41.417c-1.373-0.172-2.006-0.732-2.504-1.367l-4.786,16.687
				c-0.305,1.062,0.309,2.17,1.371,2.474c1.062,0.305,2.169-0.309,2.474-1.371l1.283-4.473l-1.191,9.678
				c-0.135,1.096,0.645,2.094,1.741,2.229c1.097,0.135,2.095-0.644,2.229-1.741L42,55.285V67c0,1.104,0.896,2,2,2s2-0.896,2-2
				V41.949C43.611,41.785,41.73,41.588,40.368,41.417z"/>
		</g>
	</g>
</g>
<g id="Yellow" style="display:none;">
	<g style="display:inline;">
		<g>
			<path style="fill:#E07000;" d="M23,87l4-11c0.615-1.333,1.698-2.394,3.043-2.982L43,68l9,19H23z"/>
		</g>
		<g>
			<polygon style="fill:#FFFFFF;" points="52,87 43,68 45,67.497 45,65 41,66 35,83 45,81 50,87 			"/>
		</g>
		<g>
			<path style="fill:#E07000;" d="M87,87l-4-11c-0.615-1.333-1.698-2.394-3.043-2.982L67,68l-9,19H87z"/>
		</g>
		<g>
			<polygon style="fill:#FFFFFF;" points="58,87 67,68 65,67.497 65,65 69,66 75,83 65,81 60,87 			"/>
		</g>
		<path style="fill:#947615;" d="M65,62.997l-5.106,3.996c-0.569,0.639-1.384,1.004-2.24,1.004H55h-2.655
			c-0.856,0-1.671-0.365-2.24-1.004L45,62.997v4.5l-2,0.5L52,87h6l9-19.003l-2-0.5V62.997z"/>
		<path style="fill:#D4A420;" d="M50.105,66.993L45,62.997v4.5l-2,0.5L52,87h3V67.997h-2.655
			C51.489,67.997,50.674,67.632,50.105,66.993z"/>
		<g>
			<path style="fill:#D4A420;" d="M55,30c-12.976,0-13.982,6-14,15v7.997l4,10l5.105,3.996c0.569,0.639,1.384,1.004,2.24,1.004H55
				h2.655c0.856,0,1.671-0.365,2.24-1.004L65,62.997l4-10V45C68.982,36,67.976,30,55,30z"/>
		</g>
		<g>
			<path style="fill:#F5C43D;" d="M41,45v7.997l4,10l5.105,3.996c0.569,0.639,1.384,1.004,2.24,1.004H55V30
				C42.024,30,41.018,36,41,45z"/>
		</g>
		<g>
			<path style="fill:#3D320C;" d="M52,46.997c0-1.105-0.896-2-2-2c-0.002,0-0.004,0-0.006,0C49.995,45.019,50,45.039,50,45.06
				c0,1.102-0.892,1.996-1.994,2c0.033,1.075,0.91,1.938,1.994,1.938C51.104,48.997,52,48.102,52,46.997z"/>
		</g>
		<g>
			<path style="fill:#3D320C;" d="M61.994,46.997c0-1.105-0.896-2-2-2c-0.002,0-0.004,0-0.006,0
				c0.001,0.021,0.006,0.041,0.006,0.062c0,1.102-0.892,1.996-1.994,2c0.033,1.075,0.91,1.938,1.994,1.938
				C61.098,48.997,61.994,48.102,61.994,46.997z"/>
		</g>
		<g>
			<path style="fill:#66510D;" d="M50,56.997h10c0,0,0,3-5,3S50,56.997,50,56.997z"/>
		</g>
		<path style="fill:#66510D;" d="M55,23.286c-5.383,0.058-21,1.079-21,11.004c0,0.526,0.293,1.177,0.733,1.862
			c2.901-6.814,15.53-6.83,20.267-6.852c4.737,0.022,17.366,0.037,20.267,6.852C75.706,35.466,76,34.815,76,34.289
			C76,24.365,60.383,23.344,55,23.286z"/>
		<path style="fill:#FFF5D9;" d="M55,29.3c-4.737,0.022-17.366,0.037-20.267,6.852c0.562,0.878,1.368,1.811,2.149,2.628
			c3.99-3.716,12.681-3.464,18.118-3.48c5.437,0.016,14.128-0.236,18.118,3.48c0.781-0.817,1.587-1.75,2.149-2.628
			C72.366,29.337,59.737,29.321,55,29.3z"/>
		<path style="fill:#FA9200;" d="M55,35.3c-5.448,0.016-14.129-0.234-18.118,3.48c0.956,1,1.206,2.351,3.486,2.638
			c2.765,0.348,7.644,0.801,14.632,0.871c6.988-0.07,11.868-0.524,14.632-0.871c2.281-0.287,2.53-1.638,3.486-2.638
			C69.129,35.066,60.448,35.315,55,35.3z"/>
		<g>
			<path style="fill:#3D320C;" d="M76.922,56.736l-4.786-16.687c-0.498,0.635-1.131,1.195-2.504,1.368
				c-1.362,0.171-3.243,0.368-5.632,0.532V67c0,1.104,0.896,2,2,2s2-0.896,2-2V55.285l1.015,8.247
				c0.135,1.096,1.133,1.875,2.229,1.741c1.096-0.135,1.876-1.133,1.741-2.229l-1.191-9.678l1.283,4.473
				c0.304,1.062,1.412,1.676,2.474,1.371C76.613,58.906,77.227,57.798,76.922,56.736z"/>
		</g>
		<g>
			<path style="fill:#947615;" d="M55,29.3v-6.014c-5.383,0.058-21,1.079-21,11.003c0,0.526,0.293,1.177,0.733,1.862
				C37.634,29.337,50.263,29.321,55,29.3z"/>
		</g>
		<g>
			<path style="fill:#FFFFFF;" d="M55,35.3v-6c-4.737,0.022-17.366,0.037-20.267,6.852c0.562,0.878,1.368,1.811,2.149,2.628
				C40.872,35.064,49.562,35.315,55,35.3z"/>
		</g>
		<g>
			<path style="fill:#FFAA00;" d="M36.882,38.779c0.956,1,1.206,2.351,3.486,2.638c2.765,0.348,7.644,0.801,14.632,0.871V35.3
				C49.552,35.315,40.871,35.066,36.882,38.779z"/>
		</g>
		<g>
			<path style="fill:#3D320C;" d="M40.368,41.417c-1.373-0.172-2.006-0.732-2.504-1.367l-4.786,16.687
				c-0.305,1.062,0.309,2.17,1.371,2.474c1.062,0.305,2.169-0.309,2.474-1.371l1.283-4.473l-1.191,9.678
				c-0.135,1.096,0.645,2.094,1.741,2.229c1.097,0.135,2.095-0.644,2.229-1.741L42,55.285V67c0,1.104,0.896,2,2,2s2-0.896,2-2
				V41.949C43.611,41.785,41.73,41.588,40.368,41.417z"/>
		</g>
	</g>
</g>
<g id="R-Yellow" style="display:none;">
	<g style="display:inline;">
		<circle style="fill:#FFD75E;" cx="55" cy="55" r="55"/>
	</g>
	<g style="display:inline;">
		<g>
			<path style="fill:#E07000;" d="M23,87l4-11c0.615-1.333,1.698-2.394,3.043-2.982L43,68l9,19H23z"/>
		</g>
		<g>
			<polygon style="fill:#FFFFFF;" points="52,87 43,68 45,67.497 45,65 41,66 35,83 45,81 50,87 			"/>
		</g>
		<g>
			<path style="fill:#E07000;" d="M87,87l-4-11c-0.615-1.333-1.698-2.394-3.043-2.982L67,68l-9,19H87z"/>
		</g>
		<g>
			<polygon style="fill:#FFFFFF;" points="58,87 67,68 65,67.497 65,65 69,66 75,83 65,81 60,87 			"/>
		</g>
		<path style="fill:#947615;" d="M65,62.997l-5.106,3.996c-0.569,0.639-1.384,1.004-2.24,1.004H55h-2.655
			c-0.856,0-1.671-0.365-2.24-1.004L45,62.997v4.5l-2,0.5L52,87h6l9-19.003l-2-0.5V62.997z"/>
		<path style="fill:#D4A420;" d="M50.105,66.993L45,62.997v4.5l-2,0.5L52,87h3V67.997h-2.655
			C51.489,67.997,50.674,67.632,50.105,66.993z"/>
		<g>
			<path style="fill:#D4A420;" d="M55,30c-12.976,0-13.982,6-14,15v7.997l4,10l5.105,3.996c0.569,0.639,1.384,1.004,2.24,1.004H55
				h2.655c0.856,0,1.671-0.365,2.24-1.004L65,62.997l4-10V45C68.982,36,67.976,30,55,30z"/>
		</g>
		<g>
			<path style="fill:#F5C43D;" d="M41,45v7.997l4,10l5.105,3.996c0.569,0.639,1.384,1.004,2.24,1.004H55V30
				C42.024,30,41.018,36,41,45z"/>
		</g>
		<g>
			<path style="fill:#3D320C;" d="M52,46.997c0-1.105-0.896-2-2-2c-0.002,0-0.004,0-0.006,0C49.995,45.019,50,45.039,50,45.06
				c0,1.102-0.892,1.996-1.994,2c0.033,1.075,0.91,1.938,1.994,1.938C51.104,48.997,52,48.102,52,46.997z"/>
		</g>
		<g>
			<path style="fill:#3D320C;" d="M61.994,46.997c0-1.105-0.896-2-2-2c-0.002,0-0.004,0-0.006,0
				c0.001,0.021,0.006,0.041,0.006,0.062c0,1.102-0.892,1.996-1.994,2c0.033,1.075,0.91,1.938,1.994,1.938
				C61.098,48.997,61.994,48.102,61.994,46.997z"/>
		</g>
		<g>
			<path style="fill:#66510D;" d="M50,56.997h10c0,0,0,3-5,3S50,56.997,50,56.997z"/>
		</g>
		<path style="fill:#66510D;" d="M55,23.286c-5.383,0.058-21,1.079-21,11.004c0,0.526,0.293,1.177,0.733,1.862
			c2.901-6.814,15.53-6.83,20.267-6.852c4.737,0.022,17.366,0.037,20.267,6.852C75.706,35.466,76,34.815,76,34.289
			C76,24.365,60.383,23.344,55,23.286z"/>
		<path style="fill:#FFF5D9;" d="M55,29.3c-4.737,0.022-17.366,0.037-20.267,6.852c0.562,0.878,1.368,1.811,2.149,2.628
			c3.99-3.716,12.681-3.464,18.118-3.48c5.437,0.016,14.128-0.236,18.118,3.48c0.781-0.817,1.587-1.75,2.149-2.628
			C72.366,29.337,59.737,29.321,55,29.3z"/>
		<path style="fill:#FA9200;" d="M55,35.3c-5.448,0.016-14.129-0.234-18.118,3.48c0.956,1,1.206,2.351,3.486,2.638
			c2.765,0.348,7.644,0.801,14.632,0.871c6.988-0.07,11.868-0.524,14.632-0.871c2.281-0.287,2.53-1.638,3.486-2.638
			C69.129,35.066,60.448,35.315,55,35.3z"/>
		<g>
			<path style="fill:#3D320C;" d="M76.922,56.736l-4.786-16.687c-0.498,0.635-1.131,1.195-2.504,1.368
				c-1.362,0.171-3.243,0.368-5.632,0.532V67c0,1.104,0.896,2,2,2s2-0.896,2-2V55.285l1.015,8.247
				c0.135,1.096,1.133,1.875,2.229,1.741c1.096-0.135,1.876-1.133,1.741-2.229l-1.191-9.678l1.283,4.473
				c0.304,1.062,1.412,1.676,2.474,1.371C76.613,58.906,77.227,57.798,76.922,56.736z"/>
		</g>
		<g>
			<path style="fill:#947615;" d="M55,29.3v-6.014c-5.383,0.058-21,1.079-21,11.003c0,0.526,0.293,1.177,0.733,1.862
				C37.634,29.337,50.263,29.321,55,29.3z"/>
		</g>
		<g>
			<path style="fill:#FFFFFF;" d="M55,35.3v-6c-4.737,0.022-17.366,0.037-20.267,6.852c0.562,0.878,1.368,1.811,2.149,2.628
				C40.872,35.064,49.562,35.315,55,35.3z"/>
		</g>
		<g>
			<path style="fill:#FFAA00;" d="M36.882,38.779c0.956,1,1.206,2.351,3.486,2.638c2.765,0.348,7.644,0.801,14.632,0.871V35.3
				C49.552,35.315,40.871,35.066,36.882,38.779z"/>
		</g>
		<g>
			<path style="fill:#3D320C;" d="M40.368,41.417c-1.373-0.172-2.006-0.732-2.504-1.367l-4.786,16.687
				c-0.305,1.062,0.309,2.17,1.371,2.474c1.062,0.305,2.169-0.309,2.474-1.371l1.283-4.473l-1.191,9.678
				c-0.135,1.096,0.645,2.094,1.741,2.229c1.097,0.135,2.095-0.644,2.229-1.741L42,55.285V67c0,1.104,0.896,2,2,2s2-0.896,2-2
				V41.949C43.611,41.785,41.73,41.588,40.368,41.417z"/>
		</g>
	</g>
</g>
</svg>
