<?xml version="1.0" encoding="iso-8859-1"?>
<!-- Generator: Adobe Illustrator 17.1.0, SVG Export Plug-In . SVG Version: 6.00 Build 0)  -->
<!DOCTYPE svg PUBLIC "-//W3C//DTD SVG 1.0//EN" "http://www.w3.org/TR/2001/REC-SVG-20010904/DTD/svg10.dtd">
<svg version="1.0" xmlns="http://www.w3.org/2000/svg" xmlns:xlink="http://www.w3.org/1999/xlink" x="0px" y="0px" width="110px"
	 height="110px" viewBox="0 0 110 110" style="enable-background:new 0 0 110 110;" xml:space="preserve">
<g id="Artboard" style="display:none;">
	
		<rect x="-1067.5" y="-35.5" style="display:inline;fill:#808080;stroke:#000000;stroke-miterlimit:10;" width="1209" height="197"/>
</g>
<g id="R-Multicolor" style="display:none;">
	<circle style="display:inline;fill:#32BEA6;" cx="55" cy="55" r="55"/>
	<g style="display:inline;">
		<g>
			<path style="fill:#F3B607;" d="M72.848,57c-1.72,4.302-4.449,6-7.79,6h-11.79c-12.53,0-4.15-17-16.68-17h-13.66l1.86-3.37
				c0.7-1.28,2.04-2.07,3.5-2.07h8.64c16,0,10,16.44,19.14,16.44H72.848z"/>
		</g>
		<g>
			<path style="fill:#F0F1F1;" d="M83.928,72c-1.657,0-3,1.343-3,3c0,3.846-2.048,6-6.172,6c0.54-4.323-0.302-8.454-2.223-12h-7.355
				c2.956,3.184,4.323,7.544,3.521,12H41.157c-0.796-4.421,0.544-8.796,3.513-12h-3.742c-1.145,0-2.232-0.245-3.217-0.678
				C35.52,72.014,34.525,76.401,35.1,81h-9.172c-1.657,0-3,1.343-3,3s1.343,3,3,3h49c7.178,0,12-4.822,12-12
				C86.928,73.343,85.584,72,83.928,72z"/>
		</g>
		<g>
			<path style="fill:#DF2C2C;" d="M82.928,53c0,4.86,2.63,5.78,3.62,11.29c0.22,1.16-0.11,2.37-0.87,3.27
				c-0.76,0.91-1.88,1.44-3.07,1.44h-41.68c-4.42,0-8-3.58-8-8v-4c0-4.426-3.577-8-8-8c-1.105,0-2-0.895-2-2v-1h13.66
				c12.53,0,4.15,17,16.68,17h11.79c10.697,0,6.055-16.104,20.77-18.68c0.44-0.08,0.89,0.15,1.08,0.57c0.19,0.41,0.08,0.9-0.27,1.19
				C84.818,47.57,82.928,49.88,82.928,53z"/>
		</g>
		<g>
			<path style="fill:#FACB1B;" d="M36.928,40.56h-8.64c-1.46,0-2.8,0.79-3.5,2.07L22.928,46h13.66
				c10.059,0,6.649,10.951,11.394,15.271l5.109-5.109C48.16,52.824,50.751,40.56,36.928,40.56z"/>
		</g>
		<g>
			<path style="fill:#FA5655;" d="M36.588,46h-13.66v1c0,1.104,0.896,2,2,2c4.423,0,8,3.574,8,8v4c0,4.203,3.24,7.64,7.358,7.968
				l7.696-7.696C43.237,56.951,46.647,46,36.588,46z"/>
		</g>
	</g>
</g>
<g id="Multicolor">
	<g>
		<g>
			<path style="fill:#F3B607;" d="M72.848,57c-1.72,4.302-4.449,6-7.79,6h-11.79c-12.53,0-4.15-17-16.68-17h-13.66l1.86-3.37
				c0.7-1.28,2.04-2.07,3.5-2.07h8.64c16,0,10,16.44,19.14,16.44H72.848z"/>
		</g>
		<g>
			<path style="fill:#F0F1F1;" d="M83.928,72c-1.657,0-3,1.343-3,3c0,3.846-2.048,6-6.172,6c0.54-4.323-0.302-8.454-2.223-12h-7.355
				c2.956,3.184,4.323,7.544,3.521,12H41.157c-0.796-4.421,0.544-8.796,3.513-12h-3.742c-1.145,0-2.232-0.245-3.217-0.678
				C35.52,72.014,34.525,76.401,35.1,81h-9.172c-1.657,0-3,1.343-3,3s1.343,3,3,3h49c7.178,0,12-4.822,12-12
				C86.928,73.343,85.584,72,83.928,72z"/>
		</g>
		<g>
			<path style="fill:#DF2C2C;" d="M82.928,53c0,4.86,2.63,5.78,3.62,11.29c0.22,1.16-0.11,2.37-0.87,3.27
				c-0.76,0.91-1.88,1.44-3.07,1.44h-41.68c-4.42,0-8-3.58-8-8v-4c0-4.426-3.577-8-8-8c-1.105,0-2-0.895-2-2v-1h13.66
				c12.53,0,4.15,17,16.68,17h11.79c10.697,0,6.055-16.104,20.77-18.68c0.44-0.08,0.89,0.15,1.08,0.57c0.19,0.41,0.08,0.9-0.27,1.19
				C84.818,47.57,82.928,49.88,82.928,53z"/>
		</g>
		<g>
			<path style="fill:#FACB1B;" d="M36.928,40.56h-8.64c-1.46,0-2.8,0.79-3.5,2.07L22.928,46h13.66
				c10.059,0,6.649,10.951,11.394,15.271l5.109-5.109C48.16,52.824,50.751,40.56,36.928,40.56z"/>
		</g>
		<g>
			<path style="fill:#FA5655;" d="M36.588,46h-13.66v1c0,1.104,0.896,2,2,2c4.423,0,8,3.574,8,8v4c0,4.203,3.24,7.64,7.358,7.968
				l7.696-7.696C43.237,56.951,46.647,46,36.588,46z"/>
		</g>
	</g>
</g>
<g id="Blue" style="display:none;">
	<g style="display:inline;">
		<g>
			<path style="fill:#0C333D;" d="M72.848,57c-1.721,4.302-4.449,6-7.79,6h-11.79c-12.529,0-4.15-17-16.68-17h-13.66l1.859-3.37
				c0.701-1.279,2.041-2.069,3.5-2.069h8.641c16,0,10,16.439,19.141,16.439H72.848z"/>
		</g>
		<g>
			<path style="fill:#E1F5FA;" d="M83.928,72c-1.657,0-3,1.343-3,3c0,3.846-2.049,6-6.172,6c0.54-4.323-0.302-8.454-2.223-12h-7.355
				c2.956,3.185,4.323,7.544,3.521,12H41.156c-0.795-4.421,0.544-8.796,3.514-12h-3.742c-1.145,0-2.232-0.245-3.217-0.678
				C35.519,72.014,34.525,76.401,35.1,81h-9.172c-1.657,0-3,1.343-3,3s1.343,3,3,3h49c7.178,0,12-4.822,12-12
				C86.928,73.343,85.584,72,83.928,72z"/>
		</g>
		<g>
			<path style="fill:#0081A1;" d="M82.928,53c0,4.86,2.63,5.78,3.62,11.29c0.22,1.16-0.11,2.37-0.87,3.271
				C84.918,68.47,83.798,69,82.607,69h-41.68c-4.42,0-8-3.58-8-8v-4c0-4.426-3.576-8-8-8c-1.104,0-2-0.896-2-2v-1h13.66
				c12.529,0,4.15,17,16.68,17h11.79c10.696,0,6.055-16.104,20.771-18.68c0.439-0.08,0.89,0.149,1.08,0.569
				c0.189,0.41,0.08,0.9-0.271,1.191C84.818,47.57,82.928,49.88,82.928,53z"/>
		</g>
		<g>
			<path style="fill:#0F6175;" d="M36.928,40.561h-8.641c-1.459,0-2.799,0.79-3.5,2.069L22.928,46h13.66
				c10.059,0,6.649,10.95,11.394,15.271l5.109-5.109C48.16,52.823,50.751,40.561,36.928,40.561z"/>
		</g>
		<g>
			<path style="fill:#009FC7;" d="M36.588,46h-13.66v1c0,1.104,0.896,2,2,2c4.424,0,8,3.574,8,8v4c0,4.203,3.24,7.64,7.358,7.968
				l7.696-7.696C43.237,56.95,46.646,46,36.588,46z"/>
		</g>
	</g>
</g>
<g id="R-Blue" style="display:none;">
	<circle style="display:inline;fill:#81D2EB;" cx="55" cy="55" r="55"/>
	<g style="display:inline;">
		<g>
			<path style="fill:#0C333D;" d="M72.848,57c-1.721,4.302-4.449,6-7.79,6h-11.79c-12.529,0-4.15-17-16.68-17h-13.66l1.859-3.37
				c0.701-1.279,2.041-2.069,3.5-2.069h8.641c16,0,10,16.439,19.141,16.439H72.848z"/>
		</g>
		<g>
			<path style="fill:#E1F5FA;" d="M83.928,72c-1.657,0-3,1.343-3,3c0,3.846-2.049,6-6.172,6c0.54-4.323-0.302-8.454-2.223-12h-7.355
				c2.956,3.185,4.323,7.544,3.521,12H41.156c-0.795-4.421,0.544-8.796,3.514-12h-3.742c-1.145,0-2.232-0.245-3.217-0.678
				C35.519,72.014,34.525,76.401,35.1,81h-9.172c-1.657,0-3,1.343-3,3c0,1.657,1.343,3,3,3h49c7.178,0,12-4.822,12-12
				C86.928,73.343,85.584,72,83.928,72z"/>
		</g>
		<g>
			<path style="fill:#0081A1;" d="M82.928,53c0,4.86,2.63,5.78,3.62,11.29c0.22,1.16-0.11,2.37-0.87,3.271
				C84.918,68.47,83.798,69,82.607,69h-41.68c-4.42,0-8-3.58-8-8v-4c0-4.426-3.576-8-8-8c-1.104,0-2-0.896-2-2v-1h13.66
				c12.529,0,4.15,17,16.68,17h11.79c10.696,0,6.055-16.104,20.771-18.68c0.439-0.08,0.89,0.149,1.08,0.569
				c0.189,0.41,0.08,0.9-0.271,1.191C84.818,47.57,82.928,49.88,82.928,53z"/>
		</g>
		<g>
			<path style="fill:#0F6175;" d="M36.928,40.561h-8.641c-1.459,0-2.799,0.79-3.5,2.069L22.928,46h13.66
				c10.059,0,6.649,10.95,11.394,15.271l5.109-5.109C48.16,52.823,50.751,40.561,36.928,40.561z"/>
		</g>
		<g>
			<path style="fill:#009FC7;" d="M36.588,46h-13.66v1c0,1.104,0.896,2,2,2c4.424,0,8,3.574,8,8v4c0,4.203,3.24,7.64,7.358,7.968
				l7.696-7.696C43.237,56.95,46.646,46,36.588,46z"/>
		</g>
	</g>
</g>
<g id="Green" style="display:none;">
	<g style="display:inline;">
		<g>
			<path style="fill:#0A3631;" d="M72.848,56.938c-1.721,4.302-4.449,6-7.79,6h-11.79c-12.529,0-4.15-17-16.68-17h-13.66l1.859-3.37
				c0.701-1.279,2.041-2.069,3.5-2.069h8.641c16,0,10,16.44,19.141,16.44H72.848z"/>
		</g>
		<g>
			<path style="fill:#D7FCF9;" d="M83.928,71.938c-1.657,0-3,1.343-3,3c0,3.846-2.049,6-6.172,6c0.54-4.323-0.302-8.454-2.223-12
				h-7.356c2.956,3.185,4.323,7.544,3.522,12H41.156c-0.795-4.421,0.544-8.796,3.514-12h-3.742c-1.145,0-2.232-0.245-3.217-0.678
				c-2.191,3.691-3.186,8.079-2.611,12.678h-9.172c-1.657,0-3,1.343-3,3c0,1.657,1.343,3,3,3h49c7.178,0,12-4.822,12-12
				C86.928,73.28,85.584,71.938,83.928,71.938z"/>
		</g>
		<g>
			<path style="fill:#009687;" d="M82.928,52.938c0,4.86,2.63,5.78,3.62,11.29c0.22,1.16-0.11,2.37-0.87,3.271
				c-0.76,0.909-1.88,1.44-3.07,1.44h-41.68c-4.42,0-8-3.58-8-8v-4c0-4.426-3.576-8-8-8c-1.104,0-2-0.896-2-2v-1h13.66
				c12.529,0,4.15,17,16.68,17h11.79c10.696,0,6.055-16.105,20.771-18.68c0.439-0.08,0.89,0.149,1.08,0.569
				c0.189,0.41,0.08,0.9-0.271,1.19C84.818,47.508,82.928,49.817,82.928,52.938z"/>
		</g>
		<g>
			<path style="fill:#14635B;" d="M36.928,40.498h-8.641c-1.459,0-2.799,0.79-3.5,2.069l-1.859,3.37h13.66
				c10.059,0,6.649,10.95,11.395,15.271l5.109-5.109C48.16,52.761,50.751,40.498,36.928,40.498z"/>
		</g>
		<g>
			<path style="fill:#00B8A5;" d="M36.588,45.938h-13.66v1c0,1.104,0.896,2,2,2c4.424,0,8,3.574,8,8v4
				c0,4.203,3.24,7.64,7.358,7.968l7.696-7.696C43.237,56.888,46.646,45.938,36.588,45.938z"/>
		</g>
	</g>
</g>
<g id="R-Green" style="display:none;">
	<circle style="display:inline;fill:#77E0C4;" cx="55" cy="55" r="55"/>
	<g style="display:inline;">
		<g>
			<path style="fill:#0A3631;" d="M72.848,57c-1.721,4.302-4.449,6-7.79,6h-11.79c-12.529,0-4.15-17-16.68-17h-13.66l1.859-3.37
				c0.701-1.279,2.041-2.069,3.5-2.069h8.641c16,0,10,16.439,19.141,16.439H72.848z"/>
		</g>
		<g>
			<path style="fill:#D7FCF9;" d="M83.928,72c-1.657,0-3,1.343-3,3c0,3.846-2.049,6-6.172,6c0.54-4.323-0.302-8.454-2.223-12h-7.355
				c2.956,3.185,4.323,7.544,3.521,12H41.156c-0.795-4.421,0.544-8.796,3.514-12h-3.742c-1.145,0-2.232-0.245-3.217-0.678
				C35.52,72.014,34.525,76.401,35.1,81h-9.172c-1.657,0-3,1.343-3,3c0,1.657,1.343,3,3,3h49c7.178,0,12-4.822,12-12
				C86.928,73.343,85.584,72,83.928,72z"/>
		</g>
		<g>
			<path style="fill:#009687;" d="M82.928,53c0,4.86,2.63,5.78,3.62,11.29c0.22,1.16-0.11,2.37-0.87,3.271
				C84.918,68.47,83.798,69,82.607,69h-41.68c-4.42,0-8-3.58-8-8v-4c0-4.426-3.576-8-8-8c-1.104,0-2-0.896-2-2v-1h13.66
				c12.529,0,4.15,17,16.68,17h11.79c10.696,0,6.055-16.104,20.771-18.68c0.439-0.08,0.89,0.149,1.08,0.569
				c0.189,0.41,0.08,0.9-0.271,1.191C84.818,47.57,82.928,49.88,82.928,53z"/>
		</g>
		<g>
			<path style="fill:#14635B;" d="M36.928,40.561h-8.641c-1.459,0-2.799,0.79-3.5,2.069L22.928,46h13.66
				c10.059,0,6.649,10.95,11.394,15.271l5.109-5.109C48.16,52.823,50.751,40.561,36.928,40.561z"/>
		</g>
		<g>
			<path style="fill:#00B8A5;" d="M36.588,46h-13.66v1c0,1.104,0.896,2,2,2c4.424,0,8,3.574,8,8v4c0,4.203,3.24,7.64,7.358,7.968
				l7.696-7.696C43.237,56.95,46.646,46,36.588,46z"/>
		</g>
	</g>
</g>
<g id="Red" style="display:none;">
	<g style="display:inline;">
		<g>
			<path style="fill:#4A1410;" d="M72.848,57c-1.721,4.302-4.449,6-7.79,6h-11.79c-12.529,0-4.15-17-16.68-17h-13.66l1.859-3.37
				c0.701-1.279,2.041-2.069,3.5-2.069h8.641c16,0,10,16.439,19.141,16.439H72.848z"/>
		</g>
		<g>
			<path style="fill:#FFEFED;" d="M83.928,72c-1.657,0-3,1.343-3,3c0,3.846-2.049,6-6.172,6c0.54-4.323-0.302-8.454-2.223-12h-7.356
				c2.956,3.185,4.323,7.544,3.522,12H41.156c-0.795-4.421,0.544-8.796,3.514-12h-3.742c-1.145,0-2.232-0.245-3.217-0.678
				C35.519,72.014,34.525,76.401,35.1,81h-9.172c-1.657,0-3,1.343-3,3c0,1.657,1.343,3,3,3h49c7.178,0,12-4.822,12-12
				C86.928,73.343,85.584,72,83.928,72z"/>
		</g>
		<g>
			<path style="fill:#C23023;" d="M82.928,53c0,4.86,2.63,5.78,3.62,11.29c0.22,1.16-0.11,2.37-0.87,3.271
				C84.918,68.47,83.798,69,82.607,69h-41.68c-4.42,0-8-3.58-8-8v-4c0-4.426-3.576-8-8-8c-1.104,0-2-0.896-2-2v-1h13.66
				c12.529,0,4.15,17,16.68,17h11.79c10.696,0,6.055-16.104,20.771-18.68c0.439-0.08,0.89,0.149,1.08,0.569
				c0.189,0.41,0.08,0.9-0.27,1.19C84.818,47.57,82.928,49.88,82.928,53z"/>
		</g>
		<g>
			<path style="fill:#7D261E;" d="M36.928,40.561h-8.641c-1.459,0-2.799,0.79-3.5,2.069L22.928,46h13.66
				c10.059,0,6.649,10.95,11.395,15.271l5.109-5.109C48.16,52.823,50.751,40.561,36.928,40.561z"/>
		</g>
		<g>
			<path style="fill:#E54B44;" d="M36.588,46h-13.66v1c0,1.104,0.896,2,2,2c4.424,0,8,3.574,8,8v4c0,4.203,3.24,7.64,7.358,7.968
				l7.696-7.696C43.237,56.95,46.646,46,36.588,46z"/>
		</g>
	</g>
</g>
<g id="R-Red" style="display:none;">
	<circle style="display:inline;fill:#FABBAF;" cx="55" cy="55" r="55"/>
	<g style="display:inline;">
		<g>
			<path style="fill:#4A1410;" d="M72.848,57c-1.721,4.302-4.449,6-7.79,6h-11.79c-12.529,0-4.15-17-16.68-17h-13.66l1.859-3.37
				c0.701-1.279,2.041-2.069,3.5-2.069h8.641c16,0,10,16.439,19.141,16.439H72.848z"/>
		</g>
		<g>
			<path style="fill:#FFEFED;" d="M83.928,72c-1.657,0-3,1.343-3,3c0,3.846-2.049,6-6.172,6c0.54-4.323-0.302-8.454-2.223-12h-7.356
				c2.956,3.185,4.323,7.544,3.522,12H41.156c-0.795-4.421,0.544-8.796,3.514-12h-3.742c-1.145,0-2.232-0.245-3.217-0.678
				C35.519,72.014,34.525,76.401,35.1,81h-9.172c-1.657,0-3,1.343-3,3c0,1.657,1.343,3,3,3h49c7.178,0,12-4.822,12-12
				C86.928,73.343,85.584,72,83.928,72z"/>
		</g>
		<g>
			<path style="fill:#C23023;" d="M82.928,53c0,4.86,2.63,5.78,3.62,11.29c0.22,1.16-0.11,2.37-0.87,3.271
				C84.918,68.47,83.798,69,82.607,69h-41.68c-4.42,0-8-3.58-8-8v-4c0-4.426-3.576-8-8-8c-1.104,0-2-0.896-2-2v-1h13.66
				c12.529,0,4.15,17,16.68,17h11.79c10.696,0,6.055-16.104,20.771-18.68c0.439-0.08,0.89,0.149,1.08,0.569
				c0.189,0.41,0.08,0.9-0.27,1.19C84.818,47.57,82.928,49.88,82.928,53z"/>
		</g>
		<g>
			<path style="fill:#7D261E;" d="M36.928,40.561h-8.641c-1.459,0-2.799,0.79-3.5,2.069L22.928,46h13.66
				c10.059,0,6.649,10.95,11.395,15.271l5.109-5.109C48.16,52.823,50.751,40.561,36.928,40.561z"/>
		</g>
		<g>
			<path style="fill:#E54B44;" d="M36.588,46h-13.66v1c0,1.104,0.896,2,2,2c4.424,0,8,3.574,8,8v4c0,4.203,3.24,7.64,7.358,7.968
				l7.696-7.696C43.237,56.95,46.646,46,36.588,46z"/>
		</g>
	</g>
</g>
<g id="Yellow" style="display:none;">
	<g style="display:inline;">
		<g>
			<path style="fill:#3D320C;" d="M72.848,57c-1.721,4.302-4.449,6-7.79,6h-11.79c-12.529,0-4.15-17-16.68-17h-13.66l1.859-3.37
				c0.701-1.279,2.041-2.069,3.5-2.069h8.641c16,0,10,16.439,19.141,16.439H72.848z"/>
		</g>
		<g>
			<path style="fill:#FFF5D9;" d="M83.928,72c-1.657,0-3,1.343-3,3c0,3.846-2.049,6-6.172,6c0.54-4.323-0.302-8.454-2.223-12h-7.355
				c2.956,3.185,4.323,7.544,3.521,12H41.156c-0.795-4.421,0.544-8.796,3.514-12h-3.742c-1.145,0-2.232-0.245-3.217-0.678
				C35.52,72.014,34.525,76.401,35.1,81h-9.172c-1.657,0-3,1.343-3,3c0,1.657,1.343,3,3,3h49c7.178,0,12-4.822,12-12
				C86.928,73.343,85.584,72,83.928,72z"/>
		</g>
		<g>
			<path style="fill:#E07000;" d="M82.928,53c0,4.86,2.63,5.78,3.62,11.29c0.22,1.16-0.11,2.37-0.87,3.271
				C84.918,68.47,83.798,69,82.607,69h-41.68c-4.42,0-8-3.58-8-8v-4c0-4.426-3.576-8-8-8c-1.104,0-2-0.896-2-2v-1h13.66
				c12.529,0,4.15,17,16.68,17h11.79c10.696,0,6.055-16.104,20.771-18.68c0.439-0.08,0.89,0.149,1.08,0.569
				c0.189,0.41,0.08,0.9-0.271,1.191C84.818,47.57,82.928,49.88,82.928,53z"/>
		</g>
		<g>
			<path style="fill:#66510D;" d="M36.928,40.561h-8.641c-1.459,0-2.799,0.79-3.5,2.069L22.928,46h13.66
				c10.059,0,6.649,10.95,11.394,15.271l5.109-5.109C48.16,52.823,50.751,40.561,36.928,40.561z"/>
		</g>
		<g>
			<path style="fill:#FA9200;" d="M36.588,46h-13.66v1c0,1.104,0.896,2,2,2c4.424,0,8,3.574,8,8v4c0,4.203,3.24,7.64,7.358,7.968
				l7.696-7.696C43.237,56.95,46.646,46,36.588,46z"/>
		</g>
	</g>
</g>
<g id="R-Yellow" style="display:none;">
	<circle style="display:inline;fill:#FFD75E;" cx="55" cy="55" r="55"/>
	<g style="display:inline;">
		<g>
			<path style="fill:#3D320C;" d="M72.848,57c-1.721,4.302-4.449,6-7.79,6h-11.79c-12.529,0-4.15-17-16.68-17h-13.66l1.859-3.37
				c0.701-1.279,2.041-2.069,3.5-2.069h8.641c16,0,10,16.439,19.141,16.439H72.848z"/>
		</g>
		<g>
			<path style="fill:#FFF5D9;" d="M83.928,72c-1.657,0-3,1.343-3,3c0,3.846-2.049,6-6.172,6c0.54-4.323-0.302-8.454-2.223-12h-7.355
				c2.956,3.185,4.323,7.544,3.521,12H41.156c-0.795-4.421,0.544-8.796,3.514-12h-3.742c-1.145,0-2.232-0.245-3.217-0.678
				C35.519,72.014,34.525,76.401,35.1,81h-9.172c-1.657,0-3,1.343-3,3c0,1.657,1.343,3,3,3h49c7.178,0,12-4.822,12-12
				C86.928,73.343,85.584,72,83.928,72z"/>
		</g>
		<g>
			<path style="fill:#E07000;" d="M82.928,53c0,4.86,2.63,5.78,3.62,11.29c0.22,1.16-0.11,2.37-0.87,3.271
				C84.918,68.47,83.798,69,82.607,69h-41.68c-4.42,0-8-3.58-8-8v-4c0-4.426-3.576-8-8-8c-1.104,0-2-0.896-2-2v-1h13.66
				c12.529,0,4.15,17,16.68,17h11.79c10.696,0,6.055-16.104,20.771-18.68c0.439-0.08,0.89,0.149,1.08,0.569
				c0.189,0.41,0.08,0.9-0.271,1.191C84.818,47.57,82.928,49.88,82.928,53z"/>
		</g>
		<g>
			<path style="fill:#66510D;" d="M36.928,40.561h-8.641c-1.459,0-2.799,0.79-3.5,2.069L22.928,46h13.66
				c10.059,0,6.649,10.95,11.394,15.271l5.109-5.109C48.16,52.823,50.751,40.561,36.928,40.561z"/>
		</g>
		<g>
			<path style="fill:#FA9200;" d="M36.588,46h-13.66v1c0,1.104,0.896,2,2,2c4.424,0,8,3.574,8,8v4c0,4.203,3.24,7.64,7.358,7.968
				l7.696-7.696C43.237,56.95,46.646,46,36.588,46z"/>
		</g>
	</g>
</g>
</svg>
