<?xml version="1.0" encoding="iso-8859-1"?>
<!-- Generator: Adobe Illustrator 17.1.0, SVG Export Plug-In . SVG Version: 6.00 Build 0)  -->
<!DOCTYPE svg PUBLIC "-//W3C//DTD SVG 1.0//EN" "http://www.w3.org/TR/2001/REC-SVG-20010904/DTD/svg10.dtd">
<svg version="1.0" xmlns="http://www.w3.org/2000/svg" xmlns:xlink="http://www.w3.org/1999/xlink" x="0px" y="0px" width="110px"
	 height="110px" viewBox="0 0 110 110" style="enable-background:new 0 0 110 110;" xml:space="preserve">
<g id="Artboard" style="display:none;">
	
		<rect x="-319.5" y="-197.5" style="display:inline;fill:#808080;stroke:#000000;stroke-miterlimit:10;" width="1401" height="740"/>
</g>
<g id="R-Multicolor" style="display:none;">
	<circle style="display:inline;fill:#FABC3D;" cx="55" cy="55" r="55"/>
	<g style="display:inline;">
		<g>
			<path style="fill:#0484AB;" d="M66.99,27.03L63,23H47l-3.99,4.03l-19.313,6.155C23.282,33.317,23,33.702,23,34.138v18.201
				c0,0.291,0.127,0.568,0.347,0.758c0.221,0.19,0.513,0.274,0.801,0.231L33,52v33c0,1.105,0.895,2,2,2h40c1.105,0,2-0.895,2-2V52
				l8.852,1.328c0.288,0.043,0.58-0.041,0.801-0.231C86.873,52.907,87,52.63,87,52.339V34.138c0-0.435-0.282-0.821-0.696-0.953
				L66.99,27.03z"/>
		</g>
		<g>
			<path style="fill:#059BBF;" d="M55,23h-1h-7l-3.99,4.03l-19.313,6.155C23.282,33.317,23,33.702,23,34.138v18.201
				c0,0.291,0.127,0.568,0.347,0.758c0.221,0.19,0.513,0.274,0.801,0.231L33,52v33c0,1.104,0.896,2,2,2h20V23z"/>
		</g>
		<g>
			<path style="fill:#40C9E7;" d="M83,32.132l3.304,1.053C86.719,33.317,87,33.702,87,34.138v18.201
				c0,0.291-0.127,0.568-0.347,0.758c-0.221,0.19-0.513,0.274-0.801,0.231L83,52.9V32.132z"/>
		</g>
		<g>
			<polygon style="fill:#40C9E7;" points="49,52 43,54 37,52 37,41 49,41 			"/>
		</g>
		<g>
			<rect x="37" y="41" style="fill:#21B2D1;" width="12" height="4"/>
		</g>
		<g>
			<polygon style="fill:#40C9E7;" points="72,52 66,54 60,52 60,41 72,41 			"/>
		</g>
		<g>
			<rect x="60" y="41" style="fill:#21B2D1;" width="12" height="4"/>
		</g>
		<g>
			<path style="fill:#40C9E7;" d="M27,32.132l-3.304,1.053C23.282,33.317,23,33.702,23,34.138v18.201
				c0,0.291,0.127,0.568,0.347,0.758c0.221,0.19,0.513,0.274,0.801,0.231L27,52.9V32.132z"/>
		</g>
		<g>
			<path style="fill:#0484AB;" d="M55,23h-8c0,4.115,2,8,8,8s8-3.885,8-8H55z"/>
		</g>
		<g>
			<path style="fill:#6FDAF1;" d="M67,27l-4-4c0,4.115-2,8-8,8s-8-3.885-8-8l-4,4l0.01,0.03L43,36l12-4l12,4l-0.01-8.97L67,27z"/>
		</g>
	</g>
</g>
<g id="Multicolor">
	<g>
		<g>
			<path style="fill:#0484AB;" d="M66.99,27.03L63,23H47l-3.99,4.03l-19.313,6.155C23.282,33.317,23,33.702,23,34.138v18.201
				c0,0.291,0.127,0.568,0.347,0.758c0.221,0.19,0.513,0.274,0.801,0.231L33,52v33c0,1.105,0.895,2,2,2h40c1.105,0,2-0.895,2-2V52
				l8.852,1.328c0.288,0.043,0.58-0.041,0.801-0.231C86.873,52.907,87,52.63,87,52.339V34.138c0-0.435-0.282-0.821-0.696-0.953
				L66.99,27.03z"/>
		</g>
		<g>
			<path style="fill:#059BBF;" d="M55,23h-1h-7l-3.99,4.03l-19.313,6.155C23.282,33.317,23,33.702,23,34.138v18.201
				c0,0.291,0.127,0.568,0.347,0.758c0.221,0.19,0.513,0.274,0.801,0.231L33,52v33c0,1.104,0.896,2,2,2h20V23z"/>
		</g>
		<g>
			<path style="fill:#40C9E7;" d="M83,32.132l3.304,1.053C86.719,33.317,87,33.702,87,34.138v18.201
				c0,0.291-0.127,0.568-0.347,0.758c-0.221,0.19-0.513,0.274-0.801,0.231L83,52.9V32.132z"/>
		</g>
		<g>
			<polygon style="fill:#40C9E7;" points="49,52 43,54 37,52 37,41 49,41 			"/>
		</g>
		<g>
			<rect x="37" y="41" style="fill:#21B2D1;" width="12" height="4"/>
		</g>
		<g>
			<polygon style="fill:#40C9E7;" points="72,52 66,54 60,52 60,41 72,41 			"/>
		</g>
		<g>
			<rect x="60" y="41" style="fill:#21B2D1;" width="12" height="4"/>
		</g>
		<g>
			<path style="fill:#40C9E7;" d="M27,32.132l-3.304,1.053C23.282,33.317,23,33.702,23,34.138v18.201
				c0,0.291,0.127,0.568,0.347,0.758c0.221,0.19,0.513,0.274,0.801,0.231L27,52.9V32.132z"/>
		</g>
		<g>
			<path style="fill:#0484AB;" d="M55,23h-8c0,4.115,2,8,8,8s8-3.885,8-8H55z"/>
		</g>
		<g>
			<path style="fill:#6FDAF1;" d="M67,27l-4-4c0,4.115-2,8-8,8s-8-3.885-8-8l-4,4l0.01,0.03L43,36l12-4l12,4l-0.01-8.97L67,27z"/>
		</g>
	</g>
</g>
<g id="Blue" style="display:none;">
	<g style="display:inline;">
		<g>
			<path style="fill:#0081A1;" d="M67.014,27.03L63.024,23h-16l-3.99,4.03L23.72,33.185c-0.415,0.133-0.696,0.517-0.696,0.953
				v18.201c0,0.291,0.127,0.568,0.348,0.758c0.221,0.189,0.513,0.274,0.801,0.231L33.024,52v33c0,1.104,0.896,2,2,2h40
				c1.104,0,2-0.896,2-2V52l8.852,1.328c0.288,0.043,0.58-0.042,0.801-0.231c0.221-0.189,0.348-0.467,0.348-0.758V34.138
				c0-0.436-0.281-0.82-0.696-0.953L67.014,27.03z"/>
		</g>
		<g>
			<path style="fill:#009FC7;" d="M55.024,23h-1h-7l-3.99,4.03L23.72,33.185c-0.415,0.133-0.696,0.517-0.696,0.953v18.201
				c0,0.291,0.127,0.568,0.348,0.758c0.221,0.189,0.513,0.274,0.801,0.23L33.024,52v33c0,1.104,0.896,2,2,2h20V23z"/>
		</g>
		<g>
			<path style="fill:#E1F5FA;" d="M83.024,32.132l3.304,1.053c0.415,0.133,0.696,0.517,0.696,0.953v18.201
				c0,0.291-0.127,0.568-0.348,0.758c-0.221,0.189-0.513,0.274-0.801,0.231l-2.852-0.429V32.132z"/>
		</g>
		<g>
			<polygon style="fill:#E1F5FA;" points="49.024,52 43.024,54 37.024,52 37.024,41 49.024,41 			"/>
		</g>
		<g>
			<rect x="37.024" y="41" style="fill:#BBE7F2;" width="12" height="4"/>
		</g>
		<g>
			<polygon style="fill:#E1F5FA;" points="72.024,52 66.024,54 60.024,52 60.024,41 72.024,41 			"/>
		</g>
		<g>
			<rect x="60.024" y="41" style="fill:#BBE7F2;" width="12" height="4"/>
		</g>
		<g>
			<path style="fill:#E1F5FA;" d="M27.024,32.132l-3.304,1.053c-0.415,0.133-0.696,0.517-0.696,0.953v18.201
				c0,0.291,0.127,0.568,0.348,0.758c0.221,0.189,0.513,0.274,0.801,0.231l2.852-0.429V32.132z"/>
		</g>
		<g>
			<path style="fill:#0081A1;" d="M55.024,23h-8c0,4.114,2,8,8,8s8-3.886,8-8H55.024z"/>
		</g>
		<g>
			<path style="fill:#E1F5FA;" d="M67.024,27l-4-4c0,4.114-2,8-8,8s-8-3.886-8-8l-4,4l0.01,0.03L43.024,36l12-4l12,4l-0.01-8.97
				L67.024,27z"/>
		</g>
	</g>
</g>
<g id="R-Blue" style="display:none;">
	<circle style="display:inline;fill:#81D2EB;" cx="55" cy="55" r="55"/>
	<g style="display:inline;">
		<g>
			<path style="fill:#0081A1;" d="M66.99,27.03L63,23H47l-3.99,4.03l-19.313,6.154C23.281,33.317,23,33.702,23,34.138v18.201
				c0,0.291,0.127,0.568,0.348,0.758c0.221,0.189,0.513,0.274,0.801,0.231L33,52v33c0,1.104,0.896,2,2,2h40c1.104,0,2-0.896,2-2V52
				l8.852,1.328c0.288,0.043,0.58-0.042,0.801-0.231C86.873,52.907,87,52.63,87,52.339V34.138c0-0.436-0.281-0.82-0.696-0.953
				L66.99,27.03z"/>
		</g>
		<g>
			<path style="fill:#009FC7;" d="M55,23h-1h-7l-3.99,4.03l-19.313,6.154C23.281,33.317,23,33.702,23,34.138v18.201
				c0,0.291,0.127,0.568,0.348,0.758c0.221,0.189,0.513,0.274,0.801,0.23L33,52v33c0,1.104,0.896,2,2,2h20V23z"/>
		</g>
		<g>
			<path style="fill:#E1F5FA;" d="M83,32.132l3.304,1.053C86.719,33.317,87,33.702,87,34.138v18.201
				c0,0.291-0.127,0.568-0.348,0.758c-0.221,0.189-0.513,0.274-0.801,0.231L83,52.899V32.132z"/>
		</g>
		<g>
			<polygon style="fill:#E1F5FA;" points="49,52 43,54 37,52 37,41 49,41 			"/>
		</g>
		<g>
			<rect x="37" y="41" style="fill:#BBE7F2;" width="12" height="4"/>
		</g>
		<g>
			<polygon style="fill:#E1F5FA;" points="72,52 66,54 60,52 60,41 72,41 			"/>
		</g>
		<g>
			<rect x="60" y="41" style="fill:#BBE7F2;" width="12" height="4"/>
		</g>
		<g>
			<path style="fill:#E1F5FA;" d="M27,32.132l-3.304,1.053C23.281,33.317,23,33.702,23,34.138v18.201
				c0,0.291,0.127,0.568,0.348,0.758c0.221,0.189,0.513,0.274,0.801,0.231L27,52.899V32.132z"/>
		</g>
		<g>
			<path style="fill:#0081A1;" d="M55,23h-8c0,4.114,2,8,8,8s8-3.886,8-8H55z"/>
		</g>
		<g>
			<path style="fill:#E1F5FA;" d="M67,27l-4-4c0,4.114-2,8-8,8s-8-3.886-8-8l-4,4l0.01,0.03L43,36l12-4l12,4l-0.01-8.97L67,27z"/>
		</g>
	</g>
</g>
<g id="Green" style="display:none;">
	<g style="display:inline;">
		<g>
			<path style="fill:#009687;" d="M67.014,27.03L63.024,23h-16l-3.99,4.03L23.72,33.185c-0.415,0.133-0.696,0.517-0.696,0.953
				v18.201c0,0.291,0.127,0.568,0.348,0.758c0.221,0.189,0.513,0.274,0.801,0.231L33.024,52v33c0,1.104,0.896,2,2,2h40
				c1.104,0,2-0.896,2-2V52l8.852,1.328c0.288,0.043,0.58-0.042,0.801-0.231c0.221-0.189,0.348-0.467,0.348-0.758V34.138
				c0-0.436-0.281-0.82-0.696-0.953L67.014,27.03z"/>
		</g>
		<g>
			<path style="fill:#00B8A5;" d="M55.024,23h-1h-7l-3.99,4.03L23.72,33.185c-0.415,0.133-0.696,0.517-0.696,0.953v18.201
				c0,0.291,0.127,0.568,0.348,0.758c0.221,0.189,0.513,0.274,0.801,0.23L33.024,52v33c0,1.104,0.896,2,2,2h20V23z"/>
		</g>
		<g>
			<path style="fill:#D7FCF9;" d="M83.024,32.132l3.304,1.053c0.415,0.133,0.696,0.517,0.696,0.953v18.201
				c0,0.291-0.127,0.568-0.348,0.758c-0.221,0.189-0.513,0.274-0.801,0.231l-2.852-0.429V32.132z"/>
		</g>
		<g>
			<polygon style="fill:#D7FCF9;" points="49.024,52 43.024,54 37.024,52 37.024,41 49.024,41 			"/>
		</g>
		<g>
			<rect x="37.024" y="41" style="fill:#AAF0E9;" width="12" height="4"/>
		</g>
		<g>
			<polygon style="fill:#D7FCF9;" points="72.024,52 66.024,54 60.024,52 60.024,41 72.024,41 			"/>
		</g>
		<g>
			<rect x="60.024" y="41" style="fill:#AAF0E9;" width="12" height="4"/>
		</g>
		<g>
			<path style="fill:#D7FCF9;" d="M27.024,32.132l-3.304,1.053c-0.415,0.133-0.696,0.517-0.696,0.953v18.201
				c0,0.291,0.127,0.568,0.348,0.758c0.221,0.189,0.513,0.274,0.801,0.231l2.852-0.429V32.132z"/>
		</g>
		<g>
			<path style="fill:#009687;" d="M55.024,23h-8c0,4.114,2,8,8,8s8-3.886,8-8H55.024z"/>
		</g>
		<g>
			<path style="fill:#D7FCF9;" d="M67.024,27l-4-4c0,4.114-2,8-8,8s-8-3.886-8-8l-4,4l0.01,0.03L43.024,36l12-4l12,4l-0.01-8.97
				L67.024,27z"/>
		</g>
	</g>
</g>
<g id="R-Green" style="display:none;">
	<circle style="display:inline;fill:#77E0C4;" cx="55" cy="55" r="55"/>
	<g style="display:inline;">
		<g>
			<path style="fill:#009687;" d="M66.99,27.03L63,23H47l-3.99,4.03l-19.313,6.154C23.281,33.317,23,33.702,23,34.138v18.201
				c0,0.291,0.127,0.568,0.348,0.758c0.221,0.189,0.513,0.274,0.801,0.231L33,52v33c0,1.104,0.896,2,2,2h40c1.104,0,2-0.896,2-2V52
				l8.852,1.328c0.288,0.043,0.58-0.042,0.801-0.231C86.873,52.907,87,52.63,87,52.339V34.138c0-0.436-0.281-0.82-0.696-0.953
				L66.99,27.03z"/>
		</g>
		<g>
			<path style="fill:#00B8A5;" d="M55,23h-1h-7l-3.99,4.03l-19.313,6.154C23.281,33.317,23,33.702,23,34.138v18.201
				c0,0.291,0.127,0.568,0.348,0.758c0.221,0.189,0.513,0.274,0.801,0.23L33,52v33c0,1.104,0.896,2,2,2h20V23z"/>
		</g>
		<g>
			<path style="fill:#D7FCF9;" d="M83,32.132l3.304,1.053C86.719,33.317,87,33.702,87,34.138v18.201
				c0,0.291-0.127,0.568-0.348,0.758c-0.221,0.189-0.513,0.274-0.801,0.231L83,52.899V32.132z"/>
		</g>
		<g>
			<polygon style="fill:#D7FCF9;" points="49,52 43,54 37,52 37,41 49,41 			"/>
		</g>
		<g>
			<rect x="37" y="41" style="fill:#AAF0E9;" width="12" height="4"/>
		</g>
		<g>
			<polygon style="fill:#D7FCF9;" points="72,52 66,54 60,52 60,41 72,41 			"/>
		</g>
		<g>
			<rect x="60" y="41" style="fill:#AAF0E9;" width="12" height="4"/>
		</g>
		<g>
			<path style="fill:#D7FCF9;" d="M27,32.132l-3.304,1.053C23.281,33.317,23,33.702,23,34.138v18.201
				c0,0.291,0.127,0.568,0.348,0.758c0.221,0.189,0.513,0.274,0.801,0.231L27,52.899V32.132z"/>
		</g>
		<g>
			<path style="fill:#009687;" d="M55,23h-8c0,4.114,2,8,8,8s8-3.886,8-8H55z"/>
		</g>
		<g>
			<path style="fill:#D7FCF9;" d="M67,27l-4-4c0,4.114-2,8-8,8s-8-3.886-8-8l-4,4l0.01,0.03L43,36l12-4l12,4l-0.01-8.97L67,27z"/>
		</g>
	</g>
</g>
<g id="Red" style="display:none;">
	<g style="display:inline;">
		<g>
			<path style="fill:#C23023;" d="M67.014,27.03L63.024,23h-16l-3.99,4.03L23.72,33.185c-0.415,0.133-0.696,0.517-0.696,0.953
				v18.201c0,0.291,0.127,0.568,0.348,0.758c0.221,0.189,0.513,0.274,0.801,0.231L33.024,52v33c0,1.104,0.896,2,2,2h40
				c1.104,0,2-0.896,2-2V52l8.852,1.328c0.288,0.043,0.58-0.042,0.801-0.231c0.221-0.189,0.348-0.467,0.348-0.758V34.138
				c0-0.436-0.281-0.82-0.696-0.953L67.014,27.03z"/>
		</g>
		<g>
			<path style="fill:#E54B44;" d="M55.024,23h-1h-7l-3.99,4.03L23.72,33.185c-0.415,0.133-0.696,0.517-0.696,0.953v18.201
				c0,0.291,0.127,0.568,0.348,0.758c0.221,0.189,0.513,0.274,0.801,0.23L33.024,52v33c0,1.104,0.896,2,2,2h20V23z"/>
		</g>
		<g>
			<path style="fill:#FFEFED;" d="M83.024,32.132l3.304,1.053c0.415,0.133,0.696,0.517,0.696,0.953v18.201
				c0,0.291-0.127,0.568-0.348,0.758c-0.221,0.189-0.513,0.274-0.801,0.231l-2.852-0.429V32.132z"/>
		</g>
		<g>
			<polygon style="fill:#FFEFED;" points="49.024,52 43.024,54 37.024,52 37.024,41 49.024,41 			"/>
		</g>
		<g>
			<rect x="37.024" y="41" style="fill:#FFD7D4;" width="12" height="4"/>
		</g>
		<g>
			<polygon style="fill:#FFEFED;" points="72.024,52 66.024,54 60.024,52 60.024,41 72.024,41 			"/>
		</g>
		<g>
			<rect x="60.024" y="41" style="fill:#FFD7D4;" width="12" height="4"/>
		</g>
		<g>
			<path style="fill:#FFEFED;" d="M27.024,32.132l-3.304,1.053c-0.415,0.133-0.696,0.517-0.696,0.953v18.201
				c0,0.291,0.127,0.568,0.348,0.758c0.221,0.189,0.513,0.274,0.801,0.231l2.852-0.429V32.132z"/>
		</g>
		<g>
			<path style="fill:#C23023;" d="M55.024,23h-8c0,4.114,2,8,8,8s8-3.886,8-8H55.024z"/>
		</g>
		<g>
			<path style="fill:#FFEFED;" d="M67.024,27l-4-4c0,4.114-2,8-8,8s-8-3.886-8-8l-4,4l0.01,0.03L43.024,36l12-4l12,4l-0.01-8.97
				L67.024,27z"/>
		</g>
	</g>
</g>
<g id="R-Red" style="display:none;">
	<circle style="display:inline;fill:#FABBAF;" cx="55" cy="55" r="55"/>
	<g style="display:inline;">
		<g>
			<path style="fill:#C23023;" d="M66.99,27.03L63,23H47l-3.99,4.03l-19.313,6.154C23.281,33.317,23,33.702,23,34.138v18.201
				c0,0.291,0.127,0.568,0.348,0.758c0.221,0.189,0.513,0.274,0.801,0.231L33,52v33c0,1.104,0.896,2,2,2h40c1.104,0,2-0.896,2-2V52
				l8.852,1.328c0.288,0.043,0.58-0.042,0.801-0.231C86.873,52.907,87,52.63,87,52.339V34.138c0-0.436-0.281-0.82-0.696-0.953
				L66.99,27.03z"/>
		</g>
		<g>
			<path style="fill:#E54B44;" d="M55,23h-1h-7l-3.99,4.03l-19.313,6.154C23.281,33.317,23,33.702,23,34.138v18.201
				c0,0.291,0.127,0.568,0.348,0.758c0.221,0.189,0.513,0.274,0.801,0.23L33,52v33c0,1.104,0.896,2,2,2h20V23z"/>
		</g>
		<g>
			<path style="fill:#FFEFED;" d="M83,32.132l3.304,1.053C86.719,33.317,87,33.702,87,34.138v18.201
				c0,0.291-0.127,0.568-0.348,0.758c-0.221,0.189-0.513,0.274-0.801,0.231L83,52.899V32.132z"/>
		</g>
		<g>
			<polygon style="fill:#FFEFED;" points="49,52 43,54 37,52 37,41 49,41 			"/>
		</g>
		<g>
			<rect x="37" y="41" style="fill:#FFD7D4;" width="12" height="4"/>
		</g>
		<g>
			<polygon style="fill:#FFEFED;" points="72,52 66,54 60,52 60,41 72,41 			"/>
		</g>
		<g>
			<rect x="60" y="41" style="fill:#FFD7D4;" width="12" height="4"/>
		</g>
		<g>
			<path style="fill:#FFEFED;" d="M27,32.132l-3.304,1.053C23.281,33.317,23,33.702,23,34.138v18.201
				c0,0.291,0.127,0.568,0.348,0.758c0.221,0.189,0.513,0.274,0.801,0.231L27,52.899V32.132z"/>
		</g>
		<g>
			<path style="fill:#C23023;" d="M55,23h-8c0,4.114,2,8,8,8s8-3.886,8-8H55z"/>
		</g>
		<g>
			<path style="fill:#FFEFED;" d="M67,27l-4-4c0,4.114-2,8-8,8s-8-3.886-8-8l-4,4l0.01,0.03L43,36l12-4l12,4l-0.01-8.97L67,27z"/>
		</g>
	</g>
</g>
<g id="Yellow" style="display:none;">
	<g style="display:inline;">
		<g>
			<path style="fill:#E07000;" d="M67.014,27.03L63.024,23h-16l-3.99,4.03L23.72,33.185c-0.415,0.133-0.696,0.517-0.696,0.953
				v18.201c0,0.291,0.127,0.568,0.348,0.758c0.221,0.189,0.513,0.274,0.801,0.231L33.024,52v33c0,1.104,0.896,2,2,2h40
				c1.104,0,2-0.896,2-2V52l8.852,1.328c0.288,0.043,0.58-0.042,0.801-0.231c0.221-0.189,0.348-0.467,0.348-0.758V34.138
				c0-0.436-0.281-0.82-0.696-0.953L67.014,27.03z"/>
		</g>
		<g>
			<path style="fill:#FA9200;" d="M55.024,23h-1h-7l-3.99,4.03L23.72,33.185c-0.415,0.133-0.696,0.517-0.696,0.953v18.201
				c0,0.291,0.127,0.568,0.348,0.758c0.221,0.189,0.513,0.274,0.801,0.23L33.024,52v33c0,1.104,0.896,2,2,2h20V23z"/>
		</g>
		<g>
			<path style="fill:#FFF5D9;" d="M83.024,32.132l3.304,1.053c0.415,0.133,0.696,0.517,0.696,0.953v18.201
				c0,0.291-0.127,0.568-0.348,0.758c-0.221,0.189-0.513,0.274-0.801,0.231l-2.852-0.429V32.132z"/>
		</g>
		<g>
			<polygon style="fill:#FFF5D9;" points="49.024,52 43.024,54 37.024,52 37.024,41 49.024,41 			"/>
		</g>
		<g>
			<rect x="37.024" y="41" style="fill:#FFE9A1;" width="12" height="4"/>
		</g>
		<g>
			<polygon style="fill:#FFF5D9;" points="72.024,52 66.024,54 60.024,52 60.024,41 72.024,41 			"/>
		</g>
		<g>
			<rect x="60.024" y="41" style="fill:#FFE9A1;" width="12" height="4"/>
		</g>
		<g>
			<path style="fill:#FFF5D9;" d="M27.024,32.132l-3.304,1.053c-0.415,0.133-0.696,0.517-0.696,0.953v18.201
				c0,0.291,0.127,0.568,0.348,0.758c0.221,0.189,0.513,0.274,0.801,0.231l2.852-0.429V32.132z"/>
		</g>
		<g>
			<path style="fill:#E07000;" d="M55.024,23h-8c0,4.114,2,8,8,8s8-3.886,8-8H55.024z"/>
		</g>
		<g>
			<path style="fill:#FFF5D9;" d="M67.024,27l-4-4c0,4.114-2,8-8,8s-8-3.886-8-8l-4,4l0.01,0.03L43.024,36l12-4l12,4l-0.01-8.97
				L67.024,27z"/>
		</g>
	</g>
</g>
<g id="R-Yellow" style="display:none;">
	<circle style="display:inline;fill:#FFD75E;" cx="55" cy="55" r="55"/>
	<g style="display:inline;">
		<g>
			<path style="fill:#E07000;" d="M66.99,27.03L63,23H47l-3.99,4.03l-19.313,6.154C23.281,33.317,23,33.702,23,34.138v18.201
				c0,0.291,0.127,0.568,0.348,0.758c0.221,0.189,0.513,0.274,0.801,0.231L33,52v33c0,1.104,0.896,2,2,2h40c1.104,0,2-0.896,2-2V52
				l8.852,1.328c0.288,0.043,0.58-0.042,0.801-0.231C86.873,52.907,87,52.63,87,52.339V34.138c0-0.436-0.281-0.82-0.696-0.953
				L66.99,27.03z"/>
		</g>
		<g>
			<path style="fill:#FA9200;" d="M55,23h-1h-7l-3.99,4.03l-19.313,6.154C23.281,33.317,23,33.702,23,34.138v18.201
				c0,0.291,0.127,0.568,0.348,0.758c0.221,0.189,0.513,0.274,0.801,0.23L33,52v33c0,1.104,0.896,2,2,2h20V23z"/>
		</g>
		<g>
			<path style="fill:#FFF5D9;" d="M83,32.132l3.304,1.053C86.719,33.317,87,33.702,87,34.138v18.201
				c0,0.291-0.127,0.568-0.348,0.758c-0.221,0.189-0.513,0.274-0.801,0.231L83,52.899V32.132z"/>
		</g>
		<g>
			<polygon style="fill:#FFF5D9;" points="49,52 43,54 37,52 37,41 49,41 			"/>
		</g>
		<g>
			<rect x="37" y="41" style="fill:#FFE9A1;" width="12" height="4"/>
		</g>
		<g>
			<polygon style="fill:#FFF5D9;" points="72,52 66,54 60,52 60,41 72,41 			"/>
		</g>
		<g>
			<rect x="60" y="41" style="fill:#FFE9A1;" width="12" height="4"/>
		</g>
		<g>
			<path style="fill:#FFF5D9;" d="M27,32.132l-3.304,1.053C23.281,33.317,23,33.702,23,34.138v18.201
				c0,0.291,0.127,0.568,0.348,0.758c0.221,0.189,0.513,0.274,0.801,0.231L27,52.899V32.132z"/>
		</g>
		<g>
			<path style="fill:#E07000;" d="M55,23h-8c0,4.114,2,8,8,8s8-3.886,8-8H55z"/>
		</g>
		<g>
			<path style="fill:#FFF5D9;" d="M67,27l-4-4c0,4.114-2,8-8,8s-8-3.886-8-8l-4,4l0.01,0.03L43,36l12-4l12,4l-0.01-8.97L67,27z"/>
		</g>
	</g>
</g>
</svg>
