<?xml version="1.0" encoding="iso-8859-1"?>
<!-- Generator: Adobe Illustrator 17.1.0, SVG Export Plug-In . SVG Version: 6.00 Build 0)  -->
<!DOCTYPE svg PUBLIC "-//W3C//DTD SVG 1.0//EN" "http://www.w3.org/TR/2001/REC-SVG-20010904/DTD/svg10.dtd">
<svg version="1.0" xmlns="http://www.w3.org/2000/svg" xmlns:xlink="http://www.w3.org/1999/xlink" x="0px" y="0px" width="110px"
	 height="110px" viewBox="0 0 110 110" style="enable-background:new 0 0 110 110;" xml:space="preserve">
<g id="Artboard" style="display:none;">
	<rect x="-952.5" y="-46.5" style="display:inline;fill:#808080;stroke:#000000;stroke-miterlimit:10;" width="1385" height="491"/>
</g>
<g id="R-Multicolor" style="display:none;">
	<circle style="display:inline;fill:#FABC3D;" cx="55" cy="55" r="55"/>
	<g style="display:inline;">
		<g>
			<polygon style="fill:#FFFFFF;" points="87,55 23,55 23,87 27,87 31,79 79,79 83,87 87,87 			"/>
		</g>
		<g>
			<rect x="57" y="60" style="fill:#6FDAF1;" width="26" height="10"/>
		</g>
		<g>
			<rect x="27" y="60" style="fill:#6FDAF1;" width="26" height="10"/>
		</g>
		<g>
			<path style="fill:#3E3E3F;" d="M74,23H36c-0.552,0-1,0.448-1,1v24c0,0.552,0.448,1,1,1h17v3H41c-1.104,0-2,0.896-2,2v1h32v-1
				c0-1.104-0.896-2-2-2H57v-3h17c0.552,0,1-0.448,1-1V24C75,23.448,74.552,23,74,23z"/>
		</g>
		<g>
			<rect x="37" y="25" style="fill:#21B2D1;" width="36" height="20"/>
		</g>
		<g>
			<polygon style="fill:#40C9E7;" points="37,25 37,45 42.584,45 62.584,25 			"/>
		</g>
		<g>
			<polygon style="fill:#9CE5F4;" points="27,70 32,70 42,60 27,60 			"/>
		</g>
	</g>
</g>
<g id="Multicolor">
	<g>
		<g>
			<polygon style="fill:#FFFFFF;" points="87,55 23,55 23,87 27,87 31,79 79,79 83,87 87,87 			"/>
		</g>
		<g>
			<rect x="57" y="60" style="fill:#6FDAF1;" width="26" height="10"/>
		</g>
		<g>
			<rect x="27" y="60" style="fill:#6FDAF1;" width="26" height="10"/>
		</g>
		<g>
			<path style="fill:#3E3E3F;" d="M74,23H36c-0.552,0-1,0.448-1,1v24c0,0.552,0.448,1,1,1h17v3H41c-1.104,0-2,0.896-2,2v1h32v-1
				c0-1.104-0.896-2-2-2H57v-3h17c0.552,0,1-0.448,1-1V24C75,23.448,74.552,23,74,23z"/>
		</g>
		<g>
			<rect x="37" y="25" style="fill:#21B2D1;" width="36" height="20"/>
		</g>
		<g>
			<polygon style="fill:#40C9E7;" points="37,25 37,45 42.584,45 62.584,25 			"/>
		</g>
		<g>
			<polygon style="fill:#9CE5F4;" points="27,70 32,70 42,60 27,60 			"/>
		</g>
	</g>
</g>
<g id="Blue" style="display:none;">
	<g style="display:inline;">
		<g>
			<polygon style="fill:#FFFFFF;" points="87,55 23,55 23,87 27,87 31,79 79,79 83,87 87,87 			"/>
		</g>
		<g>
			<rect x="57" y="60" style="fill:#009FC7;" width="26" height="10"/>
		</g>
		<g>
			<rect x="27" y="60" style="fill:#009FC7;" width="26" height="10"/>
		</g>
		<g>
			<path style="fill:#0C333D;" d="M74,23H36c-0.553,0-1,0.448-1,1v24c0,0.552,0.447,1,1,1h17v3H41c-1.104,0-2,0.896-2,2v1h32v-1
				c0-1.104-0.896-2-2-2H57v-3h17c0.553,0,1-0.448,1-1V24C75,23.448,74.553,23,74,23z"/>
		</g>
		<g>
			<rect x="37" y="25" style="fill:#0F6175;" width="36" height="20"/>
		</g>
		<g>
			<polygon style="fill:#33899E;" points="37,25 37,45 42.584,45 62.584,25 			"/>
		</g>
		<g>
			<polygon style="fill:#00B7E5;" points="27,70 32,70 42,60 27,60 			"/>
		</g>
	</g>
</g>
<g id="R-Blue" style="display:none;">
	<circle style="display:inline;fill:#81D2EB;" cx="55" cy="55" r="55"/>
	<g style="display:inline;">
		<g>
			<polygon style="fill:#FFFFFF;" points="87,55 23,55 23,87 27,87 31,79 79,79 83,87 87,87 			"/>
		</g>
		<g>
			<rect x="57" y="60" style="fill:#009FC7;" width="26" height="10"/>
		</g>
		<g>
			<rect x="27" y="60" style="fill:#009FC7;" width="26" height="10"/>
		</g>
		<g>
			<path style="fill:#0C333D;" d="M74,23H36c-0.553,0-1,0.448-1,1v24c0,0.552,0.447,1,1,1h17v3H41c-1.104,0-2,0.896-2,2v1h32v-1
				c0-1.104-0.896-2-2-2H57v-3h17c0.553,0,1-0.448,1-1V24C75,23.448,74.553,23,74,23z"/>
		</g>
		<g>
			<rect x="37" y="25" style="fill:#0F6175;" width="36" height="20"/>
		</g>
		<g>
			<polygon style="fill:#33899E;" points="37,25 37,45 42.584,45 62.584,25 			"/>
		</g>
		<g>
			<polygon style="fill:#00B7E5;" points="27,70 32,70 42,60 27,60 			"/>
		</g>
	</g>
</g>
<g id="Green" style="display:none;">
	<g style="display:inline;">
		<g>
			<polygon style="fill:#FFFFFF;" points="87,55 23,55 23,87 27,87 31,79 79,79 83,87 87,87 			"/>
		</g>
		<g>
			<rect x="57" y="60" style="fill:#00B8A5;" width="26" height="10"/>
		</g>
		<g>
			<rect x="27" y="60" style="fill:#00B8A5;" width="26" height="10"/>
		</g>
		<g>
			<path style="fill:#0A3631;" d="M74,23H36c-0.553,0-1,0.448-1,1v24c0,0.552,0.447,1,1,1h17v3H41c-1.104,0-2,0.896-2,2v1h32v-1
				c0-1.104-0.896-2-2-2H57v-3h17c0.553,0,1-0.448,1-1V24C75,23.448,74.553,23,74,23z"/>
		</g>
		<g>
			<rect x="37" y="25" style="fill:#14635B;" width="36" height="20"/>
		</g>
		<g>
			<polygon style="fill:#3E948B;" points="37,25 37,45 42.584,45 62.584,25 			"/>
		</g>
		<g>
			<polygon style="fill:#00D6C1;" points="27,70 32,70 42,60 27,60 			"/>
		</g>
	</g>
</g>
<g id="R-Green" style="display:none;">
	<circle style="display:inline;fill:#77E0C4;" cx="55" cy="55" r="55"/>
	<g style="display:inline;">
		<g>
			<polygon style="fill:#FFFFFF;" points="87,55 23,55 23,87 27,87 31,79 79,79 83,87 87,87 			"/>
		</g>
		<g>
			<rect x="57" y="60" style="fill:#00B8A5;" width="26" height="10"/>
		</g>
		<g>
			<rect x="27" y="60" style="fill:#00B8A5;" width="26" height="10"/>
		</g>
		<g>
			<path style="fill:#0A3631;" d="M74,23H36c-0.553,0-1,0.448-1,1v24c0,0.552,0.447,1,1,1h17v3H41c-1.104,0-2,0.896-2,2v1h32v-1
				c0-1.104-0.896-2-2-2H57v-3h17c0.553,0,1-0.448,1-1V24C75,23.448,74.553,23,74,23z"/>
		</g>
		<g>
			<rect x="37" y="25" style="fill:#14635B;" width="36" height="20"/>
		</g>
		<g>
			<polygon style="fill:#3E948B;" points="37,25 37,45 42.584,45 62.584,25 			"/>
		</g>
		<g>
			<polygon style="fill:#00D6C1;" points="27,70 32,70 42,60 27,60 			"/>
		</g>
	</g>
</g>
<g id="Red" style="display:none;">
	<g style="display:inline;">
		<g>
			<polygon style="fill:#FFFFFF;" points="87,55 23,55 23,87 27,87 31,79 79,79 83,87 87,87 			"/>
		</g>
		<g>
			<rect x="57" y="60" style="fill:#E54B44;" width="26" height="10"/>
		</g>
		<g>
			<rect x="27" y="60" style="fill:#E54B44;" width="26" height="10"/>
		</g>
		<g>
			<path style="fill:#4A1410;" d="M74,23H36c-0.553,0-1,0.448-1,1v24c0,0.552,0.447,1,1,1h17v3H41c-1.104,0-2,0.896-2,2v1h32v-1
				c0-1.104-0.896-2-2-2H57v-3h17c0.553,0,1-0.448,1-1V24C75,23.448,74.553,23,74,23z"/>
		</g>
		<g>
			<rect x="37" y="25" style="fill:#7D261E;" width="36" height="20"/>
		</g>
		<g>
			<polygon style="fill:#B84E44;" points="37,25 37,45 42.584,45 62.584,25 			"/>
		</g>
		<g>
			<polygon style="fill:#FF6C5E;" points="27,70 32,70 42,60 27,60 			"/>
		</g>
	</g>
</g>
<g id="R-Red" style="display:none;">
	<circle style="display:inline;fill:#FABBAF;" cx="55" cy="55" r="55"/>
	<g style="display:inline;">
		<g>
			<polygon style="fill:#FFFFFF;" points="87,55 23,55 23,87 27,87 31,79 79,79 83,87 87,87 			"/>
		</g>
		<g>
			<rect x="57" y="60" style="fill:#E54B44;" width="26" height="10"/>
		</g>
		<g>
			<rect x="27" y="60" style="fill:#E54B44;" width="26" height="10"/>
		</g>
		<g>
			<path style="fill:#4A1410;" d="M74,23H36c-0.553,0-1,0.448-1,1v24c0,0.552,0.447,1,1,1h17v3H41c-1.104,0-2,0.896-2,2v1h32v-1
				c0-1.104-0.896-2-2-2H57v-3h17c0.553,0,1-0.448,1-1V24C75,23.448,74.553,23,74,23z"/>
		</g>
		<g>
			<rect x="37" y="25" style="fill:#7D261E;" width="36" height="20"/>
		</g>
		<g>
			<polygon style="fill:#B84E44;" points="37,25 37,45 42.584,45 62.584,25 			"/>
		</g>
		<g>
			<polygon style="fill:#FF6C5E;" points="27,70 32,70 42,60 27,60 			"/>
		</g>
	</g>
</g>
<g id="Yellow" style="display:none;">
	<g style="display:inline;">
		<g>
			<polygon style="fill:#FFFFFF;" points="87,55 23,55 23,87 27,87 31,79 79,79 83,87 87,87 			"/>
		</g>
		<g>
			<rect x="57" y="60" style="fill:#FA9200;" width="26" height="10"/>
		</g>
		<g>
			<rect x="27" y="60" style="fill:#FA9200;" width="26" height="10"/>
		</g>
		<g>
			<path style="fill:#3D320C;" d="M74,23H36c-0.553,0-1,0.448-1,1v24c0,0.552,0.447,1,1,1h17v3H41c-1.104,0-2,0.896-2,2v1h32v-1
				c0-1.104-0.896-2-2-2H57v-3h17c0.553,0,1-0.448,1-1V24C75,23.448,74.553,23,74,23z"/>
		</g>
		<g>
			<rect x="37" y="25" style="fill:#66510D;" width="36" height="20"/>
		</g>
		<g>
			<polygon style="fill:#947615;" points="37,25 37,45 42.584,45 62.584,25 			"/>
		</g>
		<g>
			<polygon style="fill:#FFAA00;" points="27,70 32,70 42,60 27,60 			"/>
		</g>
	</g>
</g>
<g id="R-Yellow" style="display:none;">
	<circle style="display:inline;fill:#FFD75E;" cx="55" cy="55" r="55"/>
	<g style="display:inline;">
		<g>
			<polygon style="fill:#FFFFFF;" points="87,55 23,55 23,87 27,87 31,79 79,79 83,87 87,87 			"/>
		</g>
		<g>
			<rect x="57" y="60" style="fill:#FA9200;" width="26" height="10"/>
		</g>
		<g>
			<rect x="27" y="60" style="fill:#FA9200;" width="26" height="10"/>
		</g>
		<g>
			<path style="fill:#3D320C;" d="M74,23H36c-0.553,0-1,0.448-1,1v24c0,0.552,0.447,1,1,1h17v3H41c-1.104,0-2,0.896-2,2v1h32v-1
				c0-1.104-0.896-2-2-2H57v-3h17c0.553,0,1-0.448,1-1V24C75,23.448,74.553,23,74,23z"/>
		</g>
		<g>
			<rect x="37" y="25" style="fill:#66510D;" width="36" height="20"/>
		</g>
		<g>
			<polygon style="fill:#947615;" points="37,25 37,45 42.584,45 62.584,25 			"/>
		</g>
		<g>
			<polygon style="fill:#FFAA00;" points="27,70 32,70 42,60 27,60 			"/>
		</g>
	</g>
</g>
</svg>
