<?xml version="1.0" encoding="iso-8859-1"?>
<!-- Generator: Adobe Illustrator 17.1.0, SVG Export Plug-In . SVG Version: 6.00 Build 0)  -->
<!DOCTYPE svg PUBLIC "-//W3C//DTD SVG 1.0//EN" "http://www.w3.org/TR/2001/REC-SVG-20010904/DTD/svg10.dtd">
<svg version="1.0" xmlns="http://www.w3.org/2000/svg" xmlns:xlink="http://www.w3.org/1999/xlink" x="0px" y="0px" width="110px"
	 height="110px" viewBox="0 0 110 110" style="enable-background:new 0 0 110 110;" xml:space="preserve">
<g id="Artboard" style="display:none;">
	<rect x="-577.5" y="-47.5" style="display:inline;fill:#808080;stroke:#000000;stroke-miterlimit:10;" width="1367" height="592"/>
</g>
<g id="R-Multicolor" style="display:none;">
	<circle style="display:inline;fill:#25B7D3;" cx="55" cy="55" r="55"/>
	<g style="display:inline;">
		<g>
			<path style="fill:#E2E4E5;" d="M57.645,49.979C56.939,50.607,56.019,51,55,51s-1.939-0.393-2.645-1.021L47,83h16L57.645,49.979z"
				/>
		</g>
		<g>
			<path style="fill:#FFFFFF;" d="M55,51c-1.019,0-1.939-0.393-2.645-1.021L47,83h8V51z"/>
		</g>
		<g>
			<path style="fill:#FFFFFF;" d="M58.998,47c2.086-8.035-0.053-20.028-3.582-23.274c-0.36-0.331-0.821-0.525-1.288-0.381
				s-0.802,0.554-0.849,1.041L51.077,47H58.998z"/>
		</g>
		<g>
			<path style="fill:#FFFFFF;" d="M53.071,50.502c6.031,5.704,17.568,9.617,22.114,8.091c0.463-0.155,0.856-0.466,0.955-0.944
				c0.099-0.478-0.099-0.97-0.502-1.246l-18.745-12.84L53.071,50.502z"/>
		</g>
		<g>
			<path style="fill:#FFFFFF;" d="M52.863,43.621c-7.906,2.531-16.899,10.748-17.757,15.466c-0.087,0.481-0.005,0.975,0.366,1.292
				c0.371,0.318,0.897,0.381,1.333,0.161l20.291-10.224L52.863,43.621z"/>
		</g>
		<g>
			<path style="fill:#FFFFFF;" d="M71,87H39c0-2.209,1.791-4,4-4h24C69.209,83,71,84.791,71,87z"/>
		</g>
		<g>
			<path style="fill:#F0F1F1;" d="M45.2,36.838c0,2.303-1.859,4.162-4.163,4.162H27.163C24.859,41,23,39.141,23,36.838
				c0-2.843,2.775-4.149,4.301-4.149c0.638-3.177,3.441-5.564,6.799-5.564c3.358,0,6.161,2.386,6.799,5.564
				C42.425,32.689,45.2,33.996,45.2,36.838z"/>
		</g>
		<g>
			<path style="fill:#F0F1F1;" d="M87,42.838C87,45.141,85.141,47,82.837,47H68.962c-2.303,0-4.162-1.859-4.162-4.162
				c0-2.843,2.775-4.149,4.301-4.149c0.638-3.177,3.441-5.564,6.799-5.564c3.358,0,6.16,2.386,6.799,5.564
				C84.225,38.689,87,39.996,87,42.838z"/>
		</g>
		<g>
			<path style="fill:#FFFFFF;" d="M34.1,27.125c-3.358,0-6.161,2.386-6.799,5.564c-1.526,0-4.301,1.305-4.301,4.148
				c0,2.26,1.793,4.082,4.037,4.15l11.881-11.881C37.669,27.89,35.98,27.125,34.1,27.125z"/>
		</g>
		<g>
			<path style="fill:#FFFFFF;" d="M75.9,33.138c-3.358,0-6.161,2.386-6.799,5.564c-1.526,0-4.301,1.305-4.301,4.148
				c0,2.26,1.793,4.082,4.037,4.15l11.881-11.881C79.469,33.903,77.78,33.138,75.9,33.138z"/>
		</g>
		<g>
			<circle style="fill:#5B5C5F;" cx="55" cy="47" r="4"/>
		</g>
		<g>
			<path style="fill:#9E9FA0;" d="M55,43c-2.209,0-4,1.791-4,4c0,1.111,0.454,2.115,1.185,2.839l5.654-5.654
				C57.115,43.454,56.111,43,55,43z"/>
		</g>
	</g>
</g>
<g id="Multicolor_1_">
	<g>
		<g>
			<path style="fill:#E2E4E5;" d="M57.645,49.979C56.939,50.607,56.019,51,55,51s-1.939-0.393-2.645-1.021L47,83h16L57.645,49.979z"
				/>
		</g>
		<g>
			<path style="fill:#FFFFFF;" d="M55,51c-1.019,0-1.939-0.393-2.645-1.021L47,83h8V51z"/>
		</g>
		<g>
			<path style="fill:#FFFFFF;" d="M58.998,47c2.086-8.035-0.053-20.028-3.582-23.274c-0.36-0.331-0.821-0.525-1.288-0.381
				s-0.802,0.554-0.849,1.041L51.077,47H58.998z"/>
		</g>
		<g>
			<path style="fill:#FFFFFF;" d="M53.071,50.502c6.031,5.704,17.568,9.617,22.114,8.091c0.463-0.155,0.856-0.466,0.955-0.944
				c0.099-0.478-0.099-0.97-0.502-1.246l-18.745-12.84L53.071,50.502z"/>
		</g>
		<g>
			<path style="fill:#FFFFFF;" d="M52.863,43.621c-7.906,2.531-16.899,10.748-17.757,15.466c-0.087,0.481-0.005,0.975,0.366,1.292
				c0.371,0.318,0.897,0.381,1.333,0.161l20.291-10.224L52.863,43.621z"/>
		</g>
		<g>
			<path style="fill:#FFFFFF;" d="M71,87H39c0-2.209,1.791-4,4-4h24C69.209,83,71,84.791,71,87z"/>
		</g>
		<g>
			<path style="fill:#F0F1F1;" d="M45.2,36.838c0,2.303-1.859,4.162-4.163,4.162H27.163C24.859,41,23,39.141,23,36.838
				c0-2.843,2.775-4.149,4.301-4.149c0.638-3.177,3.441-5.564,6.799-5.564c3.358,0,6.161,2.386,6.799,5.564
				C42.425,32.689,45.2,33.996,45.2,36.838z"/>
		</g>
		<g>
			<path style="fill:#F0F1F1;" d="M87,42.838C87,45.141,85.141,47,82.837,47H68.962c-2.303,0-4.162-1.859-4.162-4.162
				c0-2.843,2.775-4.149,4.301-4.149c0.638-3.177,3.441-5.564,6.799-5.564c3.358,0,6.16,2.386,6.799,5.564
				C84.225,38.689,87,39.996,87,42.838z"/>
		</g>
		<g>
			<path style="fill:#FFFFFF;" d="M34.1,27.125c-3.358,0-6.161,2.386-6.799,5.564c-1.526,0-4.301,1.305-4.301,4.148
				c0,2.26,1.793,4.082,4.037,4.15l11.881-11.881C37.669,27.89,35.98,27.125,34.1,27.125z"/>
		</g>
		<g>
			<path style="fill:#FFFFFF;" d="M75.9,33.138c-3.358,0-6.161,2.386-6.799,5.564c-1.526,0-4.301,1.305-4.301,4.148
				c0,2.26,1.793,4.082,4.037,4.15l11.881-11.881C79.469,33.903,77.78,33.138,75.9,33.138z"/>
		</g>
		<g>
			<circle style="fill:#5B5C5F;" cx="55" cy="47" r="4"/>
		</g>
		<g>
			<path style="fill:#9E9FA0;" d="M55,43c-2.209,0-4,1.791-4,4c0,1.111,0.454,2.115,1.185,2.839l5.654-5.654
				C57.115,43.454,56.111,43,55,43z"/>
		</g>
	</g>
</g>
<g id="Blue" style="display:none;">
	<g style="display:inline;">
		<g>
			<path style="fill:#BBE7F2;" d="M57.646,49.874c-0.707,0.627-1.627,1.021-2.646,1.021c-1.019,0-1.939-0.393-2.646-1.021L47,82.894
				h16L57.646,49.874z"/>
		</g>
		<g>
			<path style="fill:#FFFFFF;" d="M55,50.894c-1.019,0-1.939-0.393-2.646-1.021L47,82.894h8V50.894z"/>
		</g>
		<g>
			<path style="fill:#FFFFFF;" d="M58.999,46.894c2.086-8.035-0.053-20.027-3.583-23.273c-0.359-0.331-0.821-0.525-1.287-0.381
				c-0.467,0.144-0.802,0.555-0.849,1.041l-2.203,22.614H58.999z"/>
		</g>
		<g>
			<path style="fill:#FFFFFF;" d="M53.071,50.396c6.032,5.704,17.568,9.616,22.114,8.091c0.463-0.155,0.856-0.466,0.955-0.944
				c0.099-0.478-0.099-0.97-0.502-1.246l-18.745-12.84L53.071,50.396z"/>
		</g>
		<g>
			<path style="fill:#FFFFFF;" d="M52.863,43.515c-7.906,2.531-16.899,10.748-17.757,15.466c-0.087,0.481-0.005,0.975,0.366,1.292
				c0.371,0.318,0.897,0.381,1.333,0.162L57.097,50.21L52.863,43.515z"/>
		</g>
		<g>
			<path style="fill:#FFFFFF;" d="M71,86.894H39c0-2.209,1.791-4,4-4h24C69.209,82.894,71,84.685,71,86.894z"/>
		</g>
		<g>
			<path style="fill:#E1F5FA;" d="M45.2,36.731c0,2.303-1.859,4.163-4.162,4.163H27.163c-2.303,0-4.163-1.859-4.163-4.163
				c0-2.843,2.775-4.148,4.301-4.148c0.638-3.177,3.441-5.564,6.799-5.564s6.161,2.387,6.799,5.564
				C42.425,32.583,45.2,33.89,45.2,36.731z"/>
		</g>
		<g>
			<path style="fill:#E1F5FA;" d="M87,42.731c0,2.303-1.859,4.163-4.163,4.163H68.962c-2.303,0-4.163-1.859-4.163-4.163
				c0-2.843,2.775-4.148,4.301-4.148c0.638-3.177,3.441-5.564,6.799-5.564c3.358,0,6.161,2.387,6.799,5.564
				C84.225,38.583,87,39.89,87,42.731z"/>
		</g>
		<g>
			<path style="fill:#FFFFFF;" d="M34.1,27.019c-3.358,0-6.161,2.387-6.799,5.564c-1.526,0-4.301,1.306-4.301,4.148
				c0,2.26,1.794,4.082,4.037,4.15L38.917,29C37.668,27.785,35.979,27.019,34.1,27.019z"/>
		</g>
		<g>
			<path style="fill:#FFFFFF;" d="M75.9,33.032c-3.358,0-6.161,2.387-6.799,5.564c-1.526,0-4.301,1.306-4.301,4.148
				c0,2.26,1.794,4.083,4.037,4.15l11.881-11.881C79.469,33.797,77.78,33.032,75.9,33.032z"/>
		</g>
		<g>
			<circle style="fill:#0F6175;" cx="55" cy="46.894" r="4"/>
		</g>
		<g>
			<path style="fill:#33899E;" d="M55,42.894c-2.209,0-4,1.791-4,4c0,1.111,0.454,2.115,1.185,2.839l5.654-5.654
				C57.115,43.348,56.111,42.894,55,42.894z"/>
		</g>
	</g>
</g>
<g id="R-Blue" style="display:none;">
	<circle style="display:inline;fill:#81D2EB;" cx="55" cy="55" r="55"/>
	<g style="display:inline;">
		<g>
			<path style="fill:#BBE7F2;" d="M57.646,49.979C56.938,50.607,56.019,51,55,51c-1.019,0-1.939-0.393-2.646-1.021L47,83h16
				L57.646,49.979z"/>
		</g>
		<g>
			<path style="fill:#FFFFFF;" d="M55,51c-1.019,0-1.939-0.393-2.646-1.021L47,83h8V51z"/>
		</g>
		<g>
			<path style="fill:#FFFFFF;" d="M58.999,47c2.086-8.035-0.053-20.027-3.583-23.273c-0.359-0.331-0.821-0.525-1.287-0.381
				c-0.467,0.144-0.802,0.555-0.849,1.041L51.077,47H58.999z"/>
		</g>
		<g>
			<path style="fill:#FFFFFF;" d="M53.071,50.502c6.032,5.704,17.568,9.616,22.114,8.091c0.463-0.155,0.856-0.466,0.955-0.944
				c0.099-0.478-0.099-0.97-0.502-1.246l-18.745-12.84L53.071,50.502z"/>
		</g>
		<g>
			<path style="fill:#FFFFFF;" d="M52.863,43.621c-7.906,2.531-16.899,10.748-17.757,15.466c-0.087,0.481-0.005,0.975,0.366,1.292
				c0.371,0.318,0.897,0.381,1.333,0.162l20.291-10.224L52.863,43.621z"/>
		</g>
		<g>
			<path style="fill:#FFFFFF;" d="M71,87H39c0-2.209,1.791-4,4-4h24C69.209,83,71,84.791,71,87z"/>
		</g>
		<g>
			<path style="fill:#E1F5FA;" d="M45.2,36.837c0,2.303-1.859,4.163-4.162,4.163H27.163C24.859,41,23,39.141,23,36.837
				c0-2.843,2.775-4.148,4.301-4.148c0.638-3.177,3.441-5.564,6.799-5.564s6.161,2.387,6.799,5.564
				C42.425,32.689,45.2,33.996,45.2,36.837z"/>
		</g>
		<g>
			<path style="fill:#E1F5FA;" d="M87,42.837C87,45.141,85.141,47,82.837,47H68.962c-2.303,0-4.163-1.859-4.163-4.163
				c0-2.843,2.775-4.148,4.301-4.148c0.638-3.177,3.441-5.564,6.799-5.564c3.358,0,6.161,2.387,6.799,5.564
				C84.225,38.689,87,39.996,87,42.837z"/>
		</g>
		<g>
			<path style="fill:#FFFFFF;" d="M34.1,27.125c-3.358,0-6.161,2.387-6.799,5.564c-1.526,0-4.301,1.306-4.301,4.148
				c0,2.26,1.794,4.082,4.037,4.15l11.88-11.881C37.668,27.891,35.979,27.125,34.1,27.125z"/>
		</g>
		<g>
			<path style="fill:#FFFFFF;" d="M75.9,33.138c-3.358,0-6.161,2.387-6.799,5.564c-1.526,0-4.301,1.306-4.301,4.148
				c0,2.26,1.794,4.083,4.037,4.15l11.881-11.881C79.469,33.903,77.78,33.138,75.9,33.138z"/>
		</g>
		<g>
			<circle style="fill:#0F6175;" cx="55" cy="47" r="4"/>
		</g>
		<g>
			<path style="fill:#33899E;" d="M55,43c-2.209,0-4,1.791-4,4c0,1.111,0.454,2.115,1.185,2.839l5.654-5.654
				C57.115,43.454,56.111,43,55,43z"/>
		</g>
	</g>
</g>
<g id="Green" style="display:none;">
	<g style="display:inline;">
		<g>
			<path style="fill:#AAF0E9;" d="M57.646,49.874c-0.707,0.627-1.627,1.021-2.646,1.021c-1.019,0-1.939-0.393-2.646-1.021L47,82.894
				h16L57.646,49.874z"/>
		</g>
		<g>
			<path style="fill:#FFFFFF;" d="M55,50.894c-1.019,0-1.939-0.393-2.646-1.021L47,82.894h8V50.894z"/>
		</g>
		<g>
			<path style="fill:#FFFFFF;" d="M58.999,46.894c2.086-8.035-0.053-20.027-3.583-23.273c-0.359-0.331-0.821-0.525-1.287-0.381
				c-0.467,0.144-0.802,0.555-0.849,1.041l-2.203,22.614H58.999z"/>
		</g>
		<g>
			<path style="fill:#FFFFFF;" d="M53.071,50.396c6.032,5.704,17.568,9.616,22.114,8.091c0.463-0.155,0.856-0.466,0.955-0.944
				c0.099-0.479-0.099-0.97-0.502-1.246l-18.745-12.84L53.071,50.396z"/>
		</g>
		<g>
			<path style="fill:#FFFFFF;" d="M52.863,43.515c-7.906,2.531-16.899,10.748-17.757,15.466c-0.087,0.481-0.005,0.975,0.366,1.292
				c0.371,0.318,0.897,0.381,1.333,0.162L57.097,50.21L52.863,43.515z"/>
		</g>
		<g>
			<path style="fill:#FFFFFF;" d="M71,86.894H39c0-2.209,1.791-4,4-4h24C69.209,82.894,71,84.685,71,86.894z"/>
		</g>
		<g>
			<path style="fill:#D7FCF9;" d="M45.2,36.731c0,2.303-1.859,4.163-4.162,4.163H27.163c-2.303,0-4.163-1.859-4.163-4.163
				c0-2.843,2.775-4.148,4.301-4.148c0.638-3.177,3.441-5.564,6.799-5.564s6.161,2.387,6.799,5.564
				C42.425,32.583,45.2,33.89,45.2,36.731z"/>
		</g>
		<g>
			<path style="fill:#D7FCF9;" d="M87,42.731c0,2.303-1.859,4.163-4.163,4.163H68.962c-2.303,0-4.163-1.859-4.163-4.163
				c0-2.843,2.775-4.148,4.301-4.148c0.638-3.177,3.441-5.564,6.799-5.564c3.358,0,6.161,2.387,6.799,5.564
				C84.225,38.583,87,39.89,87,42.731z"/>
		</g>
		<g>
			<path style="fill:#FFFFFF;" d="M34.1,27.019c-3.358,0-6.161,2.387-6.799,5.564c-1.526,0-4.301,1.306-4.301,4.148
				c0,2.26,1.794,4.083,4.037,4.15L38.917,29C37.668,27.785,35.979,27.019,34.1,27.019z"/>
		</g>
		<g>
			<path style="fill:#FFFFFF;" d="M75.9,33.032c-3.358,0-6.161,2.387-6.799,5.564c-1.526,0-4.301,1.306-4.301,4.148
				c0,2.26,1.794,4.083,4.037,4.15l11.881-11.881C79.469,33.797,77.78,33.032,75.9,33.032z"/>
		</g>
		<g>
			<circle style="fill:#14635B;" cx="55" cy="46.894" r="4"/>
		</g>
		<g>
			<path style="fill:#3E948B;" d="M55,42.894c-2.209,0-4,1.791-4,4c0,1.111,0.454,2.115,1.185,2.839l5.654-5.654
				C57.115,43.348,56.111,42.894,55,42.894z"/>
		</g>
	</g>
</g>
<g id="R-Green" style="display:none;">
	<circle style="display:inline;fill:#77E0C4;" cx="55" cy="55" r="55"/>
	<g style="display:inline;">
		<g>
			<path style="fill:#AAF0E9;" d="M57.646,49.979C56.938,50.607,56.019,51,55,51c-1.019,0-1.939-0.393-2.646-1.021L47,83h16
				L57.646,49.979z"/>
		</g>
		<g>
			<path style="fill:#FFFFFF;" d="M55,51c-1.019,0-1.939-0.393-2.646-1.021L47,83h8V51z"/>
		</g>
		<g>
			<path style="fill:#FFFFFF;" d="M58.999,47c2.086-8.035-0.053-20.027-3.583-23.273c-0.359-0.331-0.821-0.525-1.287-0.381
				c-0.467,0.144-0.802,0.555-0.849,1.041L51.077,47H58.999z"/>
		</g>
		<g>
			<path style="fill:#FFFFFF;" d="M53.071,50.502c6.032,5.704,17.568,9.616,22.114,8.091c0.463-0.155,0.856-0.466,0.955-0.944
				c0.099-0.479-0.099-0.97-0.502-1.246l-18.745-12.84L53.071,50.502z"/>
		</g>
		<g>
			<path style="fill:#FFFFFF;" d="M52.863,43.621c-7.906,2.531-16.899,10.748-17.757,15.466c-0.087,0.481-0.005,0.975,0.366,1.292
				c0.371,0.318,0.897,0.381,1.333,0.162l20.291-10.224L52.863,43.621z"/>
		</g>
		<g>
			<path style="fill:#FFFFFF;" d="M71,87H39c0-2.209,1.791-4,4-4h24C69.209,83,71,84.791,71,87z"/>
		</g>
		<g>
			<path style="fill:#D7FCF9;" d="M45.2,36.837c0,2.303-1.859,4.163-4.162,4.163H27.163C24.859,41,23,39.141,23,36.837
				c0-2.843,2.775-4.148,4.301-4.148c0.638-3.177,3.441-5.564,6.799-5.564c3.358,0,6.161,2.387,6.799,5.564
				C42.425,32.689,45.2,33.996,45.2,36.837z"/>
		</g>
		<g>
			<path style="fill:#D7FCF9;" d="M87,42.837C87,45.141,85.141,47,82.837,47H68.962c-2.303,0-4.163-1.859-4.163-4.163
				c0-2.843,2.775-4.148,4.301-4.148c0.638-3.177,3.441-5.564,6.799-5.564c3.358,0,6.161,2.387,6.799,5.564
				C84.225,38.689,87,39.996,87,42.837z"/>
		</g>
		<g>
			<path style="fill:#FFFFFF;" d="M34.1,27.125c-3.358,0-6.161,2.387-6.799,5.564c-1.526,0-4.301,1.306-4.301,4.148
				c0,2.26,1.793,4.083,4.037,4.15l11.88-11.881C37.668,27.891,35.979,27.125,34.1,27.125z"/>
		</g>
		<g>
			<path style="fill:#FFFFFF;" d="M75.9,33.138c-3.358,0-6.161,2.387-6.799,5.564c-1.526,0-4.301,1.306-4.301,4.148
				c0,2.26,1.794,4.083,4.037,4.15l11.881-11.881C79.469,33.903,77.78,33.138,75.9,33.138z"/>
		</g>
		<g>
			<circle style="fill:#14635B;" cx="55" cy="47" r="4"/>
		</g>
		<g>
			<path style="fill:#3E948B;" d="M55,43c-2.209,0-4,1.791-4,4c0,1.111,0.454,2.115,1.185,2.839l5.654-5.654
				C57.115,43.454,56.111,43,55,43z"/>
		</g>
	</g>
</g>
<g id="Red" style="display:none;">
	<g style="display:inline;">
		<g>
			<path style="fill:#FFD7D4;" d="M57.646,49.874c-0.707,0.627-1.627,1.02-2.646,1.02c-1.019,0-1.94-0.393-2.646-1.02L47,82.894h16
				L57.646,49.874z"/>
		</g>
		<g>
			<path style="fill:#FFFFFF;" d="M55,50.894c-1.019,0-1.94-0.393-2.646-1.02L47,82.894h8V50.894z"/>
		</g>
		<g>
			<path style="fill:#FFFFFF;" d="M58.998,46.894c2.086-8.035-0.053-20.027-3.583-23.273c-0.359-0.331-0.821-0.525-1.287-0.381
				c-0.467,0.144-0.802,0.555-0.849,1.041l-2.203,22.614H58.998z"/>
		</g>
		<g>
			<path style="fill:#FFFFFF;" d="M53.071,50.396c6.032,5.704,17.568,9.616,22.114,8.091c0.463-0.155,0.856-0.466,0.955-0.944
				c0.099-0.479-0.099-0.97-0.502-1.246l-18.745-12.84L53.071,50.396z"/>
		</g>
		<g>
			<path style="fill:#FFFFFF;" d="M52.863,43.515c-7.906,2.531-16.899,10.748-17.757,15.466c-0.087,0.481-0.005,0.975,0.366,1.292
				c0.371,0.318,0.897,0.381,1.333,0.162L57.097,50.21L52.863,43.515z"/>
		</g>
		<g>
			<path style="fill:#FFFFFF;" d="M71,86.894H39c0-2.209,1.791-4,4-4h24C69.209,82.894,71,84.685,71,86.894z"/>
		</g>
		<g>
			<path style="fill:#FFEFED;" d="M45.2,36.731c0,2.303-1.859,4.163-4.162,4.163H27.163c-2.303,0-4.163-1.859-4.163-4.163
				c0-2.843,2.775-4.148,4.301-4.148c0.638-3.177,3.441-5.564,6.799-5.564c3.358,0,6.161,2.387,6.799,5.564
				C42.425,32.583,45.2,33.89,45.2,36.731z"/>
		</g>
		<g>
			<path style="fill:#FFEFED;" d="M87,42.731c0,2.303-1.859,4.163-4.163,4.163H68.962c-2.303,0-4.163-1.859-4.163-4.163
				c0-2.843,2.775-4.148,4.301-4.148c0.638-3.177,3.441-5.564,6.799-5.564c3.358,0,6.161,2.387,6.799,5.564
				C84.225,38.583,87,39.89,87,42.731z"/>
		</g>
		<g>
			<path style="fill:#FFFFFF;" d="M34.1,27.019c-3.358,0-6.161,2.387-6.799,5.564c-1.526,0-4.301,1.306-4.301,4.148
				c0,2.26,1.793,4.083,4.037,4.15L38.917,29C37.668,27.785,35.979,27.019,34.1,27.019z"/>
		</g>
		<g>
			<path style="fill:#FFFFFF;" d="M75.9,33.032c-3.358,0-6.161,2.387-6.799,5.564c-1.526,0-4.301,1.306-4.301,4.148
				c0,2.26,1.793,4.083,4.037,4.15l11.881-11.881C79.469,33.797,77.78,33.032,75.9,33.032z"/>
		</g>
		<g>
			<circle style="fill:#7D261E;" cx="55" cy="46.894" r="4"/>
		</g>
		<g>
			<path style="fill:#B84E44;" d="M55,42.894c-2.209,0-4,1.791-4,4c0,1.111,0.454,2.115,1.185,2.839l5.654-5.654
				C57.115,43.348,56.111,42.894,55,42.894z"/>
		</g>
	</g>
</g>
<g id="R-Red" style="display:none;">
	<circle style="display:inline;fill:#FABBAF;" cx="55" cy="55" r="55"/>
	<g style="display:inline;">
		<g>
			<path style="fill:#FFD7D4;" d="M57.646,49.979C56.938,50.607,56.019,51,55,51c-1.019,0-1.94-0.393-2.646-1.021L47,83h16
				L57.646,49.979z"/>
		</g>
		<g>
			<path style="fill:#FFFFFF;" d="M55,51c-1.019,0-1.94-0.393-2.646-1.021L47,83h8V51z"/>
		</g>
		<g>
			<path style="fill:#FFFFFF;" d="M58.998,47c2.086-8.035-0.053-20.027-3.583-23.273c-0.359-0.331-0.821-0.525-1.287-0.381
				c-0.467,0.144-0.802,0.555-0.849,1.041L51.077,47H58.998z"/>
		</g>
		<g>
			<path style="fill:#FFFFFF;" d="M53.071,50.502c6.032,5.704,17.568,9.616,22.114,8.091c0.463-0.155,0.856-0.466,0.955-0.944
				c0.099-0.478-0.099-0.97-0.502-1.246l-18.745-12.84L53.071,50.502z"/>
		</g>
		<g>
			<path style="fill:#FFFFFF;" d="M52.863,43.621c-7.906,2.531-16.899,10.748-17.757,15.466c-0.087,0.481-0.005,0.975,0.366,1.292
				c0.371,0.318,0.897,0.381,1.333,0.162l20.291-10.224L52.863,43.621z"/>
		</g>
		<g>
			<path style="fill:#FFFFFF;" d="M71,87H39c0-2.209,1.791-4,4-4h24C69.209,83,71,84.791,71,87z"/>
		</g>
		<g>
			<path style="fill:#FFEFED;" d="M45.2,36.837c0,2.303-1.859,4.163-4.162,4.163H27.163C24.859,41,23,39.141,23,36.837
				c0-2.843,2.775-4.148,4.301-4.148c0.638-3.177,3.441-5.564,6.799-5.564c3.358,0,6.161,2.387,6.799,5.564
				C42.425,32.689,45.2,33.996,45.2,36.837z"/>
		</g>
		<g>
			<path style="fill:#FFEFED;" d="M87,42.837C87,45.141,85.141,47,82.837,47H68.962c-2.303,0-4.163-1.859-4.163-4.163
				c0-2.843,2.775-4.148,4.301-4.148c0.638-3.177,3.441-5.564,6.799-5.564c3.358,0,6.161,2.387,6.799,5.564
				C84.225,38.689,87,39.996,87,42.837z"/>
		</g>
		<g>
			<path style="fill:#FFFFFF;" d="M34.1,27.125c-3.358,0-6.161,2.387-6.799,5.564c-1.526,0-4.301,1.306-4.301,4.148
				c0,2.26,1.793,4.083,4.037,4.15l11.88-11.881C37.668,27.891,35.979,27.125,34.1,27.125z"/>
		</g>
		<g>
			<path style="fill:#FFFFFF;" d="M75.9,33.138c-3.358,0-6.161,2.387-6.799,5.564c-1.526,0-4.301,1.306-4.301,4.148
				c0,2.26,1.793,4.082,4.037,4.15l11.881-11.881C79.469,33.903,77.78,33.138,75.9,33.138z"/>
		</g>
		<g>
			<circle style="fill:#7D261E;" cx="55" cy="47" r="4"/>
		</g>
		<g>
			<path style="fill:#B84E44;" d="M55,43c-2.209,0-4,1.791-4,4c0,1.111,0.454,2.115,1.185,2.839l5.654-5.654
				C57.115,43.454,56.111,43,55,43z"/>
		</g>
	</g>
</g>
<g id="Yellow" style="display:none;">
	<g style="display:inline;">
		<g>
			<path style="fill:#FFE9A1;" d="M57.646,49.98C56.938,50.607,56.019,51,55,51c-1.019,0-1.939-0.393-2.646-1.021L47,83h16
				L57.646,49.98z"/>
		</g>
		<g>
			<path style="fill:#FFFFFF;" d="M55,51c-1.019,0-1.939-0.393-2.646-1.021L47,83h8V51z"/>
		</g>
		<g>
			<path style="fill:#FFFFFF;" d="M58.999,47c2.086-8.035-0.053-20.027-3.583-23.273c-0.359-0.331-0.821-0.525-1.287-0.381
				c-0.467,0.144-0.802,0.555-0.849,1.041L51.077,47H58.999z"/>
		</g>
		<g>
			<path style="fill:#FFFFFF;" d="M53.071,50.503c6.032,5.704,17.568,9.616,22.114,8.091c0.463-0.155,0.856-0.466,0.955-0.944
				c0.099-0.478-0.099-0.97-0.502-1.246l-18.745-12.84L53.071,50.503z"/>
		</g>
		<g>
			<path style="fill:#FFFFFF;" d="M52.863,43.621c-7.906,2.531-16.899,10.748-17.757,15.466c-0.087,0.481-0.005,0.975,0.366,1.292
				c0.371,0.318,0.897,0.381,1.333,0.162l20.291-10.224L52.863,43.621z"/>
		</g>
		<g>
			<path style="fill:#FFFFFF;" d="M71,87H39c0-2.209,1.791-4,4-4h24C69.209,83,71,84.791,71,87z"/>
		</g>
		<g>
			<path style="fill:#FFF5D9;" d="M45.2,36.838c0,2.303-1.859,4.163-4.162,4.163H27.163C24.859,41,23,39.141,23,36.838
				c0-2.843,2.775-4.148,4.301-4.148c0.638-3.177,3.441-5.564,6.799-5.564c3.358,0,6.161,2.387,6.799,5.564
				C42.425,32.689,45.2,33.996,45.2,36.838z"/>
		</g>
		<g>
			<path style="fill:#FFF5D9;" d="M87,42.838C87,45.141,85.141,47,82.837,47H68.962c-2.303,0-4.163-1.859-4.163-4.163
				c0-2.843,2.775-4.148,4.301-4.148c0.638-3.177,3.441-5.564,6.799-5.564c3.358,0,6.161,2.387,6.799,5.564
				C84.225,38.689,87,39.996,87,42.838z"/>
		</g>
		<g>
			<path style="fill:#FFFFFF;" d="M34.1,27.125c-3.358,0-6.161,2.387-6.799,5.564c-1.526,0-4.301,1.306-4.301,4.148
				c0,2.26,1.793,4.082,4.037,4.15l11.88-11.881C37.668,27.891,35.979,27.125,34.1,27.125z"/>
		</g>
		<g>
			<path style="fill:#FFFFFF;" d="M75.9,33.138c-3.358,0-6.161,2.387-6.799,5.564c-1.526,0-4.301,1.306-4.301,4.148
				c0,2.26,1.794,4.083,4.037,4.15l11.881-11.881C79.469,33.904,77.78,33.138,75.9,33.138z"/>
		</g>
		<g>
			<circle style="fill:#66510D;" cx="55" cy="47" r="4"/>
		</g>
		<g>
			<path style="fill:#947615;" d="M55,43c-2.209,0-4,1.791-4,4c0,1.111,0.454,2.115,1.185,2.839l5.654-5.654
				C57.115,43.454,56.111,43,55,43z"/>
		</g>
	</g>
</g>
<g id="R-Yellow" style="display:none;">
	<circle style="display:inline;fill:#FFD75E;" cx="55" cy="55" r="55"/>
	<g style="display:inline;">
		<g>
			<path style="fill:#FFE9A1;" d="M57.645,49.979C56.938,50.607,56.019,51,55,51c-1.019,0-1.939-0.393-2.646-1.021L47,83h16
				L57.645,49.979z"/>
		</g>
		<g>
			<path style="fill:#FFFFFF;" d="M55,51c-1.019,0-1.939-0.393-2.646-1.021L47,83h8V51z"/>
		</g>
		<g>
			<path style="fill:#FFFFFF;" d="M58.998,47c2.086-8.035-0.053-20.027-3.583-23.273c-0.359-0.331-0.821-0.525-1.287-0.381
				c-0.467,0.144-0.802,0.555-0.849,1.041L51.077,47H58.998z"/>
		</g>
		<g>
			<path style="fill:#FFFFFF;" d="M53.071,50.502c6.032,5.704,17.568,9.616,22.114,8.091c0.463-0.155,0.856-0.466,0.956-0.944
				c0.099-0.478-0.099-0.97-0.502-1.246l-18.745-12.84L53.071,50.502z"/>
		</g>
		<g>
			<path style="fill:#FFFFFF;" d="M52.863,43.621c-7.906,2.531-16.899,10.748-17.757,15.466c-0.087,0.481-0.005,0.975,0.366,1.292
				c0.371,0.318,0.897,0.381,1.333,0.162l20.291-10.224L52.863,43.621z"/>
		</g>
		<g>
			<path style="fill:#FFFFFF;" d="M71,87H39c0-2.209,1.791-4,4-4h24C69.209,83,71,84.791,71,87z"/>
		</g>
		<g>
			<path style="fill:#FFF5D9;" d="M45.2,36.837c0,2.303-1.859,4.163-4.162,4.163H27.163C24.859,41,23,39.141,23,36.837
				c0-2.843,2.775-4.148,4.301-4.148c0.638-3.177,3.441-5.564,6.799-5.564s6.161,2.387,6.799,5.564
				C42.425,32.689,45.2,33.996,45.2,36.837z"/>
		</g>
		<g>
			<path style="fill:#FFF5D9;" d="M87,42.837C87,45.141,85.141,47,82.837,47H68.962c-2.303,0-4.163-1.859-4.163-4.163
				c0-2.843,2.775-4.148,4.301-4.148c0.638-3.177,3.441-5.564,6.799-5.564c3.358,0,6.161,2.387,6.799,5.564
				C84.225,38.689,87,39.996,87,42.837z"/>
		</g>
		<g>
			<path style="fill:#FFFFFF;" d="M34.1,27.125c-3.358,0-6.161,2.387-6.799,5.564c-1.526,0-4.301,1.306-4.301,4.148
				c0,2.26,1.794,4.082,4.037,4.15l11.88-11.881C37.668,27.891,35.979,27.125,34.1,27.125z"/>
		</g>
		<g>
			<path style="fill:#FFFFFF;" d="M75.9,33.138c-3.358,0-6.161,2.387-6.799,5.564c-1.526,0-4.301,1.306-4.301,4.148
				c0,2.26,1.794,4.083,4.037,4.15l11.881-11.881C79.469,33.903,77.78,33.138,75.9,33.138z"/>
		</g>
		<g>
			<circle style="fill:#66510D;" cx="55" cy="47" r="4"/>
		</g>
		<g>
			<path style="fill:#947615;" d="M55,43c-2.209,0-4,1.791-4,4c0,1.111,0.454,2.115,1.185,2.839l5.654-5.654
				C57.115,43.454,56.111,43,55,43z"/>
		</g>
	</g>
</g>
</svg>
