<?xml version="1.0" encoding="iso-8859-1"?>
<!-- Generator: Adobe Illustrator 17.1.0, SVG Export Plug-In . SVG Version: 6.00 Build 0)  -->
<!DOCTYPE svg PUBLIC "-//W3C//DTD SVG 1.0//EN" "http://www.w3.org/TR/2001/REC-SVG-20010904/DTD/svg10.dtd">
<svg version="1.0" xmlns="http://www.w3.org/2000/svg" xmlns:xlink="http://www.w3.org/1999/xlink" x="0px" y="0px" width="110px"
	 height="110px" viewBox="0 0 110 110" style="enable-background:new 0 0 110 110;" xml:space="preserve">
<g id="Artboard" style="display:none;">
	
		<rect x="-1078.5" y="-58.5" style="display:inline;fill:#808080;stroke:#000000;stroke-miterlimit:10;" width="1365" height="351"/>
</g>
<g id="R-Multicolor" style="display:none;">
	<circle style="display:inline;fill:#FABC3D;" cx="55" cy="55" r="55"/>
	<g style="display:inline;">
		<g>
			<path style="fill:#FFFFFF;" d="M25.44,49.62c1.65,1.43,4.14,1.26,5.59-0.37C35.27,44.51,39,46,39,46s-2,4-1,12
				c-6.675,3.337-8.475,12.934-8.889,16.024c1.359,1.4,3.388,2.641,5.923,3.673C35.691,64.875,46,63,46,63c3,2,13,2,17,0
				c3,7,8.31,5.16,12,7c2.978,1.489,3.184,4.639,3.095,6.152c1.499-0.892,2.699-1.879,3.504-2.952
				c0.358-0.477,0.833-0.812,1.353-1.005C82.649,69.172,80.746,64.831,78,63c4.64-10.83-0.02-15.27-7-16.77
				c-5.01-1.07-11.2-0.62-16.01,0.08C53.5,46.53,52.14,46.77,51,47c0-10.76-5.737-15.99-13.49-15.99c-3.51,0-6.414,2.198-8.62,4.74
				c-2.51,2.88-4.36,6.45-4.87,8.83c-0.35,1.69-0.34,3.42,0.92,4.59C25.09,49.32,25.26,49.47,25.44,49.62z"/>
		</g>
		<g>
			<path style="fill:#84462D;" d="M54.99,46.31C53.5,46.53,52.14,46.77,51,47c0-10.76-5.737-15.99-13.49-15.99
				c-3.51,0-6.411,2.195-8.62,4.74C28.8,33.06,29.66,27,39,27C50.61,27,54.73,39.18,54.99,46.31z"/>
		</g>
		<g>
			<path style="fill:#84462D;" d="M73.417,46.912c4.824,1.728,7.791,5.421,5.814,12.602C81.861,63.556,84.813,67,87,67
				C87,47.313,82.153,45.07,73.417,46.912z"/>
		</g>
		<g>
			<path style="fill:#DF2C2C;" d="M71,46.23V55c0,2.209-1.791,4-4,4H55c-2.209,0-4-1.791-4-4v-8C55.84,46.03,64.44,44.83,71,46.23z"
				/>
		</g>
		<g>
			<circle style="fill:#9C6144;" cx="33" cy="38" r="2"/>
		</g>
		<g>
			<g>
				<path style="fill:#9C6144;" d="M55,87c-11.481,0-25.76-2.68-31.4-10.2c-0.994-1.325-0.725-3.206,0.601-4.2
					c1.324-0.994,3.205-0.726,4.2,0.6C31.899,77.865,42.588,81,55,81s23.101-3.135,26.6-7.8c0.995-1.326,2.877-1.594,4.2-0.6
					c1.325,0.994,1.595,2.875,0.601,4.2C80.759,84.32,66.481,87,55,87z"/>
			</g>
		</g>
		<g>
			<path style="fill:#9C6144;" d="M39,27c-9.34,0-10.2,6.06-10.11,8.75c2.209-2.545,5.11-4.74,8.62-4.74
				c6.796,0,12.041,4.02,13.233,12.258l3.205-3.205C52.095,33.695,47.608,27,39,27z"/>
		</g>
		<g>
			<path style="fill:#FA5655;" d="M51,47v8c0,1.107,0.451,2.109,1.178,2.833l12.241-12.241C59.425,45.559,54.325,46.333,51,47z"/>
		</g>
	</g>
</g>
<g id="Multicolor">
	<g>
		<g>
			<path style="fill:#FFFFFF;" d="M25.44,49.62c1.65,1.43,4.14,1.26,5.59-0.37C35.27,44.51,39,46,39,46s-2,4-1,12
				c-6.675,3.337-8.475,12.934-8.889,16.024c1.359,1.4,3.388,2.641,5.923,3.673C35.691,64.875,46,63,46,63c3,2,13,2,17,0
				c3,7,8.31,5.16,12,7c2.978,1.489,3.184,4.639,3.095,6.152c1.499-0.892,2.699-1.879,3.504-2.952
				c0.358-0.477,0.833-0.812,1.353-1.005C82.649,69.172,80.746,64.831,78,63c4.64-10.83-0.02-15.27-7-16.77
				c-5.01-1.07-11.2-0.62-16.01,0.08C53.5,46.53,52.14,46.77,51,47c0-10.76-5.737-15.99-13.49-15.99c-3.51,0-6.414,2.198-8.62,4.74
				c-2.51,2.88-4.36,6.45-4.87,8.83c-0.35,1.69-0.34,3.42,0.92,4.59C25.09,49.32,25.26,49.47,25.44,49.62z"/>
		</g>
		<g>
			<path style="fill:#84462D;" d="M54.99,46.31C53.5,46.53,52.14,46.77,51,47c0-10.76-5.737-15.99-13.49-15.99
				c-3.51,0-6.411,2.195-8.62,4.74C28.8,33.06,29.66,27,39,27C50.61,27,54.73,39.18,54.99,46.31z"/>
		</g>
		<g>
			<path style="fill:#84462D;" d="M73.417,46.912c4.824,1.728,7.791,5.421,5.814,12.602C81.861,63.556,84.813,67,87,67
				C87,47.313,82.153,45.07,73.417,46.912z"/>
		</g>
		<g>
			<path style="fill:#DF2C2C;" d="M71,46.23V55c0,2.209-1.791,4-4,4H55c-2.209,0-4-1.791-4-4v-8C55.84,46.03,64.44,44.83,71,46.23z"
				/>
		</g>
		<g>
			<circle style="fill:#9C6144;" cx="33" cy="38" r="2"/>
		</g>
		<g>
			<g>
				<path style="fill:#9C6144;" d="M55,87c-11.481,0-25.76-2.68-31.4-10.2c-0.994-1.325-0.725-3.206,0.601-4.2
					c1.324-0.994,3.205-0.726,4.2,0.6C31.899,77.865,42.588,81,55,81s23.101-3.135,26.6-7.8c0.995-1.326,2.877-1.594,4.2-0.6
					c1.325,0.994,1.595,2.875,0.601,4.2C80.759,84.32,66.481,87,55,87z"/>
			</g>
		</g>
		<g>
			<path style="fill:#9C6144;" d="M39,27c-9.34,0-10.2,6.06-10.11,8.75c2.209-2.545,5.11-4.74,8.62-4.74
				c6.796,0,12.041,4.02,13.233,12.258l3.205-3.205C52.095,33.695,47.608,27,39,27z"/>
		</g>
		<g>
			<path style="fill:#FA5655;" d="M51,47v8c0,1.107,0.451,2.109,1.178,2.833l12.241-12.241C59.425,45.559,54.325,46.333,51,47z"/>
		</g>
	</g>
</g>
<g id="Blue" style="display:none;">
	<g style="display:inline;">
		<g>
			<path style="fill:#FFFFFF;" d="M25.44,49.62c1.65,1.43,4.141,1.26,5.591-0.37C35.27,44.51,39,46,39,46s-2,4-1,12
				c-6.675,3.337-8.475,12.935-8.889,16.024c1.358,1.399,3.387,2.641,5.922,3.672C35.691,64.875,46,63,46,63c3,2,13,2,17,0
				c3,7,8.311,5.16,12,7c2.978,1.489,3.184,4.639,3.095,6.151c1.499-0.891,2.7-1.878,3.505-2.951
				c0.357-0.477,0.832-0.812,1.354-1.006C82.649,69.172,80.746,64.831,78,63c4.641-10.83-0.02-15.271-7-16.771
				c-5.01-1.069-11.2-0.619-16.01,0.08C53.5,46.53,52.141,46.771,51,47c0-10.76-5.737-15.99-13.49-15.99
				c-3.51,0-6.414,2.198-8.619,4.74c-2.511,2.88-4.36,6.45-4.871,8.83c-0.35,1.69-0.34,3.42,0.92,4.59
				C25.09,49.32,25.26,49.47,25.44,49.62z"/>
		</g>
		<g>
			<path style="fill:#0F6175;" d="M54.99,46.31C53.5,46.53,52.141,46.771,51,47c0-10.76-5.737-15.99-13.49-15.99
				c-3.51,0-6.411,2.195-8.619,4.74C28.8,33.06,29.66,27,39,27C50.609,27,54.73,39.18,54.99,46.31z"/>
		</g>
		<g>
			<path style="fill:#0F6175;" d="M73.417,46.912c4.825,1.727,7.792,5.421,5.813,12.602C81.861,63.556,84.812,67,87,67
				C87,47.313,82.152,45.07,73.417,46.912z"/>
		</g>
		<g>
			<path style="fill:#0081A1;" d="M71,46.229V55c0,2.209-1.791,4-4,4H55c-2.209,0-4-1.791-4-4v-8
				C55.84,46.03,64.439,44.83,71,46.229z"/>
		</g>
		<g>
			<circle style="fill:#0F6175;" cx="33" cy="38" r="2"/>
		</g>
		<g>
			<g>
				<path style="fill:#0C333D;" d="M55,87c-11.482,0-25.76-2.68-31.4-10.2c-0.994-1.325-0.725-3.205,0.6-4.199
					c1.324-0.994,3.205-0.727,4.201,0.6C31.898,77.865,42.588,81,55,81c12.41,0,23.1-3.135,26.6-7.8
					c0.994-1.326,2.877-1.594,4.199-0.6c1.326,0.994,1.596,2.874,0.602,4.199C80.76,84.32,66.48,87,55,87z"/>
			</g>
		</g>
		<g>
			<path style="fill:#009FC7;" d="M51,47v8c0,1.107,0.451,2.109,1.178,2.833l12.24-12.24C59.425,45.559,54.325,46.333,51,47z"/>
		</g>
	</g>
</g>
<g id="R-Blue" style="display:none;">
	<circle style="display:inline;fill:#81D2EB;" cx="55" cy="55" r="55"/>
	<g style="display:inline;">
		<g>
			<path style="fill:#FFFFFF;" d="M25.439,49.62c1.65,1.43,4.141,1.26,5.591-0.37C35.27,44.51,39,46,39,46s-2,4-1,12
				c-6.675,3.337-8.475,12.935-8.889,16.024c1.358,1.399,3.387,2.641,5.922,3.672C35.691,64.875,46,63,46,63c3,2,13,2,17,0
				c3,7,8.311,5.16,12,7c2.978,1.489,3.184,4.639,3.095,6.151c1.499-0.891,2.7-1.878,3.505-2.951
				c0.357-0.477,0.832-0.812,1.354-1.006C82.649,69.172,80.746,64.831,78,63c4.641-10.83-0.02-15.271-7-16.771
				c-5.01-1.069-11.2-0.619-16.01,0.08C53.5,46.53,52.141,46.771,51,47c0-10.76-5.737-15.99-13.49-15.99
				c-3.51,0-6.414,2.198-8.619,4.74c-2.511,2.88-4.36,6.45-4.871,8.83c-0.35,1.69-0.34,3.42,0.92,4.59
				C25.09,49.32,25.26,49.47,25.439,49.62z"/>
		</g>
		<g>
			<path style="fill:#0F6175;" d="M54.99,46.31C53.5,46.53,52.141,46.771,51,47c0-10.76-5.737-15.99-13.49-15.99
				c-3.51,0-6.411,2.195-8.619,4.74C28.8,33.06,29.66,27,39,27C50.609,27,54.73,39.18,54.99,46.31z"/>
		</g>
		<g>
			<path style="fill:#0F6175;" d="M73.417,46.912c4.825,1.727,7.792,5.421,5.813,12.602C81.861,63.556,84.812,67,87,67
				C87,47.313,82.152,45.07,73.417,46.912z"/>
		</g>
		<g>
			<path style="fill:#0081A1;" d="M71,46.229V55c0,2.209-1.791,4-4,4H55c-2.209,0-4-1.791-4-4v-8
				C55.84,46.03,64.439,44.83,71,46.229z"/>
		</g>
		<g>
			<circle style="fill:#0F6175;" cx="33" cy="38" r="2"/>
		</g>
		<g>
			<g>
				<path style="fill:#0C333D;" d="M55,87c-11.482,0-25.76-2.68-31.4-10.2c-0.994-1.325-0.725-3.205,0.6-4.199
					c1.324-0.994,3.205-0.727,4.201,0.6C31.898,77.865,42.588,81,55,81c12.41,0,23.1-3.135,26.6-7.8
					c0.994-1.326,2.877-1.594,4.199-0.6c1.326,0.994,1.596,2.874,0.602,4.199C80.76,84.32,66.48,87,55,87z"/>
			</g>
		</g>
		<g>
			<path style="fill:#009FC7;" d="M51,47v8c0,1.107,0.451,2.109,1.178,2.833l12.24-12.24C59.425,45.559,54.325,46.333,51,47z"/>
		</g>
	</g>
</g>
<g id="Green" style="display:none;">
	<g style="display:inline;">
		<g>
			<path style="fill:#FFFFFF;" d="M25.44,49.62c1.65,1.43,4.141,1.26,5.591-0.37C35.27,44.51,39,46,39,46s-2,4-1,12
				c-6.675,3.337-8.475,12.935-8.889,16.024c1.358,1.399,3.387,2.641,5.922,3.672C35.691,64.875,46,63,46,63c3,2,13,2,17,0
				c3,7,8.311,5.16,12,7c2.978,1.489,3.184,4.639,3.095,6.151c1.499-0.891,2.7-1.878,3.505-2.951
				c0.357-0.477,0.832-0.812,1.354-1.006C82.649,69.172,80.746,64.831,78,63c4.641-10.83-0.02-15.271-7-16.771
				c-5.01-1.069-11.2-0.619-16.01,0.08C53.5,46.53,52.141,46.771,51,47c0-10.76-5.737-15.99-13.49-15.99
				c-3.51,0-6.414,2.198-8.619,4.74c-2.511,2.88-4.36,6.45-4.871,8.83c-0.35,1.69-0.34,3.42,0.92,4.59
				C25.09,49.32,25.26,49.47,25.44,49.62z"/>
		</g>
		<g>
			<path style="fill:#14635B;" d="M54.99,46.31C53.5,46.53,52.141,46.771,51,47c0-10.76-5.737-15.99-13.49-15.99
				c-3.51,0-6.411,2.195-8.619,4.74C28.8,33.06,29.66,27,39,27C50.609,27,54.73,39.18,54.99,46.31z"/>
		</g>
		<g>
			<path style="fill:#14635B;" d="M73.417,46.912c4.825,1.727,7.792,5.421,5.813,12.602C81.861,63.556,84.812,67,87,67
				C87,47.313,82.152,45.07,73.417,46.912z"/>
		</g>
		<g>
			<path style="fill:#009687;" d="M71,46.229V55c0,2.209-1.791,4-4,4H55c-2.209,0-4-1.791-4-4v-8
				C55.84,46.03,64.439,44.83,71,46.229z"/>
		</g>
		<g>
			<circle style="fill:#14635B;" cx="33" cy="38" r="2"/>
		</g>
		<g>
			<g>
				<path style="fill:#0A3631;" d="M55,87c-11.482,0-25.76-2.68-31.4-10.2c-0.994-1.325-0.725-3.205,0.6-4.199
					c1.324-0.994,3.205-0.727,4.201,0.6C31.898,77.865,42.588,81,55,81c12.41,0,23.1-3.135,26.6-7.8
					c0.994-1.326,2.877-1.594,4.199-0.6c1.326,0.994,1.596,2.874,0.602,4.199C80.76,84.32,66.48,87,55,87z"/>
			</g>
		</g>
		<g>
			<path style="fill:#00B8A5;" d="M51,47v8c0,1.107,0.451,2.109,1.178,2.833l12.24-12.24C59.425,45.559,54.325,46.333,51,47z"/>
		</g>
	</g>
</g>
<g id="R-Green" style="display:none;">
	<circle style="display:inline;fill:#77E0C4;" cx="55" cy="55" r="55"/>
	<g style="display:inline;">
		<g>
			<path style="fill:#FFFFFF;" d="M25.44,49.62c1.65,1.43,4.141,1.26,5.591-0.37C35.27,44.51,39,46,39,46s-2,4-1,12
				c-6.675,3.337-8.475,12.935-8.889,16.024c1.358,1.399,3.387,2.641,5.922,3.672C35.691,64.875,46,63,46,63c3,2,13,2,17,0
				c3,7,8.311,5.16,12,7c2.978,1.489,3.184,4.639,3.095,6.151c1.499-0.891,2.7-1.878,3.505-2.951
				c0.357-0.477,0.832-0.812,1.354-1.006C82.649,69.172,80.746,64.831,78,63c4.641-10.83-0.02-15.271-7-16.771
				c-5.01-1.069-11.2-0.619-16.01,0.08C53.5,46.53,52.141,46.771,51,47c0-10.76-5.737-15.99-13.49-15.99
				c-3.51,0-6.414,2.198-8.619,4.74c-2.511,2.88-4.36,6.45-4.871,8.83c-0.35,1.69-0.34,3.42,0.92,4.59
				C25.09,49.32,25.26,49.47,25.44,49.62z"/>
		</g>
		<g>
			<path style="fill:#14635B;" d="M54.99,46.31C53.5,46.53,52.141,46.771,51,47c0-10.76-5.737-15.99-13.49-15.99
				c-3.51,0-6.411,2.195-8.619,4.74C28.8,33.06,29.66,27,39,27C50.609,27,54.73,39.18,54.99,46.31z"/>
		</g>
		<g>
			<path style="fill:#14635B;" d="M73.417,46.912c4.825,1.728,7.792,5.421,5.813,12.603C81.861,63.556,84.812,67,87,67
				C87,47.313,82.152,45.07,73.417,46.912z"/>
		</g>
		<g>
			<path style="fill:#009687;" d="M71,46.229V55c0,2.209-1.791,4-4,4H55c-2.209,0-4-1.791-4-4v-8
				C55.84,46.03,64.439,44.83,71,46.229z"/>
		</g>
		<g>
			<circle style="fill:#14635B;" cx="33" cy="38" r="2"/>
		</g>
		<g>
			<g>
				<path style="fill:#0A3631;" d="M55,87c-11.482,0-25.76-2.68-31.4-10.2c-0.994-1.325-0.725-3.205,0.6-4.199
					c1.324-0.994,3.205-0.727,4.201,0.6C31.898,77.865,42.588,81,55,81c12.41,0,23.1-3.135,26.6-7.8
					c0.994-1.326,2.877-1.594,4.199-0.6c1.326,0.994,1.596,2.874,0.602,4.199C80.76,84.32,66.48,87,55,87z"/>
			</g>
		</g>
		<g>
			<path style="fill:#00B8A5;" d="M51,47v8c0,1.107,0.451,2.109,1.178,2.833l12.24-12.24C59.425,45.559,54.325,46.333,51,47z"/>
		</g>
	</g>
</g>
<g id="Red" style="display:none;">
	<g style="display:inline;">
		<g>
			<path style="fill:#FFFFFF;" d="M25.439,49.62c1.65,1.43,4.141,1.26,5.591-0.37C35.269,44.51,39,46,39,46s-2,4-1,12
				c-6.675,3.337-8.475,12.935-8.889,16.024c1.358,1.399,3.387,2.641,5.922,3.672C35.691,64.875,46,63,46,63c3,2,13,2,17,0
				c3,7,8.31,5.16,12,7c2.978,1.489,3.184,4.639,3.095,6.151c1.499-0.891,2.7-1.878,3.505-2.951
				c0.357-0.477,0.832-0.811,1.354-1.006C82.649,69.172,80.746,64.831,78,63c4.641-10.83-0.02-15.271-7-16.771
				c-5.01-1.069-11.2-0.619-16.01,0.08C53.5,46.53,52.141,46.771,51,47c0-10.76-5.737-15.99-13.49-15.99
				c-3.51,0-6.414,2.198-8.619,4.74c-2.511,2.88-4.36,6.45-4.871,8.83c-0.35,1.69-0.34,3.42,0.92,4.59
				C25.09,49.32,25.26,49.47,25.439,49.62z"/>
		</g>
		<g>
			<path style="fill:#7D261E;" d="M54.99,46.31C53.5,46.53,52.141,46.771,51,47c0-10.76-5.737-15.99-13.49-15.99
				c-3.51,0-6.411,2.195-8.619,4.74C28.8,33.06,29.66,27,39,27C50.609,27,54.73,39.18,54.99,46.31z"/>
		</g>
		<g>
			<path style="fill:#7D261E;" d="M73.417,46.912c4.825,1.728,7.792,5.421,5.813,12.603C81.861,63.556,84.812,67,87,67
				C87,47.314,82.152,45.07,73.417,46.912z"/>
		</g>
		<g>
			<path style="fill:#C23023;" d="M71,46.229V55c0,2.209-1.791,4-4,4H55c-2.209,0-4-1.791-4-4v-8
				C55.84,46.03,64.439,44.83,71,46.229z"/>
		</g>
		<g>
			<circle style="fill:#7D261E;" cx="33" cy="38" r="2"/>
		</g>
		<g>
			<g>
				<path style="fill:#4A1410;" d="M55,87c-11.482,0-25.76-2.68-31.4-10.2c-0.994-1.325-0.725-3.205,0.6-4.199
					c1.324-0.994,3.205-0.727,4.201,0.6C31.898,77.865,42.588,81,55,81c12.41,0,23.1-3.135,26.6-7.8
					c0.994-1.326,2.877-1.594,4.199-0.6c1.326,0.994,1.596,2.874,0.602,4.199C80.76,84.32,66.48,87,55,87z"/>
			</g>
		</g>
		<g>
			<path style="fill:#E54B44;" d="M51,47v8c0,1.107,0.451,2.109,1.178,2.833l12.24-12.24C59.425,45.559,54.325,46.333,51,47z"/>
		</g>
	</g>
</g>
<g id="R-Red" style="display:none;">
	<circle style="display:inline;fill:#FABBAF;" cx="55" cy="55" r="55"/>
	<g style="display:inline;">
		<g>
			<path style="fill:#FFFFFF;" d="M25.439,49.62c1.65,1.43,4.141,1.26,5.591-0.37C35.269,44.51,39,46,39,46s-2,4-1,12
				c-6.675,3.337-8.475,12.935-8.889,16.024c1.358,1.399,3.387,2.641,5.922,3.672C35.691,64.875,46,63,46,63c3,2,13,2,17,0
				c3,7,8.31,5.16,12,7c2.978,1.489,3.184,4.639,3.095,6.151c1.499-0.891,2.7-1.878,3.505-2.951
				c0.357-0.477,0.832-0.811,1.354-1.006C82.649,69.172,80.746,64.831,78,63c4.641-10.83-0.02-15.271-7-16.771
				c-5.01-1.069-11.2-0.619-16.01,0.08C53.5,46.53,52.141,46.771,51,47c0-10.76-5.737-15.99-13.49-15.99
				c-3.51,0-6.414,2.198-8.619,4.74c-2.511,2.88-4.36,6.45-4.871,8.83c-0.35,1.69-0.34,3.42,0.92,4.59
				C25.09,49.32,25.26,49.47,25.439,49.62z"/>
		</g>
		<g>
			<path style="fill:#7D261E;" d="M54.99,46.31C53.5,46.53,52.141,46.771,51,47c0-10.76-5.737-15.99-13.49-15.99
				c-3.51,0-6.411,2.195-8.619,4.74C28.8,33.06,29.66,27,39,27C50.609,27,54.73,39.18,54.99,46.31z"/>
		</g>
		<g>
			<path style="fill:#7D261E;" d="M73.417,46.912c4.825,1.728,7.792,5.421,5.813,12.603C81.861,63.556,84.812,67,87,67
				C87,47.314,82.152,45.07,73.417,46.912z"/>
		</g>
		<g>
			<path style="fill:#C23023;" d="M71,46.229V55c0,2.209-1.791,4-4,4H55c-2.209,0-4-1.791-4-4v-8
				C55.84,46.03,64.439,44.83,71,46.229z"/>
		</g>
		<g>
			<circle style="fill:#7D261E;" cx="33" cy="38" r="2"/>
		</g>
		<g>
			<g>
				<path style="fill:#4A1410;" d="M55,87c-11.482,0-25.76-2.68-31.4-10.2c-0.994-1.325-0.725-3.205,0.6-4.199
					c1.324-0.994,3.205-0.727,4.201,0.6C31.898,77.865,42.588,81,55,81c12.41,0,23.1-3.135,26.6-7.8
					c0.994-1.326,2.877-1.594,4.199-0.6c1.326,0.994,1.596,2.874,0.602,4.199C80.76,84.32,66.48,87,55,87z"/>
			</g>
		</g>
		<g>
			<path style="fill:#E54B44;" d="M51,47v8c0,1.107,0.451,2.109,1.178,2.833l12.24-12.24C59.425,45.559,54.325,46.333,51,47z"/>
		</g>
	</g>
</g>
<g id="Yellow" style="display:none;">
	<g style="display:inline;">
		<g>
			<path style="fill:#FFFFFF;" d="M25.439,49.62c1.65,1.43,4.141,1.26,5.591-0.37C35.27,44.51,39,46,39,46s-2,4-1,12
				c-6.675,3.337-8.475,12.935-8.889,16.024c1.358,1.399,3.387,2.641,5.922,3.672C35.691,64.875,46,63,46,63c3,2,13,2,17,0
				c3,7,8.311,5.16,12,7c2.978,1.489,3.184,4.639,3.095,6.151c1.499-0.891,2.7-1.878,3.505-2.951
				c0.357-0.477,0.832-0.812,1.354-1.006C82.649,69.172,80.746,64.831,78,63c4.641-10.83-0.02-15.271-7-16.771
				c-5.01-1.069-11.2-0.619-16.01,0.08C53.5,46.53,52.141,46.771,51,47c0-10.76-5.737-15.99-13.49-15.99
				c-3.51,0-6.414,2.198-8.619,4.74c-2.511,2.88-4.36,6.45-4.871,8.83c-0.35,1.69-0.34,3.42,0.92,4.59
				C25.09,49.32,25.26,49.47,25.439,49.62z"/>
		</g>
		<g>
			<path style="fill:#66510D;" d="M54.99,46.31C53.5,46.53,52.141,46.771,51,47c0-10.76-5.737-15.99-13.49-15.99
				c-3.51,0-6.411,2.195-8.619,4.74C28.8,33.06,29.66,27,39,27C50.609,27,54.73,39.18,54.99,46.31z"/>
		</g>
		<g>
			<path style="fill:#66510D;" d="M73.417,46.912c4.825,1.727,7.792,5.421,5.813,12.602C81.861,63.556,84.812,67,87,67
				C87,47.313,82.152,45.07,73.417,46.912z"/>
		</g>
		<g>
			<path style="fill:#E07000;" d="M71,46.229V55c0,2.209-1.791,4-4,4H55c-2.209,0-4-1.791-4-4v-8
				C55.84,46.03,64.439,44.83,71,46.229z"/>
		</g>
		<g>
			<circle style="fill:#66510D;" cx="33" cy="38" r="2"/>
		</g>
		<g>
			<g>
				<path style="fill:#3D320C;" d="M55,87c-11.482,0-25.76-2.68-31.4-10.2c-0.994-1.325-0.725-3.205,0.6-4.199
					c1.324-0.994,3.205-0.727,4.201,0.6C31.898,77.865,42.588,81,55,81c12.41,0,23.1-3.135,26.6-7.8
					c0.994-1.326,2.877-1.594,4.199-0.6c1.326,0.994,1.596,2.874,0.602,4.199C80.76,84.32,66.48,87,55,87z"/>
			</g>
		</g>
		<g>
			<path style="fill:#FA9200;" d="M51,47v8c0,1.107,0.451,2.109,1.178,2.833l12.24-12.24C59.425,45.559,54.325,46.333,51,47z"/>
		</g>
	</g>
</g>
<g id="R-Yellow" style="display:none;">
	<circle style="display:inline;fill:#FFD75E;" cx="55" cy="55" r="55"/>
	<g style="display:inline;">
		<g>
			<path style="fill:#FFFFFF;" d="M25.44,49.62c1.65,1.43,4.141,1.26,5.591-0.37C35.27,44.51,39,46,39,46s-2,4-1,12
				c-6.675,3.337-8.475,12.935-8.889,16.024c1.358,1.399,3.387,2.641,5.922,3.672C35.691,64.875,46,63,46,63c3,2,13,2,17,0
				c3,7,8.311,5.16,12,7c2.978,1.489,3.184,4.639,3.095,6.151c1.499-0.891,2.7-1.878,3.505-2.951
				c0.357-0.477,0.832-0.812,1.354-1.006C82.649,69.172,80.746,64.831,78,63c4.641-10.83-0.02-15.271-7-16.771
				c-5.01-1.069-11.2-0.619-16.01,0.08C53.5,46.53,52.141,46.771,51,47c0-10.76-5.737-15.99-13.49-15.99
				c-3.51,0-6.414,2.198-8.619,4.74c-2.511,2.88-4.36,6.45-4.871,8.83c-0.35,1.69-0.34,3.42,0.92,4.59
				C25.09,49.32,25.26,49.47,25.44,49.62z"/>
		</g>
		<g>
			<path style="fill:#66510D;" d="M54.99,46.31C53.5,46.53,52.141,46.771,51,47c0-10.76-5.737-15.99-13.49-15.99
				c-3.51,0-6.411,2.195-8.619,4.74C28.8,33.06,29.66,27,39,27C50.609,27,54.73,39.18,54.99,46.31z"/>
		</g>
		<g>
			<path style="fill:#66510D;" d="M73.417,46.912c4.825,1.728,7.792,5.421,5.813,12.603C81.861,63.556,84.812,67,87,67
				C87,47.313,82.152,45.07,73.417,46.912z"/>
		</g>
		<g>
			<path style="fill:#E07000;" d="M71,46.229V55c0,2.209-1.791,4-4,4H55c-2.209,0-4-1.791-4-4v-8
				C55.84,46.03,64.439,44.83,71,46.229z"/>
		</g>
		<g>
			<circle style="fill:#66510D;" cx="33" cy="38" r="2"/>
		</g>
		<g>
			<g>
				<path style="fill:#3D320C;" d="M55,87c-11.482,0-25.76-2.68-31.4-10.2c-0.994-1.325-0.725-3.205,0.6-4.199
					c1.324-0.994,3.205-0.727,4.201,0.6C31.898,77.865,42.588,81,55,81c12.41,0,23.1-3.135,26.6-7.8
					c0.994-1.326,2.877-1.594,4.199-0.6c1.326,0.994,1.596,2.874,0.602,4.199C80.76,84.32,66.48,87,55,87z"/>
			</g>
		</g>
		<g>
			<path style="fill:#FA9200;" d="M51,47v8c0,1.107,0.451,2.109,1.178,2.833l12.24-12.24C59.425,45.559,54.325,46.333,51,47z"/>
		</g>
	</g>
</g>
</svg>
